<?xml version="1.0" standalone="no"?>
<!DOCTYPE svg PUBLIC "-//W3C//DTD SVG 1.1//EN" "http://www.w3.org/Graphics/SVG/1.1/DTD/svg11.dtd" >
<svg>
<metadata>
Created by FontForge 20090622 at Wed Feb 27 13:34:38 2019
 By deploy user
Copyright (c) 2017 Rolls-Royce PLC. All rights reserved.
</metadata>
<defs>
<font id="RRPioneer-Regular" horiz-adv-x="0" >
  <font-face 
    font-family="RR Pioneer"
    font-weight="400"
    font-stretch="normal"
    units-per-em="1000"
    panose-1="2 11 5 3 5 2 1 4 1 3"
    ascent="790"
    descent="-210"
    x-height="490"
    cap-height="700"
    bbox="-690 -246 1258 930"
    underline-thickness="62"
    underline-position="-98"
    unicode-range="U+0020-U+FB02"
  />
<missing-glyph horiz-adv-x="652" 
d="M93 700h466v-700h-466v700zM483 646h-314l157 -269zM310 350l-161 276v-552zM503 626l-161 -276l161 -276v552zM483 54l-157 269l-157 -269h314z" />
    <glyph glyph-name="fi" unicode="fi" horiz-adv-x="580" 
d="M493 0h-82v424h-232v-424h-82v424h-69v66h69v81q0 69 40 106t106 37q41 0 69 -14v-74q-28 16 -66 16q-31 0 -49 -19.5t-18 -55.5v-77h314v-490zM507 657v-86h-110v86h110z" />
    <glyph glyph-name="fl" unicode="fl" horiz-adv-x="584" 
d="M137 677q40 37 106 37q41 0 69 -14v-74q-28 16 -66 16q-31 0 -49 -19.5t-18 -55.5v-77h119v-66h-119v-424h-82v424h-69v66h69v81q0 69 40 106zM546 69v-66q-21 -10 -52 -10q-41 0 -62 26t-21 71v610h82v-604q0 -15 8 -24t21 -9q11 0 24 6z" />
    <glyph glyph-name=".notdef" horiz-adv-x="652" 
d="M93 700h466v-700h-466v700zM483 646h-314l157 -269zM310 350l-161 276v-552zM503 626l-161 -276l161 -276v552zM483 54l-157 269l-157 -269h314z" />
    <glyph glyph-name="space" unicode=" " horiz-adv-x="278" 
d="M0 0z" />
    <glyph glyph-name="A" unicode="A" horiz-adv-x="648" 
d="M472 172h-296l-64 -172h-89l264 700h74l264 -700h-89zM445 246l-121 327l-121 -327h242z" />
    <glyph glyph-name="Aacute" unicode="&#xc1;" horiz-adv-x="648" 
d="M472 172h-296l-64 -172h-89l264 700h74l264 -700h-89zM445 246l-121 327l-121 -327h242zM354 910h88l-84 -136h-68z" />
    <glyph glyph-name="Abreve" unicode="&#x102;" horiz-adv-x="648" 
d="M472 172h-296l-64 -172h-89l264 700h74l264 -700h-89zM445 246l-121 327l-121 -327h242zM249.5 804q-28.5 27 -28.5 75h58q0 -22 12 -36t33 -14t33 14t12 36h58q0 -48 -28.5 -75t-74.5 -27t-74.5 27z" />
    <glyph glyph-name="Acircumflex" unicode="&#xc2;" horiz-adv-x="648" 
d="M472 172h-296l-64 -172h-89l264 700h74l264 -700h-89zM445 246l-121 327l-121 -327h242zM284 910h80l104 -136h-72l-72 83l-72 -83h-72z" />
    <glyph glyph-name="Adieresis" unicode="&#xc4;" horiz-adv-x="648" 
d="M472 172h-296l-64 -172h-89l264 700h74l264 -700h-89zM445 246l-121 327l-121 -327h242zM198 877h94v-80h-94v80zM356 877h94v-80h-94v80z" />
    <glyph glyph-name="Agrave" unicode="&#xc0;" horiz-adv-x="648" 
d="M472 172h-296l-64 -172h-89l264 700h74l264 -700h-89zM445 246l-121 327l-121 -327h242zM206 910h88l64 -136h-68z" />
    <glyph glyph-name="Amacron" unicode="&#x100;" horiz-adv-x="648" 
d="M472 172h-296l-64 -172h-89l264 700h74l264 -700h-89zM445 246l-121 327l-121 -327h242zM216 862h216v-64h-216v64z" />
    <glyph glyph-name="Aogonek" unicode="&#x104;" horiz-adv-x="648" 
d="M472 172h-296l-64 -172h-89l264 700h74l264 -700h-89zM445 246l-121 327l-121 -327h242zM525.5 -172q-23.5 24 -23.5 68q0 32 14.5 59t36.5 45h72q-31 -25 -46 -47.5t-15 -50.5q0 -19 10.5 -29.5t27.5 -10.5q12 0 20 2.5t17 9.5v-60q-21 -10 -50 -10q-40 0 -63.5 24z" />
    <glyph glyph-name="Aring" unicode="&#xc5;" horiz-adv-x="648" 
d="M472 172h-296l-64 -172h-89l264 700h74l264 -700h-89zM445 246l-121 327l-121 -327h242zM262.5 782.5q-24.5 24.5 -24.5 61.5t24.5 61.5t61.5 24.5t61.5 -24.5t24.5 -61.5t-24.5 -61.5t-61.5 -24.5t-61.5 24.5zM355.5 812.5q12.5 12.5 12.5 31.5t-12.5 31.5t-31.5 12.5
t-31.5 -12.5t-12.5 -31.5t12.5 -31.5t31.5 -12.5t31.5 12.5z" />
    <glyph glyph-name="Atilde" unicode="&#xc3;" horiz-adv-x="648" 
d="M472 172h-296l-64 -172h-89l264 700h74l264 -700h-89zM445 246l-121 327l-121 -327h242zM158 828q15 25 44 41.5t65 16.5q19 0 34 -5t32 -15q17 -8 27 -12t22 -4q41 0 72 38l36 -43q-14 -25 -43 -42t-66 -17q-19 0 -33 5t-33 15q-15 8 -25.5 12t-22.5 4q-43 0 -73 -37z
" />
    <glyph glyph-name="AE" unicode="&#xc6;" horiz-adv-x="937" 
d="M536 626v-227h269v-74h-269v-251h357v-74h-443v172h-255l-82 -172h-90l336 700h534v-74h-357zM450 246v380h-40l-180 -380h220z" />
    <glyph glyph-name="B" unicode="B" horiz-adv-x="646" 
d="M93 700h260q102 0 157.5 -48t55.5 -134q0 -51 -25 -88t-65 -56q118 -49 118 -178q0 -93 -58 -144.5t-156 -51.5h-287v700zM353 398q60 0 93.5 30t33.5 84t-33.5 84t-93.5 30h-174v-228h174zM378 74q60 0 95 33.5t35 91.5q0 59 -34.5 92t-95.5 33h-199v-250h199z" />
    <glyph glyph-name="C" unicode="C" horiz-adv-x="711" 
d="M213 34q-74 48 -114.5 130.5t-40.5 185.5t40.5 185.5t114.5 130.5t172 48q102 0 175 -45.5t105 -134.5l-72 -34q-25 68 -80.5 104t-127.5 36q-74 0 -128 -38.5t-82.5 -105t-28.5 -146.5t28.5 -146.5t82.5 -105t128 -38.5t124.5 34.5t81.5 102.5l71 -33
q-38 -86 -107.5 -132t-169.5 -46q-98 0 -172 48z" />
    <glyph glyph-name="Cacute" unicode="&#x106;" horiz-adv-x="711" 
d="M213 34q-74 48 -114.5 130.5t-40.5 185.5t40.5 185.5t114.5 130.5t172 48q102 0 175 -45.5t105 -134.5l-72 -34q-25 68 -80.5 104t-127.5 36q-74 0 -128 -38.5t-82.5 -105t-28.5 -146.5t28.5 -146.5t82.5 -105t128 -38.5t124.5 34.5t81.5 102.5l71 -33
q-38 -86 -107.5 -132t-169.5 -46q-98 0 -172 48zM415 910h88l-84 -136h-68z" />
    <glyph glyph-name="Ccaron" unicode="&#x10c;" horiz-adv-x="711" 
d="M213 34q-74 48 -114.5 130.5t-40.5 185.5t40.5 185.5t114.5 130.5t172 48q102 0 175 -45.5t105 -134.5l-72 -34q-25 68 -80.5 104t-127.5 36q-74 0 -128 -38.5t-82.5 -105t-28.5 -146.5t28.5 -146.5t82.5 -105t128 -38.5t124.5 34.5t81.5 102.5l71 -33
q-38 -86 -107.5 -132t-169.5 -46q-98 0 -172 48zM241 910h72l72 -83l72 83h72l-104 -136h-80z" />
    <glyph glyph-name="Ccedilla" unicode="&#xc7;" horiz-adv-x="711" 
d="M213 34q-74 48 -114.5 130.5t-40.5 185.5t40.5 185.5t114.5 130.5t172 48q102 0 175 -45.5t105 -134.5l-72 -34q-25 68 -80.5 104t-127.5 36q-74 0 -128 -38.5t-82.5 -105t-28.5 -146.5t28.5 -146.5t82.5 -105t128 -38.5t124.5 34.5t81.5 102.5l71 -33
q-38 -86 -107.5 -132t-169.5 -46q-98 0 -172 48zM323 -213q-24 11 -40 29l30 39q25 -29 62 -29q52 0 52 42t-45 42q-14 0 -26 -6.5t-19 -16.5l-38 17l26 96h52l-34 -70q19 24 58 24t62.5 -22.5t23.5 -64.5q0 -45 -29.5 -68t-80.5 -23q-30 0 -54 11z" />
    <glyph glyph-name="D" unicode="D" horiz-adv-x="694" 
d="M93 700h204q103 0 179.5 -43.5t118 -122.5t41.5 -184t-41.5 -184t-118 -122.5t-179.5 -43.5h-204v700zM297 74q78 0 135 35t86.5 97.5t29.5 143.5t-29.5 143.5t-86.5 97.5t-135 35h-118v-552h118z" />
    <glyph glyph-name="Eth" unicode="&#xd0;" horiz-adv-x="694" 
d="M93 700h204q103 0 179.5 -43.5t118 -122.5t41.5 -184t-41.5 -184t-118 -122.5t-179.5 -43.5h-204v700zM297 74q78 0 135 35t86.5 97.5t29.5 143.5t-29.5 143.5t-86.5 97.5t-135 35h-118v-552h118zM21 385h322v-70h-322v70z" />
    <glyph glyph-name="Dcaron" unicode="&#x10e;" horiz-adv-x="694" 
d="M93 700h204q103 0 179.5 -43.5t118 -122.5t41.5 -184t-41.5 -184t-118 -122.5t-179.5 -43.5h-204v700zM297 74q78 0 135 35t86.5 97.5t29.5 143.5t-29.5 143.5t-86.5 97.5t-135 35h-118v-552h118zM107 910h72l72 -83l72 83h72l-104 -136h-80z" />
    <glyph glyph-name="Dcroat" unicode="&#x110;" horiz-adv-x="694" 
d="M93 700h204q103 0 179.5 -43.5t118 -122.5t41.5 -184t-41.5 -184t-118 -122.5t-179.5 -43.5h-204v700zM297 74q78 0 135 35t86.5 97.5t29.5 143.5t-29.5 143.5t-86.5 97.5t-135 35h-118v-552h118zM21 385h322v-70h-322v70z" />
    <glyph glyph-name="E" unicode="E" horiz-adv-x="581" 
d="M179 626v-227h269v-74h-269v-251h358v-74h-444v700h444v-74h-358z" />
    <glyph glyph-name="Eacute" unicode="&#xc9;" horiz-adv-x="581" 
d="M179 626v-227h269v-74h-269v-251h358v-74h-444v700h444v-74h-358zM345 910h88l-84 -136h-68z" />
    <glyph glyph-name="Ecaron" unicode="&#x11a;" horiz-adv-x="581" 
d="M179 626v-227h269v-74h-269v-251h358v-74h-444v700h444v-74h-358zM171 910h72l72 -83l72 83h72l-104 -136h-80z" />
    <glyph glyph-name="Ecircumflex" unicode="&#xca;" horiz-adv-x="581" 
d="M179 626v-227h269v-74h-269v-251h358v-74h-444v700h444v-74h-358zM275 910h80l104 -136h-72l-72 83l-72 -83h-72z" />
    <glyph glyph-name="Edieresis" unicode="&#xcb;" horiz-adv-x="581" 
d="M179 626v-227h269v-74h-269v-251h358v-74h-444v700h444v-74h-358zM189 877h94v-80h-94v80zM347 877h94v-80h-94v80z" />
    <glyph glyph-name="Edotaccent" unicode="&#x116;" horiz-adv-x="581" 
d="M179 626v-227h269v-74h-269v-251h358v-74h-444v700h444v-74h-358zM260 867h110v-86h-110v86z" />
    <glyph glyph-name="Egrave" unicode="&#xc8;" horiz-adv-x="581" 
d="M179 626v-227h269v-74h-269v-251h358v-74h-444v700h444v-74h-358zM197 910h88l64 -136h-68z" />
    <glyph glyph-name="Emacron" unicode="&#x112;" horiz-adv-x="581" 
d="M179 626v-227h269v-74h-269v-251h358v-74h-444v700h444v-74h-358zM207 862h216v-64h-216v64z" />
    <glyph glyph-name="Eogonek" unicode="&#x118;" horiz-adv-x="581" 
d="M179 626v-227h269v-74h-269v-251h358v-74h-444v700h444v-74h-358zM437.5 -172q-23.5 24 -23.5 68q0 32 14.5 59t36.5 45h72q-31 -25 -46 -47.5t-15 -50.5q0 -19 10.5 -29.5t27.5 -10.5q12 0 20 2.5t17 9.5v-60q-21 -10 -50 -10q-40 0 -63.5 24z" />
    <glyph glyph-name="F" unicode="F" horiz-adv-x="583" 
d="M179 626v-254h293v-74h-293v-298h-86v700h444v-74h-358z" />
    <glyph glyph-name="G" unicode="G" horiz-adv-x="742" 
d="M218 34q-76 48 -118 131t-42 185t42 185t118.5 131t174.5 48q199 0 269 -164l-66 -40q-28 65 -80 97.5t-123 32.5q-74 0 -130.5 -39t-86.5 -105t-30 -146t29.5 -146t85.5 -105t130 -39q67 0 114 21t87 61v157h-212v72h292v-265q-59 -61 -123 -90.5t-158 -29.5
q-97 0 -173 48z" />
    <glyph glyph-name="Gbreve" unicode="&#x11e;" horiz-adv-x="742" 
d="M218 34q-76 48 -118 131t-42 185t42 185t118.5 131t174.5 48q199 0 269 -164l-66 -40q-28 65 -80 97.5t-123 32.5q-74 0 -130.5 -39t-86.5 -105t-30 -146t29.5 -146t85.5 -105t130 -39q67 0 114 21t87 61v157h-212v72h292v-265q-59 -61 -123 -90.5t-158 -29.5
q-97 0 -173 48zM318.5 804q-28.5 27 -28.5 75h58q0 -22 12 -36t33 -14t33 14t12 36h58q0 -48 -28.5 -75t-74.5 -27t-74.5 27z" />
    <glyph glyph-name="Gcommaaccent" unicode="&#x122;" horiz-adv-x="742" 
d="M218 34q-76 48 -118 131t-42 185t42 185t118.5 131t174.5 48q199 0 269 -164l-66 -40q-28 65 -80 97.5t-123 32.5q-74 0 -130.5 -39t-86.5 -105t-30 -146t29.5 -146t85.5 -105t130 -39q67 0 114 21t87 61v157h-212v72h292v-265q-59 -61 -123 -90.5t-158 -29.5
q-97 0 -173 48zM343 -205q29 11 43 27t14 48h-63v82h110v-82q0 -51 -22.5 -75t-64.5 -41z" />
    <glyph glyph-name="H" unicode="H" horiz-adv-x="712" 
d="M619 700v-700h-86v324h-354v-324h-86v700h86v-302h354v302h86z" />
    <glyph glyph-name="Hbar" unicode="&#x126;" horiz-adv-x="712" 
d="M619 700v-700h-86v324h-354v-324h-86v700h86v-302h354v302h86zM23 584h666v-70h-666v70z" />
    <glyph glyph-name="I" unicode="I" horiz-adv-x="272" 
d="M93 700h86v-700h-86v700z" />
    <glyph glyph-name="Iacute" unicode="&#xcd;" horiz-adv-x="272" 
d="M93 700h86v-700h-86v700zM166 910h88l-84 -136h-68z" />
    <glyph glyph-name="Icircumflex" unicode="&#xce;" horiz-adv-x="272" 
d="M93 700h86v-700h-86v700zM96 910h80l104 -136h-72l-72 83l-72 -83h-72z" />
    <glyph glyph-name="Idieresis" unicode="&#xcf;" horiz-adv-x="272" 
d="M93 700h86v-700h-86v700zM10 877h94v-80h-94v80zM168 877h94v-80h-94v80z" />
    <glyph glyph-name="Idotaccent" unicode="&#x130;" horiz-adv-x="272" 
d="M93 700h86v-700h-86v700zM81 867h110v-86h-110v86z" />
    <glyph glyph-name="Igrave" unicode="&#xcc;" horiz-adv-x="272" 
d="M93 700h86v-700h-86v700zM18 910h88l64 -136h-68z" />
    <glyph glyph-name="Imacron" unicode="&#x12a;" horiz-adv-x="272" 
d="M93 700h86v-700h-86v700zM28 862h216v-64h-216v64z" />
    <glyph glyph-name="Iogonek" unicode="&#x12e;" horiz-adv-x="272" 
d="M93 700h86v-700h-86v700zM79.5 -172q-23.5 24 -23.5 68q0 32 14.5 59t36.5 45h72q-31 -25 -46 -47.5t-15 -50.5q0 -19 10.5 -29.5t27.5 -10.5q12 0 20 2.5t17 9.5v-60q-21 -10 -50 -10q-40 0 -63.5 24z" />
    <glyph glyph-name="J" unicode="J" horiz-adv-x="501" 
d="M102 11.5q-47 25.5 -74 68.5l46 66q57 -86 138 -86q54 0 87 37.5t33 117.5v485h86v-485q0 -115 -54.5 -172t-151.5 -57q-63 0 -110 25.5z" />
    <glyph glyph-name="K" unicode="K" horiz-adv-x="606" 
d="M255 358l-76 -81v-277h-86v700h86v-317l287 317h105l-256 -277l282 -423h-101z" />
    <glyph glyph-name="Kcommaaccent" unicode="&#x136;" horiz-adv-x="606" 
d="M255 358l-76 -81v-277h-86v700h86v-317l287 317h105l-256 -277l282 -423h-101zM280 -205q29 11 43 27t14 48h-63v82h110v-82q0 -51 -22.5 -75t-64.5 -41z" />
    <glyph glyph-name="L" unicode="L" horiz-adv-x="536" 
d="M501 74v-74h-408v700h86v-626h322z" />
    <glyph glyph-name="Lacute" unicode="&#x139;" horiz-adv-x="536" 
d="M501 74v-74h-408v700h86v-626h322zM166 910h88l-84 -136h-68z" />
    <glyph glyph-name="Lcaron" unicode="&#x13d;" horiz-adv-x="536" 
d="M501 74v-74h-408v700h86v-626h322zM384 531q36 11 52.5 30.5t16.5 52.5h-62v86h110v-86q0 -102 -100 -131z" />
    <glyph glyph-name="Lcommaaccent" unicode="&#x13b;" horiz-adv-x="536" 
d="M501 74v-74h-408v700h86v-626h322zM248 -205q29 11 43 27t14 48h-63v82h110v-82q0 -51 -22.5 -75t-64.5 -41z" />
    <glyph glyph-name="Lslash" unicode="&#x141;" horiz-adv-x="536" 
d="M501 74v-74h-408v700h86v-626h322zM1 293l299 172l34 -58l-299 -172z" />
    <glyph glyph-name="M" unicode="M" horiz-adv-x="864" 
d="M93 700h78l261 -540l261 540h78v-700h-84v511l-223 -454h-64l-223 454v-511h-84v700z" />
    <glyph glyph-name="N" unicode="N" horiz-adv-x="742" 
d="M93 700h75l397 -552v552h84v-700h-75l-397 552v-552h-84v700z" />
    <glyph glyph-name="Nacute" unicode="&#x143;" horiz-adv-x="742" 
d="M93 700h75l397 -552v552h84v-700h-75l-397 552v-552h-84v700zM401 910h88l-84 -136h-68z" />
    <glyph glyph-name="Ncaron" unicode="&#x147;" horiz-adv-x="742" 
d="M93 700h75l397 -552v552h84v-700h-75l-397 552v-552h-84v700zM227 910h72l72 -83l72 83h72l-104 -136h-80z" />
    <glyph glyph-name="Ncommaaccent" unicode="&#x145;" horiz-adv-x="742" 
d="M93 700h75l397 -552v552h84v-700h-75l-397 552v-552h-84v700zM322 -205q29 11 43 27t14 48h-63v82h110v-82q0 -51 -22.5 -75t-64.5 -41z" />
    <glyph glyph-name="Ntilde" unicode="&#xd1;" horiz-adv-x="742" 
d="M93 700h75l397 -552v552h84v-700h-75l-397 552v-552h-84v700zM205 828q15 25 44 41.5t65 16.5q19 0 34 -5t32 -15q17 -8 27 -12t22 -4q41 0 72 38l36 -43q-14 -25 -43 -42t-66 -17q-19 0 -33 5t-33 15q-15 8 -25.5 12t-22.5 4q-43 0 -73 -37z" />
    <glyph glyph-name="O" unicode="O" horiz-adv-x="770" 
d="M212 32.5q-74 46.5 -114 129.5t-40 188t40 188t114 129.5t173 46.5t173 -46.5t114 -129.5t40 -188t-40 -188t-114 -129.5t-173 -46.5t-173 46.5zM512.5 98q54.5 38 83 104t28.5 148t-28.5 148t-83 104t-127.5 38t-127.5 -38t-83 -104t-28.5 -148t28.5 -148t83 -104
t127.5 -38t127.5 38z" />
    <glyph glyph-name="Oacute" unicode="&#xd3;" horiz-adv-x="770" 
d="M212 32.5q-74 46.5 -114 129.5t-40 188t40 188t114 129.5t173 46.5t173 -46.5t114 -129.5t40 -188t-40 -188t-114 -129.5t-173 -46.5t-173 46.5zM512.5 98q54.5 38 83 104t28.5 148t-28.5 148t-83 104t-127.5 38t-127.5 -38t-83 -104t-28.5 -148t28.5 -148t83 -104
t127.5 -38t127.5 38zM415 910h88l-84 -136h-68z" />
    <glyph glyph-name="Ocircumflex" unicode="&#xd4;" horiz-adv-x="770" 
d="M212 32.5q-74 46.5 -114 129.5t-40 188t40 188t114 129.5t173 46.5t173 -46.5t114 -129.5t40 -188t-40 -188t-114 -129.5t-173 -46.5t-173 46.5zM512.5 98q54.5 38 83 104t28.5 148t-28.5 148t-83 104t-127.5 38t-127.5 -38t-83 -104t-28.5 -148t28.5 -148t83 -104
t127.5 -38t127.5 38zM345 910h80l104 -136h-72l-72 83l-72 -83h-72z" />
    <glyph glyph-name="Odieresis" unicode="&#xd6;" horiz-adv-x="770" 
d="M212 32.5q-74 46.5 -114 129.5t-40 188t40 188t114 129.5t173 46.5t173 -46.5t114 -129.5t40 -188t-40 -188t-114 -129.5t-173 -46.5t-173 46.5zM512.5 98q54.5 38 83 104t28.5 148t-28.5 148t-83 104t-127.5 38t-127.5 -38t-83 -104t-28.5 -148t28.5 -148t83 -104
t127.5 -38t127.5 38zM259 877h94v-80h-94v80zM417 877h94v-80h-94v80z" />
    <glyph glyph-name="Ograve" unicode="&#xd2;" horiz-adv-x="770" 
d="M212 32.5q-74 46.5 -114 129.5t-40 188t40 188t114 129.5t173 46.5t173 -46.5t114 -129.5t40 -188t-40 -188t-114 -129.5t-173 -46.5t-173 46.5zM512.5 98q54.5 38 83 104t28.5 148t-28.5 148t-83 104t-127.5 38t-127.5 -38t-83 -104t-28.5 -148t28.5 -148t83 -104
t127.5 -38t127.5 38zM267 910h88l64 -136h-68z" />
    <glyph glyph-name="Ohungarumlaut" unicode="&#x150;" horiz-adv-x="770" 
d="M212 32.5q-74 46.5 -114 129.5t-40 188t40 188t114 129.5t173 46.5t173 -46.5t114 -129.5t40 -188t-40 -188t-114 -129.5t-173 -46.5t-173 46.5zM512.5 98q54.5 38 83 104t28.5 148t-28.5 148t-83 104t-127.5 38t-127.5 -38t-83 -104t-28.5 -148t28.5 -148t83 -104
t127.5 -38t127.5 38zM333 910h88l-84 -136h-68zM487 910h88l-84 -136h-68z" />
    <glyph glyph-name="Omacron" unicode="&#x14c;" horiz-adv-x="770" 
d="M212 32.5q-74 46.5 -114 129.5t-40 188t40 188t114 129.5t173 46.5t173 -46.5t114 -129.5t40 -188t-40 -188t-114 -129.5t-173 -46.5t-173 46.5zM512.5 98q54.5 38 83 104t28.5 148t-28.5 148t-83 104t-127.5 38t-127.5 -38t-83 -104t-28.5 -148t28.5 -148t83 -104
t127.5 -38t127.5 38zM277 862h216v-64h-216v64z" />
    <glyph glyph-name="Oslash" unicode="&#xd8;" horiz-adv-x="770" 
d="M183 53l-54 -64l-56 47l59 70q-36 47 -55 109.5t-19 134.5q0 105 40 188t114 129.5t173 46.5q119 0 202 -67l54 64l56 -47l-59 -70q36 -47 55 -109.5t19 -134.5q0 -105 -40 -188t-114 -129.5t-173 -46.5q-119 0 -202 67zM535 584q-62 56 -150 56q-73 0 -127.5 -38
t-83 -104t-28.5 -148q0 -102 43 -176zM512.5 98q54.5 38 83 104t28.5 148q0 102 -43 176l-346 -410q62 -56 150 -56q73 0 127.5 38z" />
    <glyph glyph-name="Otilde" unicode="&#xd5;" horiz-adv-x="770" 
d="M212 32.5q-74 46.5 -114 129.5t-40 188t40 188t114 129.5t173 46.5t173 -46.5t114 -129.5t40 -188t-40 -188t-114 -129.5t-173 -46.5t-173 46.5zM512.5 98q54.5 38 83 104t28.5 148t-28.5 148t-83 104t-127.5 38t-127.5 -38t-83 -104t-28.5 -148t28.5 -148t83 -104
t127.5 -38t127.5 38zM219 828q15 25 44 41.5t65 16.5q19 0 34 -5t32 -15q17 -8 27 -12t22 -4q41 0 72 38l36 -43q-14 -25 -43 -42t-66 -17q-19 0 -33 5t-33 15q-15 8 -25.5 12t-22.5 4q-43 0 -73 -37z" />
    <glyph glyph-name="OE" unicode="&#x152;" horiz-adv-x="1114" 
d="M210.5 32.5q-73.5 46.5 -113 129.5t-39.5 188t39.5 188t113 129.5t170.5 46.5q82 0 144 -32.5t101 -97.5v116h444v-74h-358v-227h269v-74h-269v-251h358v-74h-444v116q-39 -65 -101 -97.5t-144 -32.5q-97 0 -170.5 46.5zM512.5 98q54.5 38 83 104t28.5 148t-28.5 148
t-83 104t-127.5 38t-127.5 -38t-83 -104t-28.5 -148t28.5 -148t83 -104t127.5 -38t127.5 38z" />
    <glyph glyph-name="P" unicode="P" horiz-adv-x="624" 
d="M93 700h268q107 0 164 -54t57 -150t-57 -150t-164 -54h-182v-292h-86v700zM362 364q68 0 102.5 34t34.5 98t-34.5 98t-102.5 34h-183v-264h183z" />
    <glyph glyph-name="Thorn" unicode="&#xde;" horiz-adv-x="579" 
d="M93 700h86v-146h138q106 0 163 -54t57 -150t-57 -150t-163 -54h-138v-146h-86v700zM317 218q68 0 102 33.5t34 98.5t-34 98.5t-102 33.5h-138v-264h138z" />
    <glyph glyph-name="Q" unicode="Q" horiz-adv-x="770" 
d="M743 -10l-19 -72q-16 -9 -38 -9q-60 0 -99.5 26t-68.5 77q-60 -26 -133 -26q-99 0 -173 46.5t-114 129.5t-40 188t40 188t114 129.5t173 46.5t173 -46.5t114 -129.5t40 -188q0 -95 -32.5 -172t-93.5 -125q21 -37 49 -55.5t73 -18.5q19 0 35 11zM167.5 221
q21.5 -59 61.5 -99q17 53 58 83t96 30q54 0 93 -27.5t70 -80.5q38 39 58 97t20 126q0 82 -28.5 148t-83 104t-127.5 38t-127.5 -38t-83 -104t-28.5 -148q0 -70 21.5 -129zM385 60q55 0 98 21q-24 45 -48 64.5t-58 19.5q-32 0 -55.5 -21t-34.5 -63q45 -21 98 -21z" />
    <glyph glyph-name="R" unicode="R" horiz-adv-x="652" 
d="M93 700h285q96 0 150 -50t54 -134q0 -66 -40 -111.5t-96 -55.5q42 -15 65 -83l65 -198q13 -42 38 -68h-91q-17 17 -30 55l-67 196q-13 38 -30.5 54.5t-55.5 16.5h-161v-322h-86v700zM375 394q123 0 123 117t-123 117h-196v-234h196z" />
    <glyph glyph-name="Racute" unicode="&#x154;" horiz-adv-x="652" 
d="M93 700h285q96 0 150 -50t54 -134q0 -66 -40 -111.5t-96 -55.5q42 -15 65 -83l65 -198q13 -42 38 -68h-91q-17 17 -30 55l-67 196q-13 38 -30.5 54.5t-55.5 16.5h-161v-322h-86v700zM375 394q123 0 123 117t-123 117h-196v-234h196zM336 910h88l-84 -136h-68z" />
    <glyph glyph-name="Rcaron" unicode="&#x158;" horiz-adv-x="652" 
d="M93 700h285q96 0 150 -50t54 -134q0 -66 -40 -111.5t-96 -55.5q42 -15 65 -83l65 -198q13 -42 38 -68h-91q-17 17 -30 55l-67 196q-13 38 -30.5 54.5t-55.5 16.5h-161v-322h-86v700zM375 394q123 0 123 117t-123 117h-196v-234h196zM162 910h72l72 -83l72 83h72
l-104 -136h-80z" />
    <glyph glyph-name="Rcommaaccent" unicode="&#x156;" horiz-adv-x="652" 
d="M93 700h285q96 0 150 -50t54 -134q0 -66 -40 -111.5t-96 -55.5q42 -15 65 -83l65 -198q13 -42 38 -68h-91q-17 17 -30 55l-67 196q-13 38 -30.5 54.5t-55.5 16.5h-161v-322h-86v700zM375 394q123 0 123 117t-123 117h-196v-234h196zM277 -205q29 11 43 27t14 48h-63v82
h110v-82q0 -51 -22.5 -75t-64.5 -41z" />
    <glyph glyph-name="S" unicode="S" horiz-adv-x="544" 
d="M132 14q-61 28 -91 71l27 94q43 -61 89.5 -90t108.5 -29q63 0 102 34t39 90q0 58 -33 90.5t-120 53.5q-200 50 -200 204q0 55 29.5 96.5t80 63.5t110.5 22t110 -19t84 -47l-26 -81q-80 73 -167 73q-57 0 -97 -28.5t-40 -77.5q0 -52 38 -84.5t126 -55.5q99 -26 146 -74
t47 -128q0 -62 -30 -108.5t-82.5 -72t-116.5 -25.5q-73 0 -134 28z" />
    <glyph glyph-name="Sacute" unicode="&#x15a;" horiz-adv-x="544" 
d="M132 14q-61 28 -91 71l27 94q43 -61 89.5 -90t108.5 -29q63 0 102 34t39 90q0 58 -33 90.5t-120 53.5q-200 50 -200 204q0 55 29.5 96.5t80 63.5t110.5 22t110 -19t84 -47l-26 -81q-80 73 -167 73q-57 0 -97 -28.5t-40 -77.5q0 -52 38 -84.5t126 -55.5q99 -26 146 -74
t47 -128q0 -62 -30 -108.5t-82.5 -72t-116.5 -25.5q-73 0 -134 28zM304 910h88l-84 -136h-68z" />
    <glyph glyph-name="Scaron" unicode="&#x160;" horiz-adv-x="544" 
d="M132 14q-61 28 -91 71l27 94q43 -61 89.5 -90t108.5 -29q63 0 102 34t39 90q0 58 -33 90.5t-120 53.5q-200 50 -200 204q0 55 29.5 96.5t80 63.5t110.5 22t110 -19t84 -47l-26 -81q-80 73 -167 73q-57 0 -97 -28.5t-40 -77.5q0 -52 38 -84.5t126 -55.5q99 -26 146 -74
t47 -128q0 -62 -30 -108.5t-82.5 -72t-116.5 -25.5q-73 0 -134 28zM130 910h72l72 -83l72 83h72l-104 -136h-80z" />
    <glyph glyph-name="Scedilla" unicode="&#x15e;" horiz-adv-x="544" 
d="M132 14q-61 28 -91 71l27 94q43 -61 89.5 -90t108.5 -29q63 0 102 34t39 90q0 58 -33 90.5t-120 53.5q-200 50 -200 204q0 55 29.5 96.5t80 63.5t110.5 22t110 -19t84 -47l-26 -81q-80 73 -167 73q-57 0 -97 -28.5t-40 -77.5q0 -52 38 -84.5t126 -55.5q99 -26 146 -74
t47 -128q0 -62 -30 -108.5t-82.5 -72t-116.5 -25.5q-73 0 -134 28zM205 -213q-24 11 -40 29l30 39q25 -29 62 -29q52 0 52 42t-45 42q-14 0 -26 -6.5t-19 -16.5l-38 17l26 96h52l-34 -70q19 24 58 24t62.5 -22.5t23.5 -64.5q0 -45 -29.5 -68t-80.5 -23q-30 0 -54 11z" />
    <glyph glyph-name="Scommaaccent" unicode="&#x218;" horiz-adv-x="544" 
d="M132 14q-61 28 -91 71l27 94q43 -61 89.5 -90t108.5 -29q63 0 102 34t39 90q0 58 -33 90.5t-120 53.5q-200 50 -200 204q0 55 29.5 96.5t80 63.5t110.5 22t110 -19t84 -47l-26 -81q-80 73 -167 73q-57 0 -97 -28.5t-40 -77.5q0 -52 38 -84.5t126 -55.5q99 -26 146 -74
t47 -128q0 -62 -30 -108.5t-82.5 -72t-116.5 -25.5q-73 0 -134 28zM218 -205q29 11 43 27t14 48h-63v82h110v-82q0 -51 -22.5 -75t-64.5 -41z" />
    <glyph glyph-name="T" unicode="T" horiz-adv-x="553" 
d="M525 626h-206v-626h-86v626h-205v74h497v-74z" />
    <glyph glyph-name="Tcaron" unicode="&#x164;" horiz-adv-x="553" 
d="M525 626h-206v-626h-86v626h-205v74h497v-74zM133 910h72l72 -83l72 83h72l-104 -136h-80z" />
    <glyph glyph-name="uni0162" unicode="&#x162;" horiz-adv-x="553" 
d="M525 626h-206v-626h-86v626h-205v74h497v-74zM249 -213q-24 11 -40 29l30 39q25 -29 62 -29q52 0 52 42t-45 42q-14 0 -26 -6.5t-19 -16.5l-38 17l26 96h52l-34 -70q19 24 58 24t62.5 -22.5t23.5 -64.5q0 -45 -29.5 -68t-80.5 -23q-30 0 -54 11z" />
    <glyph glyph-name="uni021A" unicode="&#x21a;" horiz-adv-x="553" 
d="M525 626h-206v-626h-86v626h-205v74h497v-74zM228 -205q29 11 43 27t14 48h-63v82h110v-82q0 -51 -22.5 -75t-64.5 -41z" />
    <glyph glyph-name="U" unicode="U" horiz-adv-x="694" 
d="M152.5 56.5q-69.5 70.5 -69.5 208.5v435h86v-430q0 -104 48 -157t130 -53t130 53t48 157v430h86v-435q0 -138 -69.5 -208.5t-194.5 -70.5t-194.5 70.5z" />
    <glyph glyph-name="Uacute" unicode="&#xda;" horiz-adv-x="694" 
d="M152.5 56.5q-69.5 70.5 -69.5 208.5v435h86v-430q0 -104 48 -157t130 -53t130 53t48 157v430h86v-435q0 -138 -69.5 -208.5t-194.5 -70.5t-194.5 70.5zM377 910h88l-84 -136h-68z" />
    <glyph glyph-name="Ucircumflex" unicode="&#xdb;" horiz-adv-x="694" 
d="M152.5 56.5q-69.5 70.5 -69.5 208.5v435h86v-430q0 -104 48 -157t130 -53t130 53t48 157v430h86v-435q0 -138 -69.5 -208.5t-194.5 -70.5t-194.5 70.5zM307 910h80l104 -136h-72l-72 83l-72 -83h-72z" />
    <glyph glyph-name="Udieresis" unicode="&#xdc;" horiz-adv-x="694" 
d="M152.5 56.5q-69.5 70.5 -69.5 208.5v435h86v-430q0 -104 48 -157t130 -53t130 53t48 157v430h86v-435q0 -138 -69.5 -208.5t-194.5 -70.5t-194.5 70.5zM221 877h94v-80h-94v80zM379 877h94v-80h-94v80z" />
    <glyph glyph-name="Ugrave" unicode="&#xd9;" horiz-adv-x="694" 
d="M152.5 56.5q-69.5 70.5 -69.5 208.5v435h86v-430q0 -104 48 -157t130 -53t130 53t48 157v430h86v-435q0 -138 -69.5 -208.5t-194.5 -70.5t-194.5 70.5zM229 910h88l64 -136h-68z" />
    <glyph glyph-name="Uhungarumlaut" unicode="&#x170;" horiz-adv-x="694" 
d="M152.5 56.5q-69.5 70.5 -69.5 208.5v435h86v-430q0 -104 48 -157t130 -53t130 53t48 157v430h86v-435q0 -138 -69.5 -208.5t-194.5 -70.5t-194.5 70.5zM295 910h88l-84 -136h-68zM449 910h88l-84 -136h-68z" />
    <glyph glyph-name="Umacron" unicode="&#x16a;" horiz-adv-x="694" 
d="M152.5 56.5q-69.5 70.5 -69.5 208.5v435h86v-430q0 -104 48 -157t130 -53t130 53t48 157v430h86v-435q0 -138 -69.5 -208.5t-194.5 -70.5t-194.5 70.5zM239 862h216v-64h-216v64z" />
    <glyph glyph-name="Uogonek" unicode="&#x172;" horiz-adv-x="694" 
d="M152.5 56.5q-69.5 70.5 -69.5 208.5v435h86v-430q0 -104 48 -157t130 -53t130 53t48 157v430h86v-435q0 -138 -69.5 -208.5t-194.5 -70.5t-194.5 70.5zM297.5 -172q-23.5 24 -23.5 68q0 32 14.5 59t36.5 45h72q-31 -25 -46 -47.5t-15 -50.5q0 -19 10.5 -29.5t27.5 -10.5
q12 0 20 2.5t17 9.5v-60q-21 -10 -50 -10q-40 0 -63.5 24z" />
    <glyph glyph-name="Uring" unicode="&#x16e;" horiz-adv-x="694" 
d="M152.5 56.5q-69.5 70.5 -69.5 208.5v435h86v-430q0 -104 48 -157t130 -53t130 53t48 157v430h86v-435q0 -138 -69.5 -208.5t-194.5 -70.5t-194.5 70.5zM285.5 782.5q-24.5 24.5 -24.5 61.5t24.5 61.5t61.5 24.5t61.5 -24.5t24.5 -61.5t-24.5 -61.5t-61.5 -24.5
t-61.5 24.5zM378.5 812.5q12.5 12.5 12.5 31.5t-12.5 31.5t-31.5 12.5t-31.5 -12.5t-12.5 -31.5t12.5 -31.5t31.5 -12.5t31.5 12.5z" />
    <glyph glyph-name="V" unicode="V" horiz-adv-x="647" 
d="M18 700h90l215 -578l215 578h90l-269 -700h-72z" />
    <glyph glyph-name="W" unicode="W" horiz-adv-x="974" 
d="M22 700h88l161 -566l177 566h77l178 -566l161 566h88l-212 -700h-73l-180 576l-180 -576h-73z" />
    <glyph glyph-name="X" unicode="X" horiz-adv-x="617" 
d="M494 0l-185 295l-186 -295h-96l235 370l-207 330h96l158 -255l157 255h96l-206 -330l234 -370h-96z" />
    <glyph glyph-name="Y" unicode="Y" horiz-adv-x="580" 
d="M247 270l-229 430h96l176 -343l176 343h96l-229 -430v-270h-86v270z" />
    <glyph glyph-name="Yacute" unicode="&#xdd;" horiz-adv-x="580" 
d="M247 270l-229 430h96l176 -343l176 343h96l-229 -430v-270h-86v270zM320 910h88l-84 -136h-68z" />
    <glyph glyph-name="Ydieresis" unicode="&#x178;" horiz-adv-x="580" 
d="M247 270l-229 430h96l176 -343l176 343h96l-229 -430v-270h-86v270zM164 877h94v-80h-94v80zM322 877h94v-80h-94v80z" />
    <glyph glyph-name="Z" unicode="Z" horiz-adv-x="592" 
d="M40 64l402 562h-390v74h492v-64l-402 -562h414v-74h-516v64z" />
    <glyph glyph-name="Zacute" unicode="&#x179;" horiz-adv-x="592" 
d="M40 64l402 562h-390v74h492v-64l-402 -562h414v-74h-516v64zM328 910h88l-84 -136h-68z" />
    <glyph glyph-name="Zcaron" unicode="&#x17d;" horiz-adv-x="592" 
d="M40 64l402 562h-390v74h492v-64l-402 -562h414v-74h-516v64zM154 910h72l72 -83l72 83h72l-104 -136h-80z" />
    <glyph glyph-name="Zdotaccent" unicode="&#x17b;" horiz-adv-x="592" 
d="M40 64l402 562h-390v74h492v-64l-402 -562h414v-74h-516v64zM243 867h110v-86h-110v86z" />
    <glyph glyph-name="a" unicode="a" horiz-adv-x="516" 
d="M94.5 24q-43.5 38 -43.5 106q0 67 44.5 107t120.5 45l141 9v46q0 48 -30 74.5t-80 26.5q-44 0 -77 -22t-46 -64l-62 29q15 55 66 89t120 34q87 0 138 -42.5t51 -120.5v-248q0 -29 4.5 -51t16.5 -42h-80q-17 26 -21 70q-23 -41 -62 -62.5t-90 -21.5q-67 0 -110.5 38z
M322 93q35 41 35 105v32l-116 -7q-55 -4 -80.5 -26t-25.5 -64q0 -37 24.5 -59t66.5 -22q61 0 96 41z" />
    <glyph glyph-name="aacute" unicode="&#xe1;" horiz-adv-x="516" 
d="M94.5 24q-43.5 38 -43.5 106q0 67 44.5 107t120.5 45l141 9v46q0 48 -30 74.5t-80 26.5q-44 0 -77 -22t-46 -64l-62 29q15 55 66 89t120 34q87 0 138 -42.5t51 -120.5v-248q0 -29 4.5 -51t16.5 -42h-80q-17 26 -21 70q-23 -41 -62 -62.5t-90 -21.5q-67 0 -110.5 38z
M322 93q35 41 35 105v32l-116 -7q-55 -4 -80.5 -26t-25.5 -64q0 -37 24.5 -59t66.5 -22q61 0 96 41zM279 700h88l-84 -136h-68z" />
    <glyph glyph-name="abreve" unicode="&#x103;" horiz-adv-x="516" 
d="M94.5 24q-43.5 38 -43.5 106q0 67 44.5 107t120.5 45l141 9v46q0 48 -30 74.5t-80 26.5q-44 0 -77 -22t-46 -64l-62 29q15 55 66 89t120 34q87 0 138 -42.5t51 -120.5v-248q0 -29 4.5 -51t16.5 -42h-80q-17 26 -21 70q-23 -41 -62 -62.5t-90 -21.5q-67 0 -110.5 38z
M322 93q35 41 35 105v32l-116 -7q-55 -4 -80.5 -26t-25.5 -64q0 -37 24.5 -59t66.5 -22q61 0 96 41zM174.5 594q-28.5 27 -28.5 75h58q0 -22 12 -36t33 -14t33 14t12 36h58q0 -48 -28.5 -75t-74.5 -27t-74.5 27z" />
    <glyph glyph-name="acircumflex" unicode="&#xe2;" horiz-adv-x="516" 
d="M94.5 24q-43.5 38 -43.5 106q0 67 44.5 107t120.5 45l141 9v46q0 48 -30 74.5t-80 26.5q-44 0 -77 -22t-46 -64l-62 29q15 55 66 89t120 34q87 0 138 -42.5t51 -120.5v-248q0 -29 4.5 -51t16.5 -42h-80q-17 26 -21 70q-23 -41 -62 -62.5t-90 -21.5q-67 0 -110.5 38z
M322 93q35 41 35 105v32l-116 -7q-55 -4 -80.5 -26t-25.5 -64q0 -37 24.5 -59t66.5 -22q61 0 96 41zM209 700h80l104 -136h-72l-72 83l-72 -83h-72z" />
    <glyph glyph-name="adieresis" unicode="&#xe4;" horiz-adv-x="516" 
d="M94.5 24q-43.5 38 -43.5 106q0 67 44.5 107t120.5 45l141 9v46q0 48 -30 74.5t-80 26.5q-44 0 -77 -22t-46 -64l-62 29q15 55 66 89t120 34q87 0 138 -42.5t51 -120.5v-248q0 -29 4.5 -51t16.5 -42h-80q-17 26 -21 70q-23 -41 -62 -62.5t-90 -21.5q-67 0 -110.5 38z
M322 93q35 41 35 105v32l-116 -7q-55 -4 -80.5 -26t-25.5 -64q0 -37 24.5 -59t66.5 -22q61 0 96 41zM123 667h94v-80h-94v80zM281 667h94v-80h-94v80z" />
    <glyph glyph-name="agrave" unicode="&#xe0;" horiz-adv-x="516" 
d="M94.5 24q-43.5 38 -43.5 106q0 67 44.5 107t120.5 45l141 9v46q0 48 -30 74.5t-80 26.5q-44 0 -77 -22t-46 -64l-62 29q15 55 66 89t120 34q87 0 138 -42.5t51 -120.5v-248q0 -29 4.5 -51t16.5 -42h-80q-17 26 -21 70q-23 -41 -62 -62.5t-90 -21.5q-67 0 -110.5 38z
M322 93q35 41 35 105v32l-116 -7q-55 -4 -80.5 -26t-25.5 -64q0 -37 24.5 -59t66.5 -22q61 0 96 41zM131 700h88l64 -136h-68z" />
    <glyph glyph-name="amacron" unicode="&#x101;" horiz-adv-x="516" 
d="M94.5 24q-43.5 38 -43.5 106q0 67 44.5 107t120.5 45l141 9v46q0 48 -30 74.5t-80 26.5q-44 0 -77 -22t-46 -64l-62 29q15 55 66 89t120 34q87 0 138 -42.5t51 -120.5v-248q0 -29 4.5 -51t16.5 -42h-80q-17 26 -21 70q-23 -41 -62 -62.5t-90 -21.5q-67 0 -110.5 38z
M322 93q35 41 35 105v32l-116 -7q-55 -4 -80.5 -26t-25.5 -64q0 -37 24.5 -59t66.5 -22q61 0 96 41zM141 652h216v-64h-216v64z" />
    <glyph glyph-name="aogonek" unicode="&#x105;" horiz-adv-x="516" 
d="M94.5 24q-43.5 38 -43.5 106q0 67 44.5 107t120.5 45l141 9v46q0 48 -30 74.5t-80 26.5q-44 0 -77 -22t-46 -64l-62 29q15 55 66 89t120 34q87 0 138 -42.5t51 -120.5v-248q0 -29 4.5 -51t16.5 -42h-80q-17 26 -21 70q-23 -41 -62 -62.5t-90 -21.5q-67 0 -110.5 38z
M322 93q35 41 35 105v32l-116 -7q-55 -4 -80.5 -26t-25.5 -64q0 -37 24.5 -59t66.5 -22q61 0 96 41zM358.5 -172q-23.5 24 -23.5 68q0 31 15 58t40 46h68q-31 -25 -46 -47t-15 -49q0 -21 10.5 -31.5t27.5 -10.5q12 0 20 2.5t17 9.5v-60q-21 -10 -50 -10q-40 0 -63.5 24z" />
    <glyph glyph-name="aring" unicode="&#xe5;" horiz-adv-x="516" 
d="M94.5 24q-43.5 38 -43.5 106q0 67 44.5 107t120.5 45l141 9v46q0 48 -30 74.5t-80 26.5q-44 0 -77 -22t-46 -64l-62 29q15 55 66 89t120 34q87 0 138 -42.5t51 -120.5v-248q0 -29 4.5 -51t16.5 -42h-80q-17 26 -21 70q-23 -41 -62 -62.5t-90 -21.5q-67 0 -110.5 38z
M322 93q35 41 35 105v32l-116 -7q-55 -4 -80.5 -26t-25.5 -64q0 -37 24.5 -59t66.5 -22q61 0 96 41zM187.5 572.5q-24.5 24.5 -24.5 61.5t24.5 61.5t61.5 24.5t61.5 -24.5t24.5 -61.5t-24.5 -61.5t-61.5 -24.5t-61.5 24.5zM280.5 602.5q12.5 12.5 12.5 31.5t-12.5 31.5
t-31.5 12.5t-31.5 -12.5t-12.5 -31.5t12.5 -31.5t31.5 -12.5t31.5 12.5z" />
    <glyph glyph-name="atilde" unicode="&#xe3;" horiz-adv-x="516" 
d="M94.5 24q-43.5 38 -43.5 106q0 67 44.5 107t120.5 45l141 9v46q0 48 -30 74.5t-80 26.5q-44 0 -77 -22t-46 -64l-62 29q15 55 66 89t120 34q87 0 138 -42.5t51 -120.5v-248q0 -29 4.5 -51t16.5 -42h-80q-17 26 -21 70q-23 -41 -62 -62.5t-90 -21.5q-67 0 -110.5 38z
M322 93q35 41 35 105v32l-116 -7q-55 -4 -80.5 -26t-25.5 -64q0 -37 24.5 -59t66.5 -22q61 0 96 41zM83 618q15 25 44 41.5t65 16.5q19 0 34 -5t32 -15q17 -8 27 -12t22 -4q41 0 72 38l36 -43q-14 -25 -43 -42t-66 -17q-19 0 -33 5t-33 15q-15 8 -25.5 12t-22.5 4
q-43 0 -73 -37z" />
    <glyph glyph-name="ae" unicode="&#xe6;" horiz-adv-x="861" 
d="M96 24q-45 38 -45 106q0 67 44.5 107t120.5 45l141 9v46q0 48 -30 74.5t-80 26.5q-44 0 -77 -22t-46 -64l-62 29q15 55 66 89t120 34q60 0 104 -23.5t64 -67.5q28 42 75.5 66.5t103.5 24.5q65 0 114.5 -28.5t76.5 -76.5t27 -104q0 -38 -6 -64h-369q3 -78 46.5 -127.5
t110.5 -49.5q96 0 137 86l63 -37q-28 -55 -78.5 -86t-122.5 -31q-67 0 -119 30.5t-79 83.5q-29 -59 -74.5 -86.5t-112.5 -27.5q-68 0 -113 38zM738 294q-3 66 -42 104.5t-101 38.5q-58 0 -99.5 -39.5t-53.5 -103.5h296zM322 93q35 41 35 105v32l-116 -7q-55 -4 -80.5 -26
t-25.5 -64q0 -37 24.5 -59t66.5 -22q61 0 96 41z" />
    <glyph glyph-name="b" unicode="b" horiz-adv-x="602" 
d="M234.5 10.5q-44.5 24.5 -65.5 70.5v-81h-82v700h82v-286q21 39 65.5 64.5t98.5 25.5q66 0 116 -32.5t77.5 -91.5t27.5 -135t-27 -135t-77 -91.5t-115 -32.5q-56 0 -100.5 24.5zM429 109.5q41 51.5 41 135.5t-41 135.5t-110 51.5t-111 -51.5t-42 -135.5t42 -135.5
t111 -51.5t110 51.5z" />
    <glyph glyph-name="c" unicode="c" horiz-adv-x="538" 
d="M164.5 19.5q-55.5 33.5 -86 92.5t-30.5 133t30.5 133t86 92.5t126.5 33.5q139 0 200 -113l-62 -44q-46 85 -138 85q-46 0 -82 -24t-56.5 -66.5t-20.5 -96.5t20.5 -96.5t56.5 -66.5t82 -24q96 0 138 82l62 -40q-63 -114 -200 -114q-71 0 -126.5 33.5z" />
    <glyph glyph-name="cacute" unicode="&#x107;" horiz-adv-x="538" 
d="M164.5 19.5q-55.5 33.5 -86 92.5t-30.5 133t30.5 133t86 92.5t126.5 33.5q139 0 200 -113l-62 -44q-46 85 -138 85q-46 0 -82 -24t-56.5 -66.5t-20.5 -96.5t20.5 -96.5t56.5 -66.5t82 -24q96 0 138 82l62 -40q-63 -114 -200 -114q-71 0 -126.5 33.5zM322 700h88l-84 -136
h-68z" />
    <glyph glyph-name="ccaron" unicode="&#x10d;" horiz-adv-x="538" 
d="M164.5 19.5q-55.5 33.5 -86 92.5t-30.5 133t30.5 133t86 92.5t126.5 33.5q139 0 200 -113l-62 -44q-46 85 -138 85q-46 0 -82 -24t-56.5 -66.5t-20.5 -96.5t20.5 -96.5t56.5 -66.5t82 -24q96 0 138 82l62 -40q-63 -114 -200 -114q-71 0 -126.5 33.5zM148 700h72l72 -83
l72 83h72l-104 -136h-80z" />
    <glyph glyph-name="ccedilla" unicode="&#xe7;" horiz-adv-x="538" 
d="M164.5 19.5q-55.5 33.5 -86 92.5t-30.5 133t30.5 133t86 92.5t126.5 33.5q139 0 200 -113l-62 -44q-46 85 -138 85q-46 0 -82 -24t-56.5 -66.5t-20.5 -96.5t20.5 -96.5t56.5 -66.5t82 -24q96 0 138 82l62 -40q-63 -114 -200 -114q-71 0 -126.5 33.5zM228 -213
q-24 11 -40 29l30 39q25 -29 62 -29q52 0 52 42t-45 42q-14 0 -26 -6.5t-19 -16.5l-38 17l26 96h52l-34 -70q19 24 58 24t62.5 -22.5t23.5 -64.5q0 -45 -29.5 -68t-80.5 -23q-30 0 -54 11z" />
    <glyph glyph-name="d" unicode="d" horiz-adv-x="601" 
d="M152.5 18.5q-49.5 32.5 -77 91.5t-27.5 135t27.5 135t77.5 91.5t116 32.5q54 0 98 -25.5t65 -64.5v286h82v-700h-82v81q-22 -45 -66 -70t-98 -25q-66 0 -115.5 32.5zM393.5 109.5q41.5 51.5 41.5 135.5t-41.5 135.5t-110.5 51.5t-110 -51.5t-41 -135.5t41 -135.5
t110 -51.5t110.5 51.5z" />
    <glyph glyph-name="eth" unicode="&#xf0;" horiz-adv-x="584" 
d="M517 274q0 -93 -30.5 -157.5t-85 -97.5t-124.5 -33q-69 0 -121 32t-80 90t-28 135q0 76 28 134.5t78.5 90.5t116.5 32q53 0 94.5 -27t64.5 -68q-15 92 -83 171l-185 -37l-10 49l153 30q-43 38 -94 66l71 30q66 -38 107 -79l117 23l10 -48l-89 -18q90 -119 90 -318z
M394 108q42 51 42 135t-42 135t-111 51t-110 -51t-41 -135t41 -135t110 -51t111 51z" />
    <glyph glyph-name="dcaron" unicode="&#x10f;" horiz-adv-x="690" 
d="M152.5 18.5q-49.5 32.5 -77 91.5t-27.5 135t27.5 135t77.5 91.5t116 32.5q54 0 98 -25.5t65 -64.5v286h82v-700h-82v81q-22 -45 -66 -70t-98 -25q-66 0 -115.5 32.5zM393.5 109.5q41.5 51.5 41.5 135.5t-41.5 135.5t-110.5 51.5t-110 -51.5t-41 -135.5t41 -135.5
t110 -51.5t110.5 51.5zM581 546q32 12 46.5 28t14.5 46h-62v80h110v-80q0 -51 -24.5 -79.5t-67.5 -42.5z" />
    <glyph glyph-name="dcroat" unicode="&#x111;" horiz-adv-x="601" 
d="M152.5 18.5q-49.5 32.5 -77 91.5t-27.5 135t27.5 135t77.5 91.5t116 32.5q54 0 98 -25.5t65 -64.5v286h82v-700h-82v81q-22 -45 -66 -70t-98 -25q-66 0 -115.5 32.5zM393.5 109.5q41.5 51.5 41.5 135.5t-41.5 135.5t-110.5 51.5t-110 -51.5t-41 -135.5t41 -135.5
t110 -51.5t110.5 51.5zM597 634v-64h-330v64h330z" />
    <glyph glyph-name="e" unicode="e" horiz-adv-x="553" 
d="M499 231h-370q4 -79 47 -128t110 -49q97 0 138 86l63 -37q-28 -55 -79 -86t-123 -31q-70 0 -124 34t-83.5 93t-29.5 132t30.5 132t85 93t123.5 34q65 0 114.5 -28.5t76.5 -76.5t27 -104q0 -30 -6 -64zM430 294q-4 66 -42.5 104.5t-100.5 38.5q-59 0 -100.5 -39
t-53.5 -104h297z" />
    <glyph glyph-name="eacute" unicode="&#xe9;" horiz-adv-x="553" 
d="M499 231h-370q4 -79 47 -128t110 -49q97 0 138 86l63 -37q-28 -55 -79 -86t-123 -31q-70 0 -124 34t-83.5 93t-29.5 132t30.5 132t85 93t123.5 34q65 0 114.5 -28.5t76.5 -76.5t27 -104q0 -30 -6 -64zM430 294q-4 66 -42.5 104.5t-100.5 38.5q-59 0 -100.5 -39
t-53.5 -104h297zM317 700h88l-84 -136h-68z" />
    <glyph glyph-name="ecaron" unicode="&#x11b;" horiz-adv-x="553" 
d="M499 231h-370q4 -79 47 -128t110 -49q97 0 138 86l63 -37q-28 -55 -79 -86t-123 -31q-70 0 -124 34t-83.5 93t-29.5 132t30.5 132t85 93t123.5 34q65 0 114.5 -28.5t76.5 -76.5t27 -104q0 -30 -6 -64zM430 294q-4 66 -42.5 104.5t-100.5 38.5q-59 0 -100.5 -39
t-53.5 -104h297zM143 700h72l72 -83l72 83h72l-104 -136h-80z" />
    <glyph glyph-name="ecircumflex" unicode="&#xea;" horiz-adv-x="553" 
d="M499 231h-370q4 -79 47 -128t110 -49q97 0 138 86l63 -37q-28 -55 -79 -86t-123 -31q-70 0 -124 34t-83.5 93t-29.5 132t30.5 132t85 93t123.5 34q65 0 114.5 -28.5t76.5 -76.5t27 -104q0 -30 -6 -64zM430 294q-4 66 -42.5 104.5t-100.5 38.5q-59 0 -100.5 -39
t-53.5 -104h297zM247 700h80l104 -136h-72l-72 83l-72 -83h-72z" />
    <glyph glyph-name="edieresis" unicode="&#xeb;" horiz-adv-x="553" 
d="M499 231h-370q4 -79 47 -128t110 -49q97 0 138 86l63 -37q-28 -55 -79 -86t-123 -31q-70 0 -124 34t-83.5 93t-29.5 132t30.5 132t85 93t123.5 34q65 0 114.5 -28.5t76.5 -76.5t27 -104q0 -30 -6 -64zM430 294q-4 66 -42.5 104.5t-100.5 38.5q-59 0 -100.5 -39
t-53.5 -104h297zM161 667h94v-80h-94v80zM319 667h94v-80h-94v80z" />
    <glyph glyph-name="edotaccent" unicode="&#x117;" horiz-adv-x="553" 
d="M499 231h-370q4 -79 47 -128t110 -49q97 0 138 86l63 -37q-28 -55 -79 -86t-123 -31q-70 0 -124 34t-83.5 93t-29.5 132t30.5 132t85 93t123.5 34q65 0 114.5 -28.5t76.5 -76.5t27 -104q0 -30 -6 -64zM430 294q-4 66 -42.5 104.5t-100.5 38.5q-59 0 -100.5 -39
t-53.5 -104h297zM232 657h110v-86h-110v86z" />
    <glyph glyph-name="egrave" unicode="&#xe8;" horiz-adv-x="553" 
d="M499 231h-370q4 -79 47 -128t110 -49q97 0 138 86l63 -37q-28 -55 -79 -86t-123 -31q-70 0 -124 34t-83.5 93t-29.5 132t30.5 132t85 93t123.5 34q65 0 114.5 -28.5t76.5 -76.5t27 -104q0 -30 -6 -64zM430 294q-4 66 -42.5 104.5t-100.5 38.5q-59 0 -100.5 -39
t-53.5 -104h297zM169 700h88l64 -136h-68z" />
    <glyph glyph-name="emacron" unicode="&#x113;" horiz-adv-x="553" 
d="M499 231h-370q4 -79 47 -128t110 -49q97 0 138 86l63 -37q-28 -55 -79 -86t-123 -31q-70 0 -124 34t-83.5 93t-29.5 132t30.5 132t85 93t123.5 34q65 0 114.5 -28.5t76.5 -76.5t27 -104q0 -30 -6 -64zM430 294q-4 66 -42.5 104.5t-100.5 38.5q-59 0 -100.5 -39
t-53.5 -104h297zM179 652h216v-64h-216v64z" />
    <glyph glyph-name="eogonek" unicode="&#x119;" horiz-adv-x="553" 
d="M499 231h-370q4 -79 47 -128t110 -49q97 0 138 86l63 -37q-28 -55 -79 -86t-123 -31q-70 0 -124 34t-83.5 93t-29.5 132t30.5 132t85 93t123.5 34q65 0 114.5 -28.5t76.5 -76.5t27 -104q0 -30 -6 -64zM430 294q-4 66 -42.5 104.5t-100.5 38.5q-59 0 -100.5 -39
t-53.5 -104h297zM231.5 -172q-23.5 24 -23.5 68q0 31 15 58t40 46h68q-31 -25 -46 -47t-15 -49q0 -21 10.5 -31.5t27.5 -10.5q12 0 20 2.5t17 9.5v-60q-21 -10 -50 -10q-40 0 -63.5 24z" />
    <glyph glyph-name="f" unicode="f" horiz-adv-x="324" 
d="M197 622.5q-18 -19.5 -18 -55.5v-77h119v-66h-119v-424h-82v424h-69v66h69v81q0 69 40 106t106 37q45 0 79 -17l-20 -69q-25 14 -56 14t-49 -19.5z" />
    <glyph glyph-name="g" unicode="g" horiz-adv-x="607" 
d="M138 -189q-59 35 -84 98l68 37q19 -48 60.5 -73t98.5 -25q73 0 115 42t42 132v73q-21 -46 -65.5 -74.5t-99.5 -28.5q-65 0 -116 32t-80 90.5t-29 133.5t29 133t80 90.5t114 32.5q53 0 100 -25.5t67 -70.5v82h82v-462q0 -120 -64.5 -186t-173.5 -66q-85 0 -144 35z
M365 86.5q35 22.5 55 64.5t20 97t-20 97t-55 64.5t-79 22.5t-79 -22.5t-55 -64.5t-20 -97t20 -97t55 -64.5t79 -22.5t79 22.5z" />
    <glyph glyph-name="gbreve" unicode="&#x11f;" horiz-adv-x="607" 
d="M138 -189q-59 35 -84 98l68 37q19 -48 60.5 -73t98.5 -25q73 0 115 42t42 132v73q-21 -46 -65.5 -74.5t-99.5 -28.5q-65 0 -116 32t-80 90.5t-29 133.5t29 133t80 90.5t114 32.5q53 0 100 -25.5t67 -70.5v82h82v-462q0 -120 -64.5 -186t-173.5 -66q-85 0 -144 35z
M365 86.5q35 22.5 55 64.5t20 97t-20 97t-55 64.5t-79 22.5t-79 -22.5t-55 -64.5t-20 -97t20 -97t55 -64.5t79 -22.5t79 22.5zM229.5 594q-28.5 27 -28.5 75h58q0 -22 12 -36t33 -14t33 14t12 36h58q0 -48 -28.5 -75t-74.5 -27t-74.5 27z" />
    <glyph glyph-name="gcommaaccent" unicode="&#x123;" horiz-adv-x="607" 
d="M138 -189q-59 35 -84 98l68 37q19 -48 60.5 -73t98.5 -25q73 0 115 42t42 132v73q-21 -46 -65.5 -74.5t-99.5 -28.5q-65 0 -116 32t-80 90.5t-29 133.5t29 133t80 90.5t114 32.5q53 0 100 -25.5t67 -70.5v82h82v-462q0 -120 -64.5 -186t-173.5 -66q-85 0 -144 35z
M365 86.5q35 22.5 55 64.5t20 97t-20 97t-55 64.5t-79 22.5t-79 -22.5t-55 -64.5t-20 -97t20 -97t55 -64.5t79 -22.5t79 22.5zM362 733q-36 -11 -52.5 -30.5t-16.5 -52.5h62v-86h-110v86q0 102 100 131z" />
    <glyph glyph-name="h" unicode="h" horiz-adv-x="589" 
d="M87 700h82v-297q25 49 69.5 75t96.5 26q81 0 124 -47t43 -134v-323h-82v313q0 119 -112 119q-33 0 -65.5 -19.5t-53 -57t-20.5 -88.5v-267h-82v700z" />
    <glyph glyph-name="hbar" unicode="&#x127;" horiz-adv-x="589" 
d="M87 700h82v-297q25 49 69.5 75t96.5 26q81 0 124 -47t43 -134v-323h-82v313q0 119 -112 119q-33 0 -65.5 -19.5t-53 -57t-20.5 -88.5v-267h-82v700zM335 634v-64h-330v64h330z" />
    <glyph glyph-name="i" unicode="i" horiz-adv-x="256" 
d="M73 657h110v-86h-110v86zM87 490h82v-490h-82v490z" />
    <glyph glyph-name="dotlessi" unicode="&#x131;" horiz-adv-x="256" 
d="M87 490h82v-490h-82v490z" />
    <glyph glyph-name="iacute" unicode="&#xed;" horiz-adv-x="256" 
d="M87 490h82v-490h-82v490zM158 700h88l-84 -136h-68z" />
    <glyph glyph-name="icircumflex" unicode="&#xee;" horiz-adv-x="256" 
d="M87 490h82v-490h-82v490zM88 700h80l104 -136h-72l-72 83l-72 -83h-72z" />
    <glyph glyph-name="idieresis" unicode="&#xef;" horiz-adv-x="256" 
d="M87 490h82v-490h-82v490zM2 667h94v-80h-94v80zM160 667h94v-80h-94v80z" />
    <glyph glyph-name="i.loclTRK" horiz-adv-x="256" 
d="M87 490h82v-490h-82v490zM73 657h110v-86h-110v86z" />
    <glyph glyph-name="igrave" unicode="&#xec;" horiz-adv-x="256" 
d="M87 490h82v-490h-82v490zM10 700h88l64 -136h-68z" />
    <glyph glyph-name="imacron" unicode="&#x12b;" horiz-adv-x="256" 
d="M87 490h82v-490h-82v490zM20 652h216v-64h-216v64z" />
    <glyph glyph-name="iogonek" unicode="&#x12f;" horiz-adv-x="256" 
d="M87 490h82v-490h-82v490zM73 657h110v-86h-110v86zM69.5 -172q-23.5 24 -23.5 68q0 31 15 58t40 46h68q-31 -25 -46 -47t-15 -49q0 -21 10.5 -31.5t27.5 -10.5q12 0 20 2.5t17 9.5v-60q-21 -10 -50 -10q-40 0 -63.5 24z" />
    <glyph glyph-name="j" unicode="j" horiz-adv-x="256" 
d="M73 657h110v-86h-110v86zM-37 -207l23 70q20 -15 50 -15q27 0 39 15.5t12 51.5v575h82v-575q0 -71 -31 -105t-93 -34q-45 0 -82 17z" />
    <glyph glyph-name="k" unicode="k" horiz-adv-x="512" 
d="M229 245l-60 -58v-187h-82v700h82v-413l212 203h100l-194 -189l204 -301h-94z" />
    <glyph glyph-name="kcommaaccent" unicode="&#x137;" horiz-adv-x="512" 
d="M229 245l-60 -58v-187h-82v700h82v-413l212 203h100l-194 -189l204 -301h-94zM233 -205q29 11 43 27t14 48h-63v82h110v-82q0 -51 -22.5 -75t-64.5 -41z" />
    <glyph glyph-name="l" unicode="l" horiz-adv-x="260" 
d="M108 19q-21 26 -21 71v610h82v-604q0 -15 8 -24t21 -9q11 0 24 6v-66q-21 -10 -52 -10q-41 0 -62 26z" />
    <glyph glyph-name="lacute" unicode="&#x13a;" horiz-adv-x="260" 
d="M108 19q-21 26 -21 71v610h82v-604q0 -15 8 -24t21 -9q11 0 24 6v-66q-21 -10 -52 -10q-41 0 -62 26zM157 910h88l-84 -136h-68z" />
    <glyph glyph-name="lcaron" unicode="&#x13e;" horiz-adv-x="260" 
d="M108 19q-21 26 -21 71v610h82v-604q0 -15 8 -24t21 -9q11 0 24 6v-66q-21 -10 -52 -10q-41 0 -62 26zM236 546q32 12 46.5 28t14.5 46h-62v80h110v-80q0 -51 -24.5 -79.5t-67.5 -42.5z" />
    <glyph glyph-name="lcommaaccent" unicode="&#x13c;" horiz-adv-x="260" 
d="M108 19q-21 26 -21 71v610h82v-604q0 -15 8 -24t21 -9q11 0 24 6v-66q-21 -10 -52 -10q-41 0 -62 26zM106 -205q29 11 43 27t14 48h-63v82h110v-82q0 -51 -22.5 -75t-64.5 -41z" />
    <glyph glyph-name="lslash" unicode="&#x142;" horiz-adv-x="260" 
d="M108 19q-21 26 -21 71v610h82v-604q0 -15 8 -24t21 -9q11 0 24 6v-66q-21 -10 -52 -10q-41 0 -62 26zM-4 310l229 132l34 -58l-229 -132z" />
    <glyph glyph-name="m" unicode="m" horiz-adv-x="800" 
d="M87 490h82v-71q17 38 53 61.5t85 23.5q46 0 77.5 -22.5t46.5 -63.5q20 41 59 63.5t88 22.5q65 0 100 -39.5t35 -111.5v-353h-82v341q0 91 -85 91q-44 0 -74.5 -34.5t-30.5 -102.5v-295h-82v341q0 91 -85 91q-44 0 -74.5 -34.5t-30.5 -102.5v-295h-82v490z" />
    <glyph glyph-name="n" unicode="n" horiz-adv-x="582" 
d="M87 490h82v-87q23 50 64.5 75.5t96.5 25.5q81 0 123 -46t42 -134v-324h-82v314q0 118 -108 118q-35 0 -66 -19t-50.5 -56.5t-19.5 -88.5v-268h-82v490z" />
    <glyph glyph-name="nacute" unicode="&#x144;" horiz-adv-x="582" 
d="M87 490h82v-87q23 50 64.5 75.5t96.5 25.5q81 0 123 -46t42 -134v-324h-82v314q0 118 -108 118q-35 0 -66 -19t-50.5 -56.5t-19.5 -88.5v-268h-82v490zM335 700h88l-84 -136h-68z" />
    <glyph glyph-name="ncaron" unicode="&#x148;" horiz-adv-x="582" 
d="M87 490h82v-87q23 50 64.5 75.5t96.5 25.5q81 0 123 -46t42 -134v-324h-82v314q0 118 -108 118q-35 0 -66 -19t-50.5 -56.5t-19.5 -88.5v-268h-82v490zM161 700h72l72 -83l72 83h72l-104 -136h-80z" />
    <glyph glyph-name="ncommaaccent" unicode="&#x146;" horiz-adv-x="582" 
d="M87 490h82v-87q23 50 64.5 75.5t96.5 25.5q81 0 123 -46t42 -134v-324h-82v314q0 118 -108 118q-35 0 -66 -19t-50.5 -56.5t-19.5 -88.5v-268h-82v490zM242 -205q29 11 43 27t14 48h-63v82h110v-82q0 -51 -22.5 -75t-64.5 -41z" />
    <glyph glyph-name="ntilde" unicode="&#xf1;" horiz-adv-x="582" 
d="M87 490h82v-87q23 50 64.5 75.5t96.5 25.5q81 0 123 -46t42 -134v-324h-82v314q0 118 -108 118q-35 0 -66 -19t-50.5 -56.5t-19.5 -88.5v-268h-82v490zM139 618q15 25 44 41.5t65 16.5q19 0 34 -5t32 -15q17 -8 27 -12t22 -4q41 0 72 38l36 -43q-14 -25 -43 -42t-66 -17
q-19 0 -33 5t-33 15q-15 8 -25.5 12t-22.5 4q-43 0 -73 -37z" />
    <glyph glyph-name="o" unicode="o" horiz-adv-x="584" 
d="M164.5 18.5q-55.5 32.5 -86 91.5t-30.5 135t30.5 135t86 91.5t127.5 32.5t127.5 -32.5t86 -91.5t30.5 -135t-30.5 -135t-86 -91.5t-127.5 -32.5t-127.5 32.5zM374.5 81.5q36.5 23.5 57 66t20.5 97.5t-20.5 97.5t-57 66t-82.5 23.5t-82.5 -23.5t-57 -66t-20.5 -97.5
t20.5 -97.5t57 -66t82.5 -23.5t82.5 23.5z" />
    <glyph glyph-name="oacute" unicode="&#xf3;" horiz-adv-x="584" 
d="M164.5 18.5q-55.5 32.5 -86 91.5t-30.5 135t30.5 135t86 91.5t127.5 32.5t127.5 -32.5t86 -91.5t30.5 -135t-30.5 -135t-86 -91.5t-127.5 -32.5t-127.5 32.5zM374.5 81.5q36.5 23.5 57 66t20.5 97.5t-20.5 97.5t-57 66t-82.5 23.5t-82.5 -23.5t-57 -66t-20.5 -97.5
t20.5 -97.5t57 -66t82.5 -23.5t82.5 23.5zM322 700h88l-84 -136h-68z" />
    <glyph glyph-name="ocircumflex" unicode="&#xf4;" horiz-adv-x="584" 
d="M164.5 18.5q-55.5 32.5 -86 91.5t-30.5 135t30.5 135t86 91.5t127.5 32.5t127.5 -32.5t86 -91.5t30.5 -135t-30.5 -135t-86 -91.5t-127.5 -32.5t-127.5 32.5zM374.5 81.5q36.5 23.5 57 66t20.5 97.5t-20.5 97.5t-57 66t-82.5 23.5t-82.5 -23.5t-57 -66t-20.5 -97.5
t20.5 -97.5t57 -66t82.5 -23.5t82.5 23.5zM252 700h80l104 -136h-72l-72 83l-72 -83h-72z" />
    <glyph glyph-name="odieresis" unicode="&#xf6;" horiz-adv-x="584" 
d="M164.5 18.5q-55.5 32.5 -86 91.5t-30.5 135t30.5 135t86 91.5t127.5 32.5t127.5 -32.5t86 -91.5t30.5 -135t-30.5 -135t-86 -91.5t-127.5 -32.5t-127.5 32.5zM374.5 81.5q36.5 23.5 57 66t20.5 97.5t-20.5 97.5t-57 66t-82.5 23.5t-82.5 -23.5t-57 -66t-20.5 -97.5
t20.5 -97.5t57 -66t82.5 -23.5t82.5 23.5zM166 667h94v-80h-94v80zM324 667h94v-80h-94v80z" />
    <glyph glyph-name="ograve" unicode="&#xf2;" horiz-adv-x="584" 
d="M164.5 18.5q-55.5 32.5 -86 91.5t-30.5 135t30.5 135t86 91.5t127.5 32.5t127.5 -32.5t86 -91.5t30.5 -135t-30.5 -135t-86 -91.5t-127.5 -32.5t-127.5 32.5zM374.5 81.5q36.5 23.5 57 66t20.5 97.5t-20.5 97.5t-57 66t-82.5 23.5t-82.5 -23.5t-57 -66t-20.5 -97.5
t20.5 -97.5t57 -66t82.5 -23.5t82.5 23.5zM174 700h88l64 -136h-68z" />
    <glyph glyph-name="ohungarumlaut" unicode="&#x151;" horiz-adv-x="584" 
d="M164.5 18.5q-55.5 32.5 -86 91.5t-30.5 135t30.5 135t86 91.5t127.5 32.5t127.5 -32.5t86 -91.5t30.5 -135t-30.5 -135t-86 -91.5t-127.5 -32.5t-127.5 32.5zM374.5 81.5q36.5 23.5 57 66t20.5 97.5t-20.5 97.5t-57 66t-82.5 23.5t-82.5 -23.5t-57 -66t-20.5 -97.5
t20.5 -97.5t57 -66t82.5 -23.5t82.5 23.5zM240 700h88l-84 -136h-68zM394 700h88l-84 -136h-68z" />
    <glyph glyph-name="omacron" unicode="&#x14d;" horiz-adv-x="584" 
d="M164.5 18.5q-55.5 32.5 -86 91.5t-30.5 135t30.5 135t86 91.5t127.5 32.5t127.5 -32.5t86 -91.5t30.5 -135t-30.5 -135t-86 -91.5t-127.5 -32.5t-127.5 32.5zM374.5 81.5q36.5 23.5 57 66t20.5 97.5t-20.5 97.5t-57 66t-82.5 23.5t-82.5 -23.5t-57 -66t-20.5 -97.5
t20.5 -97.5t57 -66t82.5 -23.5t82.5 23.5zM184 652h216v-64h-216v64z" />
    <glyph glyph-name="oslash" unicode="&#xf8;" horiz-adv-x="584" 
d="M78 -2l40 57q-34 35 -52 83.5t-18 106.5q0 76 30.5 135t86 91.5t127.5 32.5q67 0 120 -28l38 54l55 -38l-39 -56q34 -35 52 -84t18 -107q0 -76 -30.5 -135t-86 -91.5t-127.5 -32.5q-68 0 -121 29l-38 -55zM368 413q-35 19 -76 19q-46 0 -82.5 -23.5t-57 -66t-20.5 -97.5
q0 -73 34 -121zM374.5 81.5q36.5 23.5 57 66t20.5 97.5q0 71 -35 122l-202 -289q35 -20 77 -20q46 0 82.5 23.5z" />
    <glyph glyph-name="otilde" unicode="&#xf5;" horiz-adv-x="584" 
d="M164.5 18.5q-55.5 32.5 -86 91.5t-30.5 135t30.5 135t86 91.5t127.5 32.5t127.5 -32.5t86 -91.5t30.5 -135t-30.5 -135t-86 -91.5t-127.5 -32.5t-127.5 32.5zM374.5 81.5q36.5 23.5 57 66t20.5 97.5t-20.5 97.5t-57 66t-82.5 23.5t-82.5 -23.5t-57 -66t-20.5 -97.5
t20.5 -97.5t57 -66t82.5 -23.5t82.5 23.5zM126 618q15 25 44 41.5t65 16.5q19 0 34 -5t32 -15q17 -8 27 -12t22 -4q41 0 72 38l36 -43q-14 -25 -43 -42t-66 -17q-19 0 -33 5t-33 15q-15 8 -25.5 12t-22.5 4q-43 0 -73 -37z" />
    <glyph glyph-name="oe" unicode="&#x153;" horiz-adv-x="958" 
d="M164.5 18.5q-55.5 32.5 -86 91.5t-30.5 135t30.5 135t86 91.5t127.5 32.5q66 0 119 -30.5t84 -86.5q31 54 82.5 85.5t114.5 31.5q65 0 114.5 -28.5t76.5 -76.5t27 -104q0 -30 -6 -64h-370q4 -78 47 -127.5t110 -49.5q97 0 138 86l63 -37q-28 -55 -79 -86t-123 -31
q-65 0 -116 31.5t-80 85.5q-31 -55 -83.5 -86t-118.5 -31q-72 0 -127.5 32.5zM835 294q-4 66 -42.5 104.5t-100.5 38.5q-59 0 -100.5 -39.5t-53.5 -103.5h297zM374.5 81.5q36.5 23.5 57 66t20.5 97.5t-20.5 97.5t-57 66t-82.5 23.5t-82.5 -23.5t-57 -66t-20.5 -97.5
t20.5 -97.5t57 -66t82.5 -23.5t82.5 23.5z" />
    <glyph glyph-name="p" unicode="p" horiz-adv-x="602" 
d="M87 490h82v-81q23 44 67.5 69.5t98.5 25.5q65 0 115 -32.5t77 -91.5t27 -135t-27.5 -135t-77.5 -91.5t-116 -32.5q-56 0 -100 25t-64 65v-286h-82v700zM428.5 109.5q41.5 51.5 41.5 135.5t-41.5 135.5t-110.5 51.5t-110.5 -51.5t-41.5 -135.5t41.5 -135.5t110.5 -51.5
t110.5 51.5z" />
    <glyph glyph-name="thorn" unicode="&#xfe;" horiz-adv-x="601" 
d="M87 700h81v-291q23 44 67.5 69.5t98.5 25.5q65 0 115 -32.5t77 -91.5t27 -135t-27.5 -135t-77.5 -91.5t-116 -32.5q-56 0 -100 25t-64 65v-286h-81v910zM427.5 109q41.5 52 41.5 136t-41.5 136t-109.5 52q-69 0 -111 -52t-42 -136t42 -136t111 -52q68 0 109.5 52z" />
    <glyph glyph-name="q" unicode="q" horiz-adv-x="602" 
d="M433 79q-23 -43 -65.5 -68t-98.5 -25q-66 0 -116 32.5t-77.5 91.5t-27.5 135t27.5 135t77 91.5t115.5 32.5q54 0 98 -24t67 -66v76h82v-700h-82v289zM394 109.5q42 51.5 42 135.5t-42 135.5t-111 51.5t-110 -51.5t-41 -135.5t41 -135.5t110 -51.5t111 51.5z" />
    <glyph glyph-name="r" unicode="r" horiz-adv-x="404" 
d="M87 490h82v-79q15 43 53 68t84 25q21 0 36.5 -4t36.5 -15l-27 -70q-11 10 -26.5 13.5t-37.5 3.5q-29 0 -56.5 -18t-45 -53t-17.5 -82v-279h-82v490z" />
    <glyph glyph-name="racute" unicode="&#x155;" horiz-adv-x="404" 
d="M87 490h82v-79q15 43 53 68t84 25q21 0 36.5 -4t36.5 -15l-27 -70q-11 10 -26.5 13.5t-37.5 3.5q-29 0 -56.5 -18t-45 -53t-17.5 -82v-279h-82v490zM274 700h88l-84 -136h-68z" />
    <glyph glyph-name="rcaron" unicode="&#x159;" horiz-adv-x="404" 
d="M87 490h82v-79q15 43 53 68t84 25q21 0 36.5 -4t36.5 -15l-27 -70q-11 10 -26.5 13.5t-37.5 3.5q-29 0 -56.5 -18t-45 -53t-17.5 -82v-279h-82v490zM100 700h72l72 -83l72 83h72l-104 -136h-80z" />
    <glyph glyph-name="rcommaaccent" unicode="&#x157;" horiz-adv-x="404" 
d="M87 490h82v-79q15 43 53 68t84 25q21 0 36.5 -4t36.5 -15l-27 -70q-11 10 -26.5 13.5t-37.5 3.5q-29 0 -56.5 -18t-45 -53t-17.5 -82v-279h-82v490zM79 -205q29 11 43 27t14 48h-63v82h110v-82q0 -51 -22.5 -75t-64.5 -41z" />
    <glyph glyph-name="s" unicode="s" horiz-adv-x="439" 
d="M118.5 3.5q-43.5 17.5 -70.5 49.5l36 77q24 -34 60.5 -54t73.5 -20q42 0 64.5 19t22.5 57q0 32 -25.5 53.5t-77.5 35.5q-68 18 -103 56t-35 94q0 60 47.5 96.5t115.5 36.5q44 0 81.5 -12t61.5 -32l-28 -71q-51 45 -115 45q-37 0 -60 -17t-23 -47q0 -31 24.5 -52.5
t79.5 -35.5q72 -18 105.5 -53t33.5 -97q0 -64 -47 -105t-122 -41q-56 0 -99.5 17.5z" />
    <glyph glyph-name="sacute" unicode="&#x15b;" horiz-adv-x="439" 
d="M118.5 3.5q-43.5 17.5 -70.5 49.5l36 77q24 -34 60.5 -54t73.5 -20q42 0 64.5 19t22.5 57q0 32 -25.5 53.5t-77.5 35.5q-68 18 -103 56t-35 94q0 60 47.5 96.5t115.5 36.5q44 0 81.5 -12t61.5 -32l-28 -71q-51 45 -115 45q-37 0 -60 -17t-23 -47q0 -31 24.5 -52.5
t79.5 -35.5q72 -18 105.5 -53t33.5 -97q0 -64 -47 -105t-122 -41q-56 0 -99.5 17.5zM258 700h88l-84 -136h-68z" />
    <glyph glyph-name="scaron" unicode="&#x161;" horiz-adv-x="439" 
d="M118.5 3.5q-43.5 17.5 -70.5 49.5l36 77q24 -34 60.5 -54t73.5 -20q42 0 64.5 19t22.5 57q0 32 -25.5 53.5t-77.5 35.5q-68 18 -103 56t-35 94q0 60 47.5 96.5t115.5 36.5q44 0 81.5 -12t61.5 -32l-28 -71q-51 45 -115 45q-37 0 -60 -17t-23 -47q0 -31 24.5 -52.5
t79.5 -35.5q72 -18 105.5 -53t33.5 -97q0 -64 -47 -105t-122 -41q-56 0 -99.5 17.5zM84 700h72l72 -83l72 83h72l-104 -136h-80z" />
    <glyph glyph-name="scedilla" unicode="&#x15f;" horiz-adv-x="439" 
d="M118.5 3.5q-43.5 17.5 -70.5 49.5l36 77q24 -34 60.5 -54t73.5 -20q42 0 64.5 19t22.5 57q0 32 -25.5 53.5t-77.5 35.5q-68 18 -103 56t-35 94q0 60 47.5 96.5t115.5 36.5q44 0 81.5 -12t61.5 -32l-28 -71q-51 45 -115 45q-37 0 -60 -17t-23 -47q0 -31 24.5 -52.5
t79.5 -35.5q72 -18 105.5 -53t33.5 -97q0 -64 -47 -105t-122 -41q-56 0 -99.5 17.5zM161 -213q-24 11 -40 29l30 39q25 -29 62 -29q52 0 52 42t-45 42q-14 0 -26 -6.5t-19 -16.5l-38 17l26 96h52l-34 -70q19 24 58 24t62.5 -22.5t23.5 -64.5q0 -45 -29.5 -68t-80.5 -23
q-30 0 -54 11z" />
    <glyph glyph-name="scommaaccent" unicode="&#x219;" horiz-adv-x="439" 
d="M118.5 3.5q-43.5 17.5 -70.5 49.5l36 77q24 -34 60.5 -54t73.5 -20q42 0 64.5 19t22.5 57q0 32 -25.5 53.5t-77.5 35.5q-68 18 -103 56t-35 94q0 60 47.5 96.5t115.5 36.5q44 0 81.5 -12t61.5 -32l-28 -71q-51 45 -115 45q-37 0 -60 -17t-23 -47q0 -31 24.5 -52.5
t79.5 -35.5q72 -18 105.5 -53t33.5 -97q0 -64 -47 -105t-122 -41q-56 0 -99.5 17.5zM174 -205q29 11 43 27t14 48h-63v82h110v-82q0 -51 -22.5 -75t-64.5 -41z" />
    <glyph glyph-name="germandbls" unicode="&#xdf;" horiz-adv-x="581" 
d="M232 10v80q18 -13 44 -22.5t53 -9.5q48 0 78 26.5t30 72.5q0 35 -17.5 57t-58.5 49q-42 27 -60 50.5t-18 56.5q0 28 12.5 49.5t37.5 46.5q25 24 38.5 43.5t13.5 43.5q0 43 -29 66t-75 23t-79 -31t-33 -91v-520h-82v522q0 59 25.5 102.5t70.5 66.5t100 23q80 0 129 -40.5
t49 -111.5q0 -77 -58 -129q-24 -22 -33 -33t-9 -24q0 -18 17 -34.5t58 -41.5q81 -51 81 -138q0 -81 -50 -128.5t-131 -47.5q-54 0 -104 24z" />
    <glyph glyph-name="t" unicode="t" horiz-adv-x="341" 
d="M317 2q-26 -10 -44 -13t-47 -3q-60 0 -94.5 38t-34.5 115v285h-69v66h69v134l82 16v-150h124v-66h-124v-288q0 -40 16 -59t49 -19q18 0 31 3t31 12z" />
    <glyph glyph-name="tcaron" unicode="&#x165;" horiz-adv-x="341" 
d="M317 2q-26 -10 -44 -13t-47 -3q-60 0 -94.5 38t-34.5 115v285h-69v66h69v134l82 16v-150h124v-66h-124v-288q0 -40 16 -59t49 -19q18 0 31 3t31 12zM252 605q32 12 46.5 28t14.5 46h-62v80h110v-80q0 -51 -24.5 -79.5t-67.5 -42.5z" />
    <glyph glyph-name="uni0163" unicode="&#x163;" horiz-adv-x="341" 
d="M317 2q-26 -10 -44 -13t-47 -3q-60 0 -94.5 38t-34.5 115v285h-69v66h69v134l82 16v-150h124v-66h-124v-288q0 -40 16 -59t49 -19q18 0 31 3t31 12zM166 -213q-24 11 -40 29l30 39q25 -29 62 -29q52 0 52 42t-45 42q-14 0 -26 -6.5t-19 -16.5l-38 17l26 96h52l-34 -70
q19 24 58 24t62.5 -22.5t23.5 -64.5q0 -45 -29.5 -68t-80.5 -23q-30 0 -54 11z" />
    <glyph glyph-name="uni021B" unicode="&#x21b;" horiz-adv-x="341" 
d="M317 2q-26 -10 -44 -13t-47 -3q-60 0 -94.5 38t-34.5 115v285h-69v66h69v134l82 16v-150h124v-66h-124v-288q0 -40 16 -59t49 -19q18 0 31 3t31 12zM179 -205q29 11 43 27t14 48h-63v82h110v-82q0 -51 -22.5 -75t-64.5 -41z" />
    <glyph glyph-name="u" unicode="u" horiz-adv-x="582" 
d="M129 32q-42 46 -42 134v324h82v-314q0 -118 108 -118q35 0 66 19t50.5 56.5t19.5 88.5v268h82v-490h-82v87q-23 -50 -64.5 -75.5t-96.5 -25.5q-81 0 -123 46z" />
    <glyph glyph-name="uacute" unicode="&#xfa;" horiz-adv-x="582" 
d="M129 32q-42 46 -42 134v324h82v-314q0 -118 108 -118q35 0 66 19t50.5 56.5t19.5 88.5v268h82v-490h-82v87q-23 -50 -64.5 -75.5t-96.5 -25.5q-81 0 -123 46zM320 700h88l-84 -136h-68z" />
    <glyph glyph-name="ucircumflex" unicode="&#xfb;" horiz-adv-x="582" 
d="M129 32q-42 46 -42 134v324h82v-314q0 -118 108 -118q35 0 66 19t50.5 56.5t19.5 88.5v268h82v-490h-82v87q-23 -50 -64.5 -75.5t-96.5 -25.5q-81 0 -123 46zM250 700h80l104 -136h-72l-72 83l-72 -83h-72z" />
    <glyph glyph-name="udieresis" unicode="&#xfc;" horiz-adv-x="582" 
d="M129 32q-42 46 -42 134v324h82v-314q0 -118 108 -118q35 0 66 19t50.5 56.5t19.5 88.5v268h82v-490h-82v87q-23 -50 -64.5 -75.5t-96.5 -25.5q-81 0 -123 46zM164 667h94v-80h-94v80zM322 667h94v-80h-94v80z" />
    <glyph glyph-name="ugrave" unicode="&#xf9;" horiz-adv-x="582" 
d="M129 32q-42 46 -42 134v324h82v-314q0 -118 108 -118q35 0 66 19t50.5 56.5t19.5 88.5v268h82v-490h-82v87q-23 -50 -64.5 -75.5t-96.5 -25.5q-81 0 -123 46zM172 700h88l64 -136h-68z" />
    <glyph glyph-name="uhungarumlaut" unicode="&#x171;" horiz-adv-x="582" 
d="M129 32q-42 46 -42 134v324h82v-314q0 -118 108 -118q35 0 66 19t50.5 56.5t19.5 88.5v268h82v-490h-82v87q-23 -50 -64.5 -75.5t-96.5 -25.5q-81 0 -123 46zM238 700h88l-84 -136h-68zM392 700h88l-84 -136h-68z" />
    <glyph glyph-name="umacron" unicode="&#x16b;" horiz-adv-x="582" 
d="M129 32q-42 46 -42 134v324h82v-314q0 -118 108 -118q35 0 66 19t50.5 56.5t19.5 88.5v268h82v-490h-82v87q-23 -50 -64.5 -75.5t-96.5 -25.5q-81 0 -123 46zM182 652h216v-64h-216v64z" />
    <glyph glyph-name="uogonek" unicode="&#x173;" horiz-adv-x="582" 
d="M129 32q-42 46 -42 134v324h82v-314q0 -118 108 -118q35 0 66 19t50.5 56.5t19.5 88.5v268h82v-490h-82v87q-23 -50 -64.5 -75.5t-96.5 -25.5q-81 0 -123 46zM395.5 -172q-23.5 24 -23.5 68q0 31 15 58t40 46h68q-31 -25 -46 -47t-15 -49q0 -21 10.5 -31.5t27.5 -10.5
q12 0 20 2.5t17 9.5v-60q-21 -10 -50 -10q-40 0 -63.5 24z" />
    <glyph glyph-name="uring" unicode="&#x16f;" horiz-adv-x="582" 
d="M129 32q-42 46 -42 134v324h82v-314q0 -118 108 -118q35 0 66 19t50.5 56.5t19.5 88.5v268h82v-490h-82v87q-23 -50 -64.5 -75.5t-96.5 -25.5q-81 0 -123 46zM228.5 572.5q-24.5 24.5 -24.5 61.5t24.5 61.5t61.5 24.5t61.5 -24.5t24.5 -61.5t-24.5 -61.5t-61.5 -24.5
t-61.5 24.5zM321.5 602.5q12.5 12.5 12.5 31.5t-12.5 31.5t-31.5 12.5t-31.5 -12.5t-12.5 -31.5t12.5 -31.5t31.5 -12.5t31.5 12.5z" />
    <glyph glyph-name="v" unicode="v" horiz-adv-x="510" 
d="M20 490h89l146 -380l146 380h89l-199 -490h-72z" />
    <glyph glyph-name="w" unicode="w" horiz-adv-x="696" 
d="M26 490h84l101 -376l103 376h68l103 -376l102 376h83l-145 -490h-76l-101 363l-101 -363h-76z" />
    <glyph glyph-name="x" unicode="x" horiz-adv-x="472" 
d="M356 0l-120 186l-121 -186h-91l167 251l-160 239h88l117 -175l116 175h88l-160 -239l168 -251h-92z" />
    <glyph glyph-name="y" unicode="y" horiz-adv-x="514" 
d="M494 490l-243 -618q-20 -52 -48 -74t-68 -22q-38 0 -68 14l14 76q21 -13 47 -13q16 0 30 10.5t22 31.5l38 100l-198 495h91l149 -385l148 385h86z" />
    <glyph glyph-name="yacute" unicode="&#xfd;" horiz-adv-x="514" 
d="M494 490l-243 -618q-20 -52 -48 -74t-68 -22q-38 0 -68 14l14 76q21 -13 47 -13q16 0 30 10.5t22 31.5l38 100l-198 495h91l149 -385l148 385h86zM289 700h88l-84 -136h-68z" />
    <glyph glyph-name="ydieresis" unicode="&#xff;" horiz-adv-x="514" 
d="M494 490l-243 -618q-20 -52 -48 -74t-68 -22q-38 0 -68 14l14 76q21 -13 47 -13q16 0 30 10.5t22 31.5l38 100l-198 495h91l149 -385l148 385h86zM133 667h94v-80h-94v80zM291 667h94v-80h-94v80z" />
    <glyph glyph-name="z" unicode="z" horiz-adv-x="452" 
d="M34 58l271 366h-259v66h358v-58l-270 -366h278v-66h-378v58z" />
    <glyph glyph-name="zacute" unicode="&#x17a;" horiz-adv-x="452" 
d="M34 58l271 366h-259v66h358v-58l-270 -366h278v-66h-378v58zM255 700h88l-84 -136h-68z" />
    <glyph glyph-name="zcaron" unicode="&#x17e;" horiz-adv-x="452" 
d="M34 58l271 366h-259v66h358v-58l-270 -366h278v-66h-378v58zM81 700h72l72 -83l72 83h72l-104 -136h-80z" />
    <glyph glyph-name="zdotaccent" unicode="&#x17c;" horiz-adv-x="452" 
d="M34 58l271 366h-259v66h358v-58l-270 -366h278v-66h-378v58zM170 657h110v-86h-110v86z" />
    <glyph glyph-name="f.alt" horiz-adv-x="324" 
d="M197 622.5q-18 -19.5 -18 -55.5v-77h119v-66h-119v-424h-82v424h-69v66h69v81q0 69 40 106t106 37q41 0 69 -14v-74q-28 16 -66 16q-31 0 -49 -19.5z" />
    <glyph glyph-name="j.alt" horiz-adv-x="256" 
d="M73 657h110v-86h-110v86zM-18 -214v76q22 -14 54 -14q27 0 39 15.5t12 51.5v575h82v-575q0 -71 -31 -105t-93 -34q-40 0 -63 10z" />
    <glyph glyph-name="r.alt" horiz-adv-x="404" 
d="M87 490h82v-79q15 43 52.5 68t83.5 25q35 0 60 -9v-77q-29 14 -71 14q-31 0 -60 -18t-47 -52.5t-18 -82.5v-279h-82v490z" />
    <glyph glyph-name="racute.alt" horiz-adv-x="404" 
d="M87 490h82v-79q15 43 52.5 68t83.5 25q35 0 60 -9v-77q-29 14 -71 14q-31 0 -60 -18t-47 -52.5t-18 -82.5v-279h-82v490zM274 700h88l-84 -136h-68z" />
    <glyph glyph-name="rcaron.alt" horiz-adv-x="404" 
d="M87 490h82v-79q15 43 52.5 68t83.5 25q35 0 60 -9v-77q-29 14 -71 14q-31 0 -60 -18t-47 -52.5t-18 -82.5v-279h-82v490zM100 700h72l72 -83l72 83h72l-104 -136h-80z" />
    <glyph glyph-name="rcommaaccent.alt" horiz-adv-x="404" 
d="M87 490h82v-79q15 43 52.5 68t83.5 25q35 0 60 -9v-77q-29 14 -71 14q-31 0 -60 -18t-47 -52.5t-18 -82.5v-279h-82v490zM79 -205q29 11 43 27t14 48h-63v82h110v-82q0 -51 -22.5 -75t-64.5 -41z" />
    <glyph glyph-name="t.alt" horiz-adv-x="341" 
d="M312 74v-72q-37 -16 -86 -16q-60 0 -94.5 38t-34.5 115v285h-69v66h69v134l82 16v-150h124v-66h-124v-288q0 -40 16 -59t49 -19q36 0 68 16z" />
    <glyph glyph-name="tcaron.alt" horiz-adv-x="341" 
d="M312 74v-72q-37 -16 -86 -16q-60 0 -94.5 38t-34.5 115v285h-69v66h69v134l82 16v-150h124v-66h-124v-288q0 -40 16 -59t49 -19q36 0 68 16zM262 635q32 12 46.5 28t14.5 46h-62v80h110v-80q0 -51 -24.5 -79.5t-67.5 -42.5z" />
    <glyph glyph-name="uni0163.alt" horiz-adv-x="341" 
d="M312 74v-72q-37 -16 -86 -16q-60 0 -94.5 38t-34.5 115v285h-69v66h69v134l82 16v-150h124v-66h-124v-288q0 -40 16 -59t49 -19q36 0 68 16zM166 -213q-24 11 -40 29l30 39q25 -29 62 -29q52 0 52 42t-45 42q-14 0 -26 -6.5t-19 -16.5l-38 17l26 96h52l-34 -70
q19 24 58 24t62.5 -22.5t23.5 -64.5q0 -45 -29.5 -68t-80.5 -23q-30 0 -54 11z" />
    <glyph glyph-name="uni021B.alt" horiz-adv-x="341" 
d="M312 74v-72q-37 -16 -86 -16q-60 0 -94.5 38t-34.5 115v285h-69v66h69v134l82 16v-150h124v-66h-124v-288q0 -40 16 -59t49 -19q36 0 68 16zM179 -205q29 11 43 27t14 48h-63v82h110v-82q0 -51 -22.5 -75t-64.5 -41z" />
    <glyph glyph-name="f_i" horiz-adv-x="580" 
d="M493 0h-82v424h-232v-424h-82v424h-69v66h69v81q0 69 40 106t106 37q41 0 69 -14v-74q-28 16 -66 16q-31 0 -49 -19.5t-18 -55.5v-77h314v-490zM507 657v-86h-110v86h110z" />
    <glyph glyph-name="f_l" horiz-adv-x="584" 
d="M137 677q40 37 106 37q41 0 69 -14v-74q-28 16 -66 16q-31 0 -49 -19.5t-18 -55.5v-77h119v-66h-119v-424h-82v424h-69v66h69v81q0 69 40 106zM546 69v-66q-21 -10 -52 -10q-41 0 -62 26t-21 71v610h82v-604q0 -15 8 -24t21 -9q11 0 24 6z" />
    <glyph glyph-name="ordfeminine" unicode="&#xaa;" horiz-adv-x="371" 
d="M65 349q-33 29 -33 81t34 82.5t90 33.5l107 6v35q0 35 -22.5 55t-59.5 20q-33 0 -57.5 -16.5t-34.5 -47.5l-48 23q12 42 50.5 67.5t90.5 25.5q66 0 105 -32.5t39 -91.5v-188q0 -43 16 -71h-62q-13 21 -16 52q-18 -31 -47.5 -47t-67.5 -16q-51 0 -84 29zM236.5 403.5
q26.5 30.5 26.5 77.5v24l-87 -5q-78 -4 -78 -68q0 -27 18.5 -43t48.5 -16q45 0 71.5 30.5z" />
    <glyph glyph-name="ordmasculine" unicode="&#xba;" horiz-adv-x="427" 
d="M117 345q-42 25 -65 69.5t-23 102.5t23 102.5t65 69.5t96 25q55 0 97 -25t65 -69.5t23 -102.5t-23 -102.5t-65 -69.5t-97 -25q-54 0 -96 25zM298 416q33 39 33 101q0 63 -33 102t-85 39t-85 -39t-33 -102q0 -62 33 -101t85 -39t85 39z" />
    <glyph glyph-name="uni0410" unicode="&#x410;" horiz-adv-x="648" 
d="M472 172h-296l-64 -172h-89l264 700h74l264 -700h-89zM445 246l-121 327l-121 -327h242z" />
    <glyph glyph-name="uni0411" unicode="&#x411;" horiz-adv-x="646" 
d="M536 345q58 -53 58 -146t-58 -146t-156 -53h-287v700h434v-74h-348v-228h201q98 0 156 -53zM473 107.5q35 33.5 35 91.5q0 59 -34.5 92t-95.5 33h-199v-250h199q60 0 95 33.5z" />
    <glyph glyph-name="uni0412" unicode="&#x412;" horiz-adv-x="646" 
d="M93 700h260q102 0 157.5 -48t55.5 -134q0 -51 -25 -88t-65 -56q118 -49 118 -178q0 -93 -58 -144.5t-156 -51.5h-287v700zM353 398q60 0 93.5 30t33.5 84t-33.5 84t-93.5 30h-174v-228h174zM378 74q60 0 95 33.5t35 91.5q0 59 -34.5 92t-95.5 33h-199v-250h199z" />
    <glyph glyph-name="uni0413" unicode="&#x413;" horiz-adv-x="583" 
d="M537 626h-358v-626h-86v700h444v-74z" />
    <glyph glyph-name="uni0403" unicode="&#x403;" horiz-adv-x="583" 
d="M537 626h-358v-626h-86v700h444v-74zM345 910h88l-84 -136h-68z" />
    <glyph glyph-name="uni0490" unicode="&#x490;" horiz-adv-x="583" 
d="M537 806v-180h-358v-626h-86v700h358v106h86z" />
    <glyph glyph-name="uni0414" unicode="&#x414;" horiz-adv-x="655" 
d="M632 74v-192h-80v118h-449v-118h-80v192h70q27 113 39 218.5t12 227.5v180h418v-626h70zM476 626h-246v-120q0 -121 -13 -225t-37 -207h296v552z" />
    <glyph glyph-name="uni0415" unicode="&#x415;" horiz-adv-x="581" 
d="M179 626v-227h269v-74h-269v-251h358v-74h-444v700h444v-74h-358z" />
    <glyph glyph-name="uni0400" unicode="&#x400;" horiz-adv-x="581" 
d="M179 626v-227h269v-74h-269v-251h358v-74h-444v700h444v-74h-358zM197 910h88l64 -136h-68z" />
    <glyph glyph-name="uni0401" unicode="&#x401;" horiz-adv-x="581" 
d="M179 626v-227h269v-74h-269v-251h358v-74h-444v700h444v-74h-358zM189 877h94v-80h-94v80zM347 877h94v-80h-94v80z" />
    <glyph glyph-name="uni0416" unicode="&#x416;" horiz-adv-x="880" 
d="M54 68l94 198q4 8 17 37t33 49t48 26q-22 15 -35.5 31t-25 45t-23.5 82q-14 61 -30.5 83.5t-47.5 22.5q-22 0 -42 -10l-17 71q28 11 59 11q59 0 94.5 -32.5t51.5 -112.5q17 -87 47 -125.5t85 -38.5h35v295h86v-295h35q55 0 85 38.5t47 125.5q16 80 51.5 112.5t94.5 32.5
q31 0 59 -11l-17 -71q-20 10 -42 10q-31 0 -47.5 -22.5t-30.5 -83.5q-12 -53 -23.5 -82t-25 -45t-35.5 -31q35 -8 54 -32t30 -48q10 -24 14 -32l94 -198q18 -38 46 -68h-93q-22 22 -38 55l-94 196q-19 40 -41.5 61t-60.5 21h-62v-333h-86v333h-62q-38 0 -60.5 -21t-41.5 -61
l-94 -196q-16 -33 -38 -55h-93q28 30 46 68z" />
    <glyph glyph-name="uni0417" unicode="&#x417;" horiz-adv-x="597" 
d="M536 201q0 -64 -31 -112.5t-86.5 -75.5t-126.5 -27q-100 0 -161 51t-84 133l73 40q18 -70 61 -109t111 -39q73 0 114.5 35.5t41.5 103.5q0 63 -37.5 96.5t-107.5 33.5h-49v74h41q59 0 93 32t34 91q0 53 -37.5 81.5t-97.5 28.5q-58 0 -96.5 -30t-53.5 -89l-65 34
q16 71 73 116t142 45q100 0 159.5 -47.5t59.5 -135.5q0 -58 -29 -98t-75 -58q134 -34 134 -174z" />
    <glyph glyph-name="uni0418" unicode="&#x418;" horiz-adv-x="742" 
d="M93 700h84v-552l397 552h75v-700h-84v552l-397 -552h-75v700z" />
    <glyph glyph-name="uni0419" unicode="&#x419;" horiz-adv-x="742" 
d="M93 700h84v-552l397 552h75v-700h-84v552l-397 -552h-75v700zM296.5 804q-28.5 27 -28.5 75h58q0 -22 12 -36t33 -14t33 14t12 36h58q0 -48 -28.5 -75t-74.5 -27t-74.5 27z" />
    <glyph glyph-name="uni040D" unicode="&#x40d;" horiz-adv-x="742" 
d="M93 700h84v-552l397 552h75v-700h-84v552l-397 -552h-75v700zM253 910h88l64 -136h-68z" />
    <glyph glyph-name="uni041A" unicode="&#x41a;" horiz-adv-x="576" 
d="M93 700h86v-295h35q55 0 85 38.5t47 125.5q16 79 53 112t93 33q31 0 59 -11l-17 -71q-20 10 -42 10q-31 0 -47.5 -22.5t-30.5 -83.5q-17 -74 -35 -104.5t-49 -53.5q35 -8 54 -32t30 -48q10 -24 14 -32l94 -198q18 -38 46 -68h-93q-22 22 -38 55l-94 196q-19 40 -41.5 61
t-60.5 21h-62v-333h-86v700z" />
    <glyph glyph-name="uni040C" unicode="&#x40c;" horiz-adv-x="576" 
d="M93 700h86v-295h35q55 0 85 38.5t47 125.5q16 79 53 112t93 33q31 0 59 -11l-17 -71q-20 10 -42 10q-31 0 -47.5 -22.5t-30.5 -83.5q-17 -74 -35 -104.5t-49 -53.5q35 -8 54 -32t30 -48q10 -24 14 -32l94 -198q18 -38 46 -68h-93q-22 22 -38 55l-94 196q-19 40 -41.5 61
t-60.5 21h-62v-333h-86v700zM333 910h88l-84 -136h-68z" />
    <glyph glyph-name="uni041B" unicode="&#x41b;" horiz-adv-x="703" 
d="M28 -7v72q22 -9 44 -9q35 0 53.5 35t22.5 122l26 487h436v-700h-86v626h-270l-23 -433q-5 -101 -40 -154t-106 -53q-36 0 -57 7z" />
    <glyph glyph-name="uni041C" unicode="&#x41c;" horiz-adv-x="864" 
d="M93 700h78l261 -540l261 540h78v-700h-84v511l-223 -454h-64l-223 454v-511h-84v700z" />
    <glyph glyph-name="uni041D" unicode="&#x41d;" horiz-adv-x="712" 
d="M619 700v-700h-86v324h-354v-324h-86v700h86v-302h354v302h86z" />
    <glyph glyph-name="uni041E" unicode="&#x41e;" horiz-adv-x="770" 
d="M212 32.5q-74 46.5 -114 129.5t-40 188t40 188t114 129.5t173 46.5t173 -46.5t114 -129.5t40 -188t-40 -188t-114 -129.5t-173 -46.5t-173 46.5zM512.5 98q54.5 38 83 104t28.5 148t-28.5 148t-83 104t-127.5 38t-127.5 -38t-83 -104t-28.5 -148t28.5 -148t83 -104
t127.5 -38t127.5 38z" />
    <glyph glyph-name="uni041F" unicode="&#x41f;" horiz-adv-x="712" 
d="M619 0h-86v626h-354v-626h-86v700h526v-700z" />
    <glyph glyph-name="uni0420" unicode="&#x420;" horiz-adv-x="624" 
d="M93 700h268q107 0 164 -54t57 -150t-57 -150t-164 -54h-182v-292h-86v700zM362 364q68 0 102.5 34t34.5 98t-34.5 98t-102.5 34h-183v-264h183z" />
    <glyph glyph-name="uni0421" unicode="&#x421;" horiz-adv-x="711" 
d="M213 34q-74 48 -114.5 130.5t-40.5 185.5t40.5 185.5t114.5 130.5t172 48q102 0 175 -45.5t105 -134.5l-72 -34q-25 68 -80.5 104t-127.5 36q-74 0 -128 -38.5t-82.5 -105t-28.5 -146.5t28.5 -146.5t82.5 -105t128 -38.5t124.5 34.5t81.5 102.5l71 -33
q-38 -86 -107.5 -132t-169.5 -46q-98 0 -172 48z" />
    <glyph glyph-name="uni0422" unicode="&#x422;" horiz-adv-x="553" 
d="M525 626h-206v-626h-86v626h-205v74h497v-74z" />
    <glyph glyph-name="uni0423" unicode="&#x423;" horiz-adv-x="582" 
d="M566 700l-262 -590q-29 -66 -65.5 -95t-83.5 -29q-58 0 -96 30l25 70q35 -26 66 -26q28 0 45 15.5t34 54.5l25 57l-238 513h90l191 -413l179 413h90z" />
    <glyph glyph-name="uni040E" unicode="&#x40e;" horiz-adv-x="582" 
d="M566 700l-262 -590q-29 -66 -65.5 -95t-83.5 -29q-58 0 -96 30l25 70q35 -26 66 -26q28 0 45 15.5t34 54.5l25 57l-238 513h90l191 -413l179 413h90zM221.5 804q-28.5 27 -28.5 75h58q0 -22 12 -36t33 -14t33 14t12 36h58q0 -48 -28.5 -75t-74.5 -27t-74.5 27z" />
    <glyph glyph-name="uni0424" unicode="&#x424;" horiz-adv-x="818" 
d="M623 590.5q66 -32.5 101.5 -94.5t35.5 -146t-35.5 -146t-101.5 -94.5t-154 -32.5h-17v-77h-86v77h-17q-88 0 -154 32.5t-101.5 94.5t-35.5 146t35.5 146t101.5 94.5t154 32.5h17v77h86v-77h17q88 0 154 -32.5zM366 151v398h-25q-93 0 -145 -51.5t-52 -147.5t52 -147.5
t145 -51.5h25zM622 202.5q52 51.5 52 147.5t-52 147.5t-145 51.5h-25v-398h25q93 0 145 51.5z" />
    <glyph glyph-name="uni0425" unicode="&#x425;" horiz-adv-x="617" 
d="M494 0l-185 295l-186 -295h-96l235 370l-207 330h96l158 -255l157 255h96l-206 -330l234 -370h-96z" />
    <glyph glyph-name="uni0427" unicode="&#x427;" horiz-adv-x="665" 
d="M572 700v-700h-86v305q-32 -27 -74.5 -43t-91.5 -16q-115 0 -176 63.5t-61 192.5v198h86v-193q0 -95 39.5 -141t118.5 -46q90 0 159 70v310h86z" />
    <glyph glyph-name="uni0426" unicode="&#x426;" horiz-adv-x="712" 
d="M609 0h-516v700h86v-626h354v626h86v-626h70v-192h-80v118z" />
    <glyph glyph-name="uni0428" unicode="&#x428;" horiz-adv-x="972" 
d="M93 700h86v-626h264v626h86v-626h264v626h86v-700h-786v700z" />
    <glyph glyph-name="uni0429" unicode="&#x429;" horiz-adv-x="972" 
d="M949 74v-192h-80v118h-776v700h86v-626h264v626h86v-626h264v626h86v-626h70z" />
    <glyph glyph-name="uni040F" unicode="&#x40f;" horiz-adv-x="712" 
d="M619 700v-700h-223v-118h-80v118h-223v700h86v-626h354v626h86z" />
    <glyph glyph-name="uni042C" unicode="&#x42c;" horiz-adv-x="646" 
d="M93 700h86v-302h201q98 0 156 -53t58 -146t-58 -146t-156 -53h-287v700zM378 74q60 0 95 33.5t35 91.5q0 59 -34.5 92t-95.5 33h-199v-250h199z" />
    <glyph glyph-name="uni042A" unicode="&#x42a;" horiz-adv-x="717" 
d="M607 345q58 -53 58 -146t-58 -146t-156 -53h-287v626h-150v74h236v-302h201q98 0 156 -53zM544 107.5q35 33.5 35 91.5q0 59 -34.5 92t-95.5 33h-199v-250h199q60 0 95 33.5z" />
    <glyph glyph-name="uni042B" unicode="&#x42b;" horiz-adv-x="918" 
d="M93 700h86v-302h201q98 0 156 -53t58 -146t-58 -146t-156 -53h-287v700zM378 74q60 0 95 33.5t35 91.5q0 59 -34.5 92t-95.5 33h-199v-250h199zM739 700h86v-700h-86v700z" />
    <glyph glyph-name="uni0409" unicode="&#x409;" horiz-adv-x="1077" 
d="M967 345q58 -53 58 -146t-58 -146t-156 -53h-287v626h-270l-23 -433q-5 -101 -40 -154t-106 -53q-36 0 -57 7v72q22 -9 44 -9q35 0 53.5 35t22.5 122l26 487h436v-302h201q98 0 156 -53zM904 107.5q35 33.5 35 91.5q0 59 -34.5 92t-95.5 33h-199v-250h199q60 0 95 33.5z
" />
    <glyph glyph-name="uni040A" unicode="&#x40a;" horiz-adv-x="1068" 
d="M93 700h86v-302h336v302h86v-302h201q98 0 156 -53t58 -146t-58 -146t-156 -53h-287v324h-336v-324h-86v700zM800 74q60 0 95 33.5t35 91.5q0 59 -34.5 92t-95.5 33h-199v-250h199z" />
    <glyph glyph-name="uni0405" unicode="&#x405;" horiz-adv-x="544" 
d="M132 14q-61 28 -91 71l27 94q43 -61 89.5 -90t108.5 -29q63 0 102 34t39 90q0 58 -33 90.5t-120 53.5q-200 50 -200 204q0 55 29.5 96.5t80 63.5t110.5 22t110 -19t84 -47l-26 -81q-80 73 -167 73q-57 0 -97 -28.5t-40 -77.5q0 -52 38 -84.5t126 -55.5q99 -26 146 -74
t47 -128q0 -62 -30 -108.5t-82.5 -72t-116.5 -25.5q-73 0 -134 28z" />
    <glyph glyph-name="uni0404" unicode="&#x404;" horiz-adv-x="711" 
d="M509.5 94.5q50.5 34.5 81.5 102.5l71 -33q-38 -86 -107.5 -132t-169.5 -46q-98 0 -172 48t-114.5 130.5t-40.5 185.5t40.5 185.5t114.5 130.5t172 48q102 0 175 -45.5t105 -134.5l-72 -34q-25 68 -80.5 104t-127.5 36q-68 0 -119.5 -33t-81.5 -90.5t-36 -129.5h378v-74
h-378q6 -72 36 -129.5t81.5 -90.5t119.5 -33q74 0 124.5 34.5z" />
    <glyph glyph-name="uni042D" unicode="&#x42d;" horiz-adv-x="711" 
d="M201.5 605.5q-50.5 -34.5 -81.5 -102.5l-71 33q38 86 107.5 132t169.5 46q98 0 172 -48t114.5 -130.5t40.5 -185.5t-40.5 -185.5t-114.5 -130.5t-172 -48q-102 0 -175 45.5t-105 134.5l72 34q25 -68 80.5 -104t127.5 -36q68 0 119.5 33t81.5 90.5t36 129.5h-378v74h378
q-6 72 -36 129.5t-81.5 90.5t-119.5 33q-74 0 -124.5 -34.5z" />
    <glyph glyph-name="uni0406" unicode="&#x406;" horiz-adv-x="272" 
d="M93 700h86v-700h-86v700z" />
    <glyph glyph-name="uni0407" unicode="&#x407;" horiz-adv-x="272" 
d="M93 700h86v-700h-86v700zM10 877h94v-80h-94v80zM168 877h94v-80h-94v80z" />
    <glyph glyph-name="uni0408" unicode="&#x408;" horiz-adv-x="501" 
d="M102 11.5q-47 25.5 -74 68.5l46 66q57 -86 138 -86q54 0 87 37.5t33 117.5v485h86v-485q0 -115 -54.5 -172t-151.5 -57q-63 0 -110 25.5z" />
    <glyph glyph-name="uni040B" unicode="&#x40b;" horiz-adv-x="767" 
d="M627 379q49 -51 49 -140v-239h-86v228q0 64 -35 96t-92 32q-40 0 -77.5 -13.5t-66.5 -34.5v-308h-86v626h-205v74h497v-74h-206v-247q29 21 72 36t97 15q90 0 139 -51z" />
    <glyph glyph-name="uni042E" unicode="&#x42e;" horiz-adv-x="1042" 
d="M830 667.5q74 -46.5 114 -129.5t40 -188t-40 -188t-114 -129.5t-173 -46.5q-95 0 -167 43t-113 119.5t-46 175.5h-152v-324h-86v700h86v-302h153q9 93 51 164.5t112.5 111.5t161.5 40q99 0 173 -46.5zM784.5 98q54.5 38 83 104t28.5 148t-28.5 148t-83 104t-127.5 38
t-127.5 -38t-83 -104t-28.5 -148t28.5 -148t83 -104t127.5 -38t127.5 38z" />
    <glyph glyph-name="uni042F" unicode="&#x42f;" horiz-adv-x="652" 
d="M559 700h-285q-96 0 -150 -50t-54 -134q0 -66 40 -111.5t96 -55.5q-42 -15 -65 -83l-65 -198q-13 -42 -38 -68h91q17 17 30 55l67 196q13 38 30.5 54.5t55.5 16.5h161v-322h86v700zM277 394q-123 0 -123 117t123 117h196v-234h-196z" />
    <glyph glyph-name="uni0402" unicode="&#x402;" horiz-adv-x="742" 
d="M583 405q49 -25 78 -75t29 -122q0 -75 -31 -125t-79 -73.5t-102 -23.5q-53 0 -98 20v80q44 -26 93 -26q54 0 92.5 38t38.5 110q0 69 -40.5 108.5t-103.5 39.5q-41 0 -79 -13.5t-62 -34.5v-308h-86v626h-205v74h497v-74h-206v-242q32 20 69.5 33t87.5 13q58 0 107 -25z
" />
    <glyph glyph-name="uni0462" unicode="&#x462;" horiz-adv-x="720" 
d="M610 345q58 -53 58 -146t-58 -146t-156 -53h-287v538h-157v70h157v92h86v-92h157v-70h-157v-140h201q98 0 156 -53zM547 107.5q35 33.5 35 91.5q0 59 -34.5 92t-95.5 33h-199v-250h199q60 0 95 33.5z" />
    <glyph glyph-name="uni0472" unicode="&#x472;" horiz-adv-x="770" 
d="M558 667.5q74 -46.5 114 -129.5t40 -188t-40 -188t-114 -129.5t-173 -46.5t-173 46.5t-114 129.5t-40 188t40 188t114 129.5t173 46.5t173 -46.5zM265 607q-52 -33 -82 -91t-36 -131q55 35 121 35q33 0 62 -9t67 -26q36 -15 58.5 -22.5t47.5 -7.5q33 0 65 11t54 29
q-12 109 -74.5 177t-162.5 68q-68 0 -120 -33zM505 93q52 33 82 91t36 131q-55 -35 -121 -35q-33 0 -62 9t-67 26q-36 15 -58.5 22.5t-47.5 7.5q-32 0 -64.5 -11t-54.5 -29q12 -109 74.5 -177t162.5 -68q68 0 120 33z" />
    <glyph glyph-name="uni0474" unicode="&#x474;" horiz-adv-x="730" 
d="M18 700h90l215 -578l183 492q38 100 121 100q29 0 50 -9.5t39 -27.5l-42 -75q-9 12 -21 19t-25 7q-15 0 -25.5 -11t-18.5 -33l-225 -584h-72z" />
    <glyph glyph-name="uni0430" unicode="&#x430;" horiz-adv-x="516" 
d="M94.5 24q-43.5 38 -43.5 106q0 67 44.5 107t120.5 45l141 9v46q0 48 -30 74.5t-80 26.5q-44 0 -77 -22t-46 -64l-62 29q15 55 66 89t120 34q87 0 138 -42.5t51 -120.5v-248q0 -29 4.5 -51t16.5 -42h-80q-17 26 -21 70q-23 -41 -62 -62.5t-90 -21.5q-67 0 -110.5 38z
M322 93q35 41 35 105v32l-116 -7q-55 -4 -80.5 -26t-25.5 -64q0 -37 24.5 -59t66.5 -22q61 0 96 41z" />
    <glyph glyph-name="uni0431" unicode="&#x431;" horiz-adv-x="570" 
d="M113.5 63q-65.5 77 -65.5 243q0 191 65.5 288.5t212.5 97.5q36 0 73 6t57 16v-69q-38 -22 -129 -22q-99 0 -146 -58t-51 -180q15 51 64 83t105 32q66 0 116.5 -32t78.5 -90.5t28 -134.5t-29.5 -134.5t-83 -90.5t-122.5 -32q-108 0 -173.5 77zM396.5 106.5
q41.5 52.5 41.5 136.5t-41.5 136.5t-109.5 52.5q-69 0 -111 -52.5t-42 -136.5t42 -136.5t111 -52.5q68 0 109.5 52.5z" />
    <glyph glyph-name="uni0432" unicode="&#x432;" horiz-adv-x="549" 
d="M87 490h205q82 0 126.5 -33t44.5 -93q0 -35 -19 -60.5t-50 -39.5q90 -34 90 -125q0 -65 -47.5 -102t-124.5 -37h-225v490zM306 286q33 0 54 18t21 50t-21 50t-54 18h-137v-136h137zM313 68q42 0 65.5 19.5t23.5 57.5t-23.5 57.5t-65.5 19.5h-144v-154h144z" />
    <glyph glyph-name="uni0433" unicode="&#x433;" horiz-adv-x="468" 
d="M169 422v-422h-82v490h332v-68h-250z" />
    <glyph glyph-name="uni0453" unicode="&#x453;" horiz-adv-x="468" 
d="M169 422v-422h-82v490h332v-68h-250zM273 700h88l-84 -136h-68z" />
    <glyph glyph-name="uni0491" unicode="&#x491;" horiz-adv-x="468" 
d="M87 490h250v88h82v-156h-250v-422h-82v490z" />
    <glyph glyph-name="uni0434" unicode="&#x434;" horiz-adv-x="586" 
d="M34 72h60q30 117 30 247v171h360v-418h60v-172h-82v100h-346v-100h-82v172zM402 72v346h-196v-99q0 -130 -30 -247h226z" />
    <glyph glyph-name="uni0435" unicode="&#x435;" horiz-adv-x="553" 
d="M499 231h-370q4 -79 47 -128t110 -49q97 0 138 86l63 -37q-28 -55 -79 -86t-123 -31q-70 0 -124 34t-83.5 93t-29.5 132t30.5 132t85 93t123.5 34q65 0 114.5 -28.5t76.5 -76.5t27 -104q0 -30 -6 -64zM430 294q-4 66 -42.5 104.5t-100.5 38.5q-59 0 -100.5 -39
t-53.5 -104h297z" />
    <glyph glyph-name="uni0450" unicode="&#x450;" horiz-adv-x="553" 
d="M499 231h-370q4 -79 47 -128t110 -49q97 0 138 86l63 -37q-28 -55 -79 -86t-123 -31q-70 0 -124 34t-83.5 93t-29.5 132t30.5 132t85 93t123.5 34q65 0 114.5 -28.5t76.5 -76.5t27 -104q0 -30 -6 -64zM430 294q-4 66 -42.5 104.5t-100.5 38.5q-59 0 -100.5 -39
t-53.5 -104h297zM169 700h88l64 -136h-68z" />
    <glyph glyph-name="uni0451" unicode="&#x451;" horiz-adv-x="553" 
d="M499 231h-370q4 -79 47 -128t110 -49q97 0 138 86l63 -37q-28 -55 -79 -86t-123 -31q-70 0 -124 34t-83.5 93t-29.5 132t30.5 132t85 93t123.5 34q65 0 114.5 -28.5t76.5 -76.5t27 -104q0 -30 -6 -64zM430 294q-4 66 -42.5 104.5t-100.5 38.5q-59 0 -100.5 -39
t-53.5 -104h297zM161 667h94v-80h-94v80zM319 667h94v-80h-94v80z" />
    <glyph glyph-name="uni0436" unicode="&#x436;" horiz-adv-x="722" 
d="M700 0h-90q-16 12 -25 33l-69 154q-9 21 -24 30.5t-40 9.5h-50v-227h-82v227h-50q-25 0 -40 -9.5t-24 -30.5l-69 -154q-9 -21 -25 -33h-90q26 27 38 54l67 149q16 34 29.5 50t32.5 23q-20 15 -29.5 31.5t-15.5 57.5q-6 39 -18 55t-31 16q-22 0 -40 -12l-18 67
q18 8 31 10.5t30 2.5q47 0 74 -26t37 -83q10 -58 27.5 -79t53.5 -21h30v195h82v-195h30q36 0 53.5 21t27.5 79q10 57 37 83t74 26q17 0 30 -2.5t31 -10.5l-18 -67q-18 12 -40 12q-19 0 -31 -16t-18 -55q-6 -41 -15.5 -57.5t-29.5 -31.5q19 -7 32.5 -23t29.5 -50l67 -149
q12 -27 38 -54z" />
    <glyph glyph-name="uni0437" unicode="&#x437;" horiz-adv-x="475" 
d="M401.5 220q24.5 -31 24.5 -80q0 -45 -24.5 -80t-67.5 -54.5t-98 -19.5q-75 0 -125 37.5t-69 95.5l69 37q13 -44 45.5 -71t79.5 -27q48 0 77 22t29 62q0 41 -27 62t-75 21h-36v66h30q44 0 67.5 19.5t23.5 55.5q0 34 -25 52t-69 18q-39 0 -66 -21t-41 -59l-64 30
q13 52 59 85t113 33q81 0 127 -34.5t46 -97.5q0 -39 -20.5 -67t-51.5 -42q44 -12 68.5 -43z" />
    <glyph glyph-name="uni0438" unicode="&#x438;" horiz-adv-x="607" 
d="M87 490h80v-360l281 360h72v-490h-80v360l-281 -360h-72v490z" />
    <glyph glyph-name="uni0439" unicode="&#x439;" horiz-adv-x="607" 
d="M87 490h80v-360l281 360h72v-490h-80v360l-281 -360h-72v490zM229.5 594q-28.5 27 -28.5 75h58q0 -22 12 -36t33 -14t33 14t12 36h58q0 -48 -28.5 -75t-74.5 -27t-74.5 27z" />
    <glyph glyph-name="uni045D" unicode="&#x45d;" horiz-adv-x="607" 
d="M87 490h80v-360l281 360h72v-490h-80v360l-281 -360h-72v490zM186 700h88l64 -136h-68z" />
    <glyph glyph-name="uni043A" unicode="&#x43a;" horiz-adv-x="489" 
d="M467 0h-90q-16 12 -25 33l-69 154q-9 21 -24 30.5t-40 9.5h-50v-227h-82v490h82v-195h30q36 0 53.5 21t27.5 79q10 57 37 83t74 26q18 0 30.5 -2.5t30.5 -10.5l-18 -67q-18 12 -40 12q-19 0 -31 -16t-18 -55q-6 -41 -15.5 -57.5t-29.5 -31.5q19 -7 32.5 -23t29.5 -50
l67 -149q12 -27 38 -54z" />
    <glyph glyph-name="uni045C" unicode="&#x45c;" horiz-adv-x="489" 
d="M467 0h-90q-16 12 -25 33l-69 154q-9 21 -24 30.5t-40 9.5h-50v-227h-82v490h82v-195h30q36 0 53.5 21t27.5 79q10 57 37 83t74 26q18 0 30.5 -2.5t30.5 -10.5l-18 -67q-18 12 -40 12q-19 0 -31 -16t-18 -55q-6 -41 -15.5 -57.5t-29.5 -31.5q19 -7 32.5 -23t29.5 -50
l67 -149q12 -27 38 -54zM286 700h88l-84 -136h-68z" />
    <glyph glyph-name="uni043B" unicode="&#x43b;" horiz-adv-x="585" 
d="M38 -6v70q16 -8 29 -8q44 0 51 82l26 352h354v-490h-82v418h-197l-24 -295q-6 -71 -34 -104t-73 -33q-28 0 -50 8z" />
    <glyph glyph-name="uni043C" unicode="&#x43c;" horiz-adv-x="664" 
d="M87 490h71l174 -399l174 399h71v-490h-76v313l-140 -313h-58l-140 313v-313h-76v490z" />
    <glyph glyph-name="uni043D" unicode="&#x43d;" horiz-adv-x="594" 
d="M507 490v-490h-82v217h-256v-217h-82v490h82v-201h256v201h82z" />
    <glyph glyph-name="uni043E" unicode="&#x43e;" horiz-adv-x="584" 
d="M164.5 18.5q-55.5 32.5 -86 91.5t-30.5 135t30.5 135t86 91.5t127.5 32.5t127.5 -32.5t86 -91.5t30.5 -135t-30.5 -135t-86 -91.5t-127.5 -32.5t-127.5 32.5zM374.5 81.5q36.5 23.5 57 66t20.5 97.5t-20.5 97.5t-57 66t-82.5 23.5t-82.5 -23.5t-57 -66t-20.5 -97.5
t20.5 -97.5t57 -66t82.5 -23.5t82.5 23.5z" />
    <glyph glyph-name="uni043F" unicode="&#x43f;" horiz-adv-x="594" 
d="M87 490h420v-490h-82v418h-256v-418h-82v490z" />
    <glyph glyph-name="uni0440" unicode="&#x440;" horiz-adv-x="602" 
d="M87 490h82v-81q23 44 67.5 69.5t98.5 25.5q65 0 115 -32.5t77 -91.5t27 -135t-27.5 -135t-77.5 -91.5t-116 -32.5q-56 0 -100 25t-64 65v-286h-82v700zM428.5 109.5q41.5 51.5 41.5 135.5t-41.5 135.5t-110.5 51.5t-110.5 -51.5t-41.5 -135.5t41.5 -135.5t110.5 -51.5
t110.5 51.5z" />
    <glyph glyph-name="uni0441" unicode="&#x441;" horiz-adv-x="538" 
d="M164.5 19.5q-55.5 33.5 -86 92.5t-30.5 133t30.5 133t86 92.5t126.5 33.5q139 0 200 -113l-62 -44q-46 85 -138 85q-46 0 -82 -24t-56.5 -66.5t-20.5 -96.5t20.5 -96.5t56.5 -66.5t82 -24q96 0 138 82l62 -40q-63 -114 -200 -114q-71 0 -126.5 33.5z" />
    <glyph glyph-name="uni0442" unicode="&#x442;" horiz-adv-x="438" 
d="M418 418h-158v-418h-82v418h-158v72h398v-72z" />
    <glyph glyph-name="uni0443" unicode="&#x443;" horiz-adv-x="514" 
d="M494 490l-243 -618q-20 -52 -48 -74t-68 -22q-38 0 -68 14l14 76q21 -13 47 -13q16 0 30 10.5t22 31.5l38 100l-198 495h91l149 -385l148 385h86z" />
    <glyph glyph-name="uni045E" unicode="&#x45e;" horiz-adv-x="514" 
d="M494 490l-243 -618q-20 -52 -48 -74t-68 -22q-38 0 -68 14l14 76q21 -13 47 -13q16 0 30 10.5t22 31.5l38 100l-198 495h91l149 -385l148 385h86zM184.5 594q-28.5 27 -28.5 75h58q0 -22 12 -36t33 -14t33 14t12 36h58q0 -48 -28.5 -75t-74.5 -27t-74.5 27z" />
    <glyph glyph-name="uni0444" unicode="&#x444;" horiz-adv-x="664" 
d="M586 120.5q-30 -55.5 -85 -90t-128 -42.5v-198h-82v198q-73 8 -128 42.5t-85 90t-30 124.5t30 124.5t85 90t128 42.5v198h82v-198q73 -8 128 -42.5t85 -90t30 -124.5t-30 -124.5zM175.5 118.5q43.5 -47.5 115.5 -57.5v368q-72 -10 -115.5 -57.5t-43.5 -126.5t43.5 -126.5
zM488.5 118.5q43.5 47.5 43.5 126.5t-43.5 126.5t-115.5 57.5v-368q72 10 115.5 57.5z" />
    <glyph glyph-name="uni0445" unicode="&#x445;" horiz-adv-x="472" 
d="M356 0l-120 186l-121 -186h-91l167 251l-160 239h88l117 -175l116 175h88l-160 -239l168 -251h-92z" />
    <glyph glyph-name="uni0447" unicode="&#x447;" horiz-adv-x="566" 
d="M397 197q-33 -27 -67.5 -39t-83.5 -12q-77 0 -123 47.5t-46 132.5v164h82v-154q0 -118 110 -118q36 0 65 13.5t63 41.5v217h82v-490h-82v197z" />
    <glyph glyph-name="uni0446" unicode="&#x446;" horiz-adv-x="604" 
d="M485 0h-398v490h82v-418h256v418h82v-418h60v-172h-82v100z" />
    <glyph glyph-name="uni0448" unicode="&#x448;" horiz-adv-x="812" 
d="M87 490h82v-418h196v418h82v-418h196v418h82v-490h-638v490z" />
    <glyph glyph-name="uni0449" unicode="&#x449;" horiz-adv-x="822" 
d="M703 0h-616v490h82v-418h196v418h82v-418h196v418h82v-418h60v-172h-82v100z" />
    <glyph glyph-name="uni045F" unicode="&#x45f;" horiz-adv-x="594" 
d="M507 0h-169v-100h-82v100h-169v490h82v-418h256v418h82v-490z" />
    <glyph glyph-name="uni044C" unicode="&#x44c;" horiz-adv-x="549" 
d="M87 490h82v-201h143q80 0 126 -36t46 -110t-46 -108.5t-126 -34.5h-225v490zM313 68q42 0 65.5 19.5t23.5 57.5t-23.5 57t-65.5 19h-144v-153h144z" />
    <glyph glyph-name="uni044A" unicode="&#x44a;" horiz-adv-x="598" 
d="M487 253q46 -36 46 -110t-46 -108.5t-126 -34.5h-225v426h-123v64h205v-201h143q80 0 126 -36zM427.5 87.5q23.5 19.5 23.5 57.5t-23.5 57t-65.5 19h-144v-153h144q42 0 65.5 19.5z" />
    <glyph glyph-name="uni044B" unicode="&#x44b;" horiz-adv-x="805" 
d="M87 490h82v-201h143q80 0 126 -36t46 -110t-46 -108.5t-126 -34.5h-225v490zM313 68q42 0 65.5 19.5t23.5 57.5t-23.5 57t-65.5 19h-144v-153h144zM636 490h82v-490h-82v490z" />
    <glyph glyph-name="uni0459" unicode="&#x459;" horiz-adv-x="878" 
d="M38 -6v70q16 -8 29 -8q44 0 51 82l26 352h354v-201h143q80 0 126 -36t46 -110t-46 -108.5t-126 -34.5h-225v418h-197l-24 -295q-6 -71 -34 -104t-73 -33q-28 0 -50 8zM642 68q42 0 65.5 19.5t23.5 57.5t-23.5 57t-65.5 19h-144v-153h144z" />
    <glyph glyph-name="uni045A" unicode="&#x45a;" horiz-adv-x="887" 
d="M776 253q46 -36 46 -110t-46 -108.5t-126 -34.5h-225v217h-256v-217h-82v490h82v-201h256v201h82v-201h143q80 0 126 -36zM716.5 86.5q23.5 18.5 23.5 56.5t-23.5 56t-65.5 18h-144v-149h144q42 0 65.5 18.5z" />
    <glyph glyph-name="uni0455" unicode="&#x455;" horiz-adv-x="439" 
d="M118.5 3.5q-43.5 17.5 -70.5 49.5l36 77q24 -34 60.5 -54t73.5 -20q42 0 64.5 19t22.5 57q0 32 -25.5 53.5t-77.5 35.5q-68 18 -103 56t-35 94q0 60 47.5 96.5t115.5 36.5q44 0 81.5 -12t61.5 -32l-28 -71q-51 45 -115 45q-37 0 -60 -17t-23 -47q0 -31 24.5 -52.5
t79.5 -35.5q72 -18 105.5 -53t33.5 -97q0 -64 -47 -105t-122 -41q-56 0 -99.5 17.5z" />
    <glyph glyph-name="uni0454" unicode="&#x454;" horiz-adv-x="538" 
d="M491 86q-36 -50 -84 -75t-116 -25q-71 0 -126.5 33.5t-86 92.5t-30.5 133t30.5 133t86 92.5t126.5 33.5q72 0 120.5 -26t75.5 -73l-62 -44q-39 71 -134 71q-62 0 -105 -42t-52 -111h260v-68h-260q9 -69 52 -111t105 -42q46 0 79.5 16.5t59.5 53.5z" />
    <glyph glyph-name="uni044D" unicode="&#x44d;" horiz-adv-x="538" 
d="M47 404q36 50 84 75t116 25q71 0 126.5 -33.5t86 -92.5t30.5 -133t-30.5 -133t-86 -92.5t-126.5 -33.5q-72 0 -120.5 26t-75.5 73l62 44q39 -71 134 -71q62 0 105 42t52 111h-260v68h260q-9 69 -52 111t-105 42q-46 0 -79.5 -16.5t-59.5 -53.5z" />
    <glyph glyph-name="uni0456" unicode="&#x456;" horiz-adv-x="256" 
d="M73 657h110v-86h-110v86zM87 490h82v-490h-82v490z" />
    <glyph glyph-name="uni0457" unicode="&#x457;" horiz-adv-x="256" 
d="M87 490h82v-490h-82v490zM2 667h94v-80h-94v80zM160 667h94v-80h-94v80z" />
    <glyph glyph-name="uni0458" unicode="&#x458;" horiz-adv-x="256" 
d="M73 657h110v-86h-110v86zM-37 -207l23 70q20 -15 50 -15q27 0 39 15.5t12 51.5v575h82v-575q0 -71 -31 -105t-93 -34q-45 0 -82 17z" />
    <glyph glyph-name="uni045B" unicode="&#x45b;" horiz-adv-x="589" 
d="M87 700h82v-297q25 49 69.5 75t96.5 26q81 0 124 -47t43 -134v-323h-82v313q0 119 -112 119q-33 0 -65.5 -19.5t-53 -57t-20.5 -88.5v-267h-82v700zM335 634v-64h-330v64h330z" />
    <glyph glyph-name="uni044E" unicode="&#x44e;" horiz-adv-x="838" 
d="M673.5 471.5q55.5 -32.5 86 -91.5t30.5 -135t-30.5 -135t-86 -91.5t-127.5 -32.5q-67 0 -120.5 28.5t-85.5 81t-37 121.5h-134v-217h-82v490h82v-201h136q13 98 78 156.5t163 58.5q72 0 127.5 -32.5zM628.5 81.5q36.5 23.5 57 66t20.5 97.5t-20.5 97.5t-57 66t-82.5 23.5
t-82.5 -23.5t-57 -66t-20.5 -97.5t20.5 -97.5t57 -66t82.5 -23.5t82.5 23.5z" />
    <glyph glyph-name="uni044F" unicode="&#x44f;" horiz-adv-x="536" 
d="M73 50l44 122q16 45 51 55q-42 9 -69.5 44t-27.5 84q0 60 41 97.5t113 37.5h224v-490h-82v206h-106q-29 0 -42 -11t-23 -37l-43 -115q-11 -30 -25 -43h-84q17 18 29 50zM367 272v152h-135q-83 0 -83 -76t83 -76h135z" />
    <glyph glyph-name="uni0452" unicode="&#x452;" horiz-adv-x="589" 
d="M459 457q43 -47 43 -134v-408q0 -71 -31 -105t-93 -34q-45 0 -82 17l23 70q20 -15 50 -15q27 0 39 15.5t12 51.5v398q0 119 -112 119q-33 0 -65.5 -19.5t-53 -57t-20.5 -88.5v-267h-82v570h-82v64h82v66h82v-66h166v-64h-166v-167q25 49 69.5 75t96.5 26q81 0 124 -47z
" />
    <glyph glyph-name="uni0463" unicode="&#x463;" horiz-adv-x="598" 
d="M487 253q46 -36 46 -110t-46 -108.5t-126 -34.5h-225v418h-103v72h103v210h82v-210h203v-72h-203v-129h143q80 0 126 -36zM427.5 87.5q23.5 19.5 23.5 57.5t-23.5 57t-65.5 19h-144v-153h144q42 0 65.5 19.5z" />
    <glyph glyph-name="uni0473" unicode="&#x473;" horiz-adv-x="584" 
d="M164.5 18.5q-55.5 32.5 -86 91.5t-30.5 135t30.5 135t86 91.5t127.5 32.5t127.5 -32.5t86 -91.5t30.5 -135t-30.5 -135t-86 -91.5t-127.5 -32.5t-127.5 32.5zM451 272q-7 72 -51 116t-108 44q-59 0 -101 -37.5t-54 -100.5q26 15 68 15q26 0 48 -8t53 -24q25 -13 42.5 -20
t35.5 -7q37 0 67 22zM393 95.5q42 37.5 54 100.5q-26 -15 -68 -15q-26 0 -48 8t-53 24q-25 13 -42.5 20t-35.5 7q-37 0 -67 -22q7 -72 51 -116t108 -44q59 0 101 37.5z" />
    <glyph glyph-name="uni0475" unicode="&#x475;" horiz-adv-x="560" 
d="M20 490h89l146 -380l113 295q20 51 48.5 75t68.5 24q21 0 36 -4t31 -15l-23 -69q-16 16 -36 16q-15 0 -25.5 -10.5t-20.5 -34.5l-156 -387h-72z" />
    <glyph glyph-name="uni0458.alt" horiz-adv-x="256" 
d="M73 657h110v-86h-110v86zM-18 -214v76q22 -14 54 -14q27 0 39 15.5t12 51.5v575h82v-575q0 -71 -31 -105t-93 -34q-40 0 -63 10z" />
    <glyph glyph-name="uni0475.alt" horiz-adv-x="560" 
d="M20 490h89l146 -380l113 295q20 51 48.5 75t68.5 24q32 0 52 -10v-75q-8 5 -20.5 9t-23.5 4q-15 0 -25.5 -10.5t-20.5 -34.5l-156 -387h-72z" />
    <glyph glyph-name="Alpha" unicode="&#x391;" horiz-adv-x="648" 
d="M472 172h-296l-64 -172h-89l264 700h74l264 -700h-89zM445 246l-121 327l-121 -327h242z" />
    <glyph glyph-name="Beta" unicode="&#x392;" horiz-adv-x="646" 
d="M93 700h260q102 0 157.5 -48t55.5 -134q0 -51 -25 -88t-65 -56q118 -49 118 -178q0 -93 -58 -144.5t-156 -51.5h-287v700zM353 398q60 0 93.5 30t33.5 84t-33.5 84t-93.5 30h-174v-228h174zM378 74q60 0 95 33.5t35 91.5q0 59 -34.5 92t-95.5 33h-199v-250h199z" />
    <glyph glyph-name="Gamma" unicode="&#x393;" horiz-adv-x="583" 
d="M537 626h-358v-626h-86v700h444v-74z" />
    <glyph glyph-name="uni0394" unicode="&#x394;" horiz-adv-x="648" 
d="M625 0h-602l264 700h74zM509 74l-185 499l-185 -499h370z" />
    <glyph glyph-name="Epsilon" unicode="&#x395;" horiz-adv-x="581" 
d="M179 626v-227h269v-74h-269v-251h358v-74h-444v700h444v-74h-358z" />
    <glyph glyph-name="Zeta" unicode="&#x396;" horiz-adv-x="592" 
d="M40 64l402 562h-390v74h492v-64l-402 -562h414v-74h-516v64z" />
    <glyph glyph-name="Eta" unicode="&#x397;" horiz-adv-x="712" 
d="M619 700v-700h-86v324h-354v-324h-86v700h86v-302h354v302h86z" />
    <glyph glyph-name="Theta" unicode="&#x398;" horiz-adv-x="770" 
d="M212 32.5q-74 46.5 -114 129.5t-40 188t40 188t114 129.5t173 46.5t173 -46.5t114 -129.5t40 -188t-40 -188t-114 -129.5t-173 -46.5t-173 46.5zM512.5 98q54.5 38 83 104t28.5 148t-28.5 148t-83 104t-127.5 38t-127.5 -38t-83 -104t-28.5 -148t28.5 -148t83 -104
t127.5 -38t127.5 38zM257 387h256v-74h-256v74z" />
    <glyph glyph-name="Iota" unicode="&#x399;" horiz-adv-x="272" 
d="M93 700h86v-700h-86v700z" />
    <glyph glyph-name="Kappa" unicode="&#x39a;" horiz-adv-x="606" 
d="M255 358l-76 -81v-277h-86v700h86v-317l287 317h105l-256 -277l282 -423h-101z" />
    <glyph glyph-name="Lambda" unicode="&#x39b;" horiz-adv-x="648" 
d="M287 700h74l264 -700h-89l-212 573l-212 -573h-89z" />
    <glyph glyph-name="Mu" unicode="&#x39c;" horiz-adv-x="864" 
d="M93 700h78l261 -540l261 540h78v-700h-84v511l-223 -454h-64l-223 454v-511h-84v700z" />
    <glyph glyph-name="Nu" unicode="&#x39d;" horiz-adv-x="742" 
d="M93 700h75l397 -552v552h84v-700h-75l-397 552v-552h-84v700z" />
    <glyph glyph-name="Xi" unicode="&#x39e;" horiz-adv-x="581" 
d="M44 700h493v-74h-493v74zM133 399h315v-74h-315v74zM44 74h493v-74h-493v74z" />
    <glyph glyph-name="Omicron" unicode="&#x39f;" horiz-adv-x="770" 
d="M212 32.5q-74 46.5 -114 129.5t-40 188t40 188t114 129.5t173 46.5t173 -46.5t114 -129.5t40 -188t-40 -188t-114 -129.5t-173 -46.5t-173 46.5zM512.5 98q54.5 38 83 104t28.5 148t-28.5 148t-83 104t-127.5 38t-127.5 -38t-83 -104t-28.5 -148t28.5 -148t83 -104
t127.5 -38t127.5 38z" />
    <glyph glyph-name="Pi" unicode="&#x3a0;" horiz-adv-x="712" 
d="M619 0h-86v626h-354v-626h-86v700h526v-700z" />
    <glyph glyph-name="Rho" unicode="&#x3a1;" horiz-adv-x="624" 
d="M93 700h268q107 0 164 -54t57 -150t-57 -150t-164 -54h-182v-292h-86v700zM362 364q68 0 102.5 34t34.5 98t-34.5 98t-102.5 34h-183v-264h183z" />
    <glyph glyph-name="Sigma" unicode="&#x3a3;" horiz-adv-x="584" 
d="M48 64l204 286l-204 286v64h492v-74h-386l197 -276l-197 -276h386v-74h-492v64z" />
    <glyph glyph-name="Tau" unicode="&#x3a4;" horiz-adv-x="553" 
d="M525 626h-206v-626h-86v626h-205v74h497v-74z" />
    <glyph glyph-name="Upsilon" unicode="&#x3a5;" horiz-adv-x="580" 
d="M247 270l-229 430h96l176 -343l176 343h96l-229 -430v-270h-86v270z" />
    <glyph glyph-name="Phi" unicode="&#x3a6;" horiz-adv-x="834" 
d="M622.5 625q71.5 -38 112.5 -109t41 -166t-41 -166t-112.5 -109t-162.5 -38v-77h-86v77q-91 0 -162.5 38t-112.5 109t-41 166t41 166t112.5 109t162.5 38v77h86v-77q91 0 162.5 -38zM374 111v478h-7q-68 0 -118.5 -30t-77.5 -84t-27 -125t27 -125t77.5 -84t118.5 -30h7z
M585.5 141q50.5 30 77.5 84t27 125t-27 125t-77.5 84t-118.5 30h-7v-478h7q68 0 118.5 30z" />
    <glyph glyph-name="Chi" unicode="&#x3a7;" horiz-adv-x="617" 
d="M494 0l-185 295l-186 -295h-96l235 370l-207 330h96l158 -255l157 255h96l-206 -330l234 -370h-96z" />
    <glyph glyph-name="Psi" unicode="&#x3a8;" horiz-adv-x="746" 
d="M663 700v-205q0 -130 -63.5 -203t-183.5 -84v-208h-86v208q-120 11 -183.5 84t-63.5 203v205h86v-200q0 -194 161 -217v417h86v-417q161 23 161 217v200h86z" />
    <glyph glyph-name="uni03A9" unicode="&#x3a9;" horiz-adv-x="770" 
d="M666 210.5q-46 -85.5 -109 -136.5h135v-74h-228v88q69 48 114.5 124.5t45.5 170.5q0 75 -29 133.5t-83 91t-127 32.5t-127 -32.5t-83 -91t-29 -133.5q0 -94 45.5 -170.5t114.5 -124.5v-88h-228v74h135q-63 51 -109 136.5t-46 178.5q0 97 40.5 171t114.5 114t172 40
t172 -40t114.5 -114t40.5 -171q0 -93 -46 -178.5z" />
    <glyph glyph-name="Alphatonos" unicode="&#x386;" horiz-adv-x="648" 
d="M472 172h-296l-64 -172h-89l264 700h74l264 -700h-89zM445 246l-121 327l-121 -327h242zM101 700h90l-62 -136h-68z" />
    <glyph glyph-name="Epsilontonos" unicode="&#x388;" horiz-adv-x="581" 
d="M179 626v-227h269v-74h-269v-251h358v-74h-444v700h444v-74h-358zM-43 700h90l-62 -136h-68z" />
    <glyph glyph-name="Etatonos" unicode="&#x389;" horiz-adv-x="712" 
d="M619 700v-700h-86v324h-354v-324h-86v700h86v-302h354v302h86zM-43 700h90l-62 -136h-68z" />
    <glyph glyph-name="Iotatonos" unicode="&#x38a;" horiz-adv-x="272" 
d="M93 700h86v-700h-86v700zM-43 700h90l-62 -136h-68z" />
    <glyph glyph-name="Omicrontonos" unicode="&#x38c;" horiz-adv-x="770" 
d="M212 32.5q-74 46.5 -114 129.5t-40 188t40 188t114 129.5t173 46.5t173 -46.5t114 -129.5t40 -188t-40 -188t-114 -129.5t-173 -46.5t-173 46.5zM512.5 98q54.5 38 83 104t28.5 148t-28.5 148t-83 104t-127.5 38t-127.5 -38t-83 -104t-28.5 -148t28.5 -148t83 -104
t127.5 -38t127.5 38zM10 700h90l-62 -136h-68z" />
    <glyph glyph-name="Upsilontonos" unicode="&#x38e;" horiz-adv-x="580" 
d="M247 270l-229 430h96l176 -343l176 343h96l-229 -430v-270h-86v270zM-118 700h90l-62 -136h-68z" />
    <glyph glyph-name="Omegatonos" unicode="&#x38f;" horiz-adv-x="770" 
d="M666 210.5q-46 -85.5 -109 -136.5h135v-74h-228v88q69 48 114.5 124.5t45.5 170.5q0 75 -29 133.5t-83 91t-127 32.5t-127 -32.5t-83 -91t-29 -133.5q0 -94 45.5 -170.5t114.5 -124.5v-88h-228v74h135q-63 51 -109 136.5t-46 178.5q0 97 40.5 171t114.5 114t172 40
t172 -40t114.5 -114t40.5 -171q0 -93 -46 -178.5zM-10 700h90l-62 -136h-68z" />
    <glyph glyph-name="Iotadieresis" unicode="&#x3aa;" horiz-adv-x="272" 
d="M93 700h86v-700h-86v700zM10 877h94v-80h-94v80zM168 877h94v-80h-94v80z" />
    <glyph glyph-name="Upsilondieresis" unicode="&#x3ab;" horiz-adv-x="580" 
d="M247 270l-229 430h96l176 -343l176 343h96l-229 -430v-270h-86v270zM164 877h94v-80h-94v80zM322 877h94v-80h-94v80z" />
    <glyph glyph-name="alpha" unicode="&#x3b1;" horiz-adv-x="606" 
d="M152.5 18.5q-49.5 32.5 -77 91.5t-27.5 135t27.5 135t77.5 91.5t116 32.5q54 0 98 -25.5t65 -64.5v76h82v-394q0 -38 33 -38q19 0 41 13v-71q-28 -14 -59 -14q-37 0 -63.5 25.5t-26.5 71.5q-23 -45 -68.5 -71t-102.5 -26q-66 0 -115.5 32.5zM393.5 109.5
q41.5 51.5 41.5 135.5t-41.5 135.5t-110.5 51.5t-110 -51.5t-41 -135.5t41 -135.5t110 -51.5t110.5 51.5z" />
    <glyph glyph-name="beta" unicode="&#x3b2;" horiz-adv-x="581" 
d="M87 518q0 59 26 103.5t71 68.5t100 24q57 0 99.5 -23t65 -62.5t22.5 -87.5q0 -103 -90 -145q65 -22 100.5 -66.5t35.5 -120.5t-29 -126t-75 -73.5t-97 -23.5q-47 0 -86.5 20t-60.5 57v-273h-82v728zM397.5 96.5q39.5 38.5 39.5 110.5q0 70 -39 108.5t-112 38.5h-41v72h44
q54 0 80 30t26 82q0 51 -31.5 77.5t-81.5 26.5q-47 0 -80 -33t-33 -93v-298q0 -79 35 -119.5t99 -40.5q55 0 94.5 38.5z" />
    <glyph glyph-name="gamma" unicode="&#x3b3;" horiz-adv-x="510" 
d="M296 12v-222h-82v222l-194 478h89l146 -380l146 380h89z" />
    <glyph glyph-name="delta" unicode="&#x3b4;" horiz-adv-x="552" 
d="M110.5 48q-62.5 62 -62.5 175q0 72 27.5 121t68.5 74t85 29q-58 23 -90 54.5t-32 81.5q0 61 51 96t126 35q57 0 100 -14.5t78 -44.5l-40 -60q-35 27 -65.5 39t-72.5 12q-45 0 -72 -17.5t-27 -46.5q0 -24 18 -42.5t47.5 -33.5t91.5 -43q162 -73 162 -230q0 -79 -29 -134.5
t-81 -84t-119 -28.5q-102 0 -164.5 62zM380.5 98q39.5 44 39.5 125q0 79 -39.5 124t-105.5 45t-104.5 -43.5t-38.5 -125.5t38.5 -125.5t104.5 -43.5t105.5 44z" />
    <glyph glyph-name="epsilon" unicode="&#x3b5;" horiz-adv-x="475" 
d="M90.5 305q-20.5 28 -20.5 67q0 63 46 97.5t127 34.5q67 0 113 -33t59 -85l-64 -30q-14 38 -41 59t-66 21q-44 0 -69 -18t-25 -52q0 -36 23.5 -55.5t67.5 -19.5h30v-66h-36q-48 0 -75 -21t-27 -62q0 -40 29 -62t77 -22q47 0 79.5 27t45.5 71l69 -37q-19 -58 -69 -95.5
t-125 -37.5q-55 0 -98 19.5t-67.5 54.5t-24.5 80q0 49 24.5 80t68.5 43q-31 14 -51.5 42z" />
    <glyph glyph-name="zeta" unicode="&#x3b6;" horiz-adv-x="488" 
d="M398 27.5q33 -16.5 50.5 -43.5t17.5 -72q0 -36 -12.5 -68.5t-34.5 -67.5l-69 33q36 55 36 98q0 33 -28.5 52t-94.5 35q-93 22 -152 88t-59 183q0 112 74 207.5t172 155.5h-254v72h397v-62q-129 -63 -217 -162t-88 -211q0 -63 21 -102t56.5 -61t90.5 -39q61 -19 94 -35.5z
" />
    <glyph glyph-name="eta" unicode="&#x3b7;" horiz-adv-x="582" 
d="M413 314q0 118 -108 118q-35 0 -66 -19t-50.5 -56.5t-19.5 -88.5v-268h-82v394q0 38 -33 38q-19 0 -41 -13v71q12 6 29.5 10t31.5 4q48 0 71.5 -22t23.5 -71v-8q23 50 64.5 75.5t96.5 25.5q81 0 123 -46t42 -134v-534h-82v524z" />
    <glyph glyph-name="theta" unicode="&#x3b8;" horiz-adv-x="584" 
d="M475.5 615q60.5 -99 60.5 -265t-60.5 -265t-183.5 -99t-183.5 99t-60.5 265t60.5 265t183.5 99t183.5 -99zM178 575q-40 -67 -45 -189h318q-5 122 -45 189t-114 67t-114 -67zM406 125q40 67 45 189h-318q5 -122 45 -189t114 -67t114 67z" />
    <glyph glyph-name="iota" unicode="&#x3b9;" horiz-adv-x="260" 
d="M108 19q-21 26 -21 71v400h82v-394q0 -15 8 -24t21 -9q11 0 24 6v-66q-21 -10 -52 -10q-41 0 -62 26z" />
    <glyph glyph-name="kappa" unicode="&#x3ba;" horiz-adv-x="512" 
d="M229 245l-60 -58v-187h-82v490h82v-203l212 203h100l-194 -189l204 -301h-94z" />
    <glyph glyph-name="lambda" unicode="&#x3bb;" horiz-adv-x="569" 
d="M549 0q-25 -14 -68 -14q-41 0 -69 21.5t-47 74.5l-107 297l-147 -379h-91l197 492l-37 103q-15 42 -54 42q-23 0 -43 -13l-14 76q30 14 68 14q43 0 68.5 -20t45.5 -76l190 -513q15 -42 53 -42q22 0 41 13z" />
    <glyph glyph-name="uni03BC" unicode="&#x3bc;" horiz-adv-x="582" 
d="M87 490h82v-314q0 -118 108 -118q35 0 66 19t50.5 56.5t19.5 88.5v268h82v-490h-82v87q-22 -49 -62 -75t-91 -26q-61 0 -91 33v-229h-82v700z" />
    <glyph glyph-name="nu" unicode="&#x3bd;" horiz-adv-x="500" 
d="M20 490h89l151 -390l67 109q52 84 52 176q0 42 -12 105h83q10 -53 10 -99q0 -57 -16.5 -109t-54.5 -116l-98 -166h-72z" />
    <glyph glyph-name="xi" unicode="&#x3be;" horiz-adv-x="488" 
d="M336 -191q36 55 36 98q0 33 -29 52.5t-94 34.5q-96 22 -148.5 72.5t-52.5 146.5q0 122 117 175q-42 25 -64.5 63t-22.5 84q0 82 56 130.5t146 48.5q140 0 196 -118l-62 -44q-42 90 -134 90q-54 0 -86 -30t-32 -81q0 -52 35.5 -82t91.5 -30h35v-72h-39q-67 0 -110 -34
t-43 -103q0 -45 17.5 -72.5t50.5 -44t90 -30.5q86 -22 124 -54t38 -97q0 -36 -12.5 -68.5t-34.5 -67.5z" />
    <glyph glyph-name="omicron" unicode="&#x3bf;" horiz-adv-x="584" 
d="M164.5 18.5q-55.5 32.5 -86 91.5t-30.5 135t30.5 135t86 91.5t127.5 32.5t127.5 -32.5t86 -91.5t30.5 -135t-30.5 -135t-86 -91.5t-127.5 -32.5t-127.5 32.5zM374.5 81.5q36.5 23.5 57 66t20.5 97.5t-20.5 97.5t-57 66t-82.5 23.5t-82.5 -23.5t-57 -66t-20.5 -97.5
t20.5 -97.5t57 -66t82.5 -23.5t82.5 23.5z" />
    <glyph glyph-name="pi" unicode="&#x3c0;" horiz-adv-x="626" 
d="M449.5 20q-31.5 34 -31.5 102v296h-205v-418h-82v418h-103v72h574v-72h-102v-299q0 -61 54 -61q27 0 48 15v-72q-26 -15 -66 -15q-55 0 -86.5 34z" />
    <glyph glyph-name="rho" unicode="&#x3c1;" horiz-adv-x="592" 
d="M77 237q0 125 61 196t177 71q109 0 169 -70.5t60 -188.5q0 -76 -27.5 -135t-77.5 -91.5t-116 -32.5q-56 0 -100 25t-64 65v-286h-82v447zM418.5 109.5q41.5 51.5 41.5 135.5t-41.5 135.5t-110.5 51.5t-110.5 -51.5t-41.5 -135.5t41.5 -135.5t110.5 -51.5t110.5 51.5z" />
    <glyph glyph-name="uni03C2" unicode="&#x3c2;" horiz-adv-x="538" 
d="M346 -191q36 55 36 98q0 33 -28.5 52t-94.5 35q-92 21 -151.5 84.5t-59.5 166.5q0 74 30.5 133t86 92.5t126.5 33.5q139 0 200 -113l-62 -44q-46 85 -138 85q-46 0 -82 -24t-56.5 -66.5t-20.5 -96.5q0 -78 43.5 -119t124.5 -63q59 -16 93 -33t51.5 -45t17.5 -73
q0 -36 -12.5 -68.5t-34.5 -67.5z" />
    <glyph glyph-name="sigma" unicode="&#x3c3;" horiz-adv-x="581" 
d="M569 418h-125q43 -29 63.5 -75.5t20.5 -104.5q0 -75 -30 -132t-84.5 -88.5t-125.5 -31.5t-125.5 31.5t-84.5 88.5t-30 132t30 132t84.5 88.5t125.5 31.5h281v-72zM400.5 369q-43.5 49 -112.5 49t-112.5 -49t-43.5 -131t43.5 -131t112.5 -49t112.5 49t43.5 131t-43.5 131z
" />
    <glyph glyph-name="tau" unicode="&#x3c4;" horiz-adv-x="427" 
d="M206.5 18.5q-31.5 32.5 -31.5 102.5v297h-147v72h375v-72h-146v-292q0 -34 15.5 -51t43.5 -17q27 0 57 15l11 -71q-25 -9 -43.5 -12.5t-42.5 -3.5q-60 0 -91.5 32.5z" />
    <glyph glyph-name="upsilon" unicode="&#x3c5;" horiz-adv-x="561" 
d="M142 37.5q-55 51.5 -55 150.5v302h82v-292q0 -69 31.5 -104.5t91.5 -35.5q123 0 123 176q0 65 -20 124.5t-60 131.5h88q36 -57 55 -118t19 -134q0 -121 -56 -186.5t-149 -65.5q-95 0 -150 51.5z" />
    <glyph glyph-name="phi" unicode="&#x3c6;" horiz-adv-x="664" 
d="M586 120.5q-30 -55.5 -85 -90t-128 -42.5v-128h-82v128q-73 8 -128 42.5t-85 90t-30 124.5t30 124.5t85 90t128 42.5v128h82v-128q73 -8 128 -42.5t85 -90t30 -124.5t-30 -124.5zM175.5 118.5q43.5 -47.5 115.5 -57.5v368q-72 -10 -115.5 -57.5t-43.5 -126.5t43.5 -126.5
zM488.5 118.5q43.5 47.5 43.5 126.5t-43.5 126.5t-115.5 57.5v-368q72 10 115.5 57.5z" />
    <glyph glyph-name="chi" unicode="&#x3c7;" horiz-adv-x="525" 
d="M513 -210q-25 -14 -63 -14q-39 0 -65 21.5t-48 74.5l-76 181l-138 -263h-91l190 355l-100 240q-18 42 -52 42q-20 0 -40 -13l-14 76q30 14 68 14q41 0 64.5 -20t46.5 -76l74 -176l138 258h84l-184 -350l103 -245q18 -42 51 -42q18 0 38 13z" />
    <glyph glyph-name="psi" unicode="&#x3c8;" horiz-adv-x="689" 
d="M610.5 376q14.5 -58 14.5 -128q0 -79 -32.5 -135t-84.5 -84.5t-111 -28.5v-211h-82v211q-64 0 -116 28t-82 84t-30 136v242h82v-246q0 -56 20 -94.5t53.5 -58t72.5 -19.5v558h82v-558q39 0 72.5 19.5t53.5 58t20 94.5q0 126 -57 246h87q23 -56 37.5 -114z" />
    <glyph glyph-name="omega" unicode="&#x3c9;" horiz-adv-x="734" 
d="M686 216q0 -113 -47.5 -171.5t-127.5 -58.5q-104 0 -144 94q-40 -94 -144 -94q-80 0 -127.5 58.5t-47.5 171.5q0 158 74 274h88q-39 -70 -59.5 -135t-20.5 -131q0 -166 103 -166q42 0 67.5 33.5t25.5 90.5v138h82v-138q0 -57 25.5 -90.5t67.5 -33.5q103 0 103 166
q0 66 -20.5 131t-59.5 135h88q74 -116 74 -274z" />
    <glyph glyph-name="iotatonos" unicode="&#x3af;" horiz-adv-x="260" 
d="M108 19q-21 26 -21 71v400h82v-394q0 -15 8 -24t21 -9q11 0 24 6v-66q-21 -10 -52 -10q-41 0 -62 26zM134 700h90l-62 -136h-68z" />
    <glyph glyph-name="iotadieresis" unicode="&#x3ca;" horiz-adv-x="260" 
d="M108 19q-21 26 -21 71v400h82v-394q0 -15 8 -24t21 -9q11 0 24 6v-66q-21 -10 -52 -10q-41 0 -62 26zM2 667h94v-80h-94v80zM160 667h94v-80h-94v80z" />
    <glyph glyph-name="iotadieresistonos" unicode="&#x390;" horiz-adv-x="260" 
d="M108 19q-21 26 -21 71v400h82v-394q0 -15 8 -24t21 -9q11 0 24 6v-66q-21 -10 -52 -10q-41 0 -62 26zM108 695h90l-62 -136h-68zM-48 667h94v-80h-94v80zM210 667h94v-80h-94v80z" />
    <glyph glyph-name="upsilontonos" unicode="&#x3cd;" horiz-adv-x="561" 
d="M142 37.5q-55 51.5 -55 150.5v302h82v-292q0 -69 31.5 -104.5t91.5 -35.5q123 0 123 176q0 65 -20 124.5t-60 131.5h88q36 -57 55 -118t19 -134q0 -121 -56 -186.5t-149 -65.5q-95 0 -150 51.5zM270 700h90l-62 -136h-68z" />
    <glyph glyph-name="upsilondieresis" unicode="&#x3cb;" horiz-adv-x="561" 
d="M142 37.5q-55 51.5 -55 150.5v302h82v-292q0 -69 31.5 -104.5t91.5 -35.5q123 0 123 176q0 65 -20 124.5t-60 131.5h88q36 -57 55 -118t19 -134q0 -121 -56 -186.5t-149 -65.5q-95 0 -150 51.5zM138 667h94v-80h-94v80zM296 667h94v-80h-94v80z" />
    <glyph glyph-name="upsilondieresistonos" unicode="&#x3b0;" horiz-adv-x="561" 
d="M142 37.5q-55 51.5 -55 150.5v302h82v-292q0 -69 31.5 -104.5t91.5 -35.5q123 0 123 176q0 65 -20 124.5t-60 131.5h88q36 -57 55 -118t19 -134q0 -121 -56 -186.5t-149 -65.5q-95 0 -150 51.5zM244 695h90l-62 -136h-68zM88 667h94v-80h-94v80zM346 667h94v-80h-94v80z
" />
    <glyph glyph-name="omicrontonos" unicode="&#x3cc;" horiz-adv-x="584" 
d="M164.5 18.5q-55.5 32.5 -86 91.5t-30.5 135t30.5 135t86 91.5t127.5 32.5t127.5 -32.5t86 -91.5t30.5 -135t-30.5 -135t-86 -91.5t-127.5 -32.5t-127.5 32.5zM374.5 81.5q36.5 23.5 57 66t20.5 97.5t-20.5 97.5t-57 66t-82.5 23.5t-82.5 -23.5t-57 -66t-20.5 -97.5
t20.5 -97.5t57 -66t82.5 -23.5t82.5 23.5zM298 700h90l-62 -136h-68z" />
    <glyph glyph-name="omegatonos" unicode="&#x3ce;" horiz-adv-x="734" 
d="M686 216q0 -113 -47.5 -171.5t-127.5 -58.5q-104 0 -144 94q-40 -94 -144 -94q-80 0 -127.5 58.5t-47.5 171.5q0 158 74 274h88q-39 -70 -59.5 -135t-20.5 -131q0 -166 103 -166q42 0 67.5 33.5t25.5 90.5v138h82v-138q0 -57 25.5 -90.5t67.5 -33.5q103 0 103 166
q0 66 -20.5 131t-59.5 135h88q74 -116 74 -274zM373 700h90l-62 -136h-68z" />
    <glyph glyph-name="alphatonos" unicode="&#x3ac;" horiz-adv-x="606" 
d="M152.5 18.5q-49.5 32.5 -77 91.5t-27.5 135t27.5 135t77.5 91.5t116 32.5q54 0 98 -25.5t65 -64.5v76h82v-394q0 -38 33 -38q19 0 41 13v-71q-28 -14 -59 -14q-37 0 -63.5 25.5t-26.5 71.5q-23 -45 -68.5 -71t-102.5 -26q-66 0 -115.5 32.5zM393.5 109.5
q41.5 51.5 41.5 135.5t-41.5 135.5t-110.5 51.5t-110 -51.5t-41 -135.5t41 -135.5t110 -51.5t110.5 51.5zM307 700h90l-62 -136h-68z" />
    <glyph glyph-name="epsilontonos" unicode="&#x3ad;" horiz-adv-x="475" 
d="M90.5 305q-20.5 28 -20.5 67q0 63 46 97.5t127 34.5q67 0 113 -33t59 -85l-64 -30q-14 38 -41 59t-66 21q-44 0 -69 -18t-25 -52q0 -36 23.5 -55.5t67.5 -19.5h30v-66h-36q-48 0 -75 -21t-27 -62q0 -40 29 -62t77 -22q47 0 79.5 27t45.5 71l69 -37q-19 -58 -69 -95.5
t-125 -37.5q-55 0 -98 19.5t-67.5 54.5t-24.5 80q0 49 24.5 80t68.5 43q-31 14 -51.5 42zM245 700h90l-62 -136h-68z" />
    <glyph glyph-name="etatonos" unicode="&#x3ae;" horiz-adv-x="582" 
d="M413 314q0 118 -108 118q-35 0 -66 -19t-50.5 -56.5t-19.5 -88.5v-268h-82v394q0 38 -33 38q-19 0 -41 -13v71q12 6 29.5 10t31.5 4q48 0 71.5 -22t23.5 -71v-8q23 50 64.5 75.5t96.5 25.5q81 0 123 -46t42 -134v-534h-82v524zM311 700h90l-62 -136h-68z" />
    <glyph glyph-name="lambda.alt" horiz-adv-x="569" 
d="M542 79v-81q-24 -12 -61 -12q-41 0 -69 21.5t-47 74.5l-107 297l-147 -379h-91l197 492l-37 103q-15 42 -54 42q-23 0 -43 -13l-14 76q30 14 68 14q43 0 68.5 -20t45.5 -76l190 -513q15 -42 53 -42q22 0 48 16z" />
    <glyph glyph-name="tau.alt" horiz-adv-x="427" 
d="M206.5 18.5q-31.5 32.5 -31.5 102.5v297h-147v72h375v-72h-146v-292q0 -34 15.5 -51t43.5 -17q29 0 62 18v-77q-24 -7 -40 -10t-40 -3q-60 0 -91.5 32.5z" />
    <glyph glyph-name="zero" unicode="0" horiz-adv-x="646" 
d="M175 32.5q-62 46.5 -93.5 129t-31.5 188.5t31.5 188.5t93.5 129t148 46.5t148 -46.5t93.5 -129t31.5 -188.5t-31.5 -188.5t-93.5 -129t-148 -46.5t-148 46.5zM461 141q47 79 47 209t-47 209t-138 79t-138 -79t-47 -209t47 -209t138 -79t138 79z" />
    <glyph glyph-name="one" unicode="1" horiz-adv-x="326" 
d="M149 539h-105v70h33q38 0 55 15.5t17 56.5v19h84v-700h-84v539z" />
    <glyph glyph-name="two" unicode="2" horiz-adv-x="523" 
d="M54 67l244 277q43 48 63 89t20 84q0 59 -36.5 90t-95.5 31q-53 0 -90 -35t-46 -97l-69 38q10 76 66 123t141 47q99 0 157.5 -50t58.5 -141q0 -67 -24 -115t-84 -115l-192 -217h312v-76h-425v67z" />
    <glyph glyph-name="three" unicode="3" horiz-adv-x="560" 
d="M122.5 26q-60.5 40 -86.5 102l67 56q20 -56 64 -89t105 -33q63 0 102.5 39t39.5 112q0 72 -41 112t-102 40q-19 0 -37.5 -5t-31.5 -14l-50 60l200 218h-280v76h391v-65l-189 -197q7 1 19 1q55 0 103 -26.5t77 -77.5t29 -122q0 -69 -30.5 -120.5t-83.5 -79t-117 -27.5
q-88 0 -148.5 40z" />
    <glyph glyph-name="four" unicode="4" horiz-adv-x="559" 
d="M340 151h-308v68l316 481h76v-473h110v-76h-110v-151h-84v151zM340 227v327l-213 -327h213z" />
    <glyph glyph-name="five" unicode="5" horiz-adv-x="563" 
d="M36 108l63 51q30 -47 69 -72.5t98 -25.5q38 0 73 17t57.5 54t22.5 93t-21.5 93.5t-55.5 55t-72 17.5q-47 0 -85.5 -27.5t-53.5 -68.5l-72 16l43 389h350v-75h-280l-26 -222q19 26 57.5 43.5t83.5 17.5q60 0 109.5 -26t79 -79.5t29.5 -133.5q0 -79 -33.5 -133t-88 -80
t-117.5 -26q-149 0 -230 122z" />
    <glyph glyph-name="six" unicode="6" horiz-adv-x="601" 
d="M121 69q-71 83 -71 257q0 131 37 218t98.5 128.5t135.5 41.5q86 0 139 -34t80 -101l-69 -35q-36 94 -150 94q-86 0 -134 -72t-53 -204q19 46 70.5 77t115.5 31q60 0 113 -28.5t85.5 -83t32.5 -130.5t-36 -131t-92 -83t-116 -28q-115 0 -186 83zM387 81.5q36 19.5 57 57.5
t21 89t-21 89t-57 58t-80 20t-80.5 -20t-57.5 -58t-21 -89t21 -89t57.5 -57.5t80.5 -19.5t80 19.5z" />
    <glyph glyph-name="seven" unicode="7" horiz-adv-x="507" 
d="M386 624h-364v76h453v-68l-247 -632h-86z" />
    <glyph glyph-name="eight" unicode="8" horiz-adv-x="578" 
d="M118.5 39.5q-64.5 53.5 -64.5 151.5q0 65 34 110t86 66q-44 22 -72 63.5t-28 98.5q0 53 26 95.5t75 66t114 23.5t114 -23.5t75 -66t26 -95.5q0 -57 -28 -98.5t-72 -63.5q52 -21 86 -66t34 -110q0 -98 -64.5 -151.5t-170.5 -53.5t-170.5 53.5zM389.5 433.5
q36.5 33.5 36.5 88.5t-36.5 88.5t-100.5 33.5t-100.5 -33.5t-36.5 -88.5t36.5 -88.5t100.5 -33.5t100.5 33.5zM400 93q42 35 42 101t-42 101t-111 35t-111 -35t-42 -101t42 -101t111 -35t111 35z" />
    <glyph glyph-name="nine" unicode="9" horiz-adv-x="601" 
d="M144.5 21q-60.5 35 -84.5 98l66 43q25 -53 63.5 -76.5t92.5 -23.5q177 0 185 276q-22 -49 -71 -78.5t-115 -29.5q-60 0 -113 28.5t-85.5 83t-32.5 130.5t35.5 130.5t92 83t117.5 28.5q118 0 187 -82.5t69 -257.5q0 -131 -36 -218t-97 -128.5t-137 -41.5t-136.5 35z
M375 325.5q36 19.5 57 57.5t21 89t-21 89t-57 57.5t-80 19.5t-80.5 -19.5t-57.5 -57.5t-21 -89t21 -89t57.5 -57.5t80.5 -19.5t80 19.5z" />
    <glyph glyph-name="zero.tf" horiz-adv-x="600" 
d="M152 32.5q-62 46.5 -93.5 129t-31.5 188.5t31.5 188.5t93.5 129t148 46.5t148 -46.5t93.5 -129t31.5 -188.5t-31.5 -188.5t-93.5 -129t-148 -46.5t-148 46.5zM438 141q47 79 47 209t-47 209t-138 79t-138 -79t-47 -209t47 -209t138 -79t138 79z" />
    <glyph glyph-name="one.tf" horiz-adv-x="600" 
d="M488 76v-76h-376v76h146v463h-105v70h33q38 0 55 15.5t17 56.5v19h84v-624h146z" />
    <glyph glyph-name="two.tf" horiz-adv-x="600" 
d="M89 67l244 277q43 48 63 89t20 84q0 59 -36.5 90t-95.5 31q-53 0 -90 -35t-46 -97l-69 38q10 76 66 123t141 47q99 0 157.5 -50t58.5 -141q0 -67 -24 -115t-84 -115l-192 -217h312v-76h-425v67z" />
    <glyph glyph-name="three.tf" horiz-adv-x="600" 
d="M153.5 26q-60.5 40 -86.5 102l67 56q20 -56 64 -89t105 -33q63 0 102.5 39t39.5 112q0 72 -41 112t-102 40q-19 0 -37.5 -5t-31.5 -14l-50 60l200 218h-280v76h391v-65l-189 -197q7 1 19 1q55 0 103 -26.5t77 -77.5t29 -122q0 -69 -30.5 -120.5t-83.5 -79t-117 -27.5
q-88 0 -148.5 40z" />
    <glyph glyph-name="four.tf" horiz-adv-x="600" 
d="M357 151h-308v68l316 481h76v-473h110v-76h-110v-151h-84v151zM357 227v327l-213 -327h213z" />
    <glyph glyph-name="five.tf" horiz-adv-x="600" 
d="M65 108l63 51q30 -47 69 -72.5t98 -25.5q38 0 73 17t57.5 54t22.5 93t-21.5 93.5t-55.5 55t-72 17.5q-47 0 -85.5 -27.5t-53.5 -68.5l-72 16l43 389h350v-75h-280l-26 -222q19 26 57.5 43.5t83.5 17.5q60 0 109.5 -26t79 -79.5t29.5 -133.5q0 -79 -33.5 -133t-88 -80
t-117.5 -26q-149 0 -230 122z" />
    <glyph glyph-name="six.tf" horiz-adv-x="600" 
d="M120 69q-71 83 -71 257q0 131 37 218t98.5 128.5t135.5 41.5q86 0 139 -34t80 -101l-69 -35q-36 94 -150 94q-86 0 -134 -72t-53 -204q19 46 70.5 77t115.5 31q60 0 113 -28.5t85.5 -83t32.5 -130.5t-36 -131t-92 -83t-116 -28q-115 0 -186 83zM386 81.5q36 19.5 57 57.5
t21 89t-21 89t-57 58t-80 20t-80.5 -20t-57.5 -58t-21 -89t21 -89t57.5 -57.5t80.5 -19.5t80 19.5z" />
    <glyph glyph-name="seven.tf" horiz-adv-x="600" 
d="M437 624h-364v76h453v-68l-247 -632h-86z" />
    <glyph glyph-name="eight.tf" horiz-adv-x="600" 
d="M129.5 39.5q-64.5 53.5 -64.5 151.5q0 65 34 110t86 66q-44 22 -72 63.5t-28 98.5q0 53 26 95.5t75 66t114 23.5t114 -23.5t75 -66t26 -95.5q0 -57 -28 -98.5t-72 -63.5q52 -21 86 -66t34 -110q0 -98 -64.5 -151.5t-170.5 -53.5t-170.5 53.5zM400.5 433.5
q36.5 33.5 36.5 88.5t-36.5 88.5t-100.5 33.5t-100.5 -33.5t-36.5 -88.5t36.5 -88.5t100.5 -33.5t100.5 33.5zM411 93q42 35 42 101t-42 101t-111 35t-111 -35t-42 -101t42 -101t111 -35t111 35z" />
    <glyph glyph-name="nine.tf" horiz-adv-x="600" 
d="M143.5 21q-60.5 35 -84.5 98l66 43q25 -53 63.5 -76.5t92.5 -23.5q177 0 185 276q-22 -49 -71 -78.5t-115 -29.5q-60 0 -113 28.5t-85.5 83t-32.5 130.5t35.5 130.5t92 83t117.5 28.5q118 0 187 -82.5t69 -257.5q0 -131 -36 -218t-97 -128.5t-137 -41.5t-136.5 35z
M374 325.5q36 19.5 57 57.5t21 89t-21 89t-57 57.5t-80 19.5t-80.5 -19.5t-57.5 -57.5t-21 -89t21 -89t57.5 -57.5t80.5 -19.5t80 19.5z" />
    <glyph glyph-name="zero.tf.zero" horiz-adv-x="600" 
d="M448 667.5q62 -46.5 93.5 -129t31.5 -188.5t-31.5 -188.5t-93.5 -129t-148 -46.5t-148 46.5t-93.5 129t-31.5 188.5t31.5 188.5t93.5 129t148 46.5t148 -46.5zM128 226.5q13 -55.5 39 -93.5l207 488q-32 17 -74 17q-91 0 -138 -79t-47 -209q0 -68 13 -123.5zM438 141
q47 79 47 209q0 140 -52 217l-207 -488q32 -17 74 -17q91 0 138 79z" />
    <glyph glyph-name="zero.zero" horiz-adv-x="646" 
d="M471 667.5q62 -46.5 93.5 -129t31.5 -188.5t-31.5 -188.5t-93.5 -129t-148 -46.5t-148 46.5t-93.5 129t-31.5 188.5t31.5 188.5t93.5 129t148 46.5t148 -46.5zM151 226.5q13 -55.5 39 -93.5l207 488q-32 17 -74 17q-91 0 -138 -79t-47 -209q0 -68 13 -123.5zM461 141
q47 79 47 209q0 140 -52 217l-207 -488q32 -17 74 -17q91 0 138 79z" />
    <glyph glyph-name="uni2080" unicode="&#x2080;" horiz-adv-x="366" 
d="M71.5 -165q-39.5 52 -39.5 137t39.5 137t111.5 52t111.5 -52t39.5 -137t-39.5 -137t-111.5 -52t-111.5 52zM249.5 -129q22.5 37 22.5 101t-22.5 101t-66.5 37t-66.5 -37t-22.5 -101t22.5 -101t66.5 -37t66.5 37z" />
    <glyph glyph-name="uni2081" unicode="&#x2081;" horiz-adv-x="191" 
d="M84 62h-60v46h23q20 0 28.5 8t8.5 28v10h57v-364h-57v272z" />
    <glyph glyph-name="uni2082" unicode="&#x2082;" horiz-adv-x="299" 
d="M37 -165l128 139q23 24 32.5 43t9.5 39q0 26 -17.5 40.5t-45.5 14.5q-27 0 -44.5 -17t-22.5 -46l-47 24q6 40 37 64.5t79 24.5q55 0 87 -26.5t32 -73.5q0 -36 -13 -60t-47 -61l-92 -99h158v-51h-234v45z" />
    <glyph glyph-name="uni2083" unicode="&#x2083;" horiz-adv-x="324" 
d="M81 -197q-33 20 -50 50l45 37q13 -27 34 -42t50 -15q30 0 49.5 18t19.5 51t-19.5 50.5t-50.5 17.5q-21 0 -34 -8l-34 40l98 101h-140v51h217v-41l-96 -94q3 1 9 1q44 0 76.5 -31.5t32.5 -86.5t-35.5 -87t-92.5 -32q-46 0 -79 20z" />
    <glyph glyph-name="uni2084" unicode="&#x2084;" horiz-adv-x="325" 
d="M189 -138h-165v46l169 246h52v-241h57v-51h-57v-72h-56v72zM189 -87v147l-102 -147h102z" />
    <glyph glyph-name="uni2085" unicode="&#x2085;" horiz-adv-x="329" 
d="M31 -159l41 38q33 -45 87 -45q30 0 51.5 18.5t21.5 54.5q0 37 -20.5 56t-50.5 19q-23 0 -40.5 -11t-26.5 -29l-49 14l21 198h197v-51h-148l-13 -100q10 13 29 20.5t43 7.5q51 0 85 -31.5t34 -92.5t-38.5 -92.5t-95.5 -31.5q-84 0 -128 58z" />
    <glyph glyph-name="uni2086" unicode="&#x2086;" horiz-adv-x="342" 
d="M71.5 -173.5q-39.5 43.5 -39.5 133.5q0 99 43.5 150t107.5 51q88 0 119 -72l-46 -27q-12 26 -29.5 37t-44.5 11q-41 0 -65 -32.5t-27 -90.5q11 21 37 34t58 13q52 0 88.5 -33t36.5 -92q0 -40 -19.5 -68.5t-50.5 -43t-65 -14.5q-64 0 -103.5 43.5zM229 -146q22 20 22 55
q0 34 -22 54t-54 20t-54 -20t-22 -54q0 -35 22 -55t54 -20t54 20z" />
    <glyph glyph-name="uni2087" unicode="&#x2087;" horiz-adv-x="286" 
d="M205 102h-189v52h252v-48l-132 -316h-61z" />
    <glyph glyph-name="uni2088" unicode="&#x2088;" horiz-adv-x="322" 
d="M66 -189q-36 28 -36 79q0 33 18 56t45 35q-23 11 -37.5 32.5t-14.5 51.5q0 43 32.5 69.5t87.5 26.5t87.5 -26.5t32.5 -69.5q0 -30 -14.5 -51.5t-37.5 -32.5q27 -12 45 -35t18 -56q0 -51 -36 -79t-95 -28t-95 28zM210 17.5q18 14.5 18 40.5t-18 41t-49 15t-49 -15t-18 -41
t18 -40.5t49 -14.5t49 14.5zM214.5 -151.5q20.5 15.5 20.5 45.5t-20.5 45.5t-53.5 15.5t-53.5 -15.5t-20.5 -45.5t20.5 -45.5t53.5 -15.5t53.5 15.5z" />
    <glyph glyph-name="uni2089" unicode="&#x2089;" horiz-adv-x="342" 
d="M40 -145l46 27q12 -26 29.5 -37t44.5 -11q41 0 65 32.5t27 90.5q-11 -21 -37 -34t-58 -13q-52 0 -88.5 33t-36.5 92q0 40 19.5 68.5t50.5 43t65 14.5q64 0 103.5 -43.5t39.5 -133.5q0 -99 -43.5 -150t-107.5 -51q-87 0 -119 72zM221 -19q22 20 22 54q0 35 -22 55t-54 20
t-54 -20t-22 -55q0 -34 22 -54t54 -20t54 20z" />
    <glyph glyph-name="uni2070" unicode="&#x2070;" horiz-adv-x="366" 
d="M71.5 381q-39.5 52 -39.5 137t39.5 137t111.5 52t111.5 -52t39.5 -137t-39.5 -137t-111.5 -52t-111.5 52zM249.5 417q22.5 37 22.5 101t-22.5 101t-66.5 37t-66.5 -37t-22.5 -101t22.5 -101t66.5 -37t66.5 37z" />
    <glyph glyph-name="uni00B9" unicode="&#xb9;" horiz-adv-x="191" 
d="M84 608h-60v46h23q20 0 28.5 8t8.5 28v10h57v-364h-57v272z" />
    <glyph glyph-name="uni00B2" unicode="&#xb2;" horiz-adv-x="299" 
d="M37 381l128 139q23 24 32.5 43t9.5 39q0 26 -17.5 40.5t-45.5 14.5q-27 0 -44.5 -17t-22.5 -46l-47 24q6 40 37 64.5t79 24.5q55 0 87 -26.5t32 -73.5q0 -36 -13 -60t-47 -61l-92 -99h158v-51h-234v45z" />
    <glyph glyph-name="uni00B3" unicode="&#xb3;" horiz-adv-x="324" 
d="M81 349q-33 20 -50 50l45 37q13 -27 34 -42t50 -15q30 0 49.5 18t19.5 51t-19.5 50.5t-50.5 17.5q-21 0 -34 -8l-34 40l98 101h-140v51h217v-41l-96 -94q3 1 9 1q44 0 76.5 -31.5t32.5 -86.5t-35.5 -87t-92.5 -32q-46 0 -79 20z" />
    <glyph glyph-name="uni2074" unicode="&#x2074;" horiz-adv-x="325" 
d="M189 408h-165v46l169 246h52v-241h57v-51h-57v-72h-56v72zM189 459v147l-102 -147h102z" />
    <glyph glyph-name="uni2075" unicode="&#x2075;" horiz-adv-x="329" 
d="M31 387l41 38q33 -45 87 -45q30 0 51.5 18.5t21.5 54.5q0 37 -20.5 56t-50.5 19q-23 0 -40.5 -11t-26.5 -29l-49 14l21 198h197v-51h-148l-13 -100q10 13 29 20.5t43 7.5q51 0 85 -31.5t34 -92.5t-38.5 -92.5t-95.5 -31.5q-84 0 -128 58z" />
    <glyph glyph-name="uni2076" unicode="&#x2076;" horiz-adv-x="342" 
d="M71.5 372.5q-39.5 43.5 -39.5 133.5q0 99 43.5 150t107.5 51q88 0 119 -72l-46 -27q-12 26 -29.5 37t-44.5 11q-41 0 -65 -32.5t-27 -90.5q11 21 37 34t58 13q52 0 88.5 -33t36.5 -92q0 -40 -19.5 -68.5t-50.5 -43t-65 -14.5q-64 0 -103.5 43.5zM229 400q22 20 22 55
q0 34 -22 54t-54 20t-54 -20t-22 -54q0 -35 22 -55t54 -20t54 20z" />
    <glyph glyph-name="uni2077" unicode="&#x2077;" horiz-adv-x="286" 
d="M205 648h-189v52h252v-48l-132 -316h-61z" />
    <glyph glyph-name="uni2078" unicode="&#x2078;" horiz-adv-x="322" 
d="M66 357q-36 28 -36 79q0 33 18 56t45 35q-23 11 -37.5 32.5t-14.5 51.5q0 43 32.5 69.5t87.5 26.5t87.5 -26.5t32.5 -69.5q0 -30 -14.5 -51.5t-37.5 -32.5q27 -12 45 -35t18 -56q0 -51 -36 -79t-95 -28t-95 28zM210 563.5q18 14.5 18 40.5t-18 41t-49 15t-49 -15t-18 -41
t18 -40.5t49 -14.5t49 14.5zM214.5 394.5q20.5 15.5 20.5 45.5t-20.5 45.5t-53.5 15.5t-53.5 -15.5t-20.5 -45.5t20.5 -45.5t53.5 -15.5t53.5 15.5z" />
    <glyph glyph-name="uni2079" unicode="&#x2079;" horiz-adv-x="342" 
d="M40 401l46 27q12 -26 29.5 -37t44.5 -11q41 0 65 32.5t27 90.5q-11 -21 -37 -34t-58 -13q-52 0 -88.5 33t-36.5 92q0 40 19.5 68.5t50.5 43t65 14.5q64 0 103.5 -43.5t39.5 -133.5q0 -99 -43.5 -150t-107.5 -51q-87 0 -119 72zM221 527q22 20 22 54q0 35 -22 55t-54 20
t-54 -20t-22 -55q0 -34 22 -54t54 -20t54 20z" />
    <glyph glyph-name="fraction" unicode="&#x2044;" horiz-adv-x="525" 
d="M441 700h66l-423 -700h-66z" />
    <glyph glyph-name="onehalf" unicode="&#xbd;" horiz-adv-x="728" 
d="M84 608h-60v46h23q20 0 28.5 8t8.5 28v10h57v-364h-57v272zM509 700h66l-423 -700h-66zM466 45l128 139q23 24 32.5 43t9.5 39q0 26 -17.5 40.5t-45.5 14.5q-27 0 -44.5 -17t-22.5 -46l-47 24q6 40 37 64.5t79 24.5q55 0 87 -26.5t32 -73.5q0 -36 -13 -60t-47 -61
l-92 -99h158v-51h-234v45z" />
    <glyph glyph-name="uni2153" unicode="&#x2153;" horiz-adv-x="758" 
d="M84 608h-60v46h23q20 0 28.5 8t8.5 28v10h57v-364h-57v272zM509 700h66l-423 -700h-66zM515 13q-33 20 -50 50l45 37q13 -27 34 -42t50 -15q30 0 49.5 18t19.5 51t-19.5 50.5t-50.5 17.5q-21 0 -34 -8l-34 40l98 101h-140v51h217v-41l-96 -94q3 1 9 1q44 0 76.5 -31.5
t32.5 -86.5t-35.5 -87t-92.5 -32q-46 0 -79 20z" />
    <glyph glyph-name="uni2154" unicode="&#x2154;" horiz-adv-x="838" 
d="M37 381l128 139q23 24 32.5 43t9.5 39q0 26 -17.5 40.5t-45.5 14.5q-27 0 -44.5 -17t-22.5 -46l-47 24q6 40 37 64.5t79 24.5q55 0 87 -26.5t32 -73.5q0 -36 -13 -60t-47 -61l-92 -99h158v-51h-234v45zM589 700h66l-423 -700h-66zM595 13q-33 20 -50 50l45 37
q13 -27 34 -42t50 -15q30 0 49.5 18t19.5 51t-19.5 50.5t-50.5 17.5q-21 0 -34 -8l-34 40l98 101h-140v51h217v-41l-96 -94q3 1 9 1q44 0 76.5 -31.5t32.5 -86.5t-35.5 -87t-92.5 -32q-46 0 -79 20z" />
    <glyph glyph-name="onequarter" unicode="&#xbc;" horiz-adv-x="716" 
d="M84 608h-60v46h23q20 0 28.5 8t8.5 28v10h57v-364h-57v272zM509 700h66l-423 -700h-66zM580 72h-165v46l169 246h52v-241h57v-51h-57v-72h-56v72zM580 123v147l-102 -147h102z" />
    <glyph glyph-name="threequarters" unicode="&#xbe;" horiz-adv-x="796" 
d="M81 349q-33 20 -50 50l45 37q13 -27 34 -42t50 -15q30 0 49.5 18t19.5 51t-19.5 50.5t-50.5 17.5q-21 0 -34 -8l-34 40l98 101h-140v51h217v-41l-96 -94q3 1 9 1q44 0 76.5 -31.5t32.5 -86.5t-35.5 -87t-92.5 -32q-46 0 -79 20zM589 700h66l-423 -700h-66zM660 72h-165
v46l169 246h52v-241h57v-51h-57v-72h-56v72zM660 123v147l-102 -147h102z" />
    <glyph glyph-name="oneeighth" unicode="&#x215b;" horiz-adv-x="751" 
d="M84 608h-60v46h23q20 0 28.5 8t8.5 28v10h57v-364h-57v272zM509 700h66l-423 -700h-66zM495 21q-36 28 -36 79q0 33 18 56t45 35q-23 11 -37.5 32.5t-14.5 51.5q0 43 32.5 69.5t87.5 26.5t87.5 -26.5t32.5 -69.5q0 -30 -14.5 -51.5t-37.5 -32.5q27 -12 45 -35t18 -56
q0 -51 -36 -79t-95 -28t-95 28zM639 227.5q18 14.5 18 40.5t-18 41t-49 15t-49 -15t-18 -41t18 -40.5t49 -14.5t49 14.5zM643.5 58.5q20.5 15.5 20.5 45.5t-20.5 45.5t-53.5 15.5t-53.5 -15.5t-20.5 -45.5t20.5 -45.5t53.5 -15.5t53.5 15.5z" />
    <glyph glyph-name="threeeighths" unicode="&#x215c;" horiz-adv-x="831" 
d="M81 349q-33 20 -50 50l45 37q13 -27 34 -42t50 -15q30 0 49.5 18t19.5 51t-19.5 50.5t-50.5 17.5q-21 0 -34 -8l-34 40l98 101h-140v51h217v-41l-96 -94q3 1 9 1q44 0 76.5 -31.5t32.5 -86.5t-35.5 -87t-92.5 -32q-46 0 -79 20zM589 700h66l-423 -700h-66zM575 21
q-36 28 -36 79q0 33 18 56t45 35q-23 11 -37.5 32.5t-14.5 51.5q0 43 32.5 69.5t87.5 26.5t87.5 -26.5t32.5 -69.5q0 -30 -14.5 -51.5t-37.5 -32.5q27 -12 45 -35t18 -56q0 -51 -36 -79t-95 -28t-95 28zM719 227.5q18 14.5 18 40.5t-18 41t-49 15t-49 -15t-18 -41t18 -40.5
t49 -14.5t49 14.5zM723.5 58.5q20.5 15.5 20.5 45.5t-20.5 45.5t-53.5 15.5t-53.5 -15.5t-20.5 -45.5t20.5 -45.5t53.5 -15.5t53.5 15.5z" />
    <glyph glyph-name="fiveeighths" unicode="&#x215d;" horiz-adv-x="831" 
d="M31 387l41 38q33 -45 87 -45q30 0 51.5 18.5t21.5 54.5q0 37 -20.5 56t-50.5 19q-23 0 -40.5 -11t-26.5 -29l-49 14l21 198h197v-51h-148l-13 -100q10 13 29 20.5t43 7.5q51 0 85 -31.5t34 -92.5t-38.5 -92.5t-95.5 -31.5q-84 0 -128 58zM589 700h66l-423 -700h-66z
M575 21q-36 28 -36 79q0 33 18 56t45 35q-23 11 -37.5 32.5t-14.5 51.5q0 43 32.5 69.5t87.5 26.5t87.5 -26.5t32.5 -69.5q0 -30 -14.5 -51.5t-37.5 -32.5q27 -12 45 -35t18 -56q0 -51 -36 -79t-95 -28t-95 28zM719 227.5q18 14.5 18 40.5t-18 41t-49 15t-49 -15t-18 -41
t18 -40.5t49 -14.5t49 14.5zM723.5 58.5q20.5 15.5 20.5 45.5t-20.5 45.5t-53.5 15.5t-53.5 -15.5t-20.5 -45.5t20.5 -45.5t53.5 -15.5t53.5 15.5z" />
    <glyph glyph-name="seveneighths" unicode="&#x215e;" horiz-adv-x="781" 
d="M205 648h-189v52h252v-48l-132 -316h-61zM539 700h66l-423 -700h-66zM525 21q-36 28 -36 79q0 33 18 56t45 35q-23 11 -37.5 32.5t-14.5 51.5q0 43 32.5 69.5t87.5 26.5t87.5 -26.5t32.5 -69.5q0 -30 -14.5 -51.5t-37.5 -32.5q27 -12 45 -35t18 -56q0 -51 -36 -79
t-95 -28t-95 28zM669 227.5q18 14.5 18 40.5t-18 41t-49 15t-49 -15t-18 -41t18 -40.5t49 -14.5t49 14.5zM673.5 58.5q20.5 15.5 20.5 45.5t-20.5 45.5t-53.5 15.5t-53.5 -15.5t-20.5 -45.5t20.5 -45.5t53.5 -15.5t53.5 15.5z" />
    <glyph glyph-name="uni2080.zero" horiz-adv-x="366" 
d="M294.5 109q39.5 -52 39.5 -137t-39.5 -137t-111.5 -52t-111.5 52t-39.5 137t39.5 137t111.5 52t111.5 -52zM116.5 73q-22.5 -37 -22.5 -101q0 -65 23 -101l90 236q-11 3 -24 3q-44 0 -66.5 -37zM249.5 -129q22.5 37 22.5 101q0 65 -23 101l-90 -236q11 -3 24 -3
q44 0 66.5 37z" />
    <glyph glyph-name="uni2070.zero" horiz-adv-x="366" 
d="M294.5 655q39.5 -52 39.5 -137t-39.5 -137t-111.5 -52t-111.5 52t-39.5 137t39.5 137t111.5 52t111.5 -52zM116.5 619q-22.5 -37 -22.5 -101q0 -65 23 -101l90 236q-11 3 -24 3q-44 0 -66.5 -37zM249.5 417q22.5 37 22.5 101q0 65 -23 101l-90 -236q11 -3 24 -3
q44 0 66.5 37z" />
    <glyph glyph-name="asterisk" unicode="*" horiz-adv-x="390" 
d="M175 493l-112 -80l-33 58l126 57l-126 57l33 58l112 -80l-13 137h67l-14 -137l112 80l33 -58l-125 -57l125 -57l-33 -58l-112 80l14 -137h-67z" />
    <glyph glyph-name="backslash" unicode="\" horiz-adv-x="429" 
d="M117 760h-86l281 -820h86z" />
    <glyph glyph-name="periodcentered" unicode="&#xb7;" horiz-adv-x="234" 
d="M62 393h110v-86h-110v86z" />
    <glyph glyph-name="bullet" unicode="&#x2022;" horiz-adv-x="324" 
d="M76 380h172v-128h-172v128z" />
    <glyph glyph-name="colon" unicode=":" horiz-adv-x="234" 
d="M62 86h110v-86h-110v86zM62 490h110v-86h-110v86z" />
    <glyph glyph-name="comma" unicode="," horiz-adv-x="234" 
d="M65 -96q59 30 59 96h-62v86h110v-86q0 -100 -86 -138z" />
    <glyph glyph-name="ellipsis" unicode="&#x2026;" horiz-adv-x="570" 
d="M62 86h110v-86h-110v86zM230 86h110v-86h-110v86zM398 86h110v-86h-110v86z" />
    <glyph glyph-name="exclam" unicode="!" horiz-adv-x="234" 
d="M76 700h82v-529h-82v529zM62 86h110v-86h-110v86z" />
    <glyph glyph-name="exclamdown" unicode="&#xa1;" horiz-adv-x="234" 
d="M158 -210h-82v529h82v-529zM172 404h-110v86h110v-86z" />
    <glyph glyph-name="numbersign" unicode="#" horiz-adv-x="669" 
d="M505 435l-30 -170h129l-13 -69h-128l-35 -196h-72l35 196h-167l-35 -196h-72l35 196h-129l13 69h128l30 170h-129l13 69h128l35 196h72l-35 -196h167l35 196h72l-35 -196h129l-13 -69h-128zM433 435h-167l-30 -170h167z" />
    <glyph glyph-name="period" unicode="." horiz-adv-x="234" 
d="M62 86h110v-86h-110v86z" />
    <glyph glyph-name="question" unicode="?" horiz-adv-x="483" 
d="M195 210q0 46 8.5 76t26 53t51.5 55q37 35 55.5 64t18.5 71q0 52 -36 82.5t-90 30.5t-88 -30.5t-49 -80.5l-63 39q15 59 66 101.5t134 42.5q97 0 153.5 -48t56.5 -132q0 -40 -11.5 -70t-28.5 -51.5t-45 -50.5l-14 -14q-26 -27 -38 -42.5t-18.5 -37t-6.5 -55.5v-42h-82v39
zM181 86h110v-86h-110v86z" />
    <glyph glyph-name="questiondown" unicode="&#xbf;" horiz-adv-x="483" 
d="M288 280q0 -46 -8.5 -76t-26 -53t-51.5 -55q-37 -35 -55.5 -64t-18.5 -71q0 -52 36 -82.5t90 -30.5t88 30.5t49 80.5l63 -39q-15 -59 -66 -101.5t-134 -42.5q-97 0 -153.5 48t-56.5 132q0 40 11.5 70t28.5 51.5t45 50.5l14 14q26 27 38 42.5t18.5 37t6.5 55.5v42h82v-39z
M302 404h-110v86h110v-86z" />
    <glyph glyph-name="quotedbl" unicode="&#x22;" horiz-adv-x="329" 
d="M50 714h82l-9 -179h-64zM197 714h82l-9 -179h-64z" />
    <glyph glyph-name="quotesingle" unicode="'" horiz-adv-x="182" 
d="M50 714h82l-9 -179h-64z" />
    <glyph glyph-name="semicolon" unicode=";" horiz-adv-x="234" 
d="M62 490h110v-86h-110v86zM65 -96q59 30 59 96h-62v86h110v-86q0 -100 -86 -138z" />
    <glyph glyph-name="slash" unicode="/" horiz-adv-x="429" 
d="M312 760h86l-281 -820h-86z" />
    <glyph glyph-name="underscore" unicode="_" horiz-adv-x="486" 
d="M42 -14h402v-70h-402v70z" />
    <glyph glyph-name="braceleft" unicode="{" horiz-adv-x="299" 
d="M132 -105q-25 25 -25 73v268q0 28 -11.5 40.5t-34.5 12.5h-17v72h17q23 0 34.5 12.5t11.5 40.5v268q0 48 25 73t72 25h55v-72h-35q-35 0 -35 -36v-269q0 -32 -13 -50.5t-41 -27.5q28 -9 41 -27.5t13 -50.5v-269q0 -36 35 -36h35v-72h-55q-47 0 -72 25z" />
    <glyph glyph-name="braceright" unicode="}" horiz-adv-x="299" 
d="M167 755q25 -25 25 -73v-268q0 -28 11.5 -40.5t34.5 -12.5h17v-72h-17q-23 0 -34.5 -12.5t-11.5 -40.5v-268q0 -48 -25 -73t-72 -25h-55v72h35q35 0 35 36v269q0 32 13 50.5t41 27.5q-28 9 -41 27.5t-13 50.5v269q0 36 -35 36h-35v72h55q47 0 72 -25z" />
    <glyph glyph-name="bracketleft" unicode="[" horiz-adv-x="294" 
d="M93 780h161v-72h-79v-766h79v-72h-161v910z" />
    <glyph glyph-name="bracketright" unicode="]" horiz-adv-x="294" 
d="M201 -130h-161v72h79v766h-79v72h161v-910z" />
    <glyph glyph-name="parenleft" unicode="(" horiz-adv-x="284" 
d="M168 564.5q-32 -107.5 -32 -244.5t32.5 -244.5t98.5 -195.5h-87q-58 68 -94 180t-36 260t36 260t94 180h87q-67 -88 -99 -195.5z" />
    <glyph glyph-name="parenright" unicode=")" horiz-adv-x="284" 
d="M116 75.5q32 107.5 32 244.5t-32.5 244.5t-98.5 195.5h87q58 -68 94 -180t36 -260t-36 -260t-94 -180h-87q67 88 99 195.5z" />
    <glyph glyph-name="emdash" unicode="&#x2014;" horiz-adv-x="740" 
d="M42 324h656v-70h-656v70z" />
    <glyph glyph-name="endash" unicode="&#x2013;" horiz-adv-x="486" 
d="M42 324h402v-70h-402v70z" />
    <glyph glyph-name="hyphen" unicode="-" horiz-adv-x="365" 
d="M42 324h281v-70h-281v70z" />
    <glyph glyph-name="uni00AD" unicode="&#xad;" horiz-adv-x="365" 
d="M42 324h281v-70h-281v70z" />
    <glyph glyph-name="guillemotleft" unicode="&#xab;" horiz-adv-x="511" 
d="M244 280l138 189h88l-138 -189l138 -189h-88zM50 280l138 189h88l-138 -189l138 -189h-88z" />
    <glyph glyph-name="guillemotright" unicode="&#xbb;" horiz-adv-x="511" 
d="M461 280l-138 -189h-88l138 189l-138 189h88zM267 280l-138 -189h-88l138 189l-138 189h88z" />
    <glyph glyph-name="guilsinglleft" unicode="&#x2039;" horiz-adv-x="317" 
d="M50 280l138 189h88l-138 -189l138 -189h-88z" />
    <glyph glyph-name="guilsinglright" unicode="&#x203a;" horiz-adv-x="317" 
d="M267 280l-138 -189h-88l138 189l-138 189h88z" />
    <glyph glyph-name="quotedblbase" unicode="&#x201e;" horiz-adv-x="346" 
d="M32 -83q36 11 52.5 30.5t16.5 52.5h-62v86h110v-86q0 -102 -100 -131zM198 -83q36 11 52.5 30.5t16.5 52.5h-62v86h110v-86q0 -102 -100 -131z" />
    <glyph glyph-name="quotedblleft" unicode="&#x201c;" horiz-adv-x="346" 
d="M315 666q-36 -11 -52.5 -30.5t-16.5 -52.5h62v-86h-110v86q0 102 100 131zM149 666q-36 -11 -52.5 -30.5t-16.5 -52.5h62v-86h-110v86q0 102 100 131z" />
    <glyph glyph-name="quotedblright" unicode="&#x201d;" horiz-adv-x="346" 
d="M197 531q36 11 52.5 30.5t16.5 52.5h-62v86h110v-86q0 -102 -100 -131zM31 531q36 11 52.5 30.5t16.5 52.5h-62v86h110v-86q0 -102 -100 -131z" />
    <glyph glyph-name="quoteleft" unicode="&#x2018;" horiz-adv-x="180" 
d="M149 666q-36 -11 -52.5 -30.5t-16.5 -52.5h62v-86h-110v86q0 102 100 131z" />
    <glyph glyph-name="quoteright" unicode="&#x2019;" horiz-adv-x="180" 
d="M31 531q36 11 52.5 30.5t16.5 52.5h-62v86h110v-86q0 -102 -100 -131z" />
    <glyph glyph-name="quotesinglbase" unicode="&#x201a;" horiz-adv-x="180" 
d="M32 -83q36 11 52.5 30.5t16.5 52.5h-62v86h110v-86q0 -102 -100 -131z" />
    <glyph glyph-name="anoteleia" unicode="&#x387;" horiz-adv-x="234" 
d="M62 393h110v-86h-110v86z" />
    <glyph glyph-name="uni037E" unicode="&#x37e;" horiz-adv-x="234" 
d="M62 490h110v-86h-110v86zM65 -96q59 30 59 96h-62v86h110v-86q0 -100 -86 -138z" />
    <glyph glyph-name="uni00A0" unicode="&#xa0;" horiz-adv-x="278" 
d="M0 0z" />
    <glyph glyph-name="cent" unicode="&#xa2;" horiz-adv-x="538" 
d="M429 245l62 -40q-57 -103 -173 -113v-92h-64v93q-61 9 -108 44t-72.5 90t-25.5 123t25.5 123t72.5 90t108 44v93h64v-92q118 -10 173 -112l-62 -44q-39 71 -111 83v-370q74 9 111 80zM165.5 230q33.5 -49 88.5 -63v366q-55 -14 -88.5 -63t-33.5 -120t33.5 -120z" />
    <glyph glyph-name="currency" unicode="&#xa4;" horiz-adv-x="654" 
d="M526 210l78 -78l-59 -59l-77 77q-61 -42 -141 -42t-141 42l-77 -77l-59 59l78 78q-39 59 -39 140t39 140l-78 78l59 59l77 -77q61 42 141 42t141 -42l77 77l59 -59l-78 -78q39 -59 39 -140t-39 -140zM440.5 223.5q44.5 45.5 44.5 126.5t-44.5 126.5t-113.5 45.5
t-113.5 -45.5t-44.5 -126.5t44.5 -126.5t113.5 -45.5t113.5 45.5z" />
    <glyph glyph-name="dollar" unicode="$" horiz-adv-x="556" 
d="M452 55q-55 -55 -137 -67v-88h-64v87q-74 7 -129.5 47.5t-80.5 93.5l61 53q25 -48 62.5 -79.5t86.5 -39.5v269q-88 21 -139 71.5t-51 128.5q0 76 53.5 124t136.5 57v88h64v-88q61 -6 109 -35.5t80 -80.5l-60 -47q-22 37 -55 59.5t-74 29.5v-244q97 -24 144.5 -72.5
t47.5 -129.5q0 -82 -55 -137zM170.5 462.5q25.5 -28.5 80.5 -49.5v224q-47 -7 -76.5 -34.5t-29.5 -70.5q0 -41 25.5 -69.5zM390.5 104q28.5 32 28.5 80q0 51 -23.5 81.5t-80.5 49.5v-252q47 9 75.5 41z" />
    <glyph glyph-name="Euro" unicode="&#x20ac;" horiz-adv-x="708" 
d="M662 160q-76 -174 -258 -174q-113 0 -190.5 67t-106.5 178h-79v68h67q-2 34 -2 51t2 51h-67v68h79q29 111 106.5 178t190.5 67q194 0 257 -166l-70 -34q-27 66 -73 96t-114 30q-78 0 -131.5 -46t-75.5 -125h180v-68h-193q-3 -24 -3 -51t3 -51h193v-68h-180
q22 -79 75.5 -125t131.5 -46q70 0 114 32t74 100z" />
    <glyph glyph-name="florin" unicode="&#x192;" horiz-adv-x="407" 
d="M275 622.5q-20 -18.5 -26 -50.5l-14 -82h119l-12 -66h-119l-91 -517q-22 -131 -149 -131q-42 0 -68 14l14 75q26 -16 57 -16q55 0 66 64l90 511h-69l12 66h69l16 93q11 62 52 96.5t107 34.5q43 0 71 -14l-13 -75q-26 16 -62 16q-30 0 -50 -18.5z" />
    <glyph glyph-name="uni20B4" unicode="&#x20b4;" horiz-adv-x="601" 
d="M318 328l-12 -4h244v-70h-360q-23 -31 -23 -73q0 -56 32.5 -88.5t87.5 -32.5q64 0 105.5 27t83.5 95l59 -50q-84 -146 -248 -146q-90 0 -149 48.5t-59 138.5q0 43 19 81h-52v70h110q32 27 85 50h-195v70h342q18 17 24.5 38.5t6.5 51.5q0 49 -40 77.5t-97 28.5
q-93 0 -157 -93l-48 61q30 47 84.5 76.5t121.5 29.5q60 0 110 -20.5t80 -60.5t30 -96q0 -52 -24 -93h71v-70h-136q-41 -28 -96 -46z" />
    <glyph glyph-name="uni20BA" unicode="&#x20ba;" horiz-adv-x="595" 
d="M561 311q0 -146 -71 -228.5t-197 -82.5h-158v156l-75 -43l-34 58l109 63v92l-75 -43l-34 58l109 63v296h86v-247l104 60l34 -58l-138 -79v-93l104 60l34 -58l-138 -79v-132h73q96 0 142.5 61t46.5 176h78z" />
    <glyph glyph-name="uni20BD" unicode="&#x20bd;" horiz-adv-x="606" 
d="M201 292v-98h144v-72h-144v-122h-86v122h-85v72h85v98h-85v72h85v336h228q107 0 164 -54t57 -150t-57 -150t-164 -54h-142zM201 364h143q68 0 102.5 34t34.5 98t-34.5 98t-102.5 34h-143v-264z" />
    <glyph glyph-name="sterling" unicode="&#xa3;" horiz-adv-x="514" 
d="M470 74v-74h-416v74q45 30 67.5 67t22.5 93q0 27 -8 53h-94v68h61q-28 48 -41.5 82.5t-13.5 84.5q0 57 27 100.5t75.5 67.5t109.5 24q81 0 133.5 -35t73.5 -94l-64 -50q-17 52 -54 78.5t-89 26.5q-55 0 -92.5 -33.5t-37.5 -86.5q0 -40 12 -70t35 -71q10 -16 14 -24h183
v-68h-157q5 -22 5 -43q0 -53 -17.5 -93.5t-50.5 -76.5h316z" />
    <glyph glyph-name="yen" unicode="&#xa5;" horiz-adv-x="580" 
d="M379 357h112v-68h-148l-10 -19v-57h158v-68h-158v-145h-86v145h-158v68h158v57l-10 19h-148v68h112l-183 343h96l176 -343l176 343h96z" />
    <glyph glyph-name="uni2219" unicode="&#x2219;" horiz-adv-x="324" 
d="M76 380h172v-128h-172v128z" />
    <glyph glyph-name="uni2215" unicode="&#x2215;" horiz-adv-x="552" 
d="M431 760h90l-400 -820h-90z" />
    <glyph glyph-name="plus" unicode="+" horiz-adv-x="504" 
d="M217 275h-169v70h169v168h70v-168h169v-70h-169v-168h-70v168z" />
    <glyph glyph-name="minus" unicode="&#x2212;" horiz-adv-x="504" 
d="M48 345h408v-70h-408v70z" />
    <glyph glyph-name="multiply" unicode="&#xd7;" horiz-adv-x="504" 
d="M84 198l119 119l-120 120l50 49l120 -119l118 118l50 -49l-119 -119l119 -119l-49 -50l-119 120l-119 -119z" />
    <glyph glyph-name="divide" unicode="&#xf7;" horiz-adv-x="504" 
d="M207 519h110v-86h-110v86zM48 345h408v-70h-408v70zM207 187h110v-86h-110v86z" />
    <glyph glyph-name="equal" unicode="=" horiz-adv-x="504" 
d="M48 454h408v-70h-408v70zM48 236h408v-70h-408v70z" />
    <glyph glyph-name="notequal" unicode="&#x2260;" horiz-adv-x="504" 
d="M335 384l-86 -148h207v-70h-247l-79 -136l-60 35l58 101h-80v70h121l85 148h-206v70h247l78 136l61 -35l-58 -101h80v-70h-121z" />
    <glyph glyph-name="greater" unicode="&#x3e;" horiz-adv-x="504" 
d="M48 151l319 159l-319 159v80l408 -210v-58l-408 -210v80z" />
    <glyph glyph-name="less" unicode="&#x3c;" horiz-adv-x="504" 
d="M456 469l-319 -159l319 -159v-80l-408 210v58l408 210v-80z" />
    <glyph glyph-name="greaterequal" unicode="&#x2265;" horiz-adv-x="504" 
d="M48 200l327 122l-327 122v72l408 -156v-76l-408 -156v72zM48 70h408v-70h-408v70z" />
    <glyph glyph-name="lessequal" unicode="&#x2264;" horiz-adv-x="504" 
d="M48 284v76l408 156v-72l-327 -122l327 -122v-72zM48 70h408v-70h-408v70z" />
    <glyph glyph-name="plusminus" unicode="&#xb1;" horiz-adv-x="504" 
d="M456 370v-70h-168v-146h-70v146h-170v70h170v146h70v-146h168zM48 70h408v-70h-408v70z" />
    <glyph glyph-name="approxequal" unicode="&#x2248;" horiz-adv-x="504" 
d="M289.5 362q-20.5 7 -49.5 20q-22 11 -37.5 16.5t-30.5 5.5q-40 0 -67 -46l-49 41q18 36 47 56t68 20q23 0 43.5 -7t49.5 -20q22 -11 37.5 -16.5t30.5 -5.5q42 0 67 46l49 -41q-17 -35 -46.5 -55.5t-68.5 -20.5q-23 0 -43.5 7zM289.5 157q-20.5 7 -49.5 20
q-22 11 -37.5 16.5t-30.5 5.5q-40 0 -67 -46l-49 41q18 36 47 56t68 20q23 0 43.5 -7t49.5 -20q22 -11 37.5 -16.5t30.5 -5.5q42 0 67 46l49 -41q-17 -35 -46.5 -55.5t-68.5 -20.5q-23 0 -43.5 7z" />
    <glyph glyph-name="logicalnot" unicode="&#xac;" horiz-adv-x="456" 
d="M408 170h-76v162h-284v72h360v-234z" />
    <glyph glyph-name="asciitilde" unicode="~" horiz-adv-x="504" 
d="M289.5 298q-20.5 7 -49.5 20q-22 11 -37.5 16.5t-30.5 5.5q-40 0 -67 -46l-49 41q18 36 47 56t68 20q23 0 43.5 -7t49.5 -20q22 -11 37.5 -16.5t30.5 -5.5q42 0 67 46l49 -41q-17 -35 -46.5 -55.5t-68.5 -20.5q-23 0 -43.5 7z" />
    <glyph glyph-name="infinity" unicode="&#x221e;" horiz-adv-x="767" 
d="M88.5 196.5q-50.5 47.5 -50.5 140.5t50.5 140.5t124.5 47.5q58 0 104 -31.5t67 -85.5q21 54 67 85.5t104 31.5q74 0 124.5 -47.5t50.5 -140.5t-50.5 -140.5t-124.5 -47.5q-58 0 -104 31.5t-67 85.5q-21 -54 -67 -85.5t-104 -31.5q-74 0 -124.5 47.5zM294 242.5
q33 30.5 57 94.5q-24 64 -57 94.5t-78 30.5t-76 -32.5t-31 -92.5t31 -92.5t76 -32.5t78 30.5zM628 244.5q31 32.5 31 92.5t-31 92.5t-76 32.5t-78 -30.5t-57 -94.5q24 -64 57 -94.5t78 -30.5t76 32.5z" />
    <glyph glyph-name="integral" unicode="&#x222b;" horiz-adv-x="407" 
d="M-85 -210l14 75q26 -16 57 -16q55 0 66 64l118 670q11 62 52 96.5t107 34.5q43 0 71 -14l-13 -75q-26 16 -62 16q-30 0 -50 -18.5t-26 -50.5l-117 -665q-22 -131 -149 -131q-42 0 -68 14z" />
    <glyph glyph-name="uni2126" unicode="&#x2126;" horiz-adv-x="770" 
d="M666 210.5q-46 -85.5 -109 -136.5h135v-74h-228v88q69 48 114.5 124.5t45.5 170.5q0 75 -29 133.5t-83 91t-127 32.5t-127 -32.5t-83 -91t-29 -133.5q0 -94 45.5 -170.5t114.5 -124.5v-88h-228v74h135q-63 51 -109 136.5t-46 178.5q0 97 40.5 171t114.5 114t172 40
t172 -40t114.5 -114t40.5 -171q0 -93 -46 -178.5z" />
    <glyph glyph-name="uni2206" unicode="&#x2206;" horiz-adv-x="648" 
d="M625 0h-602l264 700h74zM508 75l-184 498l-184 -498h368z" />
    <glyph glyph-name="product" unicode="&#x220f;" horiz-adv-x="712" 
d="M619 -100h-86v726h-354v-726h-86v800h526v-800z" />
    <glyph glyph-name="summation" unicode="&#x2211;" horiz-adv-x="569" 
d="M36 64l218 286l-206 286v64h469v-74h-367l178 -248v-55l-190 -249h391v-74h-493v64z" />
    <glyph glyph-name="radical" unicode="&#x221a;" horiz-adv-x="538" 
d="M508 700l-201 -700h-78l-85 286h-106v72h163l66 -224l163 566h78z" />
    <glyph glyph-name="uni00B5" unicode="&#xb5;" horiz-adv-x="582" 
d="M87 490h82v-314q0 -118 108 -118q35 0 66 19t50.5 56.5t19.5 88.5v268h82v-490h-82v87q-22 -49 -62 -75t-91 -26q-61 0 -91 33v-229h-82v700z" />
    <glyph glyph-name="partialdiff" unicode="&#x2202;" horiz-adv-x="587" 
d="M485.5 566.5q53.5 -93.5 53.5 -222.5q0 -106 -32 -187t-95.5 -126t-152.5 -45q-61 0 -109 28.5t-75 79.5t-27 117q0 81 31.5 148t89.5 106t136 39q44 0 80.5 -17.5t62.5 -47.5q-30 155 -162 235l66 40q80 -54 133.5 -147.5zM406 128.5q48 70.5 51 191.5q-17 54 -54.5 83
t-91.5 29q-53 0 -94 -29.5t-63 -80.5t-22 -114q0 -67 37.5 -108.5t99.5 -41.5q89 0 137 70.5z" />
    <glyph glyph-name="percent" unicode="%" horiz-adv-x="820" 
d="M84 398q-46 50 -46 133t46 133t119 50t119 -50t46 -133t-46 -133t-119 -50t-119 50zM584 700h74l-422 -700h-74zM274.5 439.5q27.5 31.5 27.5 91.5t-27.5 91.5t-71.5 31.5t-71.5 -31.5t-27.5 -91.5t27.5 -91.5t71.5 -31.5t71.5 31.5zM498 36q-46 50 -46 133t46 133
t119 50t119 -50t46 -133t-46 -133t-119 -50t-119 50zM688.5 77.5q27.5 31.5 27.5 91.5t-27.5 91.5t-71.5 31.5t-71.5 -31.5t-27.5 -91.5t27.5 -91.5t71.5 -31.5t71.5 31.5z" />
    <glyph glyph-name="perthousand" unicode="&#x2030;" horiz-adv-x="1206" 
d="M84 398q-46 50 -46 133t46 133t119 50t119 -50t46 -133t-46 -133t-119 -50t-119 50zM584 700h74l-422 -700h-74zM274.5 439.5q27.5 31.5 27.5 91.5t-27.5 91.5t-71.5 31.5t-71.5 -31.5t-27.5 -91.5t27.5 -91.5t71.5 -31.5t71.5 31.5zM498 36q-46 50 -46 133t46 133
t119 50t119 -50t46 -133t-46 -133t-119 -50t-119 50zM884 36q-46 50 -46 133t46 133t119 50t119 -50t46 -133t-46 -133t-119 -50t-119 50zM688.5 77.5q27.5 31.5 27.5 91.5t-27.5 91.5t-71.5 31.5t-71.5 -31.5t-27.5 -91.5t27.5 -91.5t71.5 -31.5t71.5 31.5zM1074.5 77.5
q27.5 31.5 27.5 91.5t-27.5 91.5t-71.5 31.5t-71.5 -31.5t-27.5 -91.5t27.5 -91.5t71.5 -31.5t71.5 31.5z" />
    <glyph glyph-name="lozenge" unicode="&#x25ca;" horiz-adv-x="526" 
d="M28 350l199 350h72l199 -350l-199 -350h-72zM413 350l-150 270l-150 -270l150 -270z" />
    <glyph glyph-name="at" unicode="@" horiz-adv-x="774" 
d="M220 -23.5q-78 44.5 -124 125.5t-46 186t45.5 185t123 123.5t170.5 43.5t169.5 -42t121 -121.5t44.5 -185.5q0 -59 -19 -102.5t-50.5 -66t-68.5 -22.5q-34 0 -60 20.5t-31 51.5q-17 -33 -51 -52.5t-74 -19.5q-47 0 -85 22.5t-60 65t-22 98.5t22 98.5t60 65t85 22.5
q38 0 68 -16.5t43 -42.5v49h58v-248q0 -29 12.5 -43.5t35.5 -14.5q32 0 51.5 34.5t19.5 98.5q0 86 -33.5 151.5t-94 101.5t-141.5 36q-80 0 -141.5 -36.5t-95.5 -102.5t-34 -151t34.5 -152t96.5 -104.5t142 -37.5q53 0 93 13.5t75 39.5l33 -55q-82 -60 -201 -60
q-93 0 -171 44.5zM453.5 190.5q30.5 34.5 30.5 95.5q0 58 -31 94t-79 36q-47 0 -78 -36t-31 -94t31 -94t78 -36q49 0 79.5 34.5z" />
    <glyph glyph-name="ampersand" unicode="&#x26;" horiz-adv-x="645" 
d="M632 0h-102q-20 10 -45 39l-33 37q-41 -45 -87.5 -67.5t-110.5 -22.5q-56 0 -103 24.5t-75 71t-28 108.5q0 64 29.5 119t82.5 97q-49 68 -49 143q0 47 22 84.5t61.5 59t89.5 21.5q74 0 118.5 -35.5t60.5 -95.5l-59 -44q-16 54 -47.5 79.5t-72.5 25.5q-44 0 -70.5 -26
t-26.5 -69q0 -34 13 -61.5t41 -59.5l209 -240l78 98l49 -51l-80 -102l56 -64q38 -43 79 -69zM336 74q32 16 68 57l-195 218q-41 -33 -59 -68.5t-18 -84.5q0 -59 38 -98.5t93 -39.5q41 0 73 16z" />
    <glyph glyph-name="paragraph" unicode="&#xb6;" horiz-adv-x="574" 
d="M253 374h-35q-80 0 -128 44.5t-48 118.5q0 76 47.5 119.5t128.5 43.5h117v-800h-82v474zM399 700h82v-800h-82v800z" />
    <glyph glyph-name="section" unicode="&#xa7;" horiz-adv-x="508" 
d="M456 -13q0 -54 -29 -94t-77 -61.5t-105 -21.5q-111 0 -194 66l26 81q39 -36 79 -55.5t88 -19.5q53 0 91.5 27.5t38.5 75.5q0 50 -34.5 80t-121.5 54q-90 25 -133.5 68t-43.5 110q0 64 54 113q-51 50 -51 127q0 54 29 94t77.5 61.5t105.5 21.5q61 0 110 -19t83 -47
l-26 -81q-39 36 -79 55.5t-88 19.5q-53 0 -91.5 -27.5t-38.5 -75.5q0 -50 34.5 -80t121.5 -54q90 -25 133.5 -68t43.5 -110q0 -64 -54 -113q51 -49 51 -127zM156.5 229q33.5 -26 111.5 -47q45 -12 76 -28q33 30 33 69q0 46 -33.5 72t-111.5 47q-45 12 -76 28
q-33 -30 -33 -69q0 -46 33.5 -72z" />
    <glyph glyph-name="copyright" unicode="&#xa9;" horiz-adv-x="798" 
d="M219 34q-80 48 -125.5 131.5t-45.5 184.5t45.5 184.5t125.5 131.5t180 48t180 -48t125.5 -131.5t45.5 -184.5t-45.5 -184.5t-125.5 -131.5t-180 -48t-180 48zM546 87.5q65 39.5 101.5 108.5t36.5 154t-36.5 154t-101.5 108.5t-147 39.5t-147 -39.5t-101.5 -108.5
t-36.5 -154t36.5 -154t101.5 -108.5t147 -39.5t147 39.5zM304 172.5q-44 25.5 -69 71.5t-25 105t25 105.5t69 72.5t99 26q60 0 102.5 -24.5t63.5 -68.5l-48 -34q-37 67 -118 67q-57 0 -94 -39t-37 -104t37 -104t94 -39q84 0 118 67l48 -34q-23 -44 -66 -68.5t-100 -24.5
q-55 0 -99 25.5z" />
    <glyph glyph-name="registered" unicode="&#xae;" horiz-adv-x="798" 
d="M219 34q-80 48 -125.5 131.5t-45.5 184.5t45.5 184.5t125.5 131.5t180 48t180 -48t125.5 -131.5t45.5 -184.5t-45.5 -184.5t-125.5 -131.5t-180 -48t-180 48zM546 87.5q65 39.5 101.5 108.5t36.5 154t-36.5 154t-101.5 108.5t-147 39.5t-147 -39.5t-101.5 -108.5
t-36.5 -154t36.5 -154t101.5 -108.5t147 -39.5t147 39.5zM268 549h156q54 0 86 -29.5t32 -79.5q0 -39 -21.5 -64t-53.5 -36q23 -8 33 -37l37 -114q6 -19 20 -38h-62q-9 11 -15 29l-38 112q-7 22 -17 30.5t-32 8.5h-67v-180h-58v398zM425 383q28 0 43.5 15t15.5 42t-15.5 42
t-43.5 15h-99v-114h99z" />
    <glyph glyph-name="trademark" unicode="&#x2122;" horiz-adv-x="702" 
d="M274 646h-98v-310h-62v310h-98v54h258v-54zM660 700v-364h-60v230l-91 -200h-46l-91 200v-230h-60v364h58l116 -263l116 263h58z" />
    <glyph glyph-name="degree" unicode="&#xb0;" horiz-adv-x="390" 
d="M78 437.5q-44 45.5 -44 115.5t44 115.5t117 45.5t117 -45.5t44 -115.5t-44 -115.5t-117 -45.5t-117 45.5zM263.5 479.5q25.5 27.5 25.5 73.5t-25.5 73.5t-68.5 27.5t-68.5 -27.5t-25.5 -73.5t25.5 -73.5t68.5 -27.5t68.5 27.5z" />
    <glyph glyph-name="bar" unicode="|" horiz-adv-x="272" 
d="M93 700h86v-910h-86v910z" />
    <glyph glyph-name="brokenbar" unicode="&#xa6;" horiz-adv-x="272" 
d="M93 700h86v-381h-86v381zM93 171h86v-381h-86v381z" />
    <glyph glyph-name="dagger" unicode="&#x2020;" horiz-adv-x="314" 
d="M284 543h-97v-277h-60v277h-97v56h97v101h60v-101h97v-56z" />
    <glyph glyph-name="uni2113" unicode="&#x2113;" horiz-adv-x="506" 
d="M387 232l65 -24q-25 -107 -72 -164.5t-125 -57.5q-76 0 -121.5 57.5t-54.5 152.5q-36 -14 -54 -20v77l51 19q3 128 34.5 228.5t86.5 157t126 56.5q69 0 104 -38.5t35 -112.5q0 -196 -302 -333q2 -81 25.5 -127.5t74.5 -46.5q87 0 127 176zM242.5 598.5
q-32.5 -41.5 -54 -116.5t-26.5 -173q104 50 161 111.5t57 145.5q0 37 -17 55.5t-48 18.5q-40 0 -72.5 -41.5z" />
    <glyph glyph-name="daggerdbl" unicode="&#x2021;" horiz-adv-x="314" 
d="M127 367h-97v56h97v120h-97v56h97v101h60v-101h97v-56h-97v-120h97v-56h-97v-101h-60v101z" />
    <glyph glyph-name="estimated" unicode="&#x212e;" horiz-adv-x="824" 
d="M209 336v-233q83 -81 203 -81q95 0 171.5 50t117.5 133h45q-43 -98 -133 -158.5t-201 -60.5q-99 0 -182.5 49t-132.5 132.5t-49 182.5t49 182.5t132.5 132.5t182.5 49q98 0 181.5 -46t133 -126.5t49.5 -178.5v-27h-567zM209 600v-228h406v231q-41 36 -92.5 55.5
t-110.5 19.5q-119 0 -203 -78z" />
    <glyph glyph-name="uni2116" unicode="&#x2116;" horiz-adv-x="1306" 
d="M886.5 247.5q-55.5 31.5 -86 88t-30.5 129.5t30.5 129.5t86 88t127.5 31.5t127.5 -31.5t86 -88t30.5 -129.5t-30.5 -129.5t-86 -88t-127.5 -31.5t-127.5 31.5zM93 700h75l397 -552v552h84v-700h-75l-397 552v-552h-84v700zM1096.5 310q36.5 22 57 62.5t20.5 92.5
t-20.5 92.5t-57 62.5t-82.5 22t-82.5 -22t-57 -62.5t-20.5 -92.5t20.5 -92.5t57 -62.5t82.5 -22t82.5 22zM1229 72v-72h-430v72h430z" />
    <glyph glyph-name="asciicircum" unicode="^" horiz-adv-x="474" 
d="M205 700h64l167 -256h-82l-117 183l-117 -183h-82z" />
    <glyph glyph-name="copyright.ss01" horiz-adv-x="388" 
d="M79 439q-45 45 -45 115t45 115t115 45t115 -45t45 -115t-45 -115t-115 -45t-115 45zM283 462.5q35 35.5 35 91.5t-35 91.5t-89 35.5t-89 -35.5t-35 -91.5t35 -91.5t89 -35.5t89 35.5zM133 489q-24 25 -24 65t24 65t63 25q26 0 44.5 -11t27.5 -30l-24 -17q-19 28 -48 28
q-24 0 -39.5 -16t-15.5 -44t15.5 -44t39.5 -16q30 0 46 28l26 -17q-24 -41 -72 -41q-39 0 -63 25z" />
    <glyph glyph-name="registered.ss01" horiz-adv-x="388" 
d="M79 439q-45 45 -45 115t45 115t115 45t115 -45t45 -115t-45 -115t-115 -45t-115 45zM283 462.5q35 35.5 35 91.5t-35 91.5t-89 35.5t-89 -35.5t-35 -91.5t35 -91.5t89 -35.5t89 35.5zM138 641h71q24 0 37.5 -13t13.5 -34q0 -16 -9.5 -28t-23.5 -14q12 -5 17 -21l19 -64
h-31l-17 58q-3 10 -7.5 14t-13.5 4h-26v-76h-30v174zM203 569q27 0 27 23t-27 23h-35v-46h35z" />
    <glyph glyph-name="uni0308" unicode="&#x308;" 
d="M-287 667h94v-80h-94v80zM-129 667h94v-80h-94v80z" />
    <glyph glyph-name="uni0307" unicode="&#x307;" 
d="M-148 657h110v-86h-110v86z" />
    <glyph glyph-name="gravecomb" unicode="&#x300;" 
d="M-197 700h88l64 -136h-68z" />
    <glyph glyph-name="acutecomb" unicode="&#x301;" 
d="M-134 700h88l-84 -136h-68z" />
    <glyph glyph-name="uni030B" unicode="&#x30b;" 
d="M-288 700h88l-84 -136h-68zM-134 700h88l-84 -136h-68z" />
    <glyph glyph-name="caroncomb.alt" 
d="M-141 546q32 12 46.5 28t14.5 46h-62v80h110v-80q0 -51 -24.5 -79.5t-67.5 -42.5z" />
    <glyph glyph-name="uni0302" unicode="&#x302;" 
d="M-220 700h80l104 -136h-72l-72 83l-72 -83h-72z" />
    <glyph glyph-name="uni030C" unicode="&#x30c;" 
d="M-324 700h72l72 -83l72 83h72l-104 -136h-80z" />
    <glyph glyph-name="uni0306" unicode="&#x306;" 
d="M-209.5 594q-28.5 27 -28.5 75h58q0 -22 12 -36t33 -14t33 14t12 36h58q0 -48 -28.5 -75t-74.5 -27t-74.5 27z" />
    <glyph glyph-name="uni030A" unicode="&#x30a;" 
d="M-203.5 572.5q-24.5 24.5 -24.5 61.5t24.5 61.5t61.5 24.5t61.5 -24.5t24.5 -61.5t-24.5 -61.5t-61.5 -24.5t-61.5 24.5zM-110.5 602.5q12.5 12.5 12.5 31.5t-12.5 31.5t-31.5 12.5t-31.5 -12.5t-12.5 -31.5t12.5 -31.5t31.5 -12.5t31.5 12.5z" />
    <glyph glyph-name="tildecomb" unicode="&#x303;" 
d="M-365 618q15 25 44 41.5t65 16.5q19 0 34 -5t32 -15q17 -8 27 -12t22 -4q41 0 72 38l36 -43q-14 -25 -43 -42t-66 -17q-19 0 -33 5t-33 15q-15 8 -25.5 12t-22.5 4q-43 0 -73 -37z" />
    <glyph glyph-name="uni0304" unicode="&#x304;" 
d="M-299 652h216v-64h-216v64z" />
    <glyph glyph-name="uni0312" unicode="&#x312;" 
d="M-31 733q-36 -11 -52.5 -30.5t-16.5 -52.5h62v-86h-110v86q0 102 100 131z" />
    <glyph glyph-name="uni0326" unicode="&#x326;" 
d="M-142 -205q29 11 43 27t14 48h-63v82h110v-82q0 -51 -22.5 -75t-64.5 -41z" />
    <glyph glyph-name="uni0327" unicode="&#x327;" 
d="M-247 -213q-24 11 -40 29l30 39q25 -29 62 -29q52 0 52 42t-45 42q-14 0 -26 -6.5t-19 -16.5l-38 17l26 96h52l-34 -70q19 24 58 24t62.5 -22.5t23.5 -64.5q0 -45 -29.5 -68t-80.5 -23q-30 0 -54 11z" />
    <glyph glyph-name="uni0328" unicode="&#x328;" 
d="M-159.5 -172q-23.5 24 -23.5 68q0 31 15 58t40 46h68q-31 -25 -46 -47t-15 -49q0 -21 10.5 -31.5t27.5 -10.5q12 0 20 2.5t17 9.5v-60q-21 -10 -50 -10q-40 0 -63.5 24z" />
    <glyph glyph-name="uni0335" unicode="&#x335;" 
d="M-34 382v-64h-330v64h330z" />
    <glyph glyph-name="uni0337" unicode="&#x337;" 
d="M-285 299l229 132l34 -58l-229 -132z" />
    <glyph glyph-name="uni0338" unicode="&#x338;" 
d="M-427 -2l372 532l55 -38l-372 -532z" />
    <glyph glyph-name="caroncomb.alt.cap" 
d="M-149 531q36 11 52.5 30.5t16.5 52.5h-62v86h110v-86q0 -102 -100 -131z" />
    <glyph glyph-name="uni0327.cap" 
d="M-247 -213q-24 11 -40 29l30 39q25 -29 62 -29q52 0 52 42t-45 42q-14 0 -26 -6.5t-19 -16.5l-38 17l26 96h52l-34 -70q19 24 58 24t62.5 -22.5t23.5 -64.5q0 -45 -29.5 -68t-80.5 -23q-30 0 -54 11z" />
    <glyph glyph-name="uni0328.cap" 
d="M-159.5 -172q-23.5 24 -23.5 68q0 32 14.5 59t36.5 45h72q-31 -25 -46 -47.5t-15 -50.5q0 -19 10.5 -29.5t27.5 -10.5q12 0 20 2.5t17 9.5v-60q-21 -10 -50 -10q-40 0 -63.5 24z" />
    <glyph glyph-name="uni0335.cap" 
d="M-343 385h322v-70h-322v70z" />
    <glyph glyph-name="uni0336.cap" 
d="M-690 385h666v-70h-666v70z" />
    <glyph glyph-name="uni0337.cap" 
d="M-368 271l299 172l34 -58l-299 -172z" />
    <glyph glyph-name="uni0338.cap" 
d="M-624 36l568 675l56 -47l-568 -675z" />
    <glyph glyph-name="uni02C9" unicode="&#x2c9;" horiz-adv-x="382" 
d="M83 652h216v-64h-216v64z" />
    <glyph glyph-name="acute" unicode="&#xb4;" horiz-adv-x="244" 
d="M110 700h88l-84 -136h-68z" />
    <glyph glyph-name="breve" unicode="&#x2d8;" horiz-adv-x="270" 
d="M60.5 594q-28.5 27 -28.5 75h58q0 -22 12 -36t33 -14t33 14t12 36h58q0 -48 -28.5 -75t-74.5 -27t-74.5 27z" />
    <glyph glyph-name="caron" unicode="&#x2c7;" horiz-adv-x="360" 
d="M36 700h72l72 -83l72 83h72l-104 -136h-80z" />
    <glyph glyph-name="cedilla" unicode="&#xb8;" horiz-adv-x="380" 
d="M133 -213q-24 11 -40 29l30 39q25 -29 62 -29q52 0 52 42t-45 42q-14 0 -26 -6.5t-19 -16.5l-38 17l26 96h52l-34 -70q19 24 58 24t62.5 -22.5t23.5 -64.5q0 -45 -29.5 -68t-80.5 -23q-30 0 -54 11z" />
    <glyph glyph-name="circumflex" unicode="&#x2c6;" horiz-adv-x="360" 
d="M140 700h80l104 -136h-72l-72 83l-72 -83h-72z" />
    <glyph glyph-name="dieresis" unicode="&#xa8;" horiz-adv-x="322" 
d="M35 667h94v-80h-94v80zM193 667h94v-80h-94v80z" />
    <glyph glyph-name="dotaccent" unicode="&#x2d9;" horiz-adv-x="186" 
d="M38 657h110v-86h-110v86z" />
    <glyph glyph-name="grave" unicode="`" horiz-adv-x="243" 
d="M46 700h88l64 -136h-68z" />
    <glyph glyph-name="hungarumlaut" unicode="&#x2dd;" horiz-adv-x="398" 
d="M110 700h88l-84 -136h-68zM264 700h88l-84 -136h-68z" />
    <glyph glyph-name="macron" unicode="&#xaf;" horiz-adv-x="382" 
d="M83 652h216v-64h-216v64z" />
    <glyph glyph-name="ogonek" unicode="&#x2db;" horiz-adv-x="251" 
d="M91.5 -172q-23.5 24 -23.5 68q0 32 14.5 59t36.5 45h72q-31 -25 -46 -47.5t-15 -50.5q0 -19 10.5 -29.5t27.5 -10.5q12 0 20 2.5t17 9.5v-60q-21 -10 -50 -10q-40 0 -63.5 24z" />
    <glyph glyph-name="ring" unicode="&#x2da;" horiz-adv-x="284" 
d="M80.5 572.5q-24.5 24.5 -24.5 61.5t24.5 61.5t61.5 24.5t61.5 -24.5t24.5 -61.5t-24.5 -61.5t-61.5 -24.5t-61.5 24.5zM173.5 602.5q12.5 12.5 12.5 31.5t-12.5 31.5t-31.5 12.5t-31.5 -12.5t-12.5 -31.5t12.5 -31.5t31.5 -12.5t31.5 12.5z" />
    <glyph glyph-name="tilde" unicode="&#x2dc;" horiz-adv-x="398" 
d="M33 618q15 25 44 41.5t65 16.5q19 0 34 -5t32 -15q17 -8 27 -12t22 -4q41 0 72 38l36 -43q-14 -25 -43 -42t-66 -17q-19 0 -33 5t-33 15q-15 8 -25.5 12t-22.5 4q-43 0 -73 -37z" />
    <glyph glyph-name="tonos" unicode="&#x384;" horiz-adv-x="222" 
d="M86 700h90l-62 -136h-68z" />
    <glyph glyph-name="dieresistonos" unicode="&#x385;" horiz-adv-x="422" 
d="M191 695h90l-62 -136h-68zM35 667h94v-80h-94v80zM293 667h94v-80h-94v80z" />
    <glyph glyph-name="brevecombcy" 
d="M-209.5 594q-28.5 27 -28.5 75h58q0 -22 12 -36t33 -14t33 14t12 36h58q0 -48 -28.5 -75t-74.5 -27t-74.5 27z" />
    </font>
</defs>
</svg>
