<?xml version="1.0" standalone="no"?>
<!DOCTYPE svg PUBLIC "-//W3C//DTD SVG 1.1//EN" "http://www.w3.org/Graphics/SVG/1.1/DTD/svg11.dtd" >
<svg>
<metadata>
Created by FontForge 20090622 at Wed Feb 27 13:30:42 2019
 By deploy user
Copyright (c) 2017 Rolls-Royce PLC. All rights reserved.
</metadata>
<defs>
<font id="RRPioneer-Italic" horiz-adv-x="0" >
  <font-face 
    font-family="RR Pioneer"
    font-weight="400"
    font-style="italic"
    font-stretch="normal"
    units-per-em="1000"
    panose-1="2 11 5 3 5 2 1 11 1 3"
    ascent="790"
    descent="-210"
    x-height="490"
    cap-height="700"
    bbox="-681 -246 1299 930"
    underline-thickness="62"
    underline-position="-98"
    slope="-10"
    unicode-range="U+0020-U+FB02"
  />
<missing-glyph horiz-adv-x="598" 
d="M66 700h466v-700h-466v700zM456 646h-314l157 -269zM283 350l-161 276v-552zM476 626l-161 -276l161 -276v552zM456 54l-157 269l-157 -269h314z" />
    <glyph glyph-name="fi" unicode="fi" horiz-adv-x="574" 
d="M447 0h-82l74 424h-228l-75 -424h-82l75 424h-69l11 66h70l14 81q13 70 57 106.5t111 36.5q24 0 42 -4.5t27 -9.5l-13 -74q-15 8 -29 12t-34 4q-30 0 -52 -19t-28 -56l-14 -77h311zM576 657l-15 -86h-110l15 86h110z" />
    <glyph glyph-name="fl" unicode="fl" horiz-adv-x="581" 
d="M264 623q-22 -19 -28 -56l-14 -77h119l-11 -66h-119l-75 -424h-82l75 424h-69l11 66h70l14 81q13 70 57 106.5t111 36.5q24 0 42 -4.5t27 -9.5l-13 -74q-15 8 -29 12t-34 4q-30 0 -52 -19zM468.5 68q5.5 -5 15.5 -5q13 0 28 6l-12 -66q-12 -6 -23.5 -8t-29.5 -2
q-28 0 -47 18.5t-20 53.5q0 16 3 35l105 600h82l-105 -598q-2 -12 -2 -20q0 -9 5.5 -14z" />
    <glyph glyph-name=".notdef" horiz-adv-x="598" 
d="M66 700h466v-700h-466v700zM456 646h-314l157 -269zM283 350l-161 276v-552zM476 626l-161 -276l161 -276v552zM456 54l-157 269l-157 -269h314z" />
    <glyph glyph-name="space" unicode=" " horiz-adv-x="278" 
d="M0 0z" />
    <glyph glyph-name="A" unicode="A" horiz-adv-x="648" 
d="M464 172h-297l-94 -172h-93l388 700h74l140 -700h-85zM449 246l-63 327l-179 -327h242z" />
    <glyph glyph-name="Aacute" unicode="&#xc1;" horiz-adv-x="648" 
d="M464 172h-297l-94 -172h-93l388 700h74l140 -700h-85zM449 246l-63 327l-179 -327h242zM467 910h92l-106 -136h-70z" />
    <glyph glyph-name="Abreve" unicode="&#x102;" horiz-adv-x="648" 
d="M464 172h-297l-94 -172h-93l388 700h74l140 -700h-85zM449 246l-63 327l-179 -327h242zM358 799.5q-26 22.5 -26 58.5q0 11 2 21h58q-1 -5 -1 -16q0 -15 9.5 -24.5t27.5 -9.5q22 0 36 13.5t18 36.5h58q-18 -102 -119 -102q-37 0 -63 22.5z" />
    <glyph glyph-name="Acircumflex" unicode="&#xc2;" horiz-adv-x="648" 
d="M464 172h-297l-94 -172h-93l388 700h74l140 -700h-85zM449 246l-63 327l-179 -327h242zM402 910h80l80 -136h-64l-64 83l-87 -83h-73z" />
    <glyph glyph-name="Adieresis" unicode="&#xc4;" horiz-adv-x="648" 
d="M464 172h-297l-94 -172h-93l388 700h74l140 -700h-85zM449 246l-63 327l-179 -327h242zM310 877h94l-14 -80h-94zM468 877h94l-14 -80h-94z" />
    <glyph glyph-name="Agrave" unicode="&#xc0;" horiz-adv-x="648" 
d="M464 172h-297l-94 -172h-93l388 700h74l140 -700h-85zM449 246l-63 327l-179 -327h242zM318 910h88l43 -136h-62z" />
    <glyph glyph-name="Amacron" unicode="&#x100;" horiz-adv-x="648" 
d="M464 172h-297l-94 -172h-93l388 700h74l140 -700h-85zM449 246l-63 327l-179 -327h242zM326 862h216l-12 -64h-216z" />
    <glyph glyph-name="Aogonek" unicode="&#x104;" horiz-adv-x="648" 
d="M464 172h-297l-94 -172h-93l388 700h74l140 -700h-85zM449 246l-63 327l-179 -327h242zM459.5 -173.5q-20.5 22.5 -20.5 57.5q0 37 19 67t52 49h72q-37 -26 -58 -50.5t-21 -53.5q0 -16 9 -25t23 -9q12 0 20 2.5t19 9.5l-11 -60q-20 -10 -49 -10q-34 0 -54.5 22.5z" />
    <glyph glyph-name="Aring" unicode="&#xc5;" horiz-adv-x="648" 
d="M464 172h-297l-94 -172h-93l388 700h74l140 -700h-85zM449 246l-63 327l-179 -327h242zM368.5 782.5q-24.5 24.5 -24.5 61.5t24.5 61.5t61.5 24.5t61.5 -24.5t24.5 -61.5t-24.5 -61.5t-61.5 -24.5t-61.5 24.5zM461.5 812.5q12.5 12.5 12.5 31.5t-12.5 31.5t-31.5 12.5
t-31.5 -12.5t-12.5 -31.5t12.5 -31.5t31.5 -12.5t31.5 12.5z" />
    <glyph glyph-name="Atilde" unicode="&#xc3;" horiz-adv-x="648" 
d="M464 172h-297l-94 -172h-93l388 700h74l140 -700h-85zM449 246l-63 327l-179 -327h242zM262 824q44 62 112 62q17 0 29.5 -4.5t32.5 -14.5q15 -8 27 -12.5t26 -4.5q38 0 71 38l36 -39q-41 -63 -112 -63q-17 0 -29.5 4.5t-32.5 14.5q-15 8 -27 12.5t-26 4.5q-39 0 -71 -37
z" />
    <glyph glyph-name="AE" unicode="&#xc6;" horiz-adv-x="938" 
d="M604 626l-40 -227h269l-13 -74h-269l-45 -251h358l-13 -74h-444l30 172h-251l-111 -172h-95l460 700h535l-13 -74h-358zM451 246l67 380h-38l-246 -380h217z" />
    <glyph glyph-name="B" unicode="B" horiz-adv-x="646" 
d="M174 700h257q90 0 139 -45.5t49 -117.5q0 -65 -34 -107t-86 -62q43 -21 67 -56.5t24 -95.5q0 -64 -32.5 -113t-90 -76t-130.5 -27h-287zM386 398q64 0 104 36t40 98q0 46 -28 70t-81 24h-174l-41 -228h180zM348 74q70 0 112.5 36t42.5 101q0 55 -29.5 84t-85.5 29h-195
l-44 -250h199z" />
    <glyph glyph-name="C" unicode="C" horiz-adv-x="711" 
d="M200 25.5q-63 39.5 -97.5 108t-34.5 154.5q0 122 50 219t139.5 152t205.5 55q97 0 161.5 -47.5t90.5 -132.5l-78 -34q-16 65 -66.5 102.5t-120.5 37.5q-83 0 -150 -44.5t-105.5 -122t-38.5 -174.5q0 -68 23 -122t67.5 -85.5t105.5 -31.5q79 0 132.5 34.5t93.5 108.5
l72 -39q-49 -89 -124.5 -133.5t-181.5 -44.5q-81 0 -144 39.5z" />
    <glyph glyph-name="Cacute" unicode="&#x106;" horiz-adv-x="711" 
d="M200 25.5q-63 39.5 -97.5 108t-34.5 154.5q0 122 50 219t139.5 152t205.5 55q97 0 161.5 -47.5t90.5 -132.5l-78 -34q-16 65 -66.5 102.5t-120.5 37.5q-83 0 -150 -44.5t-105.5 -122t-38.5 -174.5q0 -68 23 -122t67.5 -85.5t105.5 -31.5q79 0 132.5 34.5t93.5 108.5
l72 -39q-49 -89 -124.5 -133.5t-181.5 -44.5q-81 0 -144 39.5zM524 910h92l-106 -136h-70z" />
    <glyph glyph-name="Ccaron" unicode="&#x10c;" horiz-adv-x="711" 
d="M200 25.5q-63 39.5 -97.5 108t-34.5 154.5q0 122 50 219t139.5 152t205.5 55q97 0 161.5 -47.5t90.5 -132.5l-78 -34q-16 65 -66.5 102.5t-120.5 37.5q-83 0 -150 -44.5t-105.5 -122t-38.5 -174.5q0 -68 23 -122t67.5 -85.5t105.5 -31.5q79 0 132.5 34.5t93.5 108.5
l72 -39q-49 -89 -124.5 -133.5t-181.5 -44.5q-81 0 -144 39.5zM357 910h64l64 -83l87 83h73l-128 -136h-80z" />
    <glyph glyph-name="Ccedilla" unicode="&#xc7;" horiz-adv-x="711" 
d="M200 25.5q-63 39.5 -97.5 108t-34.5 154.5q0 122 50 219t139.5 152t205.5 55q97 0 161.5 -47.5t90.5 -132.5l-78 -34q-16 65 -66.5 102.5t-120.5 37.5q-83 0 -150 -44.5t-105.5 -122t-38.5 -174.5q0 -68 23 -122t67.5 -85.5t105.5 -31.5q79 0 132.5 34.5t93.5 108.5
l72 -39q-49 -89 -124.5 -133.5t-181.5 -44.5q-81 0 -144 39.5zM247 -213q-25 11 -40 29l32 39q13 -13 30.5 -21t35.5 -8q56 0 56 48q0 17 -11.5 26.5t-29.5 9.5q-27 0 -46 -23l-35 17l43 96h52l-47 -70q24 24 61 24q33 0 53.5 -20t20.5 -57q0 -48 -32.5 -74.5t-91.5 -26.5
q-26 0 -51 11z" />
    <glyph glyph-name="D" unicode="D" horiz-adv-x="694" 
d="M174 700h204q83 0 147.5 -36.5t100.5 -104.5t36 -160q0 -115 -52 -206t-144 -142t-208 -51h-208zM267 74q91 0 160.5 41t108 113.5t38.5 164.5q0 110 -53.5 171.5t-155.5 61.5h-118l-98 -552h118z" />
    <glyph glyph-name="Eth" unicode="&#xd0;" horiz-adv-x="694" 
d="M174 700h204q83 0 147.5 -36.5t100.5 -104.5t36 -160q0 -115 -52 -206t-144 -142t-208 -51h-208zM267 74q91 0 160.5 41t108 113.5t38.5 164.5q0 110 -53.5 171.5t-155.5 61.5h-118l-98 -552h118zM46 385h322l-12 -70h-322z" />
    <glyph glyph-name="Dcaron" unicode="&#x10e;" horiz-adv-x="694" 
d="M174 700h204q83 0 147.5 -36.5t100.5 -104.5t36 -160q0 -115 -52 -206t-144 -142t-208 -51h-208zM267 74q91 0 160.5 41t108 113.5t38.5 164.5q0 110 -53.5 171.5t-155.5 61.5h-118l-98 -552h118zM227 910h64l64 -83l87 83h73l-128 -136h-80z" />
    <glyph glyph-name="Dcroat" unicode="&#x110;" horiz-adv-x="694" 
d="M174 700h204q83 0 147.5 -36.5t100.5 -104.5t36 -160q0 -115 -52 -206t-144 -142t-208 -51h-208zM267 74q91 0 160.5 41t108 113.5t38.5 164.5q0 110 -53.5 171.5t-155.5 61.5h-118l-98 -552h118zM46 385h322l-12 -70h-322z" />
    <glyph glyph-name="E" unicode="E" horiz-adv-x="581" 
d="M247 626l-40 -227h269l-13 -74h-269l-45 -251h358l-13 -74h-444l124 700h444l-13 -74h-358z" />
    <glyph glyph-name="Eacute" unicode="&#xc9;" horiz-adv-x="581" 
d="M247 626l-40 -227h269l-13 -74h-269l-45 -251h358l-13 -74h-444l124 700h444l-13 -74h-358zM458 910h92l-106 -136h-70z" />
    <glyph glyph-name="Ecaron" unicode="&#x11a;" horiz-adv-x="581" 
d="M247 626l-40 -227h269l-13 -74h-269l-45 -251h358l-13 -74h-444l124 700h444l-13 -74h-358zM291 910h64l64 -83l87 83h73l-128 -136h-80z" />
    <glyph glyph-name="Ecircumflex" unicode="&#xca;" horiz-adv-x="581" 
d="M247 626l-40 -227h269l-13 -74h-269l-45 -251h358l-13 -74h-444l124 700h444l-13 -74h-358zM393 910h80l80 -136h-64l-64 83l-87 -83h-73z" />
    <glyph glyph-name="Edieresis" unicode="&#xcb;" horiz-adv-x="581" 
d="M247 626l-40 -227h269l-13 -74h-269l-45 -251h358l-13 -74h-444l124 700h444l-13 -74h-358zM301 877h94l-14 -80h-94zM459 877h94l-14 -80h-94z" />
    <glyph glyph-name="Edotaccent" unicode="&#x116;" horiz-adv-x="581" 
d="M247 626l-40 -227h269l-13 -74h-269l-45 -251h358l-13 -74h-444l124 700h444l-13 -74h-358zM371 867h110l-15 -86h-110z" />
    <glyph glyph-name="Egrave" unicode="&#xc8;" horiz-adv-x="581" 
d="M247 626l-40 -227h269l-13 -74h-269l-45 -251h358l-13 -74h-444l124 700h444l-13 -74h-358zM309 910h88l43 -136h-62z" />
    <glyph glyph-name="Emacron" unicode="&#x112;" horiz-adv-x="581" 
d="M247 626l-40 -227h269l-13 -74h-269l-45 -251h358l-13 -74h-444l124 700h444l-13 -74h-358zM317 862h216l-12 -64h-216z" />
    <glyph glyph-name="Eogonek" unicode="&#x118;" horiz-adv-x="581" 
d="M247 626l-40 -227h269l-13 -74h-269l-45 -251h358l-13 -74h-444l124 700h444l-13 -74h-358zM371.5 -173.5q-20.5 22.5 -20.5 57.5q0 37 19 67t52 49h72q-37 -26 -58 -50.5t-21 -53.5q0 -16 9 -25t23 -9q12 0 20 2.5t19 9.5l-11 -60q-20 -10 -49 -10q-34 0 -54.5 22.5z
" />
    <glyph glyph-name="F" unicode="F" horiz-adv-x="583" 
d="M247 626l-45 -254h293l-13 -74h-293l-53 -298h-86l124 700h444l-13 -74h-358z" />
    <glyph glyph-name="G" unicode="G" horiz-adv-x="742" 
d="M203 26q-64 40 -99.5 109.5t-35.5 155.5q0 119 50.5 215.5t141 152t206.5 55.5q92 0 158.5 -44.5t89.5 -119.5l-73 -40q-18 61 -66.5 95.5t-118.5 34.5q-87 0 -155.5 -44t-106.5 -122t-38 -176q0 -106 53.5 -172t149.5 -66q65 0 116 21t99 68l26 150h-212l13 72h292
l-45 -258q-63 -64 -132 -95.5t-167 -31.5q-82 0 -146 40z" />
    <glyph glyph-name="Gbreve" unicode="&#x11e;" horiz-adv-x="742" 
d="M203 26q-64 40 -99.5 109.5t-35.5 155.5q0 119 50.5 215.5t141 152t206.5 55.5q92 0 158.5 -44.5t89.5 -119.5l-73 -40q-18 61 -66.5 95.5t-118.5 34.5q-87 0 -155.5 -44t-106.5 -122t-38 -176q0 -106 53.5 -172t149.5 -66q65 0 116 21t99 68l26 150h-212l13 72h292
l-45 -258q-63 -64 -132 -95.5t-167 -31.5q-82 0 -146 40zM420 799.5q-26 22.5 -26 58.5q0 11 2 21h58q-1 -5 -1 -16q0 -15 9.5 -24.5t27.5 -9.5q22 0 36 13.5t18 36.5h58q-18 -102 -119 -102q-37 0 -63 22.5z" />
    <glyph glyph-name="Gcommaaccent" unicode="&#x122;" horiz-adv-x="742" 
d="M203 26q-64 40 -99.5 109.5t-35.5 155.5q0 119 50.5 215.5t141 152t206.5 55.5q92 0 158.5 -44.5t89.5 -119.5l-73 -40q-18 61 -66.5 95.5t-118.5 34.5q-87 0 -155.5 -44t-106.5 -122t-38 -176q0 -106 53.5 -172t149.5 -66q65 0 116 21t99 68l26 150h-212l13 72h292
l-45 -258q-63 -64 -132 -95.5t-167 -31.5q-82 0 -146 40zM264 -202q30 7 46 22t22 50h-63l14 82h110l-14 -82q-10 -55 -36.5 -79.5t-72.5 -36.5z" />
    <glyph glyph-name="H" unicode="H" horiz-adv-x="712" 
d="M699 700l-124 -700h-86l58 325h-353l-58 -325h-86l124 700h86l-53 -301h353l53 301h86z" />
    <glyph glyph-name="Hbar" unicode="&#x126;" horiz-adv-x="712" 
d="M699 700l-124 -700h-86l58 325h-353l-58 -325h-86l124 700h86l-53 -301h353l53 301h86zM83 584h666l-12 -70h-666z" />
    <glyph glyph-name="I" unicode="I" horiz-adv-x="273" 
d="M174 700h86l-124 -700h-86z" />
    <glyph glyph-name="Iacute" unicode="&#xcd;" horiz-adv-x="273" 
d="M174 700h86l-124 -700h-86zM279 910h92l-106 -136h-70z" />
    <glyph glyph-name="Icircumflex" unicode="&#xce;" horiz-adv-x="273" 
d="M174 700h86l-124 -700h-86zM214 910h80l80 -136h-64l-64 83l-87 -83h-73z" />
    <glyph glyph-name="Idieresis" unicode="&#xcf;" horiz-adv-x="273" 
d="M174 700h86l-124 -700h-86zM122 877h94l-14 -80h-94zM280 877h94l-14 -80h-94z" />
    <glyph glyph-name="Idotaccent" unicode="&#x130;" horiz-adv-x="273" 
d="M174 700h86l-124 -700h-86zM192 867h110l-15 -86h-110z" />
    <glyph glyph-name="Igrave" unicode="&#xcc;" horiz-adv-x="273" 
d="M174 700h86l-124 -700h-86zM130 910h88l43 -136h-62z" />
    <glyph glyph-name="Imacron" unicode="&#x12a;" horiz-adv-x="273" 
d="M174 700h86l-124 -700h-86zM138 862h216l-12 -64h-216z" />
    <glyph glyph-name="Iogonek" unicode="&#x12e;" horiz-adv-x="273" 
d="M174 700h86l-124 -700h-86zM13.5 -173.5q-20.5 22.5 -20.5 57.5q0 37 19 67t52 49h72q-37 -26 -58 -50.5t-21 -53.5q0 -16 9 -25t23 -9q12 0 20 2.5t19 9.5l-11 -60q-20 -10 -49 -10q-34 0 -54.5 22.5z" />
    <glyph glyph-name="J" unicode="J" horiz-adv-x="501" 
d="M62.5 13q-44.5 27 -63.5 67l53 66q24 -43 54.5 -64.5t72.5 -21.5q54 0 93.5 37.5t53.5 117.5l86 485h86l-86 -485q-21 -119 -83.5 -174t-162.5 -55q-59 0 -103.5 27z" />
    <glyph glyph-name="K" unicode="K" horiz-adv-x="606" 
d="M341 421l211 -421h-89l-184 364l-94 -88l-49 -276h-86l124 700h86l-55 -310l330 310h108z" />
    <glyph glyph-name="Kcommaaccent" unicode="&#x136;" horiz-adv-x="606" 
d="M341 421l211 -421h-89l-184 364l-94 -88l-49 -276h-86l124 700h86l-55 -310l330 310h108zM203 -202q30 7 46 22t22 50h-63l14 82h110l-14 -82q-10 -55 -36.5 -79.5t-72.5 -36.5z" />
    <glyph glyph-name="L" unicode="L" horiz-adv-x="536" 
d="M471 74l-13 -74h-408l124 700h86l-111 -626h322z" />
    <glyph glyph-name="Lacute" unicode="&#x139;" horiz-adv-x="536" 
d="M471 74l-13 -74h-408l124 700h86l-111 -626h322zM279 910h92l-106 -136h-70z" />
    <glyph glyph-name="Lcaron" unicode="&#x13d;" horiz-adv-x="536" 
d="M471 74l-13 -74h-408l124 700h86l-111 -626h322zM436 530q37 9 56.5 29t26.5 55h-62l15 86h110l-15 -86q-11 -59 -41.5 -88.5t-81.5 -42.5z" />
    <glyph glyph-name="Lcommaaccent" unicode="&#x13b;" horiz-adv-x="536" 
d="M471 74l-13 -74h-408l124 700h86l-111 -626h322zM171 -202q30 7 46 22t22 50h-63l14 82h110l-14 -82q-10 -55 -36.5 -79.5t-72.5 -36.5z" />
    <glyph glyph-name="Lslash" unicode="&#x141;" horiz-adv-x="536" 
d="M471 74l-13 -74h-408l124 700h86l-111 -626h322zM4 293l331 175l30 -61l-331 -175z" />
    <glyph glyph-name="M" unicode="M" horiz-adv-x="864" 
d="M174 700h78l162 -539l349 539h88l-124 -700h-84l91 516l-301 -459h-66l-142 459l-91 -516h-84z" />
    <glyph glyph-name="N" unicode="N" horiz-adv-x="742" 
d="M174 700h75l297 -560l99 560h84l-124 -700h-75l-297 560l-99 -560h-84z" />
    <glyph glyph-name="Nacute" unicode="&#x143;" horiz-adv-x="742" 
d="M174 700h75l297 -560l99 560h84l-124 -700h-75l-297 560l-99 -560h-84zM514 910h92l-106 -136h-70z" />
    <glyph glyph-name="Ncaron" unicode="&#x147;" horiz-adv-x="742" 
d="M174 700h75l297 -560l99 560h84l-124 -700h-75l-297 560l-99 -560h-84zM347 910h64l64 -83l87 83h73l-128 -136h-80z" />
    <glyph glyph-name="Ncommaaccent" unicode="&#x145;" horiz-adv-x="742" 
d="M174 700h75l297 -560l99 560h84l-124 -700h-75l-297 560l-99 -560h-84zM245 -202q30 7 46 22t22 50h-63l14 82h110l-14 -82q-10 -55 -36.5 -79.5t-72.5 -36.5z" />
    <glyph glyph-name="Ntilde" unicode="&#xd1;" horiz-adv-x="742" 
d="M174 700h75l297 -560l99 560h84l-124 -700h-75l-297 560l-99 -560h-84zM309 824q44 62 112 62q17 0 29.5 -4.5t32.5 -14.5q15 -8 27 -12.5t26 -4.5q38 0 71 38l36 -39q-41 -63 -112 -63q-17 0 -29.5 4.5t-32.5 14.5q-15 8 -27 12.5t-26 4.5q-39 0 -71 -37z" />
    <glyph glyph-name="O" unicode="O" horiz-adv-x="770" 
d="M200 26q-63 40 -97 110t-34 159q0 116 48 211.5t137 151.5t206 56q85 0 148 -40t96.5 -110.5t33.5 -159.5q0 -115 -48 -210.5t-136.5 -151.5t-205.5 -56q-85 0 -148 40zM510 105q67 45 103.5 121.5t36.5 169.5q0 113 -52 178.5t-147 65.5q-86 0 -153 -45t-104 -122
t-37 -169q0 -113 52.5 -178.5t147.5 -65.5q86 0 153 45z" />
    <glyph glyph-name="Oacute" unicode="&#xd3;" horiz-adv-x="770" 
d="M200 26q-63 40 -97 110t-34 159q0 116 48 211.5t137 151.5t206 56q85 0 148 -40t96.5 -110.5t33.5 -159.5q0 -115 -48 -210.5t-136.5 -151.5t-205.5 -56q-85 0 -148 40zM510 105q67 45 103.5 121.5t36.5 169.5q0 113 -52 178.5t-147 65.5q-86 0 -153 -45t-104 -122
t-37 -169q0 -113 52.5 -178.5t147.5 -65.5q86 0 153 45zM528 910h92l-106 -136h-70z" />
    <glyph glyph-name="Ocircumflex" unicode="&#xd4;" horiz-adv-x="770" 
d="M200 26q-63 40 -97 110t-34 159q0 116 48 211.5t137 151.5t206 56q85 0 148 -40t96.5 -110.5t33.5 -159.5q0 -115 -48 -210.5t-136.5 -151.5t-205.5 -56q-85 0 -148 40zM510 105q67 45 103.5 121.5t36.5 169.5q0 113 -52 178.5t-147 65.5q-86 0 -153 -45t-104 -122
t-37 -169q0 -113 52.5 -178.5t147.5 -65.5q86 0 153 45zM463 910h80l80 -136h-64l-64 83l-87 -83h-73z" />
    <glyph glyph-name="Odieresis" unicode="&#xd6;" horiz-adv-x="770" 
d="M200 26q-63 40 -97 110t-34 159q0 116 48 211.5t137 151.5t206 56q85 0 148 -40t96.5 -110.5t33.5 -159.5q0 -115 -48 -210.5t-136.5 -151.5t-205.5 -56q-85 0 -148 40zM510 105q67 45 103.5 121.5t36.5 169.5q0 113 -52 178.5t-147 65.5q-86 0 -153 -45t-104 -122
t-37 -169q0 -113 52.5 -178.5t147.5 -65.5q86 0 153 45zM371 877h94l-14 -80h-94zM529 877h94l-14 -80h-94z" />
    <glyph glyph-name="Ograve" unicode="&#xd2;" horiz-adv-x="770" 
d="M200 26q-63 40 -97 110t-34 159q0 116 48 211.5t137 151.5t206 56q85 0 148 -40t96.5 -110.5t33.5 -159.5q0 -115 -48 -210.5t-136.5 -151.5t-205.5 -56q-85 0 -148 40zM510 105q67 45 103.5 121.5t36.5 169.5q0 113 -52 178.5t-147 65.5q-86 0 -153 -45t-104 -122
t-37 -169q0 -113 52.5 -178.5t147.5 -65.5q86 0 153 45zM379 910h88l43 -136h-62z" />
    <glyph glyph-name="Ohungarumlaut" unicode="&#x150;" horiz-adv-x="770" 
d="M200 26q-63 40 -97 110t-34 159q0 116 48 211.5t137 151.5t206 56q85 0 148 -40t96.5 -110.5t33.5 -159.5q0 -115 -48 -210.5t-136.5 -151.5t-205.5 -56q-85 0 -148 40zM510 105q67 45 103.5 121.5t36.5 169.5q0 113 -52 178.5t-147 65.5q-86 0 -153 -45t-104 -122
t-37 -169q0 -113 52.5 -178.5t147.5 -65.5q86 0 153 45zM446 910h92l-106 -136h-70zM600 910h92l-106 -136h-70z" />
    <glyph glyph-name="Omacron" unicode="&#x14c;" horiz-adv-x="770" 
d="M200 26q-63 40 -97 110t-34 159q0 116 48 211.5t137 151.5t206 56q85 0 148 -40t96.5 -110.5t33.5 -159.5q0 -115 -48 -210.5t-136.5 -151.5t-205.5 -56q-85 0 -148 40zM510 105q67 45 103.5 121.5t36.5 169.5q0 113 -52 178.5t-147 65.5q-86 0 -153 -45t-104 -122
t-37 -169q0 -113 52.5 -178.5t147.5 -65.5q86 0 153 45zM387 862h216l-12 -64h-216z" />
    <glyph glyph-name="Oslash" unicode="&#xd8;" horiz-adv-x="770" 
d="M35 42l78 76q-44 74 -44 177q0 116 48 211.5t137 151.5t206 56t191 -74l73 71l49 -53l-78 -76q43 -77 43 -178q0 -115 -48 -210.5t-136.5 -151.5t-205.5 -56t-191 74l-73 -71zM591 582q-52 58 -140 58q-86 0 -153 -45t-104 -122t-37 -169q0 -70 21 -123zM510 105
q67 45 103.5 121.5t36.5 169.5q0 69 -20 123l-414 -402q54 -57 141 -57q86 0 153 45z" />
    <glyph glyph-name="Otilde" unicode="&#xd5;" horiz-adv-x="770" 
d="M200 26q-63 40 -97 110t-34 159q0 116 48 211.5t137 151.5t206 56q85 0 148 -40t96.5 -110.5t33.5 -159.5q0 -115 -48 -210.5t-136.5 -151.5t-205.5 -56q-85 0 -148 40zM510 105q67 45 103.5 121.5t36.5 169.5q0 113 -52 178.5t-147 65.5q-86 0 -153 -45t-104 -122
t-37 -169q0 -113 52.5 -178.5t147.5 -65.5q86 0 153 45zM323 824q44 62 112 62q17 0 29.5 -4.5t32.5 -14.5q15 -8 27 -12.5t26 -4.5q38 0 71 38l36 -39q-41 -63 -112 -63q-17 0 -29.5 4.5t-32.5 14.5q-15 8 -27 12.5t-26 4.5q-39 0 -71 -37z" />
    <glyph glyph-name="OE" unicode="&#x152;" horiz-adv-x="1118" 
d="M200 26q-63 40 -97 110t-34 159q0 116 48 211.5t137 151.5t206 56q82 0 141.5 -36t87.5 -103l22 125h444l-13 -74h-358l-40 -227h269l-13 -74h-269l-45 -251h358l-13 -74h-444l17 96q-90 -110 -256 -110q-85 0 -148 40zM510 105q67 45 103.5 121.5t36.5 169.5
q0 113 -52 178.5t-147 65.5q-86 0 -153 -45t-104 -122t-37 -169q0 -113 52.5 -178.5t147.5 -65.5q86 0 153 45z" />
    <glyph glyph-name="P" unicode="P" horiz-adv-x="624" 
d="M174 700h265q90 0 141 -49t51 -133q0 -68 -31.5 -119t-90.5 -79t-139 -28h-182l-52 -292h-86zM383 364q76 0 120 40t44 112q0 53 -30.5 82.5t-89.5 29.5h-180l-47 -264h183z" />
    <glyph glyph-name="Thorn" unicode="&#xde;" horiz-adv-x="579" 
d="M174 700h86l-26 -146h134q90 0 141 -49t51 -133q0 -68 -31.5 -119t-90.5 -79t-139 -28h-137l-26 -146h-86zM312 218q76 0 120 40t44 112q0 53 -30.5 82.5t-89.5 29.5h-135l-46 -264h137z" />
    <glyph glyph-name="Q" unicode="Q" horiz-adv-x="770" 
d="M608 -3q23 -18 68 -18q20 0 39 11l-27 -72q-16 -9 -45 -9q-55 0 -90 26.5t-58 76.5q-67 -26 -147 -26q-85 0 -148 40t-97 110t-34 159q0 116 48 211.5t137 151.5t206 56q85 0 148 -40t96.5 -110.5t33.5 -159.5q0 -111 -44.5 -204t-125.5 -149q17 -36 40 -54zM298 595
q-67 -45 -104 -122t-37 -169q0 -124 62 -189q22 59 64 89.5t99 30.5q54 0 91 -28.5t63 -81.5q54 46 84 117t30 154q0 113 -52 178.5t-147 65.5q-86 0 -153 -45zM357 60q58 0 110 22q-18 44 -38.5 63.5t-54.5 19.5q-67 0 -102 -88q37 -17 85 -17z" />
    <glyph glyph-name="R" unicode="R" horiz-adv-x="648" 
d="M174 700h280q84 0 131.5 -46.5t47.5 -117.5q0 -51 -22.5 -92t-60 -66.5t-81.5 -31.5q36 -15 47 -80l32 -198q6 -40 28 -68h-84q-18 16 -24 55l-34 196q-6 38 -22.5 54.5t-55.5 16.5h-163l-57 -322h-86zM402 394q68 0 107 36.5t39 98.5q0 48 -26.5 73.5t-78.5 25.5h-196
l-41 -234h196z" />
    <glyph glyph-name="Racute" unicode="&#x154;" horiz-adv-x="648" 
d="M174 700h280q84 0 131.5 -46.5t47.5 -117.5q0 -51 -22.5 -92t-60 -66.5t-81.5 -31.5q36 -15 47 -80l32 -198q6 -40 28 -68h-84q-18 16 -24 55l-34 196q-6 38 -22.5 54.5t-55.5 16.5h-163l-57 -322h-86zM402 394q68 0 107 36.5t39 98.5q0 48 -26.5 73.5t-78.5 25.5h-196
l-41 -234h196zM449 910h92l-106 -136h-70z" />
    <glyph glyph-name="Rcaron" unicode="&#x158;" horiz-adv-x="648" 
d="M174 700h280q84 0 131.5 -46.5t47.5 -117.5q0 -51 -22.5 -92t-60 -66.5t-81.5 -31.5q36 -15 47 -80l32 -198q6 -40 28 -68h-84q-18 16 -24 55l-34 196q-6 38 -22.5 54.5t-55.5 16.5h-163l-57 -322h-86zM402 394q68 0 107 36.5t39 98.5q0 48 -26.5 73.5t-78.5 25.5h-196
l-41 -234h196zM282 910h64l64 -83l87 83h73l-128 -136h-80z" />
    <glyph glyph-name="Rcommaaccent" unicode="&#x156;" horiz-adv-x="648" 
d="M174 700h280q84 0 131.5 -46.5t47.5 -117.5q0 -51 -22.5 -92t-60 -66.5t-81.5 -31.5q36 -15 47 -80l32 -198q6 -40 28 -68h-84q-18 16 -24 55l-34 196q-6 38 -22.5 54.5t-55.5 16.5h-163l-57 -322h-86zM402 394q68 0 107 36.5t39 98.5q0 48 -26.5 73.5t-78.5 25.5h-196
l-41 -234h196zM200 -202q30 7 46 22t22 50h-63l14 82h110l-14 -82q-10 -55 -36.5 -79.5t-72.5 -36.5z" />
    <glyph glyph-name="S" unicode="S" horiz-adv-x="544" 
d="M97 18.5q-59 32.5 -83 76.5l43 82q32 -57 76.5 -87t106.5 -30q70 0 115.5 36.5t45.5 96.5q0 49 -29 80.5t-102 57.5q-75 26 -119 75t-44 115q0 88 62.5 140.5t174.5 52.5q62 0 110.5 -22t80.5 -52l-40 -78q-33 36 -74 57t-86 21q-66 0 -105 -30t-39 -84q0 -45 31.5 -75
t107.5 -57t116.5 -72.5t40.5 -118.5q0 -67 -33.5 -116t-92.5 -75t-133 -26q-72 0 -131 32.5z" />
    <glyph glyph-name="Sacute" unicode="&#x15a;" horiz-adv-x="544" 
d="M97 18.5q-59 32.5 -83 76.5l43 82q32 -57 76.5 -87t106.5 -30q70 0 115.5 36.5t45.5 96.5q0 49 -29 80.5t-102 57.5q-75 26 -119 75t-44 115q0 88 62.5 140.5t174.5 52.5q62 0 110.5 -22t80.5 -52l-40 -78q-33 36 -74 57t-86 21q-66 0 -105 -30t-39 -84q0 -45 31.5 -75
t107.5 -57t116.5 -72.5t40.5 -118.5q0 -67 -33.5 -116t-92.5 -75t-133 -26q-72 0 -131 32.5zM415 910h92l-106 -136h-70z" />
    <glyph glyph-name="Scaron" unicode="&#x160;" horiz-adv-x="544" 
d="M97 18.5q-59 32.5 -83 76.5l43 82q32 -57 76.5 -87t106.5 -30q70 0 115.5 36.5t45.5 96.5q0 49 -29 80.5t-102 57.5q-75 26 -119 75t-44 115q0 88 62.5 140.5t174.5 52.5q62 0 110.5 -22t80.5 -52l-40 -78q-33 36 -74 57t-86 21q-66 0 -105 -30t-39 -84q0 -45 31.5 -75
t107.5 -57t116.5 -72.5t40.5 -118.5q0 -67 -33.5 -116t-92.5 -75t-133 -26q-72 0 -131 32.5zM248 910h64l64 -83l87 83h73l-128 -136h-80z" />
    <glyph glyph-name="Scedilla" unicode="&#x15e;" horiz-adv-x="544" 
d="M97 18.5q-59 32.5 -83 76.5l43 82q32 -57 76.5 -87t106.5 -30q70 0 115.5 36.5t45.5 96.5q0 49 -29 80.5t-102 57.5q-75 26 -119 75t-44 115q0 88 62.5 140.5t174.5 52.5q62 0 110.5 -22t80.5 -52l-40 -78q-33 36 -74 57t-86 21q-66 0 -105 -30t-39 -84q0 -45 31.5 -75
t107.5 -57t116.5 -72.5t40.5 -118.5q0 -67 -33.5 -116t-92.5 -75t-133 -26q-72 0 -131 32.5zM130 -213q-25 11 -40 29l32 39q13 -13 30.5 -21t35.5 -8q56 0 56 48q0 17 -11.5 26.5t-29.5 9.5q-27 0 -46 -23l-35 17l43 96h52l-47 -70q24 24 61 24q33 0 53.5 -20t20.5 -57
q0 -48 -32.5 -74.5t-91.5 -26.5q-26 0 -51 11z" />
    <glyph glyph-name="Scommaaccent" unicode="&#x218;" horiz-adv-x="544" 
d="M97 18.5q-59 32.5 -83 76.5l43 82q32 -57 76.5 -87t106.5 -30q70 0 115.5 36.5t45.5 96.5q0 49 -29 80.5t-102 57.5q-75 26 -119 75t-44 115q0 88 62.5 140.5t174.5 52.5q62 0 110.5 -22t80.5 -52l-40 -78q-33 36 -74 57t-86 21q-66 0 -105 -30t-39 -84q0 -45 31.5 -75
t107.5 -57t116.5 -72.5t40.5 -118.5q0 -67 -33.5 -116t-92.5 -75t-133 -26q-72 0 -131 32.5zM142 -202q30 7 46 22t22 50h-63l14 82h110l-14 -82q-10 -55 -36.5 -79.5t-72.5 -36.5z" />
    <glyph glyph-name="T" unicode="T" horiz-adv-x="553" 
d="M592 626h-206l-111 -626h-86l111 626h-205l13 74h497z" />
    <glyph glyph-name="Tcaron" unicode="&#x164;" horiz-adv-x="553" 
d="M592 626h-206l-111 -626h-86l111 626h-205l13 74h497zM252 910h64l64 -83l87 83h73l-128 -136h-80z" />
    <glyph glyph-name="uni0162" unicode="&#x162;" horiz-adv-x="553" 
d="M592 626h-206l-111 -626h-86l111 626h-205l13 74h497zM172 -213q-25 11 -40 29l32 39q13 -13 30.5 -21t35.5 -8q56 0 56 48q0 17 -11.5 26.5t-29.5 9.5q-27 0 -46 -23l-35 17l43 96h52l-47 -70q24 24 61 24q33 0 53.5 -20t20.5 -57q0 -48 -32.5 -74.5t-91.5 -26.5
q-26 0 -51 11z" />
    <glyph glyph-name="uni021A" unicode="&#x21a;" horiz-adv-x="553" 
d="M592 626h-206l-111 -626h-86l111 626h-205l13 74h497zM150 -202q30 7 46 22t22 50h-63l14 82h110l-14 -82q-10 -55 -36.5 -79.5t-72.5 -36.5z" />
    <glyph glyph-name="U" unicode="U" horiz-adv-x="694" 
d="M143 45q-61 59 -61 160q0 31 8 79l73 416h86l-76 -430q-6 -36 -6 -66q0 -71 40.5 -107.5t110.5 -36.5q83 0 137.5 51.5t72.5 151.5l77 437h86l-77 -435q-25 -141 -104 -210t-205 -69q-101 0 -162 59z" />
    <glyph glyph-name="Uacute" unicode="&#xda;" horiz-adv-x="694" 
d="M143 45q-61 59 -61 160q0 31 8 79l73 416h86l-76 -430q-6 -36 -6 -66q0 -71 40.5 -107.5t110.5 -36.5q83 0 137.5 51.5t72.5 151.5l77 437h86l-77 -435q-25 -141 -104 -210t-205 -69q-101 0 -162 59zM490 910h92l-106 -136h-70z" />
    <glyph glyph-name="Ucircumflex" unicode="&#xdb;" horiz-adv-x="694" 
d="M143 45q-61 59 -61 160q0 31 8 79l73 416h86l-76 -430q-6 -36 -6 -66q0 -71 40.5 -107.5t110.5 -36.5q83 0 137.5 51.5t72.5 151.5l77 437h86l-77 -435q-25 -141 -104 -210t-205 -69q-101 0 -162 59zM425 910h80l80 -136h-64l-64 83l-87 -83h-73z" />
    <glyph glyph-name="Udieresis" unicode="&#xdc;" horiz-adv-x="694" 
d="M143 45q-61 59 -61 160q0 31 8 79l73 416h86l-76 -430q-6 -36 -6 -66q0 -71 40.5 -107.5t110.5 -36.5q83 0 137.5 51.5t72.5 151.5l77 437h86l-77 -435q-25 -141 -104 -210t-205 -69q-101 0 -162 59zM333 877h94l-14 -80h-94zM491 877h94l-14 -80h-94z" />
    <glyph glyph-name="Ugrave" unicode="&#xd9;" horiz-adv-x="694" 
d="M143 45q-61 59 -61 160q0 31 8 79l73 416h86l-76 -430q-6 -36 -6 -66q0 -71 40.5 -107.5t110.5 -36.5q83 0 137.5 51.5t72.5 151.5l77 437h86l-77 -435q-25 -141 -104 -210t-205 -69q-101 0 -162 59zM341 910h88l43 -136h-62z" />
    <glyph glyph-name="Uhungarumlaut" unicode="&#x170;" horiz-adv-x="694" 
d="M143 45q-61 59 -61 160q0 31 8 79l73 416h86l-76 -430q-6 -36 -6 -66q0 -71 40.5 -107.5t110.5 -36.5q83 0 137.5 51.5t72.5 151.5l77 437h86l-77 -435q-25 -141 -104 -210t-205 -69q-101 0 -162 59zM408 910h92l-106 -136h-70zM562 910h92l-106 -136h-70z" />
    <glyph glyph-name="Umacron" unicode="&#x16a;" horiz-adv-x="694" 
d="M143 45q-61 59 -61 160q0 31 8 79l73 416h86l-76 -430q-6 -36 -6 -66q0 -71 40.5 -107.5t110.5 -36.5q83 0 137.5 51.5t72.5 151.5l77 437h86l-77 -435q-25 -141 -104 -210t-205 -69q-101 0 -162 59zM349 862h216l-12 -64h-216z" />
    <glyph glyph-name="Uogonek" unicode="&#x172;" horiz-adv-x="694" 
d="M143 45q-61 59 -61 160q0 31 8 79l73 416h86l-76 -430q-6 -36 -6 -66q0 -71 40.5 -107.5t110.5 -36.5q83 0 137.5 51.5t72.5 151.5l77 437h86l-77 -435q-25 -141 -104 -210t-205 -69q-101 0 -162 59zM232.5 -173.5q-20.5 22.5 -20.5 57.5q0 37 19 67t52 49h72
q-37 -26 -58 -50.5t-21 -53.5q0 -16 9 -25t23 -9q12 0 20 2.5t19 9.5l-11 -60q-20 -10 -49 -10q-34 0 -54.5 22.5z" />
    <glyph glyph-name="Uring" unicode="&#x16e;" horiz-adv-x="694" 
d="M143 45q-61 59 -61 160q0 31 8 79l73 416h86l-76 -430q-6 -36 -6 -66q0 -71 40.5 -107.5t110.5 -36.5q83 0 137.5 51.5t72.5 151.5l77 437h86l-77 -435q-25 -141 -104 -210t-205 -69q-101 0 -162 59zM391.5 782.5q-24.5 24.5 -24.5 61.5t24.5 61.5t61.5 24.5t61.5 -24.5
t24.5 -61.5t-24.5 -61.5t-61.5 -24.5t-61.5 24.5zM484.5 812.5q12.5 12.5 12.5 31.5t-12.5 31.5t-31.5 12.5t-31.5 -12.5t-12.5 -31.5t12.5 -31.5t31.5 -12.5t31.5 12.5z" />
    <glyph glyph-name="V" unicode="V" horiz-adv-x="647" 
d="M99 700h88l112 -578l316 578h93l-391 -700h-73z" />
    <glyph glyph-name="W" unicode="W" horiz-adv-x="974" 
d="M102 700h85l61 -564l275 564h78l79 -564l266 564h86l-336 -700h-73l-78 579l-282 -579h-73z" />
    <glyph glyph-name="X" unicode="X" horiz-adv-x="609" 
d="M370 368l166 -368h-90l-131 296l-225 -296h-103l292 370l-150 330h90l116 -259l199 259h96z" />
    <glyph glyph-name="Y" unicode="Y" horiz-adv-x="580" 
d="M251 270l-153 430h92l116 -343l236 343h100l-305 -430l-48 -270h-86z" />
    <glyph glyph-name="Yacute" unicode="&#xdd;" horiz-adv-x="580" 
d="M251 270l-153 430h92l116 -343l236 343h100l-305 -430l-48 -270h-86zM432 910h92l-106 -136h-70z" />
    <glyph glyph-name="Ydieresis" unicode="&#x178;" horiz-adv-x="580" 
d="M251 270l-153 430h92l116 -343l236 343h100l-305 -430l-48 -270h-86zM275 877h94l-14 -80h-94zM433 877h94l-14 -80h-94z" />
    <glyph glyph-name="Z" unicode="Z" horiz-adv-x="592" 
d="M9 64l496 562h-385l13 74h492l-12 -64l-496 -562h409l-13 -74h-516z" />
    <glyph glyph-name="Zacute" unicode="&#x179;" horiz-adv-x="592" 
d="M9 64l496 562h-385l13 74h492l-12 -64l-496 -562h409l-13 -74h-516zM441 910h92l-106 -136h-70z" />
    <glyph glyph-name="Zcaron" unicode="&#x17d;" horiz-adv-x="592" 
d="M9 64l496 562h-385l13 74h492l-12 -64l-496 -562h409l-13 -74h-516zM274 910h64l64 -83l87 83h73l-128 -136h-80z" />
    <glyph glyph-name="Zdotaccent" unicode="&#x17b;" horiz-adv-x="592" 
d="M9 64l496 562h-385l13 74h492l-12 -64l-496 -562h409l-13 -74h-516zM354 867h110l-15 -86h-110z" />
    <glyph glyph-name="a" unicode="a" horiz-adv-x="598" 
d="M134.5 13q-43.5 27 -67.5 76.5t-24 114.5q0 85 33.5 153.5t94.5 107.5t141 39q54 0 93.5 -25t56.5 -65l13 76h82l-70 -397q-4 -23 -4 -44q0 -25 9 -49h-79q-10 20 -10 76q-26 -44 -70.5 -67t-99.5 -23t-98.5 27zM346.5 89.5q43.5 31.5 68 83.5t24.5 113q0 66 -34.5 106
t-93.5 40q-56 0 -97.5 -28.5t-64 -78t-22.5 -112.5q0 -75 33.5 -115t89.5 -40q53 0 96.5 31.5z" />
    <glyph glyph-name="aacute" unicode="&#xe1;" horiz-adv-x="598" 
d="M134.5 13q-43.5 27 -67.5 76.5t-24 114.5q0 85 33.5 153.5t94.5 107.5t141 39q54 0 93.5 -25t56.5 -65l13 76h82l-70 -397q-4 -23 -4 -44q0 -25 9 -49h-79q-10 20 -10 76q-26 -44 -70.5 -67t-99.5 -23t-98.5 27zM346.5 89.5q43.5 31.5 68 83.5t24.5 113q0 66 -34.5 106
t-93.5 40q-56 0 -97.5 -28.5t-64 -78t-22.5 -112.5q0 -75 33.5 -115t89.5 -40q53 0 96.5 31.5zM387 700h92l-106 -136h-70z" />
    <glyph glyph-name="abreve" unicode="&#x103;" horiz-adv-x="598" 
d="M134.5 13q-43.5 27 -67.5 76.5t-24 114.5q0 85 33.5 153.5t94.5 107.5t141 39q54 0 93.5 -25t56.5 -65l13 76h82l-70 -397q-4 -23 -4 -44q0 -25 9 -49h-79q-10 20 -10 76q-26 -44 -70.5 -67t-99.5 -23t-98.5 27zM346.5 89.5q43.5 31.5 68 83.5t24.5 113q0 66 -34.5 106
t-93.5 40q-56 0 -97.5 -28.5t-64 -78t-22.5 -112.5q0 -75 33.5 -115t89.5 -40q53 0 96.5 31.5zM278 589.5q-26 22.5 -26 58.5q0 11 2 21h58q-1 -5 -1 -16q0 -15 9.5 -24.5t27.5 -9.5q22 0 36 13.5t18 36.5h58q-18 -102 -119 -102q-37 0 -63 22.5z" />
    <glyph glyph-name="acircumflex" unicode="&#xe2;" horiz-adv-x="598" 
d="M134.5 13q-43.5 27 -67.5 76.5t-24 114.5q0 85 33.5 153.5t94.5 107.5t141 39q54 0 93.5 -25t56.5 -65l13 76h82l-70 -397q-4 -23 -4 -44q0 -25 9 -49h-79q-10 20 -10 76q-26 -44 -70.5 -67t-99.5 -23t-98.5 27zM346.5 89.5q43.5 31.5 68 83.5t24.5 113q0 66 -34.5 106
t-93.5 40q-56 0 -97.5 -28.5t-64 -78t-22.5 -112.5q0 -75 33.5 -115t89.5 -40q53 0 96.5 31.5zM322 700h80l80 -136h-64l-64 83l-87 -83h-73z" />
    <glyph glyph-name="adieresis" unicode="&#xe4;" horiz-adv-x="598" 
d="M134.5 13q-43.5 27 -67.5 76.5t-24 114.5q0 85 33.5 153.5t94.5 107.5t141 39q54 0 93.5 -25t56.5 -65l13 76h82l-70 -397q-4 -23 -4 -44q0 -25 9 -49h-79q-10 20 -10 76q-26 -44 -70.5 -67t-99.5 -23t-98.5 27zM346.5 89.5q43.5 31.5 68 83.5t24.5 113q0 66 -34.5 106
t-93.5 40q-56 0 -97.5 -28.5t-64 -78t-22.5 -112.5q0 -75 33.5 -115t89.5 -40q53 0 96.5 31.5zM230 667h94l-14 -80h-94zM388 667h94l-14 -80h-94z" />
    <glyph glyph-name="agrave" unicode="&#xe0;" horiz-adv-x="598" 
d="M134.5 13q-43.5 27 -67.5 76.5t-24 114.5q0 85 33.5 153.5t94.5 107.5t141 39q54 0 93.5 -25t56.5 -65l13 76h82l-70 -397q-4 -23 -4 -44q0 -25 9 -49h-79q-10 20 -10 76q-26 -44 -70.5 -67t-99.5 -23t-98.5 27zM346.5 89.5q43.5 31.5 68 83.5t24.5 113q0 66 -34.5 106
t-93.5 40q-56 0 -97.5 -28.5t-64 -78t-22.5 -112.5q0 -75 33.5 -115t89.5 -40q53 0 96.5 31.5zM238 700h88l43 -136h-62z" />
    <glyph glyph-name="amacron" unicode="&#x101;" horiz-adv-x="598" 
d="M134.5 13q-43.5 27 -67.5 76.5t-24 114.5q0 85 33.5 153.5t94.5 107.5t141 39q54 0 93.5 -25t56.5 -65l13 76h82l-70 -397q-4 -23 -4 -44q0 -25 9 -49h-79q-10 20 -10 76q-26 -44 -70.5 -67t-99.5 -23t-98.5 27zM346.5 89.5q43.5 31.5 68 83.5t24.5 113q0 66 -34.5 106
t-93.5 40q-56 0 -97.5 -28.5t-64 -78t-22.5 -112.5q0 -75 33.5 -115t89.5 -40q53 0 96.5 31.5zM246 652h216l-12 -64h-216z" />
    <glyph glyph-name="aogonek" unicode="&#x105;" horiz-adv-x="598" 
d="M134.5 13q-43.5 27 -67.5 76.5t-24 114.5q0 85 33.5 153.5t94.5 107.5t141 39q54 0 93.5 -25t56.5 -65l13 76h82l-70 -397q-4 -23 -4 -44q0 -25 9 -49h-79q-10 20 -10 76q-26 -44 -70.5 -67t-99.5 -23t-98.5 27zM346.5 89.5q43.5 31.5 68 83.5t24.5 113q0 66 -34.5 106
t-93.5 40q-56 0 -97.5 -28.5t-64 -78t-22.5 -112.5q0 -75 33.5 -115t89.5 -40q53 0 96.5 31.5zM369.5 -173.5q-20.5 22.5 -20.5 57.5q0 36 20.5 66t54.5 50h68q-37 -26 -58 -50.5t-21 -53.5q0 -16 9 -25t23 -9q12 0 20 2.5t19 9.5l-11 -60q-20 -10 -49 -10q-34 0 -54.5 22.5
z" />
    <glyph glyph-name="aring" unicode="&#xe5;" horiz-adv-x="598" 
d="M134.5 13q-43.5 27 -67.5 76.5t-24 114.5q0 85 33.5 153.5t94.5 107.5t141 39q54 0 93.5 -25t56.5 -65l13 76h82l-70 -397q-4 -23 -4 -44q0 -25 9 -49h-79q-10 20 -10 76q-26 -44 -70.5 -67t-99.5 -23t-98.5 27zM346.5 89.5q43.5 31.5 68 83.5t24.5 113q0 66 -34.5 106
t-93.5 40q-56 0 -97.5 -28.5t-64 -78t-22.5 -112.5q0 -75 33.5 -115t89.5 -40q53 0 96.5 31.5zM288.5 572.5q-24.5 24.5 -24.5 61.5t24.5 61.5t61.5 24.5t61.5 -24.5t24.5 -61.5t-24.5 -61.5t-61.5 -24.5t-61.5 24.5zM381.5 602.5q12.5 12.5 12.5 31.5t-12.5 31.5
t-31.5 12.5t-31.5 -12.5t-12.5 -31.5t12.5 -31.5t31.5 -12.5t31.5 12.5z" />
    <glyph glyph-name="atilde" unicode="&#xe3;" horiz-adv-x="598" 
d="M134.5 13q-43.5 27 -67.5 76.5t-24 114.5q0 85 33.5 153.5t94.5 107.5t141 39q54 0 93.5 -25t56.5 -65l13 76h82l-70 -397q-4 -23 -4 -44q0 -25 9 -49h-79q-10 20 -10 76q-26 -44 -70.5 -67t-99.5 -23t-98.5 27zM346.5 89.5q43.5 31.5 68 83.5t24.5 113q0 66 -34.5 106
t-93.5 40q-56 0 -97.5 -28.5t-64 -78t-22.5 -112.5q0 -75 33.5 -115t89.5 -40q53 0 96.5 31.5zM182 614q44 62 112 62q17 0 29.5 -4.5t32.5 -14.5q15 -8 27 -12.5t26 -4.5q38 0 71 38l36 -39q-41 -63 -112 -63q-17 0 -29.5 4.5t-32.5 14.5q-15 8 -27 12.5t-26 4.5
q-39 0 -71 -37z" />
    <glyph glyph-name="ae" unicode="&#xe6;" horiz-adv-x="945" 
d="M134.5 13q-43.5 27 -67.5 76.5t-24 114.5q0 85 33.5 153.5t94.5 107.5t141 39q54 0 93.5 -25t56.5 -65l13 76h82l-8 -58q26 33 73 52.5t95 19.5q57 0 100 -24t66.5 -65.5t23.5 -93.5q0 -44 -18 -90h-372v-13q0 -75 34 -119.5t93 -44.5q53 0 87 21t64 66l59 -38
q-72 -117 -217 -117q-54 0 -95 22.5t-60 65.5q-1 -45 10 -74h-79q-10 20 -10 76q-26 -44 -70.5 -67t-99.5 -23t-98.5 27zM831 294q1 7 1 20q0 56 -34.5 89.5t-91.5 33.5q-66 0 -113.5 -39t-65.5 -104h304zM346.5 89.5q43.5 31.5 68 83.5t24.5 113q0 66 -34.5 106t-93.5 40
q-56 0 -97.5 -28.5t-64 -78t-22.5 -112.5q0 -75 33.5 -115t89.5 -40q53 0 96.5 31.5z" />
    <glyph glyph-name="b" unicode="b" horiz-adv-x="599" 
d="M192 12q-40 26 -55 69l-14 -81h-82l123 700h82l-50 -286q24 38 69 64t102 26q90 0 140 -59t50 -155q0 -83 -34.5 -152.5t-96.5 -110.5t-139 -41q-55 0 -95 26zM379.5 88.5q43.5 30.5 68.5 81t25 107.5q0 72 -32 113.5t-92 41.5q-57 0 -100.5 -32.5t-66.5 -85t-23 -111.5
q0 -66 34 -105.5t90 -39.5q53 0 96.5 30.5z" />
    <glyph glyph-name="c" unicode="c" horiz-adv-x="538" 
d="M143 12.5q-47 26.5 -73.5 77t-26.5 118.5q0 83 35.5 150.5t101 106.5t153.5 39q69 0 116 -33.5t67 -86.5l-69 -37q-15 41 -48.5 63t-80.5 22q-59 0 -102 -28.5t-66 -78t-23 -111.5q0 -71 36 -113.5t97 -42.5q49 0 82 20.5t61 64.5l62 -43q-38 -57 -90 -85.5t-125 -28.5
q-60 0 -107 26.5z" />
    <glyph glyph-name="cacute" unicode="&#x107;" horiz-adv-x="538" 
d="M143 12.5q-47 26.5 -73.5 77t-26.5 118.5q0 83 35.5 150.5t101 106.5t153.5 39q69 0 116 -33.5t67 -86.5l-69 -37q-15 41 -48.5 63t-80.5 22q-59 0 -102 -28.5t-66 -78t-23 -111.5q0 -71 36 -113.5t97 -42.5q49 0 82 20.5t61 64.5l62 -43q-38 -57 -90 -85.5t-125 -28.5
q-60 0 -107 26.5zM397 700h92l-106 -136h-70z" />
    <glyph glyph-name="ccaron" unicode="&#x10d;" horiz-adv-x="538" 
d="M143 12.5q-47 26.5 -73.5 77t-26.5 118.5q0 83 35.5 150.5t101 106.5t153.5 39q69 0 116 -33.5t67 -86.5l-69 -37q-15 41 -48.5 63t-80.5 22q-59 0 -102 -28.5t-66 -78t-23 -111.5q0 -71 36 -113.5t97 -42.5q49 0 82 20.5t61 64.5l62 -43q-38 -57 -90 -85.5t-125 -28.5
q-60 0 -107 26.5zM230 700h64l64 -83l87 83h73l-128 -136h-80z" />
    <glyph glyph-name="ccedilla" unicode="&#xe7;" horiz-adv-x="538" 
d="M143 12.5q-47 26.5 -73.5 77t-26.5 118.5q0 83 35.5 150.5t101 106.5t153.5 39q69 0 116 -33.5t67 -86.5l-69 -37q-15 41 -48.5 63t-80.5 22q-59 0 -102 -28.5t-66 -78t-23 -111.5q0 -71 36 -113.5t97 -42.5q49 0 82 20.5t61 64.5l62 -43q-38 -57 -90 -85.5t-125 -28.5
q-60 0 -107 26.5zM152 -213q-25 11 -40 29l32 39q13 -13 30.5 -21t35.5 -8q56 0 56 48q0 17 -11.5 26.5t-29.5 9.5q-27 0 -46 -23l-35 17l43 96h52l-47 -70q24 24 61 24q33 0 53.5 -20t20.5 -57q0 -48 -32.5 -74.5t-91.5 -26.5q-26 0 -51 11z" />
    <glyph glyph-name="d" unicode="d" horiz-adv-x="598" 
d="M134.5 13q-43.5 27 -67.5 76.5t-24 114.5q0 85 33.5 153.5t94.5 107.5t141 39q54 0 93.5 -25t56.5 -65l50 286h82l-123 -700h-82l13 76q-27 -44 -70.5 -67t-98.5 -23t-98.5 27zM346 90.5q43 32.5 68 85t25 110.5q0 66 -34.5 106t-93.5 40q-56 0 -97.5 -28.5t-64 -78
t-22.5 -112.5q0 -75 33.5 -115t89.5 -40q53 0 96 32.5z" />
    <glyph glyph-name="eth" unicode="&#xf0;" horiz-adv-x="565" 
d="M584 605l-98 -19q47 -85 47 -214q0 -109 -33.5 -196.5t-99.5 -138.5t-161 -51q-91 0 -144 60.5t-53 157.5q0 80 33 148t94 108t140 40q57 0 96 -26.5t54 -68.5q-1 89 -54 166l-187 -36v53l149 29q-41 41 -86 67l76 30q58 -32 98 -81l129 25v-53zM348 86.5q43 29.5 67 82
t24 119.5q0 65 -33.5 103t-92.5 38q-56 0 -98.5 -29.5t-65.5 -80t-23 -110.5q0 -70 32.5 -111t91.5 -41q55 0 98 29.5z" />
    <glyph glyph-name="dcaron" unicode="&#x10f;" horiz-adv-x="598" 
d="M134.5 13q-43.5 27 -67.5 76.5t-24 114.5q0 85 33.5 153.5t94.5 107.5t141 39q54 0 93.5 -25t56.5 -65l50 286h82l-123 -700h-82l13 76q-27 -44 -70.5 -67t-98.5 -23t-98.5 27zM346 90.5q43 32.5 68 85t25 110.5q0 66 -34.5 106t-93.5 40q-56 0 -97.5 -28.5t-64 -78
t-22.5 -112.5q0 -75 33.5 -115t89.5 -40q53 0 96 32.5zM634 546q34 10 51 26.5t23 47.5h-62l14 80h110l-14 -80q-9 -54 -38 -82.5t-76 -39.5z" />
    <glyph glyph-name="dcroat" unicode="&#x111;" horiz-adv-x="598" 
d="M134.5 13q-43.5 27 -67.5 76.5t-24 114.5q0 85 33.5 153.5t94.5 107.5t141 39q54 0 93.5 -25t56.5 -65l50 286h82l-123 -700h-82l13 76q-27 -44 -70.5 -67t-98.5 -23t-98.5 27zM346 90.5q43 32.5 68 85t25 110.5q0 66 -34.5 106t-93.5 40q-56 0 -97.5 -28.5t-64 -78
t-22.5 -112.5q0 -75 33.5 -115t89.5 -40q53 0 96 32.5zM666 635l-12 -64h-330l12 64h330z" />
    <glyph glyph-name="e" unicode="e" horiz-adv-x="553" 
d="M125 231v-13q0 -75 34 -119.5t93 -44.5q53 0 87 21t64 66l59 -38q-72 -117 -217 -117q-61 0 -107 28.5t-70.5 79t-24.5 115.5q0 81 34 148.5t98.5 107t149.5 39.5q57 0 100 -24t66.5 -65.5t23.5 -93.5q0 -44 -18 -90h-372zM200.5 398q-47.5 -39 -65.5 -104h304q1 7 1 20
q0 56 -34.5 89.5t-91.5 33.5q-66 0 -113.5 -39z" />
    <glyph glyph-name="eacute" unicode="&#xe9;" horiz-adv-x="553" 
d="M125 231v-13q0 -75 34 -119.5t93 -44.5q53 0 87 21t64 66l59 -38q-72 -117 -217 -117q-61 0 -107 28.5t-70.5 79t-24.5 115.5q0 81 34 148.5t98.5 107t149.5 39.5q57 0 100 -24t66.5 -65.5t23.5 -93.5q0 -44 -18 -90h-372zM200.5 398q-47.5 -39 -65.5 -104h304q1 7 1 20
q0 56 -34.5 89.5t-91.5 33.5q-66 0 -113.5 -39zM392 700h92l-106 -136h-70z" />
    <glyph glyph-name="ecaron" unicode="&#x11b;" horiz-adv-x="553" 
d="M125 231v-13q0 -75 34 -119.5t93 -44.5q53 0 87 21t64 66l59 -38q-72 -117 -217 -117q-61 0 -107 28.5t-70.5 79t-24.5 115.5q0 81 34 148.5t98.5 107t149.5 39.5q57 0 100 -24t66.5 -65.5t23.5 -93.5q0 -44 -18 -90h-372zM200.5 398q-47.5 -39 -65.5 -104h304q1 7 1 20
q0 56 -34.5 89.5t-91.5 33.5q-66 0 -113.5 -39zM225 700h64l64 -83l87 83h73l-128 -136h-80z" />
    <glyph glyph-name="ecircumflex" unicode="&#xea;" horiz-adv-x="553" 
d="M125 231v-13q0 -75 34 -119.5t93 -44.5q53 0 87 21t64 66l59 -38q-72 -117 -217 -117q-61 0 -107 28.5t-70.5 79t-24.5 115.5q0 81 34 148.5t98.5 107t149.5 39.5q57 0 100 -24t66.5 -65.5t23.5 -93.5q0 -44 -18 -90h-372zM200.5 398q-47.5 -39 -65.5 -104h304q1 7 1 20
q0 56 -34.5 89.5t-91.5 33.5q-66 0 -113.5 -39zM327 700h80l80 -136h-64l-64 83l-87 -83h-73z" />
    <glyph glyph-name="edieresis" unicode="&#xeb;" horiz-adv-x="553" 
d="M125 231v-13q0 -75 34 -119.5t93 -44.5q53 0 87 21t64 66l59 -38q-72 -117 -217 -117q-61 0 -107 28.5t-70.5 79t-24.5 115.5q0 81 34 148.5t98.5 107t149.5 39.5q57 0 100 -24t66.5 -65.5t23.5 -93.5q0 -44 -18 -90h-372zM200.5 398q-47.5 -39 -65.5 -104h304q1 7 1 20
q0 56 -34.5 89.5t-91.5 33.5q-66 0 -113.5 -39zM235 667h94l-14 -80h-94zM393 667h94l-14 -80h-94z" />
    <glyph glyph-name="edotaccent" unicode="&#x117;" horiz-adv-x="553" 
d="M125 231v-13q0 -75 34 -119.5t93 -44.5q53 0 87 21t64 66l59 -38q-72 -117 -217 -117q-61 0 -107 28.5t-70.5 79t-24.5 115.5q0 81 34 148.5t98.5 107t149.5 39.5q57 0 100 -24t66.5 -65.5t23.5 -93.5q0 -44 -18 -90h-372zM200.5 398q-47.5 -39 -65.5 -104h304q1 7 1 20
q0 56 -34.5 89.5t-91.5 33.5q-66 0 -113.5 -39zM305 657h110l-15 -86h-110z" />
    <glyph glyph-name="egrave" unicode="&#xe8;" horiz-adv-x="553" 
d="M125 231v-13q0 -75 34 -119.5t93 -44.5q53 0 87 21t64 66l59 -38q-72 -117 -217 -117q-61 0 -107 28.5t-70.5 79t-24.5 115.5q0 81 34 148.5t98.5 107t149.5 39.5q57 0 100 -24t66.5 -65.5t23.5 -93.5q0 -44 -18 -90h-372zM200.5 398q-47.5 -39 -65.5 -104h304q1 7 1 20
q0 56 -34.5 89.5t-91.5 33.5q-66 0 -113.5 -39zM243 700h88l43 -136h-62z" />
    <glyph glyph-name="emacron" unicode="&#x113;" horiz-adv-x="553" 
d="M125 231v-13q0 -75 34 -119.5t93 -44.5q53 0 87 21t64 66l59 -38q-72 -117 -217 -117q-61 0 -107 28.5t-70.5 79t-24.5 115.5q0 81 34 148.5t98.5 107t149.5 39.5q57 0 100 -24t66.5 -65.5t23.5 -93.5q0 -44 -18 -90h-372zM200.5 398q-47.5 -39 -65.5 -104h304q1 7 1 20
q0 56 -34.5 89.5t-91.5 33.5q-66 0 -113.5 -39zM251 652h216l-12 -64h-216z" />
    <glyph glyph-name="eogonek" unicode="&#x119;" horiz-adv-x="553" 
d="M125 231v-13q0 -75 34 -119.5t93 -44.5q53 0 87 21t64 66l59 -38q-72 -117 -217 -117q-61 0 -107 28.5t-70.5 79t-24.5 115.5q0 81 34 148.5t98.5 107t149.5 39.5q57 0 100 -24t66.5 -65.5t23.5 -93.5q0 -44 -18 -90h-372zM200.5 398q-47.5 -39 -65.5 -104h304q1 7 1 20
q0 56 -34.5 89.5t-91.5 33.5q-66 0 -113.5 -39zM165.5 -173.5q-20.5 22.5 -20.5 57.5q0 36 20.5 66t54.5 50h68q-37 -26 -58 -50.5t-21 -53.5q0 -16 9 -25t23 -9q12 0 20 2.5t19 9.5l-11 -60q-20 -10 -49 -10q-34 0 -54.5 22.5z" />
    <glyph glyph-name="f" unicode="f" horiz-adv-x="324" 
d="M264 623q-22 -19 -28 -56l-14 -77h119l-11 -66h-119l-75 -424h-82l75 424h-69l11 66h70l14 81q13 69 57 106t110 37q47 0 77 -20l-33 -66q-20 14 -50 14t-52 -19z" />
    <glyph glyph-name="g" unicode="g" horiz-adv-x="604" 
d="M68.5 -187q-56.5 37 -73.5 95l72 38q15 -46 53 -72t93 -26q72 0 120.5 42.5t64.5 131.5l11 62q-27 -44 -71.5 -68t-98.5 -24q-57 0 -101.5 27.5t-69.5 77t-25 111.5q0 79 34 147t96 108.5t143 40.5q55 0 95 -25t55 -71l15 82h82l-84 -472q-22 -121 -92.5 -181.5
t-185.5 -60.5q-76 0 -132.5 37zM352.5 95.5q43.5 31.5 67.5 83t24 109.5q0 67 -34.5 105.5t-93.5 38.5q-56 0 -99 -29.5t-66.5 -79.5t-23.5 -110q0 -70 33.5 -109.5t93.5 -39.5q55 0 98.5 31.5z" />
    <glyph glyph-name="gbreve" unicode="&#x11f;" horiz-adv-x="604" 
d="M68.5 -187q-56.5 37 -73.5 95l72 38q15 -46 53 -72t93 -26q72 0 120.5 42.5t64.5 131.5l11 62q-27 -44 -71.5 -68t-98.5 -24q-57 0 -101.5 27.5t-69.5 77t-25 111.5q0 79 34 147t96 108.5t143 40.5q55 0 95 -25t55 -71l15 82h82l-84 -472q-22 -121 -92.5 -181.5
t-185.5 -60.5q-76 0 -132.5 37zM352.5 95.5q43.5 31.5 67.5 83t24 109.5q0 67 -34.5 105.5t-93.5 38.5q-56 0 -99 -29.5t-66.5 -79.5t-23.5 -110q0 -70 33.5 -109.5t93.5 -39.5q55 0 98.5 31.5zM275 589.5q-26 22.5 -26 58.5q0 11 2 21h58q-1 -5 -1 -16q0 -15 9.5 -24.5
t27.5 -9.5q22 0 36 13.5t18 36.5h58q-18 -102 -119 -102q-37 0 -63 22.5z" />
    <glyph glyph-name="gcommaaccent" unicode="&#x123;" horiz-adv-x="604" 
d="M68.5 -187q-56.5 37 -73.5 95l72 38q15 -46 53 -72t93 -26q72 0 120.5 42.5t64.5 131.5l11 62q-27 -44 -71.5 -68t-98.5 -24q-57 0 -101.5 27.5t-69.5 77t-25 111.5q0 79 34 147t96 108.5t143 40.5q55 0 95 -25t55 -71l15 82h82l-84 -472q-22 -121 -92.5 -181.5
t-185.5 -60.5q-76 0 -132.5 37zM352.5 95.5q43.5 31.5 67.5 83t24 109.5q0 67 -34.5 105.5t-93.5 38.5q-56 0 -99 -29.5t-66.5 -79.5t-23.5 -110q0 -70 33.5 -109.5t93.5 -39.5q55 0 98.5 31.5zM427 734q-37 -9 -56.5 -29t-26.5 -55h62l-15 -86h-110l15 86q11 59 41.5 88.5
t81.5 42.5z" />
    <glyph glyph-name="h" unicode="h" horiz-adv-x="583" 
d="M165 700h82l-52 -291q32 46 79.5 70.5t100.5 24.5q68 0 104.5 -36t36.5 -102q0 -25 -5 -53l-55 -313h-82l55 313q3 18 3 31q0 88 -92 88q-37 0 -73 -22t-63 -64t-37 -99l-44 -247h-82z" />
    <glyph glyph-name="hbar" unicode="&#x127;" horiz-adv-x="583" 
d="M165 700h82l-52 -291q32 46 79.5 70.5t100.5 24.5q68 0 104.5 -36t36.5 -102q0 -25 -5 -53l-55 -313h-82l55 313q3 18 3 31q0 88 -92 88q-37 0 -73 -22t-63 -64t-37 -99l-44 -247h-82zM401 634l-12 -64h-330l12 64h330z" />
    <glyph glyph-name="i" unicode="i" horiz-adv-x="250" 
d="M142 657h110l-15 -86h-110zM127 490h82l-86 -490h-82z" />
    <glyph glyph-name="dotlessi" unicode="&#x131;" horiz-adv-x="250" 
d="M127 490h82l-86 -490h-82z" />
    <glyph glyph-name="iacute" unicode="&#xed;" horiz-adv-x="250" 
d="M127 490h82l-86 -490h-82zM230 700h92l-106 -136h-70z" />
    <glyph glyph-name="icircumflex" unicode="&#xee;" horiz-adv-x="250" 
d="M127 490h82l-86 -490h-82zM165 700h80l80 -136h-64l-64 83l-87 -83h-73z" />
    <glyph glyph-name="idieresis" unicode="&#xef;" horiz-adv-x="250" 
d="M127 490h82l-86 -490h-82zM73 667h94l-14 -80h-94zM231 667h94l-14 -80h-94z" />
    <glyph glyph-name="i.loclTRK" horiz-adv-x="250" 
d="M127 490h82l-86 -490h-82zM143 657h110l-15 -86h-110z" />
    <glyph glyph-name="igrave" unicode="&#xec;" horiz-adv-x="250" 
d="M127 490h82l-86 -490h-82zM81 700h88l43 -136h-62z" />
    <glyph glyph-name="imacron" unicode="&#x12b;" horiz-adv-x="250" 
d="M127 490h82l-86 -490h-82zM89 652h216l-12 -64h-216z" />
    <glyph glyph-name="iogonek" unicode="&#x12f;" horiz-adv-x="250" 
d="M127 490h82l-86 -490h-82zM143 657h110l-15 -86h-110zM0.5 -173.5q-20.5 22.5 -20.5 57.5q0 36 20.5 66t54.5 50h68q-37 -26 -58 -50.5t-21 -53.5q0 -16 9 -25t23 -9q12 0 20 2.5t19 9.5l-11 -60q-20 -10 -49 -10q-34 0 -54.5 22.5z" />
    <glyph glyph-name="j" unicode="j" horiz-adv-x="250" 
d="M142 657h110l-15 -86h-110zM-118 -207l32 70q18 -15 48 -15q27 0 42.5 16t21.5 51l101 575h82l-103 -583q-12 -67 -46.5 -99t-98.5 -32q-43 0 -79 17z" />
    <glyph glyph-name="k" unicode="k" horiz-adv-x="509" 
d="M295 301l150 -301h-87l-127 248l-75 -62l-33 -186h-82l124 700h82l-72 -406l240 196h107z" />
    <glyph glyph-name="kcommaaccent" unicode="&#x137;" horiz-adv-x="509" 
d="M295 301l150 -301h-87l-127 248l-75 -62l-33 -186h-82l124 700h82l-72 -406l240 196h107zM153 -202q30 7 46 22t22 50h-63l14 82h110l-14 -82q-10 -55 -36.5 -79.5t-72.5 -36.5z" />
    <glyph glyph-name="l" unicode="l" horiz-adv-x="257" 
d="M76 11.5q-19 18.5 -20 53.5q0 16 3 35l105 600h82l-105 -598q-2 -12 -2 -20q0 -9 5.5 -14t15.5 -5q13 0 28 6l-12 -66q-12 -6 -23.5 -8t-29.5 -2q-28 0 -47 18.5z" />
    <glyph glyph-name="lacute" unicode="&#x13a;" horiz-adv-x="257" 
d="M76 11.5q-19 18.5 -20 53.5q0 16 3 35l105 600h82l-105 -598q-2 -12 -2 -20q0 -9 5.5 -14t15.5 -5q13 0 28 6l-12 -66q-12 -6 -23.5 -8t-29.5 -2q-28 0 -47 18.5zM266 910h92l-106 -136h-70z" />
    <glyph glyph-name="lcaron" unicode="&#x13e;" horiz-adv-x="257" 
d="M76 11.5q-19 18.5 -20 53.5q0 16 3 35l105 600h82l-105 -598q-2 -12 -2 -20q0 -9 5.5 -14t15.5 -5q13 0 28 6l-12 -66q-12 -6 -23.5 -8t-29.5 -2q-28 0 -47 18.5zM286 546q34 10 51 26.5t23 47.5h-62l14 80h110l-14 -80q-9 -54 -38 -82.5t-76 -39.5z" />
    <glyph glyph-name="lcommaaccent" unicode="&#x13c;" horiz-adv-x="257" 
d="M76 11.5q-19 18.5 -20 53.5q0 16 3 35l105 600h82l-105 -598q-2 -12 -2 -20q0 -9 5.5 -14t15.5 -5q13 0 28 6l-12 -66q-12 -6 -23.5 -8t-29.5 -2q-28 0 -47 18.5zM26 -202q30 7 46 22t22 50h-63l14 82h110l-14 -82q-10 -55 -36.5 -79.5t-72.5 -36.5z" />
    <glyph glyph-name="lslash" unicode="&#x142;" horiz-adv-x="257" 
d="M76 11.5q-19 18.5 -20 53.5q0 16 3 35l105 600h82l-105 -598q-2 -12 -2 -20q0 -9 5.5 -14t15.5 -5q13 0 28 6l-12 -66q-12 -6 -23.5 -8t-29.5 -2q-28 0 -47 18.5zM-1 291l253 131l28 -59l-253 -131z" />
    <glyph glyph-name="m" unicode="m" horiz-adv-x="794" 
d="M127 490h82l-13 -71q21 40 60 62.5t88 22.5q46 0 75.5 -23t36.5 -63q24 41 67 63.5t93 22.5q56 0 86 -30t30 -87q0 -16 -4 -42l-61 -345h-82l60 341q3 15 3 27q0 32 -19 48t-54 16q-43 0 -80 -37.5t-50 -109.5l-50 -285h-82l60 341q3 15 3 27q0 32 -19 48t-54 16
q-43 0 -80 -37.5t-50 -109.5l-50 -285h-82z" />
    <glyph glyph-name="n" unicode="n" horiz-adv-x="576" 
d="M127 490h82l-15 -87q28 49 73 75t101 26q66 0 103 -39t37 -107q0 -24 -4 -44l-55 -314h-82l55 314q3 17 3 31q0 42 -22.5 64.5t-67.5 22.5q-35 0 -69.5 -20t-61 -59.5t-36.5 -95.5l-45 -257h-82z" />
    <glyph glyph-name="nacute" unicode="&#x144;" horiz-adv-x="576" 
d="M127 490h82l-15 -87q28 49 73 75t101 26q66 0 103 -39t37 -107q0 -24 -4 -44l-55 -314h-82l55 314q3 17 3 31q0 42 -22.5 64.5t-67.5 22.5q-35 0 -69.5 -20t-61 -59.5t-36.5 -95.5l-45 -257h-82zM407 700h92l-106 -136h-70z" />
    <glyph glyph-name="ncaron" unicode="&#x148;" horiz-adv-x="576" 
d="M127 490h82l-15 -87q28 49 73 75t101 26q66 0 103 -39t37 -107q0 -24 -4 -44l-55 -314h-82l55 314q3 17 3 31q0 42 -22.5 64.5t-67.5 22.5q-35 0 -69.5 -20t-61 -59.5t-36.5 -95.5l-45 -257h-82zM240 700h64l64 -83l87 83h73l-128 -136h-80z" />
    <glyph glyph-name="ncommaaccent" unicode="&#x146;" horiz-adv-x="576" 
d="M127 490h82l-15 -87q28 49 73 75t101 26q66 0 103 -39t37 -107q0 -24 -4 -44l-55 -314h-82l55 314q3 17 3 31q0 42 -22.5 64.5t-67.5 22.5q-35 0 -69.5 -20t-61 -59.5t-36.5 -95.5l-45 -257h-82zM162 -202q30 7 46 22t22 50h-63l14 82h110l-14 -82q-10 -55 -36.5 -79.5
t-72.5 -36.5z" />
    <glyph glyph-name="ntilde" unicode="&#xf1;" horiz-adv-x="576" 
d="M127 490h82l-15 -87q28 49 73 75t101 26q66 0 103 -39t37 -107q0 -24 -4 -44l-55 -314h-82l55 314q3 17 3 31q0 42 -22.5 64.5t-67.5 22.5q-35 0 -69.5 -20t-61 -59.5t-36.5 -95.5l-45 -257h-82zM202 614q44 62 112 62q17 0 29.5 -4.5t32.5 -14.5q15 -8 27 -12.5t26 -4.5
q38 0 71 38l36 -39q-41 -63 -112 -63q-17 0 -29.5 4.5t-32.5 14.5q-15 8 -27 12.5t-26 4.5q-39 0 -71 -37z" />
    <glyph glyph-name="o" unicode="o" horiz-adv-x="584" 
d="M139 15.5q-48 29.5 -72 80t-24 113.5q0 83 36.5 150.5t101.5 106t147 38.5q69 0 117 -29.5t72 -80t24 -113.5q0 -83 -36.5 -150.5t-101.5 -106t-147 -38.5q-69 0 -117 29.5zM362.5 87.5q43.5 29.5 69 79.5t25.5 107q0 76 -36 117t-103 41q-53 0 -96.5 -29.5t-69 -79.5
t-25.5 -107q0 -76 36 -117t103 -41q53 0 96.5 29.5z" />
    <glyph glyph-name="oacute" unicode="&#xf3;" horiz-adv-x="584" 
d="M139 15.5q-48 29.5 -72 80t-24 113.5q0 83 36.5 150.5t101.5 106t147 38.5q69 0 117 -29.5t72 -80t24 -113.5q0 -83 -36.5 -150.5t-101.5 -106t-147 -38.5q-69 0 -117 29.5zM362.5 87.5q43.5 29.5 69 79.5t25.5 107q0 76 -36 117t-103 41q-53 0 -96.5 -29.5t-69 -79.5
t-25.5 -107q0 -76 36 -117t103 -41q53 0 96.5 29.5zM393 700h92l-106 -136h-70z" />
    <glyph glyph-name="ocircumflex" unicode="&#xf4;" horiz-adv-x="584" 
d="M139 15.5q-48 29.5 -72 80t-24 113.5q0 83 36.5 150.5t101.5 106t147 38.5q69 0 117 -29.5t72 -80t24 -113.5q0 -83 -36.5 -150.5t-101.5 -106t-147 -38.5q-69 0 -117 29.5zM362.5 87.5q43.5 29.5 69 79.5t25.5 107q0 76 -36 117t-103 41q-53 0 -96.5 -29.5t-69 -79.5
t-25.5 -107q0 -76 36 -117t103 -41q53 0 96.5 29.5zM328 700h80l80 -136h-64l-64 83l-87 -83h-73z" />
    <glyph glyph-name="odieresis" unicode="&#xf6;" horiz-adv-x="584" 
d="M139 15.5q-48 29.5 -72 80t-24 113.5q0 83 36.5 150.5t101.5 106t147 38.5q69 0 117 -29.5t72 -80t24 -113.5q0 -83 -36.5 -150.5t-101.5 -106t-147 -38.5q-69 0 -117 29.5zM362.5 87.5q43.5 29.5 69 79.5t25.5 107q0 76 -36 117t-103 41q-53 0 -96.5 -29.5t-69 -79.5
t-25.5 -107q0 -76 36 -117t103 -41q53 0 96.5 29.5zM236 667h94l-14 -80h-94zM394 667h94l-14 -80h-94z" />
    <glyph glyph-name="ograve" unicode="&#xf2;" horiz-adv-x="584" 
d="M139 15.5q-48 29.5 -72 80t-24 113.5q0 83 36.5 150.5t101.5 106t147 38.5q69 0 117 -29.5t72 -80t24 -113.5q0 -83 -36.5 -150.5t-101.5 -106t-147 -38.5q-69 0 -117 29.5zM362.5 87.5q43.5 29.5 69 79.5t25.5 107q0 76 -36 117t-103 41q-53 0 -96.5 -29.5t-69 -79.5
t-25.5 -107q0 -76 36 -117t103 -41q53 0 96.5 29.5zM244 700h88l43 -136h-62z" />
    <glyph glyph-name="ohungarumlaut" unicode="&#x151;" horiz-adv-x="584" 
d="M139 15.5q-48 29.5 -72 80t-24 113.5q0 83 36.5 150.5t101.5 106t147 38.5q69 0 117 -29.5t72 -80t24 -113.5q0 -83 -36.5 -150.5t-101.5 -106t-147 -38.5q-69 0 -117 29.5zM362.5 87.5q43.5 29.5 69 79.5t25.5 107q0 76 -36 117t-103 41q-53 0 -96.5 -29.5t-69 -79.5
t-25.5 -107q0 -76 36 -117t103 -41q53 0 96.5 29.5zM311 700h92l-106 -136h-70zM465 700h92l-106 -136h-70z" />
    <glyph glyph-name="omacron" unicode="&#x14d;" horiz-adv-x="584" 
d="M139 15.5q-48 29.5 -72 80t-24 113.5q0 83 36.5 150.5t101.5 106t147 38.5q69 0 117 -29.5t72 -80t24 -113.5q0 -83 -36.5 -150.5t-101.5 -106t-147 -38.5q-69 0 -117 29.5zM362.5 87.5q43.5 29.5 69 79.5t25.5 107q0 76 -36 117t-103 41q-53 0 -96.5 -29.5t-69 -79.5
t-25.5 -107q0 -76 36 -117t103 -41q53 0 96.5 29.5zM252 652h216l-12 -64h-216z" />
    <glyph glyph-name="oslash" unicode="&#xf8;" horiz-adv-x="584" 
d="M35 5l51 58q-43 58 -43 146q0 83 36.5 150.5t101.5 106t147 38.5q70 0 121 -32l51 58l48 -45l-51 -57q44 -61 44 -147q0 -83 -36.5 -150.5t-101.5 -106t-147 -38.5q-70 0 -121 32l-52 -58zM396 412q-32 20 -78 20q-53 0 -96.5 -29.5t-69 -79.5t-25.5 -107q0 -51 17 -88z
M362.5 87.5q43.5 29.5 69 79.5t25.5 107q0 54 -18 88l-251 -284q32 -20 78 -20q53 0 96.5 29.5z" />
    <glyph glyph-name="otilde" unicode="&#xf5;" horiz-adv-x="584" 
d="M139 15.5q-48 29.5 -72 80t-24 113.5q0 83 36.5 150.5t101.5 106t147 38.5q69 0 117 -29.5t72 -80t24 -113.5q0 -83 -36.5 -150.5t-101.5 -106t-147 -38.5q-69 0 -117 29.5zM362.5 87.5q43.5 29.5 69 79.5t25.5 107q0 76 -36 117t-103 41q-53 0 -96.5 -29.5t-69 -79.5
t-25.5 -107q0 -76 36 -117t103 -41q53 0 96.5 29.5zM188 614q44 62 112 62q17 0 29.5 -4.5t32.5 -14.5q15 -8 27 -12.5t26 -4.5q38 0 71 38l36 -39q-41 -63 -112 -63q-17 0 -29.5 4.5t-32.5 14.5q-15 8 -27 12.5t-26 4.5q-39 0 -71 -37z" />
    <glyph glyph-name="oe" unicode="&#x153;" horiz-adv-x="965" 
d="M139 15.5q-48 29.5 -72 80t-24 113.5q0 83 36.5 150.5t101.5 106t147 38.5q66 0 113.5 -29t72.5 -79q38 50 95 79t128 29q57 0 100 -24t66.5 -65.5t23.5 -93.5q0 -44 -18 -90h-372v-13q0 -75 34 -119.5t93 -44.5q53 0 87 21t64 66l59 -38q-72 -117 -217 -117
q-62 0 -108 30t-69 81q-39 -53 -96 -82t-128 -29q-69 0 -117 29.5zM851 294q1 7 1 20q0 56 -34.5 89.5t-91.5 33.5q-66 0 -113.5 -39t-65.5 -104h304zM362.5 87.5q43.5 29.5 69 79.5t25.5 107q0 76 -36 117t-103 41q-53 0 -96.5 -29.5t-69 -79.5t-25.5 -107q0 -76 36 -117
t103 -41q53 0 96.5 29.5z" />
    <glyph glyph-name="p" unicode="p" horiz-adv-x="599" 
d="M464.5 477q43.5 -27 67.5 -76.5t24 -114.5q0 -85 -33.5 -153.5t-94.5 -107.5t-141 -39q-54 0 -94 25.5t-57 64.5l-50 -286h-82l123 700h82l-13 -76q27 44 71 67t99 23t98.5 -27zM250 401.5q-43 -30.5 -67 -82t-24 -112.5q0 -66 36.5 -107.5t97.5 -41.5q83 0 131 61.5
t48 157.5q0 75 -32 115t-91 40q-56 0 -99 -30.5z" />
    <glyph glyph-name="thorn" unicode="&#xfe;" horiz-adv-x="599" 
d="M164 700h82l-50 -286q27 44 71 67t99 23t98.5 -27t67.5 -76.5t24 -114.5q0 -85 -33.5 -153.5t-94.5 -107.5t-141 -39q-54 0 -94 25.5t-57 64.5l-50 -286h-82zM424 119.5q48 61.5 48 157.5q0 75 -32 115t-91 40q-56 0 -99 -30.5t-67 -82t-24 -112.5q0 -66 36.5 -107.5
t97.5 -41.5q83 0 131 61.5z" />
    <glyph glyph-name="q" unicode="q" horiz-adv-x="599" 
d="M403 76q-24 -38 -69 -64t-102 -26q-90 0 -140 59t-50 155q0 83 34.5 152.5t96.5 110.5t139 41q55 0 95 -26t55 -69l14 81h82l-123 -700h-82zM350.5 90.5q43.5 32.5 66.5 85t23 111.5q0 66 -34 105.5t-90 39.5q-54 0 -97.5 -29.5t-68 -79.5t-24.5 -110q0 -72 32 -113.5
t92 -41.5q57 0 100.5 32.5z" />
    <glyph glyph-name="r" unicode="r" horiz-adv-x="411" 
d="M127 490h82l-14 -79q22 45 61.5 69t89.5 24q39 0 71 -21l-38 -68q-25 17 -58 17q-29 0 -60.5 -19t-56 -56t-33.5 -88l-48 -269h-82z" />
    <glyph glyph-name="racute" unicode="&#x155;" horiz-adv-x="411" 
d="M127 490h82l-14 -79q22 45 61.5 69t89.5 24q39 0 71 -21l-38 -68q-25 17 -58 17q-29 0 -60.5 -19t-56 -56t-33.5 -88l-48 -269h-82zM346 700h92l-106 -136h-70z" />
    <glyph glyph-name="rcaron" unicode="&#x159;" horiz-adv-x="411" 
d="M127 490h82l-14 -79q22 45 61.5 69t89.5 24q39 0 71 -21l-38 -68q-25 17 -58 17q-29 0 -60.5 -19t-56 -56t-33.5 -88l-48 -269h-82zM179 700h64l64 -83l87 83h73l-128 -136h-80z" />
    <glyph glyph-name="rcommaaccent" unicode="&#x157;" horiz-adv-x="411" 
d="M127 490h82l-14 -79q22 45 61.5 69t89.5 24q39 0 71 -21l-38 -68q-25 17 -58 17q-29 0 -60.5 -19t-56 -56t-33.5 -88l-48 -269h-82zM-1 -202q30 7 46 22t22 50h-63l14 82h110l-14 -82q-10 -55 -36.5 -79.5t-72.5 -36.5z" />
    <glyph glyph-name="s" unicode="s" horiz-adv-x="434" 
d="M80 8q-41 22 -65 55l47 70q18 -35 50 -56t67 -21q48 0 75 22t27 58q0 33 -19.5 52t-68.5 36q-51 17 -80.5 51.5t-29.5 82.5q0 71 53 108.5t133 37.5q42 0 78 -14.5t58 -36.5l-40 -67q-45 48 -107 48q-40 0 -67.5 -18t-27.5 -51q0 -28 21.5 -48t66.5 -35q114 -39 114 -140
q0 -72 -52.5 -114t-139.5 -42q-52 0 -93 22z" />
    <glyph glyph-name="sacute" unicode="&#x15b;" horiz-adv-x="434" 
d="M80 8q-41 22 -65 55l47 70q18 -35 50 -56t67 -21q48 0 75 22t27 58q0 33 -19.5 52t-68.5 36q-51 17 -80.5 51.5t-29.5 82.5q0 71 53 108.5t133 37.5q42 0 78 -14.5t58 -36.5l-40 -67q-45 48 -107 48q-40 0 -67.5 -18t-27.5 -51q0 -28 21.5 -48t66.5 -35q114 -39 114 -140
q0 -72 -52.5 -114t-139.5 -42q-52 0 -93 22zM332 700h92l-106 -136h-70z" />
    <glyph glyph-name="scaron" unicode="&#x161;" horiz-adv-x="434" 
d="M80 8q-41 22 -65 55l47 70q18 -35 50 -56t67 -21q48 0 75 22t27 58q0 33 -19.5 52t-68.5 36q-51 17 -80.5 51.5t-29.5 82.5q0 71 53 108.5t133 37.5q42 0 78 -14.5t58 -36.5l-40 -67q-45 48 -107 48q-40 0 -67.5 -18t-27.5 -51q0 -28 21.5 -48t66.5 -35q114 -39 114 -140
q0 -72 -52.5 -114t-139.5 -42q-52 0 -93 22zM165 700h64l64 -83l87 83h73l-128 -136h-80z" />
    <glyph glyph-name="scedilla" unicode="&#x15f;" horiz-adv-x="434" 
d="M80 8q-41 22 -65 55l47 70q18 -35 50 -56t67 -21q48 0 75 22t27 58q0 33 -19.5 52t-68.5 36q-51 17 -80.5 51.5t-29.5 82.5q0 71 53 108.5t133 37.5q42 0 78 -14.5t58 -36.5l-40 -67q-45 48 -107 48q-40 0 -67.5 -18t-27.5 -51q0 -28 21.5 -48t66.5 -35q114 -39 114 -140
q0 -72 -52.5 -114t-139.5 -42q-52 0 -93 22zM84 -213q-25 11 -40 29l32 39q13 -13 30.5 -21t35.5 -8q56 0 56 48q0 17 -11.5 26.5t-29.5 9.5q-27 0 -46 -23l-35 17l43 96h52l-47 -70q24 24 61 24q33 0 53.5 -20t20.5 -57q0 -48 -32.5 -74.5t-91.5 -26.5q-26 0 -51 11z" />
    <glyph glyph-name="scommaaccent" unicode="&#x219;" horiz-adv-x="434" 
d="M80 8q-41 22 -65 55l47 70q18 -35 50 -56t67 -21q48 0 75 22t27 58q0 33 -19.5 52t-68.5 36q-51 17 -80.5 51.5t-29.5 82.5q0 71 53 108.5t133 37.5q42 0 78 -14.5t58 -36.5l-40 -67q-45 48 -107 48q-40 0 -67.5 -18t-27.5 -51q0 -28 21.5 -48t66.5 -35q114 -39 114 -140
q0 -72 -52.5 -114t-139.5 -42q-52 0 -93 22zM96 -202q30 7 46 22t22 50h-63l14 82h110l-14 -82q-10 -55 -36.5 -79.5t-72.5 -36.5z" />
    <glyph glyph-name="germandbls" unicode="&#xdf;" horiz-adv-x="552" 
d="M188 10l14 80q17 -13 41 -22.5t51 -9.5q59 0 93 27t34 76q0 36 -13 55.5t-46 46.5q-32 27 -46 48t-14 50q0 30 17.5 55.5t49.5 49.5q33 25 51 48t18 51q0 38 -25.5 57.5t-68.5 19.5q-46 0 -82 -31t-47 -91l-92 -520h-82l92 522q16 91 75 141.5t151 50.5q71 0 114 -38.5
t43 -99.5q0 -81 -82 -143q-29 -22 -41 -35t-12 -31q0 -14 12.5 -26.5t49.5 -42.5q28 -23 44 -53.5t16 -76.5q0 -87 -60.5 -134.5t-154.5 -47.5q-54 0 -100 24z" />
    <glyph glyph-name="t" unicode="t" horiz-adv-x="341" 
d="M160 136q-2 -13 -2 -26q0 -26 14 -39t39 -13q29 0 62 15v-71q-21 -9 -39.5 -12.5t-48.5 -3.5q-49 0 -79.5 31t-30.5 84q0 17 3 38l51 285h-69l11 66h69l24 134l85 16l-26 -150h123l-11 -66h-124z" />
    <glyph glyph-name="tcaron" unicode="&#x165;" horiz-adv-x="341" 
d="M160 136q-2 -13 -2 -26q0 -26 14 -39t39 -13q29 0 62 15v-71q-21 -9 -39.5 -12.5t-48.5 -3.5q-49 0 -79.5 31t-30.5 84q0 17 3 38l51 285h-69l11 66h69l24 134l85 16l-26 -150h123l-11 -66h-124zM331 635q34 10 51 26.5t23 47.5h-62l14 80h110l-14 -80q-9 -54 -38 -82.5
t-76 -39.5z" />
    <glyph glyph-name="uni0163" unicode="&#x163;" horiz-adv-x="341" 
d="M160 136q-2 -13 -2 -26q0 -26 14 -39t39 -13q29 0 62 15v-71q-21 -9 -39.5 -12.5t-48.5 -3.5q-49 0 -79.5 31t-30.5 84q0 17 3 38l51 285h-69l11 66h69l24 134l85 16l-26 -150h123l-11 -66h-124zM92 -213q-25 11 -40 29l32 39q13 -13 30.5 -21t35.5 -8q56 0 56 48
q0 17 -11.5 26.5t-29.5 9.5q-27 0 -46 -23l-35 17l43 96h52l-47 -70q24 24 61 24q33 0 53.5 -20t20.5 -57q0 -48 -32.5 -74.5t-91.5 -26.5q-26 0 -51 11z" />
    <glyph glyph-name="uni021B" unicode="&#x21b;" horiz-adv-x="341" 
d="M160 136q-2 -13 -2 -26q0 -26 14 -39t39 -13q29 0 62 15v-71q-21 -9 -39.5 -12.5t-48.5 -3.5q-49 0 -79.5 31t-30.5 84q0 17 3 38l51 285h-69l11 66h69l24 134l85 16l-26 -150h123l-11 -66h-124zM104 -202q30 7 46 22t22 50h-63l14 82h110l-14 -82q-10 -55 -36.5 -79.5
t-72.5 -36.5z" />
    <glyph glyph-name="u" unicode="u" horiz-adv-x="576" 
d="M449 0h-82l15 87q-28 -49 -73 -75t-101 -26q-66 0 -103 39t-37 107q0 24 4 44l55 314h82l-55 -314q-3 -16 -3 -31q0 -42 22.5 -64.5t67.5 -22.5q35 0 69.5 20t61 59.5t36.5 95.5l45 257h82z" />
    <glyph glyph-name="uacute" unicode="&#xfa;" horiz-adv-x="576" 
d="M449 0h-82l15 87q-28 -49 -73 -75t-101 -26q-66 0 -103 39t-37 107q0 24 4 44l55 314h82l-55 -314q-3 -16 -3 -31q0 -42 22.5 -64.5t67.5 -22.5q35 0 69.5 20t61 59.5t36.5 95.5l45 257h82zM392 700h92l-106 -136h-70z" />
    <glyph glyph-name="ucircumflex" unicode="&#xfb;" horiz-adv-x="576" 
d="M449 0h-82l15 87q-28 -49 -73 -75t-101 -26q-66 0 -103 39t-37 107q0 24 4 44l55 314h82l-55 -314q-3 -16 -3 -31q0 -42 22.5 -64.5t67.5 -22.5q35 0 69.5 20t61 59.5t36.5 95.5l45 257h82zM327 700h80l80 -136h-64l-64 83l-87 -83h-73z" />
    <glyph glyph-name="udieresis" unicode="&#xfc;" horiz-adv-x="576" 
d="M449 0h-82l15 87q-28 -49 -73 -75t-101 -26q-66 0 -103 39t-37 107q0 24 4 44l55 314h82l-55 -314q-3 -16 -3 -31q0 -42 22.5 -64.5t67.5 -22.5q35 0 69.5 20t61 59.5t36.5 95.5l45 257h82zM235 667h94l-14 -80h-94zM393 667h94l-14 -80h-94z" />
    <glyph glyph-name="ugrave" unicode="&#xf9;" horiz-adv-x="576" 
d="M449 0h-82l15 87q-28 -49 -73 -75t-101 -26q-66 0 -103 39t-37 107q0 24 4 44l55 314h82l-55 -314q-3 -16 -3 -31q0 -42 22.5 -64.5t67.5 -22.5q35 0 69.5 20t61 59.5t36.5 95.5l45 257h82zM243 700h88l43 -136h-62z" />
    <glyph glyph-name="uhungarumlaut" unicode="&#x171;" horiz-adv-x="576" 
d="M449 0h-82l15 87q-28 -49 -73 -75t-101 -26q-66 0 -103 39t-37 107q0 24 4 44l55 314h82l-55 -314q-3 -16 -3 -31q0 -42 22.5 -64.5t67.5 -22.5q35 0 69.5 20t61 59.5t36.5 95.5l45 257h82zM310 700h92l-106 -136h-70zM464 700h92l-106 -136h-70z" />
    <glyph glyph-name="umacron" unicode="&#x16b;" horiz-adv-x="576" 
d="M449 0h-82l15 87q-28 -49 -73 -75t-101 -26q-66 0 -103 39t-37 107q0 24 4 44l55 314h82l-55 -314q-3 -16 -3 -31q0 -42 22.5 -64.5t67.5 -22.5q35 0 69.5 20t61 59.5t36.5 95.5l45 257h82zM251 652h216l-12 -64h-216z" />
    <glyph glyph-name="uogonek" unicode="&#x173;" horiz-adv-x="576" 
d="M449 0h-82l15 87q-28 -49 -73 -75t-101 -26q-66 0 -103 39t-37 107q0 24 4 44l55 314h82l-55 -314q-3 -16 -3 -31q0 -42 22.5 -64.5t67.5 -22.5q35 0 69.5 20t61 59.5t36.5 95.5l45 257h82zM326.5 -173.5q-20.5 22.5 -20.5 57.5q0 36 20.5 66t54.5 50h68
q-37 -26 -58 -50.5t-21 -53.5q0 -16 9 -25t23 -9q12 0 20 2.5t19 9.5l-11 -60q-20 -10 -49 -10q-34 0 -54.5 22.5z" />
    <glyph glyph-name="uring" unicode="&#x16f;" horiz-adv-x="576" 
d="M449 0h-82l15 87q-28 -49 -73 -75t-101 -26q-66 0 -103 39t-37 107q0 24 4 44l55 314h82l-55 -314q-3 -16 -3 -31q0 -42 22.5 -64.5t67.5 -22.5q35 0 69.5 20t61 59.5t36.5 95.5l45 257h82zM293.5 572.5q-24.5 24.5 -24.5 61.5t24.5 61.5t61.5 24.5t61.5 -24.5
t24.5 -61.5t-24.5 -61.5t-61.5 -24.5t-61.5 24.5zM386.5 602.5q12.5 12.5 12.5 31.5t-12.5 31.5t-31.5 12.5t-31.5 -12.5t-12.5 -31.5t12.5 -31.5t31.5 -12.5t31.5 12.5z" />
    <glyph glyph-name="v" unicode="v" horiz-adv-x="510" 
d="M63 490h85l82 -380l211 380h92l-283 -490h-74z" />
    <glyph glyph-name="w" unicode="w" horiz-adv-x="696" 
d="M69 490h81l37 -376l166 376h70l39 -376l170 376h81l-227 -490h-80l-36 363l-163 -363h-79z" />
    <glyph glyph-name="x" unicode="x" horiz-adv-x="472" 
d="M281 251l124 -251h-89l-88 186l-150 -186h-97l211 251l-118 239h88l86 -175l145 175h90z" />
    <glyph glyph-name="y" unicode="y" horiz-adv-x="514" 
d="M535 490l-348 -618q-30 -54 -61 -75t-72 -21q-39 0 -65 14l26 78q18 -15 42 -15q40 0 63 42l56 102l-111 493h85l84 -388l212 388h89z" />
    <glyph glyph-name="yacute" unicode="&#xfd;" horiz-adv-x="514" 
d="M535 490l-348 -618q-30 -54 -61 -75t-72 -21q-39 0 -65 14l26 78q18 -15 42 -15q40 0 63 42l56 102l-111 493h85l84 -388l212 388h89zM366 700h92l-106 -136h-70z" />
    <glyph glyph-name="ydieresis" unicode="&#xff;" horiz-adv-x="514" 
d="M535 490l-348 -618q-30 -54 -61 -75t-72 -21q-39 0 -65 14l26 78q18 -15 42 -15q40 0 63 42l56 102l-111 493h85l84 -388l212 388h89zM209 667h94l-14 -80h-94zM367 667h94l-14 -80h-94z" />
    <glyph glyph-name="z" unicode="z" horiz-adv-x="452" 
d="M1 58l330 366h-253l11 66h358l-10 -58l-329 -366h272l-11 -66h-378z" />
    <glyph glyph-name="zacute" unicode="&#x17a;" horiz-adv-x="452" 
d="M1 58l330 366h-253l11 66h358l-10 -58l-329 -366h272l-11 -66h-378zM330 700h92l-106 -136h-70z" />
    <glyph glyph-name="zcaron" unicode="&#x17e;" horiz-adv-x="452" 
d="M1 58l330 366h-253l11 66h358l-10 -58l-329 -366h272l-11 -66h-378zM163 700h64l64 -83l87 83h73l-128 -136h-80z" />
    <glyph glyph-name="zdotaccent" unicode="&#x17c;" horiz-adv-x="452" 
d="M1 58l330 366h-253l11 66h358l-10 -58l-329 -366h272l-11 -66h-378zM243 657h110l-15 -86h-110z" />
    <glyph glyph-name="f.alt" horiz-adv-x="324" 
d="M264 623q-22 -19 -28 -56l-14 -77h119l-11 -66h-119l-75 -424h-82l75 424h-69l11 66h70l14 81q13 70 57 106.5t111 36.5q24 0 42 -4.5t27 -9.5l-13 -74q-15 8 -29 12t-34 4q-30 0 -52 -19z" />
    <glyph glyph-name="j.alt" horiz-adv-x="250" 
d="M142 657h110l-15 -86h-110zM-102 -214l14 77q22 -15 51 -15q26 0 41.5 16t21.5 51l101 575h82l-103 -583q-12 -67 -46.5 -99t-98.5 -32q-37 0 -63 10z" />
    <glyph glyph-name="r.alt" horiz-adv-x="411" 
d="M127 490h82l-14 -79q22 45 62 69t90 24q35 0 59 -9l-14 -77q-29 14 -67 14q-32 0 -64 -19t-56.5 -56t-33.5 -88l-48 -269h-82z" />
    <glyph glyph-name="racute.alt" horiz-adv-x="411" 
d="M127 490h82l-14 -79q22 45 62 69t90 24q35 0 59 -9l-14 -77q-29 14 -67 14q-32 0 -64 -19t-56.5 -56t-33.5 -88l-48 -269h-82zM346 700h92l-106 -136h-70z" />
    <glyph glyph-name="rcaron.alt" horiz-adv-x="411" 
d="M127 490h82l-14 -79q22 45 62 69t90 24q35 0 59 -9l-14 -77q-29 14 -67 14q-32 0 -64 -19t-56.5 -56t-33.5 -88l-48 -269h-82zM179 700h64l64 -83l87 83h73l-128 -136h-80z" />
    <glyph glyph-name="rcommaaccent.alt" horiz-adv-x="411" 
d="M127 490h82l-14 -79q22 45 62 69t90 24q35 0 59 -9l-14 -77q-29 14 -67 14q-32 0 -64 -19t-56.5 -56t-33.5 -88l-48 -269h-82zM-1 -202q30 7 46 22t22 50h-63l14 82h110l-14 -82q-10 -55 -36.5 -79.5t-72.5 -36.5z" />
    <glyph glyph-name="t.alt" horiz-adv-x="341" 
d="M160 136q-2 -13 -2 -26q0 -26 14 -39t39 -13q36 0 69 15l-13 -72q-37 -15 -85 -15q-47 0 -77 31t-30 84q0 17 3 38l51 285h-69l11 66h69l24 134l85 16l-26 -150h123l-11 -66h-124z" />
    <glyph glyph-name="tcaron.alt" horiz-adv-x="341" 
d="M160 136q-2 -13 -2 -26q0 -26 14 -39t39 -13q36 0 69 15l-13 -72q-37 -15 -85 -15q-47 0 -77 31t-30 84q0 17 3 38l51 285h-69l11 66h69l24 134l85 16l-26 -150h123l-11 -66h-124zM331 635q34 10 51 26.5t23 47.5h-62l14 80h110l-14 -80q-9 -54 -38 -82.5t-76 -39.5z" />
    <glyph glyph-name="uni0163.alt" horiz-adv-x="341" 
d="M160 136q-2 -13 -2 -26q0 -26 14 -39t39 -13q36 0 69 15l-13 -72q-37 -15 -85 -15q-47 0 -77 31t-30 84q0 17 3 38l51 285h-69l11 66h69l24 134l85 16l-26 -150h123l-11 -66h-124zM92 -213q-25 11 -40 29l32 39q13 -13 30.5 -21t35.5 -8q56 0 56 48q0 17 -11.5 26.5
t-29.5 9.5q-27 0 -46 -23l-35 17l43 96h52l-47 -70q24 24 61 24q33 0 53.5 -20t20.5 -57q0 -48 -32.5 -74.5t-91.5 -26.5q-26 0 -51 11z" />
    <glyph glyph-name="uni021B.alt" horiz-adv-x="341" 
d="M160 136q-2 -13 -2 -26q0 -26 14 -39t39 -13q36 0 69 15l-13 -72q-37 -15 -85 -15q-47 0 -77 31t-30 84q0 17 3 38l51 285h-69l11 66h69l24 134l85 16l-26 -150h123l-11 -66h-124zM104 -202q30 7 46 22t22 50h-63l14 82h110l-14 -82q-10 -55 -36.5 -79.5t-72.5 -36.5z
" />
    <glyph glyph-name="f_i" horiz-adv-x="574" 
d="M447 0h-82l74 424h-228l-75 -424h-82l75 424h-69l11 66h70l14 81q13 70 57 106.5t111 36.5q24 0 42 -4.5t27 -9.5l-13 -74q-15 8 -29 12t-34 4q-30 0 -52 -19t-28 -56l-14 -77h311zM576 657l-15 -86h-110l15 86h110z" />
    <glyph glyph-name="f_l" horiz-adv-x="581" 
d="M264 623q-22 -19 -28 -56l-14 -77h119l-11 -66h-119l-75 -424h-82l75 424h-69l11 66h70l14 81q13 70 57 106.5t111 36.5q24 0 42 -4.5t27 -9.5l-13 -74q-15 8 -29 12t-34 4q-30 0 -52 -19zM468.5 68q5.5 -5 15.5 -5q13 0 28 6l-12 -66q-12 -6 -23.5 -8t-29.5 -2
q-28 0 -47 18.5t-20 53.5q0 16 3 35l105 600h82l-105 -598q-2 -12 -2 -20q0 -9 5.5 -14z" />
    <glyph glyph-name="ordfeminine" unicode="&#xaa;" horiz-adv-x="371" 
d="M93 348q-31 28 -31 78q0 57 37 87.5t103 33.5l110 5l5 28q2 14 2 19q0 29 -21 46t-55 17q-32 0 -55.5 -16t-36.5 -48l-49 23q16 45 55 69t95 24q58 0 94.5 -29t36.5 -78q0 -7 -2 -21l-32 -184q-3 -21 -3 -37q0 -17 6 -34h-62q-8 17 -8 45q-43 -56 -111 -56q-47 0 -78 28z
M264.5 402.5q27.5 29.5 35.5 78.5l4 24l-90 -4q-86 -4 -86 -71q0 -27 18 -42t46 -15q45 0 72.5 29.5z" />
    <glyph glyph-name="ordmasculine" unicode="&#xba;" horiz-adv-x="427" 
d="M118.5 364.5q-43.5 44.5 -43.5 124.5q0 60 24.5 111.5t72.5 82.5t116 31q73 0 116.5 -45t43.5 -124q0 -60 -24.5 -111.5t-72.5 -82.5t-117 -31q-72 0 -115.5 44.5zM314 399q32 23 49 61t17 82q0 54 -26.5 85t-71.5 31q-42 0 -73.5 -23t-48.5 -61t-17 -82q0 -54 26 -85
t71 -31q42 0 74 23z" />
    <glyph glyph-name="uni0410" unicode="&#x410;" horiz-adv-x="648" 
d="M464 172h-297l-94 -172h-93l388 700h74l140 -700h-85zM449 246l-63 327l-179 -327h242z" />
    <glyph glyph-name="uni0411" unicode="&#x411;" horiz-adv-x="646" 
d="M247 626l-41 -228h191q88 0 140.5 -48.5t52.5 -133.5q0 -64 -32.5 -113t-90 -76t-130.5 -27h-287l124 700h434l-13 -74h-348zM193 324l-44 -250h199q70 0 112.5 36.5t42.5 100.5q0 55 -29.5 84t-85.5 29h-195z" />
    <glyph glyph-name="uni0412" unicode="&#x412;" horiz-adv-x="646" 
d="M174 700h257q90 0 139 -45.5t49 -117.5q0 -65 -34 -107t-86 -62q43 -21 67 -56.5t24 -95.5q0 -64 -32.5 -113t-90 -76t-130.5 -27h-287zM386 398q64 0 104 36t40 98q0 46 -28 70t-81 24h-174l-41 -228h180zM348 74q70 0 112.5 36t42.5 101q0 55 -29.5 84t-85.5 29h-195
l-44 -250h199z" />
    <glyph glyph-name="uni0413" unicode="&#x413;" horiz-adv-x="583" 
d="M605 626h-358l-111 -626h-86l124 700h444z" />
    <glyph glyph-name="uni0403" unicode="&#x403;" horiz-adv-x="583" 
d="M605 626h-358l-111 -626h-86l124 700h444zM458 910h92l-106 -136h-70z" />
    <glyph glyph-name="uni0490" unicode="&#x490;" horiz-adv-x="583" 
d="M174 700h358l19 106h86l-32 -180h-358l-111 -626h-86z" />
    <glyph glyph-name="uni0414" unicode="&#x414;" horiz-adv-x="655" 
d="M532 74h70l-34 -192h-80l21 118h-449l-21 -118h-80l34 192h70q46 113 76.5 217t52.5 229l32 180h418zM446 74l97 552h-246l-21 -120q-40 -227 -126 -432h296z" />
    <glyph glyph-name="uni0415" unicode="&#x415;" horiz-adv-x="581" 
d="M247 626l-40 -227h269l-13 -74h-269l-45 -251h358l-13 -74h-444l124 700h444l-13 -74h-358z" />
    <glyph glyph-name="uni0400" unicode="&#x400;" horiz-adv-x="581" 
d="M247 626l-40 -227h269l-13 -74h-269l-45 -251h358l-13 -74h-444l124 700h444l-13 -74h-358zM309 910h88l43 -136h-62z" />
    <glyph glyph-name="uni0401" unicode="&#x401;" horiz-adv-x="581" 
d="M247 626l-40 -227h269l-13 -74h-269l-45 -251h358l-13 -74h-444l124 700h444l-13 -74h-358zM301 877h94l-14 -80h-94zM459 877h94l-14 -80h-94z" />
    <glyph glyph-name="uni0416" unicode="&#x416;" horiz-adv-x="880" 
d="M27 68l124 208q28 47 53 71t68 34q-28 22 -41.5 53.5t-16.5 101.5q-2 62 -14.5 84t-45.5 22q-21 0 -44 -10l-4 71q30 11 61 11q59 0 88 -32.5t30 -112.5q2 -87 26 -125.5t79 -38.5h35l52 295h86l-52 -295h35q56 0 93.5 39t65.5 125q18 57 40.5 88t52.5 44t74 13
q14 0 31.5 -4t27.5 -10l-26 -68q-17 10 -42 10q-31 0 -51 -23t-42 -83q-19 -53 -35.5 -83.5t-33.5 -47t-43 -31.5q32 -10 47.5 -34t30.5 -74l59 -198q10 -35 35 -68h-84q-17 17 -29 55l-59 196q-13 44 -30.5 63t-56.5 19h-72l-59 -333h-86l59 333h-65q-39 0 -65 -18.5
t-53 -63.5l-115 -196q-24 -41 -53 -55h-98q39 29 63 68z" />
    <glyph glyph-name="uni0417" unicode="&#x417;" horiz-adv-x="597" 
d="M537 218q0 -70 -32.5 -122.5t-93.5 -81t-144 -28.5q-61 0 -110.5 26t-80 68.5t-38.5 90.5l75 38q11 -66 54 -106.5t110 -40.5q78 0 124.5 40.5t46.5 113.5q0 55 -32 85t-93 30h-49l13 74h41q64 0 106 36.5t42 95.5q0 47 -33 74t-86 27q-58 0 -98.5 -29t-65.5 -90l-64 34
q24 75 85.5 118t148.5 43q89 0 144.5 -46.5t55.5 -123.5q0 -68 -37.5 -111.5t-96.5 -61.5q108 -37 108 -153z" />
    <glyph glyph-name="uni0418" unicode="&#x418;" horiz-adv-x="742" 
d="M174 700h84l-98 -552l489 552h80l-124 -700h-84l98 552l-489 -552h-80z" />
    <glyph glyph-name="uni0419" unicode="&#x419;" horiz-adv-x="742" 
d="M174 700h84l-98 -552l489 552h80l-124 -700h-84l98 552l-489 -552h-80zM401 799.5q-26 22.5 -26 58.5q0 11 2 21h58q-1 -5 -1 -16q0 -15 9.5 -24.5t27.5 -9.5q22 0 36 13.5t18 36.5h58q-18 -102 -119 -102q-37 0 -63 22.5z" />
    <glyph glyph-name="uni040D" unicode="&#x40d;" horiz-adv-x="742" 
d="M174 700h84l-98 -552l489 552h80l-124 -700h-84l98 552l-489 -552h-80zM361 910h88l43 -136h-62z" />
    <glyph glyph-name="uni041A" unicode="&#x41a;" horiz-adv-x="576" 
d="M173 700h86l-52 -295h35q56 0 93.5 39t65.5 125q18 57 40.5 88t52.5 44t74 13q14 0 31.5 -4t27.5 -10l-26 -68q-17 10 -42 10q-31 0 -51 -23t-42 -83q-19 -53 -35.5 -83.5t-33.5 -47t-43 -31.5q32 -10 47.5 -34t30.5 -74l59 -198q10 -35 35 -68h-84q-17 17 -29 55
l-59 196q-13 44 -30.5 63t-56.5 19h-72l-59 -333h-86z" />
    <glyph glyph-name="uni040C" unicode="&#x40c;" horiz-adv-x="576" 
d="M173 700h86l-52 -295h35q56 0 93.5 39t65.5 125q18 57 40.5 88t52.5 44t74 13q14 0 31.5 -4t27.5 -10l-26 -68q-17 10 -42 10q-31 0 -51 -23t-42 -83q-19 -53 -35.5 -83.5t-33.5 -47t-43 -31.5q32 -10 47.5 -34t30.5 -74l59 -198q10 -35 35 -68h-84q-17 17 -29 55
l-59 196q-13 44 -30.5 63t-56.5 19h-72l-59 -333h-86zM445 910h92l-106 -136h-70z" />
    <glyph glyph-name="uni041B" unicode="&#x41b;" horiz-adv-x="703" 
d="M-17 -7l13 72q20 -9 42 -9q36 0 60 34t44 123l112 487h436l-123 -700h-86l110 626h-269l-99 -433q-25 -107 -67 -157t-115 -50q-37 0 -58 7z" />
    <glyph glyph-name="uni041C" unicode="&#x41c;" horiz-adv-x="864" 
d="M174 700h78l162 -539l349 539h88l-124 -700h-84l91 516l-301 -459h-66l-142 459l-91 -516h-84z" />
    <glyph glyph-name="uni041D" unicode="&#x41d;" horiz-adv-x="712" 
d="M699 700l-124 -700h-86l58 325h-353l-58 -325h-86l124 700h86l-53 -301h353l53 301h86z" />
    <glyph glyph-name="uni041E" unicode="&#x41e;" horiz-adv-x="770" 
d="M200 26q-63 40 -97 110t-34 159q0 116 48 211.5t137 151.5t206 56q85 0 148 -40t96.5 -110.5t33.5 -159.5q0 -115 -48 -210.5t-136.5 -151.5t-205.5 -56q-85 0 -148 40zM510 105q67 45 103.5 121.5t36.5 169.5q0 113 -52 178.5t-147 65.5q-86 0 -153 -45t-104 -122
t-37 -169q0 -113 52.5 -178.5t147.5 -65.5q86 0 153 45z" />
    <glyph glyph-name="uni041F" unicode="&#x41f;" horiz-adv-x="712" 
d="M576 0h-86l110 626h-353l-111 -626h-86l124 700h525z" />
    <glyph glyph-name="uni0420" unicode="&#x420;" horiz-adv-x="624" 
d="M174 700h265q90 0 141 -49t51 -133q0 -68 -31.5 -119t-90.5 -79t-139 -28h-182l-52 -292h-86zM383 364q76 0 120 40t44 112q0 53 -30.5 82.5t-89.5 29.5h-180l-47 -264h183z" />
    <glyph glyph-name="uni0421" unicode="&#x421;" horiz-adv-x="711" 
d="M200 25.5q-63 39.5 -97.5 108t-34.5 154.5q0 122 50 219t139.5 152t205.5 55q97 0 161.5 -47.5t90.5 -132.5l-78 -34q-16 65 -66.5 102.5t-120.5 37.5q-83 0 -150 -44.5t-105.5 -122t-38.5 -174.5q0 -68 23 -122t67.5 -85.5t105.5 -31.5q79 0 132.5 34.5t93.5 108.5
l72 -39q-49 -89 -124.5 -133.5t-181.5 -44.5q-81 0 -144 39.5z" />
    <glyph glyph-name="uni0422" unicode="&#x422;" horiz-adv-x="553" 
d="M592 626h-206l-111 -626h-86l111 626h-205l13 74h497z" />
    <glyph glyph-name="uni0423" unicode="&#x423;" horiz-adv-x="582" 
d="M646 700l-375 -604q-37 -60 -74.5 -85t-87.5 -25q-58 0 -91 30l38 70q30 -26 61 -26q25 0 43 15t42 55l39 64l-145 506h88l117 -408l249 408h96z" />
    <glyph glyph-name="uni040E" unicode="&#x40e;" horiz-adv-x="582" 
d="M646 700l-375 -604q-37 -60 -74.5 -85t-87.5 -25q-58 0 -91 30l38 70q30 -26 61 -26q25 0 43 15t42 55l39 64l-145 506h88l117 -408l249 408h96zM324 799.5q-26 22.5 -26 58.5q0 11 2 21h58q-1 -5 -1 -16q0 -15 9.5 -24.5t27.5 -9.5q22 0 36 13.5t18 36.5h58
q-18 -102 -119 -102q-37 0 -63 22.5z" />
    <glyph glyph-name="uni0424" unicode="&#x424;" horiz-adv-x="818" 
d="M663 592.5q56 -30.5 88 -86.5t32 -131q0 -94 -41.5 -161t-117.5 -102t-178 -35h-23l-14 -77h-86l14 77h-17q-71 0 -127 30.5t-88.5 86.5t-32.5 131q0 94 41.5 161t118 102t178.5 35h23l14 77h86l-14 -77h17q71 0 127 -30.5zM350 151l70 398h-25q-113 0 -175 -59.5
t-62 -163.5q0 -82 44.5 -128.5t122.5 -46.5h25zM635.5 210.5q61.5 59.5 61.5 163.5q0 82 -44.5 128.5t-121.5 46.5h-25l-70 -398h25q113 0 174.5 59.5z" />
    <glyph glyph-name="uni0425" unicode="&#x425;" horiz-adv-x="609" 
d="M370 368l166 -368h-90l-131 296l-225 -296h-103l292 370l-150 330h90l116 -259l199 259h96z" />
    <glyph glyph-name="uni0427" unicode="&#x427;" horiz-adv-x="665" 
d="M652 700l-124 -700h-86l54 304q-77 -58 -176 -58q-89 0 -143 51.5t-54 141.5q0 33 5 63l35 198h86l-34 -193q-5 -27 -5 -59q1 -62 32.5 -95t92.5 -33q49 0 91.5 16.5t84.5 53.5l55 310h86z" />
    <glyph glyph-name="uni0426" unicode="&#x426;" horiz-adv-x="712" 
d="M566 0h-516l123 700h86l-110 -626h354l110 626h86l-110 -626h70l-34 -192h-80z" />
    <glyph glyph-name="uni0428" unicode="&#x428;" horiz-adv-x="973" 
d="M174 700h86l-111 -626h264l111 626h86l-111 -626h264l111 626h86l-124 -700h-786z" />
    <glyph glyph-name="uni0429" unicode="&#x429;" horiz-adv-x="972" 
d="M849 74h70l-34 -192h-80l21 118h-776l123 700h86l-110 -626h264l110 626h86l-110 -626h264l110 626h86z" />
    <glyph glyph-name="uni040F" unicode="&#x40f;" horiz-adv-x="712" 
d="M699 700l-123 -700h-223l-21 -118h-80l21 118h-223l123 700h86l-110 -626h354l110 626h86z" />
    <glyph glyph-name="uni042C" unicode="&#x42c;" horiz-adv-x="646" 
d="M174 700h86l-54 -302h191q88 0 140.5 -48.5t52.5 -133.5q0 -64 -32.5 -113t-90 -76t-130.5 -27h-287zM348 74q70 0 112.5 36.5t42.5 100.5q0 55 -29.5 84t-85.5 29h-195l-44 -250h199z" />
    <glyph glyph-name="uni042A" unicode="&#x42a;" horiz-adv-x="717" 
d="M608.5 349.5q52.5 -48.5 52.5 -133.5q0 -64 -32.5 -113t-90 -76t-130.5 -27h-287l111 626h-150l13 74h236l-54 -302h191q88 0 140.5 -48.5zM531.5 110.5q42.5 36.5 42.5 100.5q0 55 -29.5 84t-85.5 29h-195l-44 -250h199q70 0 112.5 36.5z" />
    <glyph glyph-name="uni042B" unicode="&#x42b;" horiz-adv-x="919" 
d="M174 700h86l-54 -302h191q88 0 140.5 -48.5t52.5 -133.5q0 -64 -32.5 -113t-90 -76t-130.5 -27h-287zM348 74q70 0 112.5 36.5t42.5 100.5q0 55 -29.5 84t-85.5 29h-195l-44 -250h199zM820 700h86l-124 -700h-86z" />
    <glyph glyph-name="uni0409" unicode="&#x409;" horiz-adv-x="1077" 
d="M-17 -7l13 72q20 -9 42 -9q36 0 60 34t44 123l112 487h437l-53 -302h190q88 0 140.5 -48.5t52.5 -133.5q0 -64 -32.5 -113t-90 -76t-130.5 -27h-287l111 626h-270l-99 -433q-25 -107 -67 -157t-115 -50q-37 0 -58 7zM779 74q70 0 112.5 36.5t42.5 100.5q0 55 -29.5 84
t-85.5 29h-194l-44 -250h198z" />
    <glyph glyph-name="uni040A" unicode="&#x40a;" horiz-adv-x="1068" 
d="M174 700h86l-53 -301h336l53 301h86l-53 -302h190q88 0 140.5 -48.5t52.5 -133.5q0 -64 -32.5 -113t-90 -76t-130.5 -27h-287l58 325h-336l-58 -325h-86zM770 74q70 0 112.5 36.5t42.5 100.5q0 55 -29.5 84t-85.5 29h-195l-44 -250h199z" />
    <glyph glyph-name="uni0405" unicode="&#x405;" horiz-adv-x="544" 
d="M97 18.5q-59 32.5 -83 76.5l43 82q32 -57 76.5 -87t106.5 -30q70 0 115.5 36.5t45.5 96.5q0 49 -29 80.5t-102 57.5q-75 26 -119 75t-44 115q0 88 62.5 140.5t174.5 52.5q62 0 110.5 -22t80.5 -52l-40 -78q-33 36 -74 57t-86 21q-66 0 -105 -30t-39 -84q0 -45 31.5 -75
t107.5 -57t116.5 -72.5t40.5 -118.5q0 -67 -33.5 -116t-92.5 -75t-133 -26q-72 0 -131 32.5z" />
    <glyph glyph-name="uni0404" unicode="&#x404;" horiz-adv-x="711" 
d="M484.5 94.5q53.5 34.5 93.5 108.5l72 -39q-49 -89 -124.5 -133.5t-181.5 -44.5q-81 0 -144 39.5t-97.5 108t-34.5 154.5q0 122 50 219t139.5 152t205.5 55q97 0 161.5 -47.5t90.5 -132.5l-78 -34q-16 65 -66.5 102.5t-120.5 37.5t-129 -32t-99.5 -89t-56.5 -132h380
l-14 -74h-375v-14q0 -68 23 -122t67.5 -85.5t105.5 -31.5q79 0 132.5 34.5z" />
    <glyph glyph-name="uni042D" unicode="&#x42d;" horiz-adv-x="711" 
d="M263.5 605.5q-53.5 -34.5 -93.5 -108.5l-72 39q49 89 124.5 133.5t181.5 44.5q81 0 144 -39.5t97.5 -108t34.5 -154.5q0 -122 -50 -219t-139.5 -152t-205.5 -55q-97 0 -161.5 47.5t-90.5 132.5l78 34q16 -65 66.5 -102.5t120.5 -37.5t129 32t99.5 89t56.5 132h-380l14 74
h375v14q0 68 -23 122t-67.5 85.5t-105.5 31.5q-79 0 -132.5 -34.5z" />
    <glyph glyph-name="uni0406" unicode="&#x406;" horiz-adv-x="273" 
d="M174 700h86l-124 -700h-86z" />
    <glyph glyph-name="uni0407" unicode="&#x407;" horiz-adv-x="273" 
d="M174 700h86l-124 -700h-86zM122 877h94l-14 -80h-94zM280 877h94l-14 -80h-94z" />
    <glyph glyph-name="uni0408" unicode="&#x408;" horiz-adv-x="501" 
d="M62.5 13q-44.5 27 -63.5 67l53 66q24 -43 54.5 -64.5t72.5 -21.5q54 0 93.5 37.5t53.5 117.5l86 485h86l-86 -485q-21 -119 -83.5 -174t-162.5 -55q-59 0 -103.5 27z" />
    <glyph glyph-name="uni040B" unicode="&#x40b;" horiz-adv-x="764" 
d="M634 386.5q43 -43.5 43 -115.5q0 -14 -4 -42l-40 -229h-86l40 228q3 18 3 27q0 50 -29.5 75.5t-79.5 25.5q-40 0 -81 -12.5t-70 -31.5l-55 -312h-86l111 626h-205l13 74h497l-13 -74h-206l-43 -244q73 48 168 48q80 0 123 -43.5z" />
    <glyph glyph-name="uni042E" unicode="&#x42e;" horiz-adv-x="1042" 
d="M880 674q63 -40 96.5 -110.5t33.5 -159.5q0 -115 -48 -210.5t-136.5 -151.5t-205.5 -56q-85 0 -148 40t-97 110t-34 159q0 19 1 29h-149l-57 -324h-86l124 700h86l-53 -302h144q20 92 71.5 163.5t131 112t178.5 40.5q85 0 148 -40zM782 105q67 45 103.5 121.5t36.5 169.5
q0 113 -52 178.5t-147 65.5q-86 0 -153 -45t-104 -122t-37 -169q0 -113 52.5 -178.5t147.5 -65.5q86 0 153 45z" />
    <glyph glyph-name="uni042F" unicode="&#x42f;" horiz-adv-x="648" 
d="M425 0l57 322h-161q-37 0 -57.5 -16.5t-40.5 -54.5l-102 -196q-19 -38 -40 -55h-91q29 26 50 68l100 198q35 68 80 83q-47 14 -78.5 55t-31.5 99q0 91 64.5 144t175.5 53h285l-124 -700h-86zM536 628h-196q-70 0 -107.5 -32.5t-37.5 -92.5q0 -50 31.5 -79.5t82.5 -29.5
h186z" />
    <glyph glyph-name="uni0402" unicode="&#x402;" horiz-adv-x="742" 
d="M636.5 377q50.5 -53 50.5 -143q0 -115 -65.5 -181.5t-182.5 -66.5q-59 0 -101 20l14 80q39 -26 88 -26q73 0 116 44.5t43 123.5q0 56 -33.5 92t-89.5 36q-42 0 -79.5 -12.5t-65.5 -32.5l-55 -311h-86l110 626h-205l13 74h497l-13 -74h-206l-42 -239q26 18 66.5 30.5
t90.5 12.5q85 0 135.5 -53z" />
    <glyph glyph-name="uni0462" unicode="&#x462;" horiz-adv-x="720" 
d="M611.5 349.5q52.5 -48.5 52.5 -133.5q0 -64 -32.5 -113t-90 -76t-130.5 -27h-287l95 538h-157l12 70h158l16 92h86l-16 -92h156l-12 -70h-157l-25 -140h191q88 0 140.5 -48.5zM534.5 110.5q42.5 36.5 42.5 100.5q0 55 -29.5 84t-85.5 29h-195l-44 -250h199
q70 0 112.5 36.5z" />
    <glyph glyph-name="uni0472" unicode="&#x472;" horiz-adv-x="770" 
d="M608 674q63 -40 96.5 -110.5t33.5 -159.5q0 -115 -48 -210.5t-136.5 -151.5t-205.5 -56q-85 0 -148 40t-97 110t-34 159q0 116 48 211.5t137 151.5t206 56q85 0 148 -40zM318 607.5q-60 -32.5 -99 -90t-54 -130.5q52 33 126 33q28 0 54 -8t69 -25q38 -16 63.5 -24
t51.5 -8q71 0 121 40v1q0 113 -52 178.5t-147 65.5q-73 0 -133 -32.5zM489 92.5q59 32.5 98.5 89.5t54.5 130q-52 -32 -125 -32q-28 0 -54 8t-69 25q-38 16 -63.5 24t-51.5 8q-71 0 -122 -41q0 -113 52.5 -178.5t147.5 -65.5q73 0 132 32.5z" />
    <glyph glyph-name="uni0474" unicode="&#x474;" horiz-adv-x="730" 
d="M99 700h87l113 -578l282 515q22 41 53.5 59t71.5 18q53 0 87 -37l-52 -72q-21 23 -45 23q-28 0 -48 -36l-331 -592h-73z" />
    <glyph glyph-name="uni0430" unicode="&#x430;" horiz-adv-x="598" 
d="M134.5 13q-43.5 27 -67.5 76.5t-24 114.5q0 85 33.5 153.5t94.5 107.5t141 39q54 0 93.5 -25t56.5 -65l13 76h82l-70 -397q-4 -23 -4 -44q0 -25 9 -49h-79q-10 20 -10 76q-26 -44 -70.5 -67t-99.5 -23t-98.5 27zM346.5 89.5q43.5 31.5 68 83.5t24.5 113q0 66 -34.5 106
t-93.5 40q-56 0 -97.5 -28.5t-64 -78t-22.5 -112.5q0 -75 33.5 -115t89.5 -40q53 0 96.5 31.5z" />
    <glyph glyph-name="uni0431" unicode="&#x431;" horiz-adv-x="570" 
d="M155 14q-44 28 -71 87t-27 146q0 201 84 323t252 122q38 0 81.5 6t64.5 16l-12 -69q-41 -22 -133 -22q-207 0 -256 -235q28 53 82.5 82.5t119.5 29.5q87 0 137.5 -59t50.5 -154q0 -85 -34.5 -153.5t-97.5 -108t-145 -39.5q-52 0 -96 28zM357 82.5q41 28.5 63.5 78.5
t22.5 113q0 71 -32 114.5t-90 43.5q-55 0 -97 -30t-65 -81.5t-23 -113.5q0 -69 34.5 -111t92.5 -42q53 0 94 28.5z" />
    <glyph glyph-name="uni0432" unicode="&#x432;" horiz-adv-x="546" 
d="M127 490h205q72 0 111.5 -31t39.5 -86q0 -41 -26 -71.5t-63 -41.5q71 -27 71 -108q0 -74 -55 -113t-140 -39h-229zM310 286q39 0 63.5 19t24.5 52q0 31 -19 48t-51 17h-131l-24 -136h137zM279 68q50 0 77 21.5t27 61.5q0 34 -20 52.5t-57 18.5h-144l-27 -154h144z" />
    <glyph glyph-name="uni0433" unicode="&#x433;" horiz-adv-x="465" 
d="M197 422l-74 -422h-82l86 490h332l-12 -68h-250z" />
    <glyph glyph-name="uni0453" unicode="&#x453;" horiz-adv-x="465" 
d="M197 422l-74 -422h-82l86 490h332l-12 -68h-250zM345 700h92l-106 -136h-70z" />
    <glyph glyph-name="uni0491" unicode="&#x491;" horiz-adv-x="465" 
d="M127 490h250l16 88h82l-28 -156h-250l-74 -422h-82z" />
    <glyph glyph-name="uni0434" unicode="&#x434;" horiz-adv-x="586" 
d="M7 72h60q52 119 74 247l30 171h360l-74 -418h60l-30 -172h-82l18 100h-346l-18 -100h-82zM375 72l61 346h-196l-17 -99q-12 -71 -29.5 -129.5t-44.5 -117.5h226z" />
    <glyph glyph-name="uni0435" unicode="&#x435;" horiz-adv-x="553" 
d="M125 231v-13q0 -75 34 -119.5t93 -44.5q53 0 87 21t64 66l59 -38q-72 -117 -217 -117q-61 0 -107 28.5t-70.5 79t-24.5 115.5q0 81 34 148.5t98.5 107t149.5 39.5q57 0 100 -24t66.5 -65.5t23.5 -93.5q0 -44 -18 -90h-372zM200.5 398q-47.5 -39 -65.5 -104h304q1 7 1 20
q0 56 -34.5 89.5t-91.5 33.5q-66 0 -113.5 -39z" />
    <glyph glyph-name="uni0450" unicode="&#x450;" horiz-adv-x="553" 
d="M125 231v-13q0 -75 34 -119.5t93 -44.5q53 0 87 21t64 66l59 -38q-72 -117 -217 -117q-61 0 -107 28.5t-70.5 79t-24.5 115.5q0 81 34 148.5t98.5 107t149.5 39.5q57 0 100 -24t66.5 -65.5t23.5 -93.5q0 -44 -18 -90h-372zM200.5 398q-47.5 -39 -65.5 -104h304q1 7 1 20
q0 56 -34.5 89.5t-91.5 33.5q-66 0 -113.5 -39zM243 700h88l43 -136h-62z" />
    <glyph glyph-name="uni0451" unicode="&#x451;" horiz-adv-x="553" 
d="M125 231v-13q0 -75 34 -119.5t93 -44.5q53 0 87 21t64 66l59 -38q-72 -117 -217 -117q-61 0 -107 28.5t-70.5 79t-24.5 115.5q0 81 34 148.5t98.5 107t149.5 39.5q57 0 100 -24t66.5 -65.5t23.5 -93.5q0 -44 -18 -90h-372zM200.5 398q-47.5 -39 -65.5 -104h304q1 7 1 20
q0 56 -34.5 89.5t-91.5 33.5q-66 0 -113.5 -39zM235 667h94l-14 -80h-94zM393 667h94l-14 -80h-94z" />
    <glyph glyph-name="uni0436" unicode="&#x436;" horiz-adv-x="722" 
d="M722 491l-26 -67q-15 12 -38 12q-20 0 -34.5 -16.5t-24.5 -54.5q-11 -43 -26 -63t-37 -30q20 -7 30.5 -21t20.5 -48l41 -149q9 -34 29 -54h-83q-15 13 -20 33l-43 154q-7 24 -19 32t-38 8h-55l-40 -227h-82l40 227h-56q-27 0 -43 -9t-29 -31l-93 -154q-14 -24 -27 -33
h-90q15 13 24 24.5t20 29.5l89 149q21 35 40.5 51.5t45.5 21.5q-16 12 -24 32.5t-8 56.5q0 39 -9.5 55t-28.5 16q-20 0 -42 -12l-6 67q32 13 66 13q46 0 67.5 -26t21.5 -83t15 -78.5t47 -21.5h32l34 195h82l-34 -195h30q41 0 62 20.5t36 79.5t45 84t79 25q34 0 59 -13z" />
    <glyph glyph-name="uni0437" unicode="&#x437;" horiz-adv-x="475" 
d="M389.5 218.5q20.5 -27.5 20.5 -67.5q0 -80 -58.5 -122.5t-151.5 -42.5q-49 0 -88 18t-63 48.5t-29 66.5l68 33q9 -43 39 -68.5t79 -25.5q52 0 86 22.5t34 69.5q0 35 -24 55t-66 20h-36l12 66h30q48 0 76.5 19.5t28.5 56.5q0 30 -25.5 49.5t-65.5 19.5q-38 0 -67.5 -20.5
t-44.5 -59.5l-59 30q18 54 65.5 86t114.5 32q72 0 118 -35.5t46 -90.5q0 -45 -25.5 -77t-67.5 -42q33 -13 53.5 -40.5z" />
    <glyph glyph-name="uni0438" unicode="&#x438;" horiz-adv-x="601" 
d="M127 490h80l-63 -360l338 360h78l-86 -490h-80l63 360l-338 -360h-78z" />
    <glyph glyph-name="uni0439" unicode="&#x439;" horiz-adv-x="601" 
d="M127 490h80l-63 -360l338 360h78l-86 -490h-80l63 360l-338 -360h-78zM297 589.5q-26 22.5 -26 58.5q0 11 2 21h58q-1 -5 -1 -16q0 -15 9.5 -24.5t27.5 -9.5q22 0 36 13.5t18 36.5h58q-18 -102 -119 -102q-37 0 -63 22.5z" />
    <glyph glyph-name="uni045D" unicode="&#x45d;" horiz-adv-x="601" 
d="M127 490h80l-63 -360l338 360h78l-86 -490h-80l63 360l-338 -360h-78zM257 700h88l43 -136h-62z" />
    <glyph glyph-name="uni043A" unicode="&#x43a;" horiz-adv-x="486" 
d="M421 0h-83q-15 13 -20 33l-43 154q-7 24 -19 32t-38 8h-55l-40 -227h-82l86 490h82l-34 -195h30q41 0 62 20.5t36 79.5t45 84t79 25q36 0 61 -13l-28 -67q-15 12 -38 12q-20 0 -34.5 -16.5t-24.5 -54.5q-11 -43 -26 -63t-37 -30q20 -7 30.5 -21t20.5 -48l41 -149
q9 -34 29 -54z" />
    <glyph glyph-name="uni045C" unicode="&#x45c;" horiz-adv-x="486" 
d="M421 0h-83q-15 13 -20 33l-43 154q-7 24 -19 32t-38 8h-55l-40 -227h-82l86 490h82l-34 -195h30q41 0 62 20.5t36 79.5t45 84t79 25q36 0 61 -13l-28 -67q-15 12 -38 12q-20 0 -34.5 -16.5t-24.5 -54.5q-11 -43 -26 -63t-37 -30q20 -7 30.5 -21t20.5 -48l41 -149
q9 -34 29 -54zM358 700h92l-106 -136h-70z" />
    <glyph glyph-name="uni043B" unicode="&#x43b;" horiz-adv-x="582" 
d="M-6 -6l12 70q16 -9 30 -9q19 0 35 16t24 52l92 367h354l-86 -490h-82l74 418h-196l-79 -315q-30 -117 -125 -117q-29 0 -53 8z" />
    <glyph glyph-name="uni043C" unicode="&#x43c;" horiz-adv-x="658" 
d="M127 490h70l103 -399l242 399h75l-86 -490h-76l55 313l-195 -313h-58l-85 313l-55 -313h-76z" />
    <glyph glyph-name="uni043D" unicode="&#x43d;" horiz-adv-x="588" 
d="M547 490l-86 -490h-82l38 217h-256l-38 -217h-82l86 490h82l-35 -201h256l35 201h82z" />
    <glyph glyph-name="uni043E" unicode="&#x43e;" horiz-adv-x="584" 
d="M139 15.5q-48 29.5 -72 80t-24 113.5q0 83 36.5 150.5t101.5 106t147 38.5q69 0 117 -29.5t72 -80t24 -113.5q0 -83 -36.5 -150.5t-101.5 -106t-147 -38.5q-69 0 -117 29.5zM362.5 87.5q43.5 29.5 69 79.5t25.5 107q0 76 -36 117t-103 41q-53 0 -96.5 -29.5t-69 -79.5
t-25.5 -107q0 -76 36 -117t103 -41q53 0 96.5 29.5z" />
    <glyph glyph-name="uni043F" unicode="&#x43f;" horiz-adv-x="588" 
d="M127 490h420l-86 -490h-82l74 418h-256l-74 -418h-82z" />
    <glyph glyph-name="uni0440" unicode="&#x440;" horiz-adv-x="599" 
d="M464.5 477q43.5 -27 67.5 -76.5t24 -114.5q0 -85 -33.5 -153.5t-94.5 -107.5t-141 -39q-54 0 -94 25.5t-57 64.5l-50 -286h-82l123 700h82l-13 -76q27 44 71 67t99 23t98.5 -27zM250 401.5q-43 -30.5 -67 -82t-24 -112.5q0 -66 36.5 -107.5t97.5 -41.5q83 0 131 61.5
t48 157.5q0 75 -32 115t-91 40q-56 0 -99 -30.5z" />
    <glyph glyph-name="uni0441" unicode="&#x441;" horiz-adv-x="538" 
d="M143 12.5q-47 26.5 -73.5 77t-26.5 118.5q0 83 35.5 150.5t101 106.5t153.5 39q69 0 116 -33.5t67 -86.5l-69 -37q-15 41 -48.5 63t-80.5 22q-59 0 -102 -28.5t-66 -78t-23 -111.5q0 -71 36 -113.5t97 -42.5q49 0 82 20.5t61 64.5l62 -43q-38 -57 -90 -85.5t-125 -28.5
q-60 0 -107 26.5z" />
    <glyph glyph-name="uni0442" unicode="&#x442;" horiz-adv-x="438" 
d="M449 418h-159l-73 -418h-82l73 418h-157l12 72h398z" />
    <glyph glyph-name="uni0443" unicode="&#x443;" horiz-adv-x="514" 
d="M535 490l-348 -618q-30 -54 -61 -75t-72 -21q-39 0 -65 14l26 78q18 -15 42 -15q40 0 63 42l56 102l-111 493h85l84 -388l212 388h89z" />
    <glyph glyph-name="uni045E" unicode="&#x45e;" horiz-adv-x="514" 
d="M535 490l-348 -618q-30 -54 -61 -75t-72 -21q-39 0 -65 14l26 78q18 -15 42 -15q40 0 63 42l56 102l-111 493h85l84 -388l212 388h89zM257 589.5q-26 22.5 -26 58.5q0 11 2 21h58q-1 -5 -1 -16q0 -15 9.5 -24.5t27.5 -9.5q22 0 36 13.5t18 36.5h58q-18 -102 -119 -102
q-37 0 -63 22.5z" />
    <glyph glyph-name="uni0444" unicode="&#x444;" horiz-adv-x="664" 
d="M540.5 72.5q-79.5 -74.5 -212.5 -84.5l-35 -198h-82l35 199q-91 12 -146.5 74.5t-55.5 152.5q0 127 79.5 201.5t212.5 84.5l35 198h82l-35 -199q91 -12 146.5 -74.5t55.5 -152.5q0 -127 -79.5 -201.5zM163 113q35 -41 96 -52l64 369q-91 -11 -143 -67t-52 -143
q0 -66 35 -107zM484 127q52 56 52 143q0 66 -35 107t-96 52l-64 -369q91 11 143 67z" />
    <glyph glyph-name="uni0445" unicode="&#x445;" horiz-adv-x="472" 
d="M281 251l124 -251h-89l-88 186l-150 -186h-97l211 251l-118 239h88l86 -175l145 175h90z" />
    <glyph glyph-name="uni0447" unicode="&#x447;" horiz-adv-x="560" 
d="M386 197q-30 -26 -65 -38.5t-87 -12.5q-64 0 -106 38t-42 105q0 24 4 47l27 154h82l-27 -154q-3 -19 -3 -36q0 -40 24 -61t68 -21q73 0 138 55l38 217h82l-86 -490h-82z" />
    <glyph glyph-name="uni0446" unicode="&#x446;" horiz-adv-x="601" 
d="M439 0h-398l86 490h82l-74 -418h256l74 418h82l-74 -418h60l-30 -172h-82z" />
    <glyph glyph-name="uni0448" unicode="&#x448;" horiz-adv-x="806" 
d="M127 490h82l-74 -418h196l74 418h82l-74 -418h196l74 418h82l-86 -490h-638z" />
    <glyph glyph-name="uni0449" unicode="&#x449;" horiz-adv-x="822" 
d="M660 0h-616l86 490h82l-74 -418h196l74 418h82l-74 -418h196l74 418h82l-74 -418h60l-30 -172h-82z" />
    <glyph glyph-name="uni045F" unicode="&#x45f;" horiz-adv-x="588" 
d="M461 0h-170l-17 -100h-82l18 100h-169l86 490h82l-74 -418h256l74 418h82z" />
    <glyph glyph-name="uni044C" unicode="&#x44c;" horiz-adv-x="546" 
d="M127 490h82l-35 -201h142q71 0 110.5 -34.5t39.5 -98.5q0 -74 -53.5 -115t-146.5 -41h-225zM279 68q49 0 76 21t27 62q0 35 -20 52.5t-57 17.5h-143l-27 -153h144z" />
    <glyph glyph-name="uni044A" unicode="&#x44a;" horiz-adv-x="598" 
d="M478.5 254.5q39.5 -34.5 39.5 -98.5q0 -74 -53.5 -115t-146.5 -41h-225l75 426h-123l11 64h205l-35 -201h142q71 0 110.5 -34.5zM407 89q27 21 27 62q0 35 -20 52.5t-57 17.5h-143l-27 -153h144q49 0 76 21z" />
    <glyph glyph-name="uni044B" unicode="&#x44b;" horiz-adv-x="796" 
d="M127 490h82l-35 -201h142q71 0 110.5 -34.5t39.5 -98.5q0 -74 -53.5 -115t-146.5 -41h-225zM279 68q49 0 76 21t27 62q0 35 -20 52.5t-57 17.5h-143l-27 -153h144zM673 490h82l-86 -490h-82z" />
    <glyph glyph-name="uni0459" unicode="&#x459;" horiz-adv-x="878" 
d="M-6 -6l12 70q16 -9 30 -9q19 0 35 16t24 52l92 367h354l-35 -201h142q71 0 110.5 -34.5t39.5 -98.5q0 -74 -53.5 -115t-146.5 -41h-225l73 418h-195l-79 -315q-30 -117 -125 -117q-29 0 -53 8zM611 68q49 0 76 21t27 62q0 35 -20 52.5t-57 17.5h-143l-27 -153h144z" />
    <glyph glyph-name="uni045A" unicode="&#x45a;" horiz-adv-x="884" 
d="M127 490h82l-35 -201h256l35 201h82l-35 -201h142q71 0 110.5 -34.5t39.5 -98.5q0 -74 -53.5 -115t-146.5 -41h-225l38 217h-256l-38 -217h-82zM617 68q49 0 76 20.5t27 60.5q0 68 -77 68h-143l-27 -149h144z" />
    <glyph glyph-name="uni0455" unicode="&#x455;" horiz-adv-x="434" 
d="M80 8q-41 22 -65 55l47 70q18 -35 50 -56t67 -21q48 0 75 22t27 58q0 33 -19.5 52t-68.5 36q-51 17 -80.5 51.5t-29.5 82.5q0 71 53 108.5t133 37.5q42 0 78 -14.5t58 -36.5l-40 -67q-45 48 -107 48q-40 0 -67.5 -18t-27.5 -51q0 -28 21.5 -48t66.5 -35q114 -39 114 -140
q0 -72 -52.5 -114t-139.5 -42q-52 0 -93 22z" />
    <glyph glyph-name="uni0454" unicode="&#x454;" horiz-adv-x="538" 
d="M343 75.5q33 17.5 59 57.5l62 -43q-39 -52 -90.5 -78t-123.5 -26q-60 0 -107 26.5t-73.5 77t-26.5 118.5q0 83 35.5 150.5t101 106.5t153.5 39q126 0 176 -105l-66 -41q-17 39 -47 56.5t-78 17.5q-72 0 -120 -41.5t-64 -111.5h266l-12 -68h-261q1 -70 37 -111.5t96 -41.5
q50 0 83 17.5z" />
    <glyph glyph-name="uni044D" unicode="&#x44d;" horiz-adv-x="538" 
d="M195 414.5q-33 -17.5 -59 -57.5l-62 43q39 52 90.5 78t123.5 26q60 0 107 -26.5t73.5 -77t26.5 -118.5q0 -83 -35.5 -150.5t-101 -106.5t-153.5 -39q-126 0 -176 105l66 41q17 -39 47 -56.5t78 -17.5q72 0 120 41.5t64 111.5h-266l12 68h261q-1 70 -37 111.5t-96 41.5
q-50 0 -83 -17.5z" />
    <glyph glyph-name="uni0456" unicode="&#x456;" horiz-adv-x="250" 
d="M142 657h110l-15 -86h-110zM127 490h82l-86 -490h-82z" />
    <glyph glyph-name="uni0457" unicode="&#x457;" horiz-adv-x="250" 
d="M127 490h82l-86 -490h-82zM73 667h94l-14 -80h-94zM231 667h94l-14 -80h-94z" />
    <glyph glyph-name="uni0458" unicode="&#x458;" horiz-adv-x="250" 
d="M142 657h110l-15 -86h-110zM-118 -207l32 70q18 -15 48 -15q27 0 42.5 16t21.5 51l101 575h82l-103 -583q-12 -67 -46.5 -99t-98.5 -32q-43 0 -79 17z" />
    <glyph glyph-name="uni045B" unicode="&#x45b;" horiz-adv-x="583" 
d="M165 700h82l-52 -291q32 46 79.5 70.5t100.5 24.5q68 0 104.5 -36t36.5 -102q0 -25 -5 -53l-55 -313h-82l55 313q3 18 3 31q0 88 -92 88q-37 0 -73 -22t-63 -64t-37 -99l-44 -247h-82zM401 634l-12 -64h-330l12 64h330z" />
    <glyph glyph-name="uni044E" unicode="&#x44e;" horiz-adv-x="835" 
d="M696 474.5q48 -29.5 72 -80t24 -113.5q0 -83 -36.5 -150.5t-101.5 -106t-147 -38.5q-69 0 -117 29.5t-72 80t-24 113.5v8h-133l-38 -217h-82l86 490h82l-35 -201h130q24 96 98.5 155.5t176.5 59.5q69 0 117 -29.5zM613.5 87.5q43.5 29.5 69 79.5t25.5 107q0 76 -36 117
t-103 41q-53 0 -96.5 -29.5t-69 -79.5t-25.5 -107q0 -76 36 -117t103 -41q53 0 96.5 29.5z" />
    <glyph glyph-name="uni044F" unicode="&#x44f;" horiz-adv-x="533" 
d="M42 50l62 122q12 24 26.5 37.5t34.5 18.5q-32 11 -54.5 42.5t-22.5 68.5q0 73 49.5 112t130.5 39h224l-86 -490h-82l36 206h-106q-29 0 -44 -11t-29 -37l-59 -115q-14 -29 -32 -43h-86q23 21 38 50zM372 272l27 152h-135q-48 0 -73.5 -21.5t-25.5 -59.5q0 -33 21.5 -52
t52.5 -19h133z" />
    <glyph glyph-name="uni0452" unicode="&#x452;" horiz-adv-x="583" 
d="M215 -207l32 70q18 -15 48 -15q27 0 42.5 16t21.5 51l70 398q3 18 3 31q0 88 -92 88q-37 0 -73 -22t-63 -64t-37 -99l-44 -247h-82l101 570h-83l12 64h82l12 66h82l-12 -66h166l-12 -64h-165l-29 -161q32 46 79.5 70.5t100.5 24.5q68 0 104.5 -36t36.5 -102q0 -25 -5 -53
l-72 -406q-12 -67 -46.5 -99t-98.5 -32q-43 0 -79 17z" />
    <glyph glyph-name="uni0463" unicode="&#x463;" horiz-adv-x="598" 
d="M478.5 254.5q39.5 -34.5 39.5 -98.5q0 -74 -53.5 -115t-146.5 -41h-225l73 418h-102l13 72h102l37 210h82l-37 -210h204l-13 -72h-203l-23 -129h142q71 0 110.5 -34.5zM407 89q27 21 27 62q0 35 -20 52.5t-57 17.5h-143l-27 -153h144q49 0 76 21z" />
    <glyph glyph-name="uni0473" unicode="&#x473;" horiz-adv-x="584" 
d="M445 474.5q48 -29.5 72 -80t24 -113.5q0 -83 -36.5 -150.5t-101.5 -106t-147 -38.5q-69 0 -117 29.5t-72 80t-24 113.5q0 83 36.5 150.5t101.5 106t147 38.5q69 0 117 -29.5zM207.5 392q-48.5 -40 -69.5 -103q33 20 72 20q23 0 43.5 -7.5t50.5 -23.5q28 -14 45 -21t36 -7
q38 0 72 23v1q0 76 -36 117t-103 41q-62 0 -110.5 -40zM376.5 98q48.5 40 69.5 103q-33 -20 -72 -20q-23 0 -43.5 7.5t-50.5 23.5q-28 14 -45 21t-36 7q-38 0 -72 -23v-1q0 -76 36 -117t103 -41q62 0 110.5 40z" />
    <glyph glyph-name="uni0475" unicode="&#x475;" horiz-adv-x="560" 
d="M63 490h85l82 -380l171 308q24 44 55.5 65t73.5 21q41 0 64 -19l-34 -66q-14 13 -34 13q-16 0 -27.5 -10t-25.5 -35l-223 -387h-74z" />
    <glyph glyph-name="uni0458.alt" horiz-adv-x="250" 
d="M142 657h110l-15 -86h-110zM-102 -214l14 77q22 -15 51 -15q26 0 41.5 16t21.5 51l101 575h82l-103 -583q-12 -67 -46.5 -99t-98.5 -32q-37 0 -63 10z" />
    <glyph glyph-name="uni0475.alt" horiz-adv-x="560" 
d="M63 490h85l82 -380l171 308q24 44 55.5 65t73.5 21q29 0 51 -12l-13 -72q-20 12 -42 12q-16 0 -27.5 -10t-25.5 -35l-223 -387h-74z" />
    <glyph glyph-name="Alpha" unicode="&#x391;" horiz-adv-x="648" 
d="M464 172h-297l-94 -172h-93l388 700h74l140 -700h-85zM449 246l-63 327l-179 -327h242z" />
    <glyph glyph-name="Beta" unicode="&#x392;" horiz-adv-x="646" 
d="M174 700h257q90 0 139 -45.5t49 -117.5q0 -65 -34 -107t-86 -62q43 -21 67 -56.5t24 -95.5q0 -64 -32.5 -113t-90 -76t-130.5 -27h-287zM386 398q64 0 104 36t40 98q0 46 -28 70t-81 24h-174l-41 -228h180zM348 74q70 0 112.5 36t42.5 101q0 55 -29.5 84t-85.5 29h-195
l-44 -250h199z" />
    <glyph glyph-name="Gamma" unicode="&#x393;" horiz-adv-x="583" 
d="M605 626h-358l-111 -626h-86l124 700h444z" />
    <glyph glyph-name="uni0394" unicode="&#x394;" horiz-adv-x="648" 
d="M582 0h-602l388 700h74zM483 74l-97 499l-273 -499h370z" />
    <glyph glyph-name="Epsilon" unicode="&#x395;" horiz-adv-x="581" 
d="M247 626l-40 -227h269l-13 -74h-269l-45 -251h358l-13 -74h-444l124 700h444l-13 -74h-358z" />
    <glyph glyph-name="Zeta" unicode="&#x396;" horiz-adv-x="592" 
d="M9 64l496 562h-385l13 74h492l-12 -64l-496 -562h409l-13 -74h-516z" />
    <glyph glyph-name="Eta" unicode="&#x397;" horiz-adv-x="712" 
d="M699 700l-124 -700h-86l58 325h-353l-58 -325h-86l124 700h86l-53 -301h353l53 301h86z" />
    <glyph glyph-name="Theta" unicode="&#x398;" horiz-adv-x="770" 
d="M200 26q-63 40 -97 110t-34 159q0 116 48 211.5t137 151.5t206 56q85 0 148 -40t96.5 -110.5t33.5 -159.5q0 -115 -48 -210.5t-136.5 -151.5t-205.5 -56q-85 0 -148 40zM510 105q67 45 103.5 121.5t36.5 169.5q0 113 -52 178.5t-147 65.5q-86 0 -153 -45t-104 -122
t-37 -169q0 -113 52.5 -178.5t147.5 -65.5q86 0 153 45zM282 387h256l-13 -74h-256z" />
    <glyph glyph-name="Iota" unicode="&#x399;" horiz-adv-x="273" 
d="M174 700h86l-124 -700h-86z" />
    <glyph glyph-name="Kappa" unicode="&#x39a;" horiz-adv-x="606" 
d="M341 421l211 -421h-89l-184 364l-94 -88l-49 -276h-86l124 700h86l-55 -310l330 310h108z" />
    <glyph glyph-name="Lambda" unicode="&#x39b;" horiz-adv-x="648" 
d="M368 700h74l140 -700h-85l-111 573l-313 -573h-93z" />
    <glyph glyph-name="Mu" unicode="&#x39c;" horiz-adv-x="864" 
d="M174 700h78l162 -539l349 539h88l-124 -700h-84l91 516l-301 -459h-66l-142 459l-91 -516h-84z" />
    <glyph glyph-name="Nu" unicode="&#x39d;" horiz-adv-x="742" 
d="M174 700h75l297 -560l99 560h84l-124 -700h-75l-297 560l-99 -560h-84z" />
    <glyph glyph-name="Xi" unicode="&#x39e;" horiz-adv-x="581" 
d="M123 700h495l-13 -74h-495zM160 399h317l-13 -74h-317zM13 74h495l-13 -74h-495z" />
    <glyph glyph-name="Omicron" unicode="&#x39f;" horiz-adv-x="770" 
d="M200 26q-63 40 -97 110t-34 159q0 116 48 211.5t137 151.5t206 56q85 0 148 -40t96.5 -110.5t33.5 -159.5q0 -115 -48 -210.5t-136.5 -151.5t-205.5 -56q-85 0 -148 40zM510 105q67 45 103.5 121.5t36.5 169.5q0 113 -52 178.5t-147 65.5q-86 0 -153 -45t-104 -122
t-37 -169q0 -113 52.5 -178.5t147.5 -65.5q86 0 153 45z" />
    <glyph glyph-name="Pi" unicode="&#x3a0;" horiz-adv-x="712" 
d="M576 0h-86l110 626h-353l-111 -626h-86l124 700h525z" />
    <glyph glyph-name="Rho" unicode="&#x3a1;" horiz-adv-x="624" 
d="M174 700h265q90 0 141 -49t51 -133q0 -68 -31.5 -119t-90.5 -79t-139 -28h-182l-52 -292h-86zM383 364q76 0 120 40t44 112q0 53 -30.5 82.5t-89.5 29.5h-180l-47 -264h183z" />
    <glyph glyph-name="Sigma" unicode="&#x3a3;" horiz-adv-x="584" 
d="M17 64l254 292l-154 280l12 64h492l-13 -74h-390l146 -278l-237 -274h383l-13 -74h-492z" />
    <glyph glyph-name="Tau" unicode="&#x3a4;" horiz-adv-x="553" 
d="M592 626h-206l-111 -626h-86l111 626h-205l13 74h497z" />
    <glyph glyph-name="Upsilon" unicode="&#x3a5;" horiz-adv-x="580" 
d="M251 270l-153 430h92l116 -343l236 343h100l-305 -430l-48 -270h-86z" />
    <glyph glyph-name="Phi" unicode="&#x3a6;" horiz-adv-x="834" 
d="M672.5 629q60.5 -34 94 -97t33.5 -148q0 -104 -48 -183t-133.5 -121.5t-194.5 -42.5h-1l-14 -77h-86l14 77q-78 0 -138.5 34t-94 97t-33.5 148q0 104 48 183t133.5 121.5t194.5 42.5l14 77h86l-14 -77h1q78 0 138.5 -34zM350 111l84 478h-7q-82 0 -143 -34.5t-94 -96
t-33 -140.5q0 -94 49 -150.5t137 -56.5h7zM587 145.5q61 34.5 94 96t33 140.5q0 94 -49 150.5t-137 56.5h-8l-84 -478h8q82 0 143 34.5z" />
    <glyph glyph-name="Chi" unicode="&#x3a7;" horiz-adv-x="609" 
d="M370 368l166 -368h-90l-131 296l-225 -296h-103l292 370l-150 330h90l116 -259l199 259h96z" />
    <glyph glyph-name="Psi" unicode="&#x3a8;" horiz-adv-x="746" 
d="M743 700l-36 -205q-24 -139 -98 -208.5t-200 -78.5l-37 -208h-86l37 208q-92 11 -146 67t-55 149q0 41 7 83l34 193h86l-36 -200q-6 -37 -6 -69q0 -66 33.5 -102.5t95.5 -45.5l74 417h86l-74 -417q80 11 131 65.5t68 151.5l36 200h86z" />
    <glyph glyph-name="uni03A9" unicode="&#x3a9;" horiz-adv-x="770" 
d="M49 74h147q-47 46 -81.5 122t-34.5 157q0 108 45 189.5t129.5 126.5t200.5 45q86 0 152 -34.5t102 -96.5t36 -142q0 -110 -59.5 -203.5t-157.5 -163.5h135l-13 -74h-228l16 88q96 62 156.5 151.5t60.5 195.5q0 60 -26 106.5t-74.5 72.5t-112.5 26q-89 0 -151.5 -38.5
t-93.5 -105.5t-31 -150q0 -80 32 -147.5t82 -110.5l-16 -88h-228z" />
    <glyph glyph-name="Alphatonos" unicode="&#x386;" horiz-adv-x="648" 
d="M464 172h-297l-94 -172h-93l388 700h74l140 -700h-85zM449 246l-63 327l-179 -327h242zM178 700h94l-82 -136h-72z" />
    <glyph glyph-name="Epsilontonos" unicode="&#x388;" horiz-adv-x="581" 
d="M247 626l-40 -227h269l-13 -74h-269l-45 -251h358l-13 -74h-444l124 700h444l-13 -74h-358zM34 700h94l-82 -136h-72z" />
    <glyph glyph-name="Etatonos" unicode="&#x389;" horiz-adv-x="712" 
d="M699 700l-124 -700h-86l58 325h-353l-58 -325h-86l124 700h86l-53 -301h353l53 301h86zM34 700h94l-82 -136h-72z" />
    <glyph glyph-name="Iotatonos" unicode="&#x38a;" horiz-adv-x="273" 
d="M174 700h86l-124 -700h-86zM34 700h94l-82 -136h-72z" />
    <glyph glyph-name="Omicrontonos" unicode="&#x38c;" horiz-adv-x="770" 
d="M200 26q-63 40 -97 110t-34 159q0 116 48 211.5t137 151.5t206 56q85 0 148 -40t96.5 -110.5t33.5 -159.5q0 -115 -48 -210.5t-136.5 -151.5t-205.5 -56q-85 0 -148 40zM510 105q67 45 103.5 121.5t36.5 169.5q0 113 -52 178.5t-147 65.5q-86 0 -153 -45t-104 -122
t-37 -169q0 -113 52.5 -178.5t147.5 -65.5q86 0 153 45zM54 700h94l-82 -136h-72z" />
    <glyph glyph-name="Upsilontonos" unicode="&#x38e;" horiz-adv-x="580" 
d="M251 270l-153 430h92l116 -343l236 343h100l-305 -430l-48 -270h-86zM-42 700h94l-82 -136h-72z" />
    <glyph glyph-name="Omegatonos" unicode="&#x38f;" horiz-adv-x="770" 
d="M49 74h147q-47 46 -81.5 122t-34.5 157q0 108 45 189.5t129.5 126.5t200.5 45q86 0 152 -34.5t102 -96.5t36 -142q0 -110 -59.5 -203.5t-157.5 -163.5h135l-13 -74h-228l16 88q96 62 156.5 151.5t60.5 195.5q0 60 -26 106.5t-74.5 72.5t-112.5 26q-89 0 -151.5 -38.5
t-93.5 -105.5t-31 -150q0 -80 32 -147.5t82 -110.5l-16 -88h-228zM41 700h94l-82 -136h-72z" />
    <glyph glyph-name="Iotadieresis" unicode="&#x3aa;" horiz-adv-x="273" 
d="M174 700h86l-124 -700h-86zM122 877h94l-14 -80h-94zM280 877h94l-14 -80h-94z" />
    <glyph glyph-name="Upsilondieresis" unicode="&#x3ab;" horiz-adv-x="580" 
d="M251 270l-153 430h92l116 -343l236 343h100l-305 -430l-48 -270h-86zM275 877h94l-14 -80h-94zM433 877h94l-14 -80h-94z" />
    <glyph glyph-name="alpha" unicode="&#x3b1;" horiz-adv-x="606" 
d="M134.5 13q-43.5 27 -67.5 76.5t-24 114.5q0 85 33.5 153.5t94.5 107.5t141 39q54 0 93.5 -25t56.5 -65l13 76h82l-69 -394q-1 -4 -1 -10q0 -13 7 -20.5t20 -7.5q20 0 43 13l-12 -71q-14 -8 -27 -11t-32 -3q-33 0 -54 22t-21 60q0 8 1 15q-30 -48 -75.5 -72.5
t-103.5 -24.5q-55 0 -98.5 27zM346 90.5q43 32.5 68 85t25 110.5q0 66 -34.5 106t-93.5 40q-56 0 -97.5 -28.5t-64 -78t-22.5 -112.5q0 -75 33.5 -115t89.5 -40q53 0 96 32.5z" />
    <glyph glyph-name="beta" unicode="&#x3b2;" horiz-adv-x="552" 
d="M132 518q17 100 75.5 148t150.5 48q76 0 120.5 -42t44.5 -114q0 -63 -32.5 -106.5t-86.5 -61.5q49 -20 78 -65t29 -109q0 -65 -28.5 -117.5t-81.5 -82.5t-124 -30q-48 0 -88 21.5t-55 55.5l-48 -273h-82zM388 98q42 40 42 111q0 68 -34 106.5t-97 38.5h-38l13 72h44
q59 0 93 31.5t34 86.5q0 46 -27 72t-71 26q-51 0 -86.5 -32t-46.5 -94l-53 -298q-3 -19 -3 -39q0 -57 35 -89t83 -32q70 0 112 40z" />
    <glyph glyph-name="gamma" unicode="&#x3b3;" horiz-adv-x="510" 
d="M253 5l-38 -215h-82l40 225l-110 475h85l82 -380l211 380h92z" />
    <glyph glyph-name="delta" unicode="&#x3b4;" horiz-adv-x="552" 
d="M136 12.5q-45 26.5 -70.5 74t-25.5 109.5q0 67 28 123t79.5 91t118.5 40q-42 18 -71.5 50t-29.5 79q0 69 55.5 102t140.5 33q110 0 171 -63l-48 -56q-30 27 -59.5 39t-71.5 12q-47 0 -78 -17t-31 -51q0 -32 31.5 -56t101.5 -58q58 -28 93 -80.5t35 -130.5
q0 -75 -33.5 -136t-94 -96t-139.5 -35q-57 0 -102 26.5zM339.5 80.5q39.5 26.5 60.5 70t21 94.5q0 71 -34 109t-93 38q-82 0 -126 -56t-44 -139q0 -65 33.5 -104t88.5 -39q54 0 93.5 26.5z" />
    <glyph glyph-name="epsilon" unicode="&#x3b5;" horiz-adv-x="475" 
d="M106.5 306.5q-16.5 24.5 -16.5 56.5q0 70 51 105.5t138 35.5q63 0 105 -32.5t56 -85.5l-69 -30q-9 36 -36 58t-66 22q-44 0 -71.5 -20.5t-27.5 -55.5q0 -33 23.5 -51t58.5 -18h27l-12 -66h-36q-54 0 -86 -24t-32 -63q0 -38 25.5 -59t67.5 -21q47 0 83.5 26t58.5 72
l63 -37q-33 -66 -83 -99.5t-133 -33.5q-48 0 -86 19t-59.5 52t-21.5 73q0 56 33 92t87 47q-25 13 -41.5 37.5z" />
    <glyph glyph-name="zeta" unicode="&#x3b6;" horiz-adv-x="488" 
d="M377 2q34 -33 34 -83q0 -46 -20 -80.5t-54 -62.5l-59 42q27 25 38.5 44t11.5 44q0 30 -25 49t-84 39q-70 23 -119.5 85t-49.5 151q0 123 85.5 220.5t220.5 177.5h-244l12 72h397l-10 -62q-159 -69 -268 -172t-109 -225q0 -71 35 -111.5t103 -66.5q71 -28 105 -61z" />
    <glyph glyph-name="eta" unicode="&#x3b7;" horiz-adv-x="579" 
d="M425 314q3 17 3 32q0 44 -24 65t-66 21q-35 0 -69.5 -20t-61 -59.5t-36.5 -95.5l-45 -257h-82l69 393l1 14q0 25 -27 25q-19 0 -43 -12l12 70q32 14 60 14q40 0 62.5 -17.5t22.5 -52.5q0 -6 -2 -20l-2 -11q28 49 73 75t101 26q66 0 103 -39t37 -108q0 -23 -4 -43
l-92 -524h-82z" />
    <glyph glyph-name="theta" unicode="&#x3b8;" horiz-adv-x="584" 
d="M519 640q48 -74 48 -208q0 -116 -38 -218.5t-109.5 -165t-167.5 -62.5q-92 0 -145 76t-53 206q0 116 38 218.5t109.5 165t167.5 62.5q102 0 150 -74zM267 607.5q-42 -34.5 -72.5 -93t-44.5 -128.5h331q2 28 2 41q0 111 -29.5 163t-97.5 52q-47 0 -89 -34.5zM354 92.5
q42 34.5 72.5 93t44.5 128.5h-331q-2 -28 -2 -41q0 -111 29.5 -163t97.5 -52q47 0 89 34.5z" />
    <glyph glyph-name="iota" unicode="&#x3b9;" horiz-adv-x="257" 
d="M76 11.5q-19 18.5 -20 53.5q0 16 3 35l68 390h82l-68 -388q-2 -12 -2 -20q0 -9 5.5 -14t15.5 -5q13 0 28 6l-12 -66q-12 -6 -23.5 -8t-29.5 -2q-28 0 -47 18.5z" />
    <glyph glyph-name="kappa" unicode="&#x3ba;" horiz-adv-x="509" 
d="M295 301l150 -301h-87l-127 248l-75 -62l-33 -186h-82l87 490h82l-35 -196l240 196h107z" />
    <glyph glyph-name="lambda" unicode="&#x3bb;" horiz-adv-x="569" 
d="M461 63q20 0 43 13v-76q-26 -14 -63 -14q-84 0 -104 102l-54 289l-210 -377h-94l282 495l-19 100q-8 44 -46 44q-21 0 -48 -15v76q31 14 67 14q44 0 67 -22t33 -74l100 -513q8 -42 46 -42z" />
    <glyph glyph-name="uni03BC" unicode="&#x3bc;" horiz-adv-x="576" 
d="M128 490h82l-56 -314q-3 -16 -3 -31q0 -42 22.5 -64.5t67.5 -22.5q35 0 70 20t61 59.5t36 95.5l45 257h82l-86 -490h-82l15 87q-27 -48 -72.5 -74.5t-97.5 -26.5q-27 0 -51 9t-34 24l-41 -229h-82z" />
    <glyph glyph-name="nu" unicode="&#x3bd;" horiz-adv-x="500" 
d="M63 490h85l85 -392l89 119q51 68 69.5 129t18.5 144h83q0 -93 -25.5 -164.5t-92.5 -159.5l-127 -166h-72z" />
    <glyph glyph-name="xi" unicode="&#x3be;" horiz-adv-x="488" 
d="M267 -179q27 27 38.5 46.5t11.5 45.5q0 28 -26 47t-82 34q-77 21 -122.5 74t-45.5 126q0 78 43 129.5t119 74.5q-33 21 -53 53.5t-20 77.5q0 85 60 135t167 50q69 0 115.5 -31.5t66.5 -86.5l-67 -44q-13 41 -47.5 65.5t-79.5 24.5q-58 0 -94.5 -30.5t-36.5 -87.5
q0 -44 31.5 -74.5t78.5 -30.5h35l-13 -72h-50q-80 0 -124.5 -41t-44.5 -104q0 -55 33.5 -86.5t101.5 -52.5q72 -22 105 -52.5t33 -82.5q0 -49 -19 -83.5t-55 -68.5z" />
    <glyph glyph-name="omicron" unicode="&#x3bf;" horiz-adv-x="584" 
d="M139 15.5q-48 29.5 -72 80t-24 113.5q0 83 36.5 150.5t101.5 106t147 38.5q69 0 117 -29.5t72 -80t24 -113.5q0 -83 -36.5 -150.5t-101.5 -106t-147 -38.5q-69 0 -117 29.5zM362.5 87.5q43.5 29.5 69 79.5t25.5 107q0 76 -36 117t-103 41q-53 0 -96.5 -29.5t-69 -79.5
t-25.5 -107q0 -76 36 -117t103 -41q53 0 96.5 29.5z" />
    <glyph glyph-name="pi" unicode="&#x3c0;" horiz-adv-x="626" 
d="M420 12.5q-26 26.5 -27 73.5q0 17 3 36l52 296h-204l-74 -418h-82l74 418h-103l12 72h573l-12 -72h-102l-53 -299q-2 -10 -2 -19q0 -20 12.5 -31t32.5 -11q27 0 51 15l-13 -72q-29 -15 -68 -15q-44 0 -70 26.5z" />
    <glyph glyph-name="rho" unicode="&#x3c1;" horiz-adv-x="589" 
d="M73 237q22 126 89.5 196.5t177.5 70.5q95 0 150.5 -60t55.5 -158q0 -85 -33.5 -153.5t-94.5 -107.5t-141 -39q-54 0 -94 25.5t-57 64.5l-50 -286h-82zM414 119q48 61 48 157q0 76 -34.5 116t-100.5 40q-50 0 -90.5 -30.5t-64 -82t-23.5 -112.5q0 -66 36.5 -107.5
t97.5 -41.5q83 0 131 61z" />
    <glyph glyph-name="uni03C2" unicode="&#x3c2;" horiz-adv-x="538" 
d="M274 -181q27 28 39 47.5t12 45.5q0 27 -22 42.5t-85 42.5q-172 73 -172 233q0 78 34 140.5t98 98t152 35.5q68 0 117 -34t69 -86l-69 -37q-15 41 -48.5 63t-80.5 22q-88 0 -138 -55.5t-50 -143.5q0 -68 34 -104.5t105 -65.5q72 -30 105.5 -61t33.5 -80q0 -79 -74 -146z
" />
    <glyph glyph-name="sigma" unicode="&#x3c3;" horiz-adv-x="581" 
d="M140 13q-47 27 -73 76t-26 112q0 83 37 149t103 103t149 37h281l-12 -72h-128q27 -22 43.5 -62.5t16.5 -89.5q0 -84 -37 -148t-101.5 -98t-143.5 -34q-62 0 -109 27zM354 84.5q44 26.5 68.5 74t24.5 107.5q0 70 -35 111t-94 41q-57 0 -101 -28.5t-68 -78.5t-24 -110
q0 -67 35 -105t94 -38q56 0 100 26.5z" />
    <glyph glyph-name="tau" unicode="&#x3c4;" horiz-adv-x="427" 
d="M182.5 16.5q-29.5 30.5 -29.5 84.5q0 17 3 38l49 279h-146l12 72h374l-12 -72h-145l-50 -282q-2 -13 -2 -26q0 -26 14 -39t39 -13q29 0 62 15v-71q-20 -9 -40 -12.5t-50 -3.5q-49 0 -78.5 30.5z" />
    <glyph glyph-name="upsilon" unicode="&#x3c5;" horiz-adv-x="558" 
d="M163.5 6q-40.5 20 -65 59t-25.5 95q0 21 5 53l49 277h82l-51 -292q-3 -21 -3 -38q1 -49 30.5 -75.5t77.5 -26.5q69 0 111.5 54.5t42.5 155.5q0 69 -10.5 120t-31.5 102h84q23 -52 32.5 -99.5t9.5 -122.5q0 -86 -30 -150t-86.5 -98t-132.5 -34q-48 0 -88.5 20z" />
    <glyph glyph-name="phi" unicode="&#x3c6;" horiz-adv-x="664" 
d="M584 132q-36 -62 -102 -99.5t-154 -44.5l-23 -128h-82l23 129q-60 8 -106 39.5t-71 80.5t-25 107q0 80 36 142t102 99.5t154 44.5l23 128h82l-23 -129q60 -8 106 -39.5t71 -80.5t25 -107q0 -80 -36 -142zM163 115q35 -43 96 -53l65 368q-92 -10 -144 -64t-52 -144
q0 -64 35 -107zM484 124q52 54 52 144q0 64 -35 107t-96 53l-65 -368q92 10 144 64z" />
    <glyph glyph-name="chi" unicode="&#x3c7;" horiz-adv-x="525" 
d="M389 -147q18 0 41 13v-76q-26 -14 -65 -14q-36 0 -58.5 22t-34.5 74l-44 182l-184 -264h-95l255 361l-57 234q-11 42 -46 42q-21 0 -44 -13v76q31 14 65 14q44 0 65 -21t32 -66l44 -182l181 255h88l-245 -352l59 -243q9 -42 43 -42z" />
    <glyph glyph-name="psi" unicode="&#x3c8;" horiz-adv-x="686" 
d="M561 80q-75 -80 -210 -80l-37 -211h-82l37 211q-53 0 -95.5 24t-67.5 68t-25 102q0 29 4 54l42 242h82l-43 -246q-4 -27 -4 -52q0 -59 33.5 -89.5t86.5 -30.5l98 558h82l-98 -558q93 0 140.5 67t47.5 172q0 54 -6.5 94.5t-19.5 84.5h85q13 -49 19 -82.5t6 -96.5
q0 -151 -75 -231z" />
    <glyph glyph-name="omega" unicode="&#x3c9;" horiz-adv-x="734" 
d="M78.5 43q-39.5 57 -39.5 144q0 81 36.5 161.5t92.5 141.5h88q-63 -81 -98 -157t-35 -151q0 -60 22 -92t62 -32q41 0 70 32t39 92l24 138h82l-24 -138q-3 -19 -3 -36q0 -42 19.5 -65t54.5 -23q63 0 100 61t37 159q0 51 -10.5 107t-29.5 105h88q17 -50 26 -99t9 -112
q0 -84 -26.5 -150.5t-76 -104.5t-116.5 -38q-48 0 -83.5 25t-46.5 69q-45 -94 -151 -94q-71 0 -110.5 57z" />
    <glyph glyph-name="iotatonos" unicode="&#x3af;" horiz-adv-x="257" 
d="M76 11.5q-19 18.5 -20 53.5q0 16 3 35l68 390h82l-68 -388q-2 -12 -2 -20q0 -9 5.5 -14t15.5 -5q13 0 28 6l-12 -66q-12 -6 -23.5 -8t-29.5 -2q-28 0 -47 18.5zM208 700h94l-82 -136h-72z" />
    <glyph glyph-name="iotadieresis" unicode="&#x3ca;" horiz-adv-x="257" 
d="M76 11.5q-19 18.5 -20 53.5q0 16 3 35l68 390h82l-68 -388q-2 -12 -2 -20q0 -9 5.5 -14t15.5 -5q13 0 28 6l-12 -66q-12 -6 -23.5 -8t-29.5 -2q-28 0 -47 18.5zM74 667h94l-14 -80h-94zM232 667h94l-14 -80h-94z" />
    <glyph glyph-name="iotadieresistonos" unicode="&#x390;" horiz-adv-x="257" 
d="M76 11.5q-19 18.5 -20 53.5q0 16 3 35l68 390h82l-68 -388q-2 -12 -2 -20q0 -9 5.5 -14t15.5 -5q13 0 28 6l-12 -66q-12 -6 -23.5 -8t-29.5 -2q-28 0 -47 18.5zM181 695h94l-82 -136h-72zM24 667h94l-14 -80h-94zM282 667h94l-14 -80h-94z" />
    <glyph glyph-name="upsilontonos" unicode="&#x3cd;" horiz-adv-x="558" 
d="M163.5 6q-40.5 20 -65 59t-25.5 95q0 21 5 53l49 277h82l-51 -292q-3 -21 -3 -38q1 -49 30.5 -75.5t77.5 -26.5q69 0 111.5 54.5t42.5 155.5q0 69 -10.5 120t-31.5 102h84q23 -52 32.5 -99.5t9.5 -122.5q0 -86 -30 -150t-86.5 -98t-132.5 -34q-48 0 -88.5 20zM347 700h94
l-82 -136h-72z" />
    <glyph glyph-name="upsilondieresis" unicode="&#x3cb;" horiz-adv-x="558" 
d="M163.5 6q-40.5 20 -65 59t-25.5 95q0 21 5 53l49 277h82l-51 -292q-3 -21 -3 -38q1 -49 30.5 -75.5t77.5 -26.5q69 0 111.5 54.5t42.5 155.5q0 69 -10.5 120t-31.5 102h84q23 -52 32.5 -99.5t9.5 -122.5q0 -86 -30 -150t-86.5 -98t-132.5 -34q-48 0 -88.5 20zM213 667h94
l-14 -80h-94zM371 667h94l-14 -80h-94z" />
    <glyph glyph-name="upsilondieresistonos" unicode="&#x3b0;" horiz-adv-x="558" 
d="M163.5 6q-40.5 20 -65 59t-25.5 95q0 21 5 53l49 277h82l-51 -292q-3 -21 -3 -38q1 -49 30.5 -75.5t77.5 -26.5q69 0 111.5 54.5t42.5 155.5q0 69 -10.5 120t-31.5 102h84q23 -52 32.5 -99.5t9.5 -122.5q0 -86 -30 -150t-86.5 -98t-132.5 -34q-48 0 -88.5 20zM320 695h94
l-82 -136h-72zM163 667h94l-14 -80h-94zM421 667h94l-14 -80h-94z" />
    <glyph glyph-name="omicrontonos" unicode="&#x3cc;" horiz-adv-x="584" 
d="M139 15.5q-48 29.5 -72 80t-24 113.5q0 83 36.5 150.5t101.5 106t147 38.5q69 0 117 -29.5t72 -80t24 -113.5q0 -83 -36.5 -150.5t-101.5 -106t-147 -38.5q-69 0 -117 29.5zM362.5 87.5q43.5 29.5 69 79.5t25.5 107q0 76 -36 117t-103 41q-53 0 -96.5 -29.5t-69 -79.5
t-25.5 -107q0 -76 36 -117t103 -41q53 0 96.5 29.5zM370 700h94l-82 -136h-72z" />
    <glyph glyph-name="omegatonos" unicode="&#x3ce;" horiz-adv-x="734" 
d="M78.5 43q-39.5 57 -39.5 144q0 81 36.5 161.5t92.5 141.5h88q-63 -81 -98 -157t-35 -151q0 -60 22 -92t62 -32q41 0 70 32t39 92l24 138h82l-24 -138q-3 -19 -3 -36q0 -42 19.5 -65t54.5 -23q63 0 100 61t37 159q0 51 -10.5 107t-29.5 105h88q17 -50 26 -99t9 -112
q0 -84 -26.5 -150.5t-76 -104.5t-116.5 -38q-48 0 -83.5 25t-46.5 69q-45 -94 -151 -94q-71 0 -110.5 57zM448 700h94l-82 -136h-72z" />
    <glyph glyph-name="alphatonos" unicode="&#x3ac;" horiz-adv-x="606" 
d="M134.5 13q-43.5 27 -67.5 76.5t-24 114.5q0 85 33.5 153.5t94.5 107.5t141 39q54 0 93.5 -25t56.5 -65l13 76h82l-69 -394q-1 -4 -1 -10q0 -13 7 -20.5t20 -7.5q20 0 43 13l-12 -71q-14 -8 -27 -11t-32 -3q-33 0 -54 22t-21 60q0 8 1 15q-30 -48 -75.5 -72.5
t-103.5 -24.5q-55 0 -98.5 27zM346 90.5q43 32.5 68 85t25 110.5q0 66 -34.5 106t-93.5 40q-56 0 -97.5 -28.5t-64 -78t-22.5 -112.5q0 -75 33.5 -115t89.5 -40q53 0 96 32.5zM383 700h94l-82 -136h-72z" />
    <glyph glyph-name="epsilontonos" unicode="&#x3ad;" horiz-adv-x="475" 
d="M106.5 306.5q-16.5 24.5 -16.5 56.5q0 70 51 105.5t138 35.5q63 0 105 -32.5t56 -85.5l-69 -30q-9 36 -36 58t-66 22q-44 0 -71.5 -20.5t-27.5 -55.5q0 -33 23.5 -51t58.5 -18h27l-12 -66h-36q-54 0 -86 -24t-32 -63q0 -38 25.5 -59t67.5 -21q47 0 83.5 26t58.5 72
l63 -37q-33 -66 -83 -99.5t-133 -33.5q-48 0 -86 19t-59.5 52t-21.5 73q0 56 33 92t87 47q-25 13 -41.5 37.5zM319 700h94l-82 -136h-72z" />
    <glyph glyph-name="etatonos" unicode="&#x3ae;" horiz-adv-x="579" 
d="M425 314q3 17 3 32q0 44 -24 65t-66 21q-35 0 -69.5 -20t-61 -59.5t-36.5 -95.5l-45 -257h-82l69 393l1 14q0 25 -27 25q-19 0 -43 -12l12 70q32 14 60 14q40 0 62.5 -17.5t22.5 -52.5q0 -6 -2 -20l-2 -11q28 49 73 75t101 26q66 0 103 -39t37 -108q0 -23 -4 -43
l-92 -524h-82zM387 700h94l-82 -136h-72z" />
    <glyph glyph-name="lambda.alt" horiz-adv-x="569" 
d="M483 66.5q11 3.5 25 9.5l-14 -80q-15 -6 -25 -8t-28 -2q-84 0 -104 102l-54 289l-210 -377h-94l282 495l-19 100q-8 44 -46 44q-21 0 -48 -15v76q31 14 67 14q44 0 67 -22t33 -74l100 -513q8 -42 47 -42q10 0 21 3.5z" />
    <glyph glyph-name="tau.alt" horiz-adv-x="427" 
d="M182.5 16.5q-29.5 30.5 -29.5 84.5q0 17 3 38l49 279h-146l12 72h374l-12 -72h-145l-50 -282q-2 -13 -2 -26q0 -26 14 -39t39 -13q34 0 69 19l-14 -77q-20 -8 -37 -11t-46 -3q-49 0 -78.5 30.5z" />
    <glyph glyph-name="zero" unicode="0" horiz-adv-x="646" 
d="M114.5 61q-56.5 75 -56.5 209q0 113 43.5 215t123 165.5t181.5 63.5q107 0 163 -75t56 -209q0 -113 -43.5 -215t-123 -165.5t-181.5 -63.5q-106 0 -162.5 75zM421 116q56 54 86 138.5t30 170.5q0 100 -35.5 156.5t-108.5 56.5q-75 0 -131 -54t-86 -138.5t-30 -170.5
q0 -100 35.5 -156.5t108.5 -56.5q75 0 131 54z" />
    <glyph glyph-name="one" unicode="1" horiz-adv-x="326" 
d="M200 539h-105l13 70h33q40 0 57.5 14.5t26.5 57.5l4 19h84l-124 -700h-84z" />
    <glyph glyph-name="two" unicode="2" horiz-adv-x="526" 
d="M26 67l303 287q56 53 79.5 90t23.5 90q0 50 -33.5 77t-86.5 27t-91 -33.5t-57 -98.5l-64 38q20 79 79 124.5t148 45.5q87 0 140 -46t53 -121q0 -50 -17.5 -91.5t-48.5 -78t-82 -84.5l-231 -217h311l-13 -76h-425z" />
    <glyph glyph-name="three" unicode="3" horiz-adv-x="564" 
d="M102.5 28.5q-56.5 42.5 -74.5 102.5l69 51q16 -54 53.5 -87t97.5 -33q76 0 120 45.5t44 121.5q0 65 -32.5 100.5t-86.5 35.5q-19 0 -38.5 -5.5t-33.5 -13.5l-40 60l230 218h-271l13 76h391l-12 -65l-220 -197q7 1 19 1q44 0 83.5 -25t63 -70t23.5 -103q0 -72 -32 -130
t-91.5 -91.5t-140.5 -33.5q-78 0 -134.5 42.5z" />
    <glyph glyph-name="four" unicode="4" horiz-adv-x="559" 
d="M323 151h-308l12 68l401 481h76l-84 -473h110l-13 -76h-110l-27 -151h-84zM336 227l57 321l-263 -321h206z" />
    <glyph glyph-name="five" unicode="5" horiz-adv-x="573" 
d="M102 20q-52 34 -78 88l63 51q21 -45 59 -71.5t94 -26.5q55 0 97 24t65.5 66t23.5 96q0 69 -35.5 106.5t-93.5 37.5q-47 0 -87.5 -27t-63.5 -69l-69 19l111 386h350l-13 -75h-281l-66 -222q24 27 60 44t84 17q52 0 95 -24t69 -71t26 -112q0 -77 -34.5 -139t-98.5 -97
t-149 -35q-76 0 -128 34z" />
    <glyph glyph-name="six" unicode="6" horiz-adv-x="601" 
d="M114 57q-56 71 -56 206q0 110 38.5 214t116 170.5t187.5 66.5q74 0 125 -37t69 -98l-71 -35q-14 47 -48 70.5t-85 23.5q-94 0 -157 -72.5t-86 -204.5q28 47 83 78t119 31q92 0 147.5 -56t55.5 -153q0 -80 -38 -142.5t-102 -97.5t-139 -35q-103 0 -159 71zM375.5 88
q41.5 26 65 70t23.5 96q0 66 -36 103.5t-95 37.5q-55 0 -97 -24.5t-65 -67.5t-23 -97q0 -67 36.5 -105.5t97.5 -38.5q52 0 93.5 26z" />
    <glyph glyph-name="seven" unicode="7" horiz-adv-x="512" 
d="M456 624h-362l14 76h453l-12 -68l-359 -632h-88z" />
    <glyph glyph-name="eight" unicode="8" horiz-adv-x="578" 
d="M143 9q-47 23 -74.5 64.5t-27.5 94.5q0 76 41 127t116 76q-32 21 -54 55t-22 78q0 101 68 155.5t176 54.5q59 0 102.5 -21.5t66.5 -59.5t23 -85q0 -65 -39.5 -116t-95.5 -69q95 -43 95 -149q0 -68 -35.5 -120t-97 -80t-138.5 -28q-57 0 -104 23zM398.5 417.5
q36.5 17.5 57.5 49t21 70.5q0 49 -31.5 78t-89.5 29q-70 0 -113.5 -37.5t-43.5 -104.5q0 -45 32.5 -73.5t85.5 -28.5q45 0 81.5 17.5zM387 100q49 42 49 111q0 56 -35.5 87.5t-96.5 31.5q-79 0 -129.5 -41t-50.5 -117q0 -51 37.5 -82.5t98.5 -31.5q78 0 127 42z" />
    <glyph glyph-name="nine" unicode="9" horiz-adv-x="601" 
d="M524.5 643q55.5 -71 55.5 -206q0 -113 -38.5 -216.5t-116 -169t-187.5 -65.5q-74 0 -125 37t-69 98l71 35q15 -46 49 -70t84 -24q94 0 159 74.5t88 205.5q-27 -50 -83.5 -81t-122.5 -31q-92 0 -147.5 56t-55.5 153q0 80 37 142.5t101 97.5t140 35q105 0 160.5 -71z
M261.5 612.5q-41.5 -25.5 -64.5 -69t-23 -97.5q0 -66 36 -103.5t95 -37.5q55 0 96.5 24.5t64.5 67.5t23 97q0 67 -36.5 105.5t-97.5 38.5q-52 0 -93.5 -25.5z" />
    <glyph glyph-name="zero.tf" horiz-adv-x="600" 
d="M91.5 61q-56.5 75 -56.5 209q0 113 43.5 215t123 165.5t181.5 63.5q107 0 163 -75t56 -209q0 -113 -43.5 -215t-123 -165.5t-181.5 -63.5q-106 0 -162.5 75zM398 116q56 54 86 138.5t30 170.5q0 100 -35.5 156.5t-108.5 56.5q-75 0 -131 -54t-86 -138.5t-30 -170.5
q0 -100 35.5 -156.5t108.5 -56.5q75 0 131 54z" />
    <glyph glyph-name="one.tf" horiz-adv-x="600" 
d="M458 76l-14 -76h-376l14 76h145l82 463h-105l13 70h33q40 0 57.5 14.5t26.5 57.5l4 19h84l-111 -624h147z" />
    <glyph glyph-name="two.tf" horiz-adv-x="600" 
d="M61 67l303 287q56 53 79.5 90t23.5 90q0 50 -33.5 77t-86.5 27t-91 -33.5t-57 -98.5l-64 38q20 79 79 124.5t148 45.5q87 0 140 -46t53 -121q0 -50 -17.5 -91.5t-48.5 -78t-82 -84.5l-231 -217h311l-13 -76h-425z" />
    <glyph glyph-name="three.tf" horiz-adv-x="600" 
d="M125.5 28.5q-56.5 42.5 -74.5 102.5l69 51q16 -54 53.5 -87t97.5 -33q76 0 120 45.5t44 121.5q0 65 -32.5 100.5t-86.5 35.5q-19 0 -38.5 -5.5t-33.5 -13.5l-40 60l230 218h-271l13 76h391l-12 -65l-220 -197q7 1 19 1q44 0 83.5 -25t63 -70t23.5 -103q0 -72 -32 -130
t-91.5 -91.5t-140.5 -33.5q-78 0 -134.5 42.5z" />
    <glyph glyph-name="four.tf" horiz-adv-x="600" 
d="M340 151h-308l12 68l401 481h76l-84 -473h110l-13 -76h-110l-27 -151h-84zM353 227l57 321l-263 -321h206z" />
    <glyph glyph-name="five.tf" horiz-adv-x="600" 
d="M120 20q-52 34 -78 88l63 51q21 -45 59 -71.5t94 -26.5q55 0 97 24t65.5 66t23.5 96q0 69 -35.5 106.5t-93.5 37.5q-47 0 -87.5 -27t-63.5 -69l-69 19l111 386h350l-13 -75h-281l-66 -222q24 27 60 44t84 17q52 0 95 -24t69 -71t26 -112q0 -77 -34.5 -139t-98.5 -97
t-149 -35q-76 0 -128 34z" />
    <glyph glyph-name="six.tf" horiz-adv-x="600" 
d="M114 57q-56 71 -56 206q0 110 38.5 214t116 170.5t187.5 66.5q74 0 125 -37t69 -98l-71 -35q-14 47 -48 70.5t-85 23.5q-94 0 -157 -72.5t-86 -204.5q28 47 83 78t119 31q92 0 147.5 -56t55.5 -153q0 -80 -38 -142.5t-102 -97.5t-139 -35q-103 0 -159 71zM375.5 88
q41.5 26 65 70t23.5 96q0 66 -36 103.5t-95 37.5q-55 0 -97 -24.5t-65 -67.5t-23 -97q0 -67 36.5 -105.5t97.5 -38.5q52 0 93.5 26z" />
    <glyph glyph-name="seven.tf" horiz-adv-x="600" 
d="M502 624h-362l14 76h453l-12 -68l-359 -632h-88z" />
    <glyph glyph-name="eight.tf" horiz-adv-x="600" 
d="M154 9q-47 23 -74.5 64.5t-27.5 94.5q0 76 41 127t116 76q-32 21 -54 55t-22 78q0 101 68 155.5t176 54.5q59 0 102.5 -21.5t66.5 -59.5t23 -85q0 -65 -39.5 -116t-95.5 -69q95 -43 95 -149q0 -68 -35.5 -120t-97 -80t-138.5 -28q-57 0 -104 23zM409.5 417.5
q36.5 17.5 57.5 49t21 70.5q0 49 -31.5 78t-89.5 29q-70 0 -113.5 -37.5t-43.5 -104.5q0 -45 32.5 -73.5t85.5 -28.5q45 0 81.5 17.5zM398 100q49 42 49 111q0 56 -35.5 87.5t-96.5 31.5q-79 0 -129.5 -41t-50.5 -117q0 -51 37.5 -82.5t98.5 -31.5q78 0 127 42z" />
    <glyph glyph-name="nine.tf" horiz-adv-x="600" 
d="M522.5 643q55.5 -71 55.5 -206q0 -113 -38.5 -216.5t-116 -169t-187.5 -65.5q-74 0 -125 37t-69 98l71 35q15 -46 49 -70t84 -24q94 0 159 74.5t88 205.5q-27 -50 -83.5 -81t-122.5 -31q-92 0 -147.5 56t-55.5 153q0 80 37 142.5t101 97.5t140 35q105 0 160.5 -71z
M259.5 612.5q-41.5 -25.5 -64.5 -69t-23 -97.5q0 -66 36 -103.5t95 -37.5q55 0 96.5 24.5t64.5 67.5t23 97q0 67 -36.5 105.5t-97.5 38.5q-52 0 -93.5 -25.5z" />
    <glyph glyph-name="zero.tf.zero" horiz-adv-x="600" 
d="M546 639q56 -75 56 -209q0 -113 -43.5 -215t-123 -165.5t-181.5 -63.5q-106 0 -162.5 75t-56.5 209q0 113 43.5 215t123 165.5t181.5 63.5q107 0 163 -75zM239 584q-56 -54 -86 -138.5t-30 -170.5q0 -87 26 -139l288 486q-30 16 -67 16q-75 0 -131 -54zM398 116
q56 54 86 138.5t30 170.5q0 88 -26 140l-288 -486q28 -17 67 -17q75 0 131 54z" />
    <glyph glyph-name="zero.zero" horiz-adv-x="646" 
d="M569 639q56 -75 56 -209q0 -113 -43.5 -215t-123 -165.5t-181.5 -63.5q-106 0 -162.5 75t-56.5 209q0 113 43.5 215t123 165.5t181.5 63.5q107 0 163 -75zM262 584q-56 -54 -86 -138.5t-30 -170.5q0 -87 26 -139l288 486q-30 16 -67 16q-75 0 -131 -54zM421 116
q56 54 86 138.5t30 170.5q0 88 -26 140l-288 -486q28 -17 67 -17q75 0 131 54z" />
    <glyph glyph-name="uni2080" unicode="&#x2080;" horiz-adv-x="366" 
d="M13 -177.5q-34 39.5 -34 103.5q0 62 23.5 116t66 86.5t96.5 32.5q58 0 92 -39.5t34 -103.5q0 -62 -23.5 -116t-66 -86.5t-96.5 -32.5q-58 0 -92 39.5zM173 -140.5q27 25.5 41 67t14 87.5q0 96 -69 96q-35 0 -62 -25.5t-41 -67t-14 -87.5q0 -96 69 -96q35 0 62 25.5z" />
    <glyph glyph-name="uni2081" unicode="&#x2081;" horiz-adv-x="188" 
d="M52 62h-60l8 46h23q22 0 30.5 6.5t12.5 27.5l2 12h57l-64 -364h-57z" />
    <glyph glyph-name="uni2082" unicode="&#x2082;" horiz-adv-x="300" 
d="M-35 -165l153 139q29 26 39.5 45t10.5 43q0 22 -14.5 35.5t-39.5 13.5q-50 0 -70 -63l-44 24q25 89 124 89q49 0 76.5 -25.5t27.5 -69.5q0 -40 -17 -66.5t-54 -59.5l-110 -99h153l-9 -51h-234z" />
    <glyph glyph-name="uni2083" unicode="&#x2083;" horiz-adv-x="324" 
d="M6.5 -196.5q-30.5 20.5 -44.5 51.5l46 32q9 -25 29.5 -39.5t49.5 -14.5q37 0 59 20t22 55q0 28 -16 45t-44 17q-20 0 -33 -8l-30 43l113 98h-135l9 51h217l-8 -41l-110 -94q4 1 9 1q36 0 62 -30t26 -76q0 -60 -42 -95.5t-105 -35.5q-44 0 -74.5 20.5z" />
    <glyph glyph-name="uni2084" unicode="&#x2084;" horiz-adv-x="325" 
d="M122 -138h-165l8 46l212 246h52l-42 -241h57l-9 -51h-57l-13 -72h-56zM131 -87l25 141l-123 -141h98z" />
    <glyph glyph-name="uni2085" unicode="&#x2085;" horiz-adv-x="330" 
d="M6.5 -199q-31.5 18 -46.5 46l46 35q11 -21 31 -34.5t48 -13.5q42 0 65 24t23 62q0 29 -17.5 45.5t-42.5 16.5q-24 0 -43 -11t-31 -29l-45 20l52 192h200l-9 -51h-148l-31 -100q28 28 75 28q45 0 73.5 -28t28.5 -78q0 -64 -44 -103t-112 -39q-41 0 -72.5 18z" />
    <glyph glyph-name="uni2086" unicode="&#x2086;" horiz-adv-x="345" 
d="M12 -178.5q-33 38.5 -33 109.5q0 59 22.5 112t65 85.5t100.5 32.5q45 0 74 -22t37 -59l-51 -23q-4 25 -22 39t-44 14q-44 0 -76 -32.5t-41 -91.5q13 20 41 34t58 14q51 0 82 -29t31 -79q0 -69 -43.5 -106t-108.5 -37q-59 0 -92 38.5zM171 -142q24 24 24 60q0 30 -18 47.5
t-48 17.5q-38 0 -62.5 -24t-24.5 -60q0 -31 19.5 -48t48.5 -17q37 0 61 24z" />
    <glyph glyph-name="uni2087" unicode="&#x2087;" horiz-adv-x="284" 
d="M176 102h-187l9 52h252l-9 -48l-188 -316h-62z" />
    <glyph glyph-name="uni2088" unicode="&#x2088;" horiz-adv-x="322" 
d="M-1 -190.5q-33 26.5 -33 70.5q0 38 22 64.5t60 38.5q-17 10 -28.5 28.5t-11.5 40.5q0 49 37 79t98 30q50 0 79 -26.5t29 -67.5q0 -65 -68 -86q22 -10 35.5 -31t13.5 -48q0 -56 -40.5 -87.5t-109.5 -31.5q-50 0 -83 26.5zM173.5 19.5q22.5 16.5 22.5 42.5q0 23 -16 37.5
t-44 14.5q-35 0 -55.5 -16t-20.5 -45q0 -22 16 -36t42 -14q33 0 55.5 16.5zM150 -149q24 18 24 48q0 26 -17.5 41t-46.5 15q-40 0 -63 -18.5t-23 -52.5q0 -23 18 -37t46 -14q38 0 62 18z" />
    <glyph glyph-name="uni2089" unicode="&#x2089;" horiz-adv-x="345" 
d="M8.5 -195q-29.5 22 -37.5 59l51 23q7 -25 23.5 -39t42.5 -14q44 0 76 32.5t41 91.5q-13 -21 -40 -34.5t-57 -13.5q-50 0 -82.5 30.5t-32.5 80.5q0 66 42.5 103t108.5 37q60 0 93 -38.5t33 -109.5q0 -59 -22.5 -112t-65 -85.5t-100.5 -32.5q-44 0 -73.5 22zM182.5 -15
q24.5 24 24.5 60q0 31 -19.5 48t-48.5 17q-36 0 -60.5 -23t-24.5 -61q0 -30 18 -47.5t48 -17.5q38 0 62.5 24z" />
    <glyph glyph-name="uni2070" unicode="&#x2070;" horiz-adv-x="366" 
d="M109 368.5q-34 39.5 -34 103.5q0 62 23.5 116t66 86.5t96.5 32.5q58 0 92 -39.5t34 -103.5q0 -62 -23.5 -116t-66 -86.5t-96.5 -32.5q-58 0 -92 39.5zM269 405.5q27 25.5 41 67t14 87.5q0 96 -69 96q-35 0 -62 -25.5t-41 -67t-14 -87.5q0 -96 69 -96q35 0 62 25.5z" />
    <glyph glyph-name="uni00B9" unicode="&#xb9;" horiz-adv-x="188" 
d="M148 608h-60l8 46h23q22 0 30.5 6.5t12.5 27.5l2 12h57l-64 -364h-57z" />
    <glyph glyph-name="uni00B2" unicode="&#xb2;" horiz-adv-x="300" 
d="M61 381l153 139q29 26 39.5 45t10.5 43q0 22 -14.5 35.5t-39.5 13.5q-50 0 -70 -63l-44 24q25 89 124 89q49 0 76.5 -25.5t27.5 -69.5q0 -40 -17 -66.5t-54 -59.5l-110 -99h153l-9 -51h-234z" />
    <glyph glyph-name="uni00B3" unicode="&#xb3;" horiz-adv-x="324" 
d="M102.5 349.5q-30.5 20.5 -44.5 51.5l46 32q9 -25 29.5 -39.5t49.5 -14.5q37 0 59 20t22 55q0 28 -16 45t-44 17q-20 0 -33 -8l-30 43l113 98h-135l9 51h217l-8 -41l-110 -94q4 1 9 1q36 0 62 -30t26 -76q0 -60 -42 -95.5t-105 -35.5q-44 0 -74.5 20.5z" />
    <glyph glyph-name="uni2074" unicode="&#x2074;" horiz-adv-x="325" 
d="M218 408h-165l8 46l212 246h52l-42 -241h57l-9 -51h-57l-13 -72h-56zM227 459l25 141l-123 -141h98z" />
    <glyph glyph-name="uni2075" unicode="&#x2075;" horiz-adv-x="330" 
d="M102.5 347q-31.5 18 -46.5 46l46 35q11 -21 31 -34.5t48 -13.5q42 0 65 24t23 62q0 29 -17.5 45.5t-42.5 16.5q-24 0 -43 -11t-31 -29l-45 20l52 192h200l-9 -51h-148l-31 -100q28 28 75 28q45 0 73.5 -28t28.5 -78q0 -64 -44 -103t-112 -39q-41 0 -72.5 18z" />
    <glyph glyph-name="uni2076" unicode="&#x2076;" horiz-adv-x="345" 
d="M108 367.5q-33 38.5 -33 109.5q0 59 22.5 112t65 85.5t100.5 32.5q45 0 74 -22t37 -59l-51 -23q-4 25 -22 39t-44 14q-44 0 -76 -32.5t-41 -91.5q13 20 41 34t58 14q51 0 82 -29t31 -79q0 -69 -43.5 -106t-108.5 -37q-59 0 -92 38.5zM267 404q24 24 24 60q0 30 -18 47.5
t-48 17.5q-38 0 -62.5 -24t-24.5 -60q0 -31 19.5 -48t48.5 -17q37 0 61 24z" />
    <glyph glyph-name="uni2077" unicode="&#x2077;" horiz-adv-x="284" 
d="M272 648h-187l9 52h252l-9 -48l-188 -316h-62z" />
    <glyph glyph-name="uni2078" unicode="&#x2078;" horiz-adv-x="322" 
d="M95 355.5q-33 26.5 -33 70.5q0 38 22 64.5t60 38.5q-17 10 -28.5 28.5t-11.5 40.5q0 49 37 79t98 30q50 0 79 -26.5t29 -67.5q0 -65 -68 -86q22 -10 35.5 -31t13.5 -48q0 -56 -40.5 -87.5t-109.5 -31.5q-50 0 -83 26.5zM269.5 565.5q22.5 16.5 22.5 42.5q0 23 -16 37.5
t-44 14.5q-35 0 -55.5 -16t-20.5 -45q0 -22 16 -36t42 -14q33 0 55.5 16.5zM246 397q24 18 24 48q0 26 -17.5 41t-46.5 15q-40 0 -63 -18.5t-23 -52.5q0 -23 18 -37t46 -14q38 0 62 18z" />
    <glyph glyph-name="uni2079" unicode="&#x2079;" horiz-adv-x="345" 
d="M104.5 351q-29.5 22 -37.5 59l51 23q7 -25 23.5 -39t42.5 -14q44 0 76 32.5t41 91.5q-13 -21 -40 -34.5t-57 -13.5q-50 0 -82.5 30.5t-32.5 80.5q0 66 42.5 103t108.5 37q60 0 93 -38.5t33 -109.5q0 -59 -22.5 -112t-65 -85.5t-100.5 -32.5q-44 0 -73.5 22zM278.5 531
q24.5 24 24.5 60q0 31 -19.5 48t-48.5 17q-36 0 -60.5 -23t-24.5 -61q0 -30 18 -47.5t48 -17.5q38 0 62.5 24z" />
    <glyph glyph-name="fraction" unicode="&#x2044;" horiz-adv-x="525" 
d="M514 700h77l-543 -700h-77z" />
    <glyph glyph-name="onehalf" unicode="&#xbd;" horiz-adv-x="729" 
d="M148 608h-60l8 46h23q22 0 30.5 6.5t12.5 27.5l2 12h57l-64 -364h-57zM582 700h77l-543 -700h-77zM431 45l153 139q29 26 39.5 45t10.5 43q0 22 -14.5 35.5t-39.5 13.5q-50 0 -70 -63l-44 24q25 89 124 89q49 0 76.5 -25.5t27.5 -69.5q0 -40 -17 -66.5t-54 -59.5
l-110 -99h153l-9 -51h-234z" />
    <glyph glyph-name="uni2153" unicode="&#x2153;" horiz-adv-x="758" 
d="M148 608h-60l8 46h23q22 0 30.5 6.5t12.5 27.5l2 12h57l-64 -364h-57zM582 700h77l-543 -700h-77zM476.5 13.5q-30.5 20.5 -44.5 51.5l46 32q9 -25 29.5 -39.5t49.5 -14.5q37 0 59 20t22 55q0 28 -16 45t-44 17q-20 0 -33 -8l-30 43l113 98h-135l9 51h217l-8 -41
l-110 -94q4 1 9 1q36 0 62 -30t26 -76q0 -60 -42 -95.5t-105 -35.5q-44 0 -74.5 20.5z" />
    <glyph glyph-name="uni2154" unicode="&#x2154;" horiz-adv-x="838" 
d="M61 381l153 139q29 26 39.5 45t10.5 43q0 22 -14.5 35.5t-39.5 13.5q-50 0 -70 -63l-44 24q25 89 124 89q49 0 76.5 -25.5t27.5 -69.5q0 -40 -17 -66.5t-54 -59.5l-110 -99h153l-9 -51h-234zM662 700h77l-543 -700h-77zM556.5 13.5q-30.5 20.5 -44.5 51.5l46 32
q9 -25 29.5 -39.5t49.5 -14.5q37 0 59 20t22 55q0 28 -16 45t-44 17q-20 0 -33 -8l-30 43l113 98h-135l9 51h217l-8 -41l-110 -94q4 1 9 1q36 0 62 -30t26 -76q0 -60 -42 -95.5t-105 -35.5q-44 0 -74.5 20.5z" />
    <glyph glyph-name="onequarter" unicode="&#xbc;" horiz-adv-x="716" 
d="M148 608h-60l8 46h23q22 0 30.5 6.5t12.5 27.5l2 12h57l-64 -364h-57zM582 700h77l-543 -700h-77zM549 72h-165l8 46l212 246h52l-42 -241h57l-9 -51h-57l-13 -72h-56zM558 123l25 141l-123 -141h98z" />
    <glyph glyph-name="threequarters" unicode="&#xbe;" horiz-adv-x="796" 
d="M102.5 349.5q-30.5 20.5 -44.5 51.5l46 32q9 -25 29.5 -39.5t49.5 -14.5q37 0 59 20t22 55q0 28 -16 45t-44 17q-20 0 -33 -8l-30 43l113 98h-135l9 51h217l-8 -41l-110 -94q4 1 9 1q36 0 62 -30t26 -76q0 -60 -42 -95.5t-105 -35.5q-44 0 -74.5 20.5zM672 700h77
l-543 -700h-77zM629 72h-165l8 46l212 246h52l-42 -241h57l-9 -51h-57l-13 -72h-56zM638 123l25 141l-123 -141h98z" />
    <glyph glyph-name="oneeighth" unicode="&#x215b;" horiz-adv-x="751" 
d="M148 608h-60l8 46h23q22 0 30.5 6.5t12.5 27.5l2 12h57l-64 -364h-57zM582 700h77l-543 -700h-77zM464 19.5q-33 26.5 -33 70.5q0 38 22 64.5t60 38.5q-17 10 -28.5 28.5t-11.5 40.5q0 49 37 79t98 30q50 0 79 -26.5t29 -67.5q0 -65 -68 -86q22 -10 35.5 -31t13.5 -48
q0 -56 -40.5 -87.5t-109.5 -31.5q-50 0 -83 26.5zM638.5 229.5q22.5 16.5 22.5 42.5q0 23 -16 37.5t-44 14.5q-35 0 -55.5 -16t-20.5 -45q0 -22 16 -36t42 -14q33 0 55.5 16.5zM615 61q24 18 24 48q0 26 -17.5 41t-46.5 15q-40 0 -63 -18.5t-23 -52.5q0 -23 18 -37t46 -14
q38 0 62 18z" />
    <glyph glyph-name="threeeighths" unicode="&#x215c;" horiz-adv-x="831" 
d="M102.5 349.5q-30.5 20.5 -44.5 51.5l46 32q9 -25 29.5 -39.5t49.5 -14.5q37 0 59 20t22 55q0 28 -16 45t-44 17q-20 0 -33 -8l-30 43l113 98h-135l9 51h217l-8 -41l-110 -94q4 1 9 1q36 0 62 -30t26 -76q0 -60 -42 -95.5t-105 -35.5q-44 0 -74.5 20.5zM662 700h77
l-543 -700h-77zM544 19.5q-33 26.5 -33 70.5q0 38 22 64.5t60 38.5q-17 10 -28.5 28.5t-11.5 40.5q0 49 37 79t98 30q50 0 79 -26.5t29 -67.5q0 -65 -68 -86q22 -10 35.5 -31t13.5 -48q0 -56 -40.5 -87.5t-109.5 -31.5q-50 0 -83 26.5zM718.5 229.5q22.5 16.5 22.5 42.5
q0 23 -16 37.5t-44 14.5q-35 0 -55.5 -16t-20.5 -45q0 -22 16 -36t42 -14q33 0 55.5 16.5zM695 61q24 18 24 48q0 26 -17.5 41t-46.5 15q-40 0 -63 -18.5t-23 -52.5q0 -23 18 -37t46 -14q38 0 62 18z" />
    <glyph glyph-name="fiveeighths" unicode="&#x215d;" horiz-adv-x="831" 
d="M102.5 347q-31.5 18 -46.5 46l46 35q11 -21 31 -34.5t48 -13.5q42 0 65 24t23 62q0 29 -17.5 45.5t-42.5 16.5q-24 0 -43 -11t-31 -29l-45 20l52 192h200l-9 -51h-148l-31 -100q28 28 75 28q45 0 73.5 -28t28.5 -78q0 -64 -44 -103t-112 -39q-41 0 -72.5 18zM662 700h77
l-543 -700h-77zM544 19.5q-33 26.5 -33 70.5q0 38 22 64.5t60 38.5q-17 10 -28.5 28.5t-11.5 40.5q0 49 37 79t98 30q50 0 79 -26.5t29 -67.5q0 -65 -68 -86q22 -10 35.5 -31t13.5 -48q0 -56 -40.5 -87.5t-109.5 -31.5q-50 0 -83 26.5zM718.5 229.5q22.5 16.5 22.5 42.5
q0 23 -16 37.5t-44 14.5q-35 0 -55.5 -16t-20.5 -45q0 -22 16 -36t42 -14q33 0 55.5 16.5zM695 61q24 18 24 48q0 26 -17.5 41t-46.5 15q-40 0 -63 -18.5t-23 -52.5q0 -23 18 -37t46 -14q38 0 62 18z" />
    <glyph glyph-name="seveneighths" unicode="&#x215e;" horiz-adv-x="781" 
d="M272 648h-187l9 52h252l-9 -48l-188 -316h-62zM612 700h77l-543 -700h-77zM494 19.5q-33 26.5 -33 70.5q0 38 22 64.5t60 38.5q-17 10 -28.5 28.5t-11.5 40.5q0 49 37 79t98 30q50 0 79 -26.5t29 -67.5q0 -65 -68 -86q22 -10 35.5 -31t13.5 -48q0 -56 -40.5 -87.5
t-109.5 -31.5q-50 0 -83 26.5zM668.5 229.5q22.5 16.5 22.5 42.5q0 23 -16 37.5t-44 14.5q-35 0 -55.5 -16t-20.5 -45q0 -22 16 -36t42 -14q33 0 55.5 16.5zM645 61q24 18 24 48q0 26 -17.5 41t-46.5 15q-40 0 -63 -18.5t-23 -52.5q0 -23 18 -37t46 -14q38 0 62 18z" />
    <glyph glyph-name="uni2080.zero" horiz-adv-x="366" 
d="M257 121.5q34 -39.5 34 -103.5q0 -62 -23.5 -116t-66 -86.5t-96.5 -32.5q-58 0 -92 39.5t-34 103.5q0 62 23.5 116t66 86.5t96.5 32.5q58 0 92 -39.5zM97 84.5q-27 -25.5 -41 -67t-14 -87.5q0 -33 9 -56l129 233q-10 3 -21 3q-35 0 -62 -25.5zM173 -140.5q27 25.5 41 67
t14 87.5q0 34 -9 56l-129 -233q10 -3 21 -3q35 0 62 25.5z" />
    <glyph glyph-name="uni2070.zero" horiz-adv-x="366" 
d="M353 667.5q34 -39.5 34 -103.5q0 -62 -23.5 -116t-66 -86.5t-96.5 -32.5q-58 0 -92 39.5t-34 103.5q0 62 23.5 116t66 86.5t96.5 32.5q58 0 92 -39.5zM193 630.5q-27 -25.5 -41 -67t-14 -87.5q0 -33 9 -56l129 233q-10 3 -21 3q-35 0 -62 -25.5zM269 405.5q27 25.5 41 67
t14 87.5q0 34 -9 56l-129 -233q10 -3 21 -3q35 0 62 25.5z" />
    <glyph glyph-name="asterisk" unicode="*" horiz-adv-x="390" 
d="M219 493l-118 -80l-31 58l136 57l-116 57l43 58l98 -80l11 137h67l-38 -137l119 80l30 -58l-135 -57l115 -57l-43 -58l-98 80l-10 -137h-67z" />
    <glyph glyph-name="backslash" unicode="\" horiz-adv-x="429" 
d="M259 -60l-137 820h85l137 -820h-85z" />
    <glyph glyph-name="periodcentered" unicode="&#xb7;" horiz-adv-x="234" 
d="M88 393h110l-15 -86h-110z" />
    <glyph glyph-name="bullet" unicode="&#x2022;" horiz-adv-x="324" 
d="M100 380h172l-23 -128h-172z" />
    <glyph glyph-name="colon" unicode=":" horiz-adv-x="234" 
d="M34 86h110l-15 -86h-110zM105 490h110l-15 -86h-110z" />
    <glyph glyph-name="comma" unicode="," horiz-adv-x="234" 
d="M5 -96q34 16 51.5 37.5t24.5 58.5h-62l15 86h110l-15 -86q-10 -55 -38.5 -87t-75.5 -51z" />
    <glyph glyph-name="ellipsis" unicode="&#x2026;" horiz-adv-x="570" 
d="M34 86h110l-15 -86h-110zM202 86h110l-15 -86h-110zM370 86h110l-15 -86h-110z" />
    <glyph glyph-name="exclam" unicode="!" horiz-adv-x="234" 
d="M157 700h82l-94 -529h-82zM34 86h110l-15 -86h-110z" />
    <glyph glyph-name="exclamdown" unicode="&#xa1;" horiz-adv-x="234" 
d="M77 -210h-82l94 529h82zM200 404h-110l15 86h110z" />
    <glyph glyph-name="numbersign" unicode="#" horiz-adv-x="669" 
d="M523 436l-30 -172h129l-13 -69h-128l-35 -195h-72l35 195h-167l-35 -195h-72l35 195h-129l13 69h128l30 172h-129l13 69h128l35 195h72l-35 -195h167l35 195h72l-35 -195h129l-13 -69h-128zM451 436h-167l-30 -172h167z" />
    <glyph glyph-name="period" unicode="." horiz-adv-x="234" 
d="M34 86h110l-15 -86h-110z" />
    <glyph glyph-name="question" unicode="?" horiz-adv-x="459" 
d="M180 210q8 47 21.5 76.5t35.5 53t62 54.5q46 35 72.5 72t26.5 81q0 45 -31 70t-80 25q-55 0 -90.5 -28t-59.5 -83l-59 39q20 62 75.5 103t138.5 41q87 0 139.5 -42.5t52.5 -114.5q0 -48 -17 -84.5t-42 -62t-72 -64.5q-33 -28 -47.5 -42t-25.5 -35.5t-17 -54.5l-8 -43h-82
zM144 86h110l-15 -86h-110z" />
    <glyph glyph-name="questiondown" unicode="&#xbf;" horiz-adv-x="459" 
d="M279 280q-8 -47 -21.5 -76.5t-35.5 -53t-62 -54.5q-46 -35 -72.5 -72t-26.5 -81q0 -45 31 -70t80 -25q55 0 90.5 28t59.5 83l59 -39q-20 -62 -75.5 -103t-138.5 -41q-87 0 -139.5 42.5t-52.5 114.5q0 48 17 84.5t42 62t72 64.5q33 28 47.5 42t25.5 35.5t17 54.5l8 43h82z
M315 404h-110l15 86h110z" />
    <glyph glyph-name="quotedbl" unicode="&#x22;" horiz-adv-x="329" 
d="M133 714h82l-41 -179h-64zM280 714h82l-41 -179h-64z" />
    <glyph glyph-name="quotesingle" unicode="'" horiz-adv-x="182" 
d="M133 714h82l-41 -179h-64z" />
    <glyph glyph-name="semicolon" unicode=";" horiz-adv-x="234" 
d="M105 490h110l-15 -86h-110zM5 -96q34 16 51.5 37.5t24.5 58.5h-62l15 86h110l-15 -86q-10 -55 -38.5 -87t-75.5 -51z" />
    <glyph glyph-name="slash" unicode="/" horiz-adv-x="429" 
d="M399 760h90l-422 -820h-90z" />
    <glyph glyph-name="underscore" unicode="_" horiz-adv-x="486" 
d="M-4 -14h402l-12 -70h-402z" />
    <glyph glyph-name="braceleft" unicode="{" horiz-adv-x="284" 
d="M78 -110q-22 20 -23 60q0 13 3 28l45 258l2 16q0 19 -9 28t-29 9h-17l12 72h17q23 0 37 12.5t19 40.5l47 268q17 98 113 98h56l-12 -72h-36q-35 0 -41 -36l-47 -269q-6 -34 -21.5 -51.5t-46.5 -26.5q42 -14 42 -58q0 -8 -2 -20l-47 -269l-1 -11q1 -25 29 -25h35l-12 -72
h-55q-36 0 -58 20z" />
    <glyph glyph-name="braceright" unicode="}" horiz-adv-x="285" 
d="M235 760q22 -20 23 -60q0 -13 -3 -28l-45 -258l-2 -16q0 -19 9 -28t29 -9h17l-12 -72h-17q-23 0 -37 -12.5t-19 -40.5l-47 -268q-17 -98 -113 -98h-56l12 72h36q35 0 41 36l47 269q6 34 21.5 51.5t46.5 26.5q-42 14 -42 58q0 8 2 20l47 269l1 11q-1 25 -29 25h-35l12 72
h55q36 0 58 -20z" />
    <glyph glyph-name="bracketleft" unicode="[" horiz-adv-x="281" 
d="M187 780h161l-12 -72h-79l-136 -766h79l-12 -72h-161z" />
    <glyph glyph-name="bracketright" unicode="]" horiz-adv-x="282" 
d="M123 -130h-161l12 72h79l136 766h-79l12 72h161z" />
    <glyph glyph-name="parenleft" unicode="(" horiz-adv-x="288" 
d="M67.5 15.5q-19.5 79.5 -19.5 173.5q0 163 58.5 315.5t162.5 255.5h89q-107 -117 -165.5 -266t-58.5 -304q0 -86 17.5 -166.5t50.5 -143.5h-82q-33 56 -52.5 135.5z" />
    <glyph glyph-name="parenright" unicode=")" horiz-adv-x="288" 
d="M247.5 624.5q19.5 -79.5 19.5 -173.5q0 -163 -58.5 -315.5t-162.5 -255.5h-89q107 117 165.5 266t58.5 304q0 86 -17.5 166.5t-50.5 143.5h82q33 -56 52.5 -135.5z" />
    <glyph glyph-name="emdash" unicode="&#x2014;" horiz-adv-x="740" 
d="M56 324h656l-12 -70h-656z" />
    <glyph glyph-name="endash" unicode="&#x2013;" horiz-adv-x="486" 
d="M56 324h402l-12 -70h-402z" />
    <glyph glyph-name="hyphen" unicode="-" horiz-adv-x="365" 
d="M56 324h281l-12 -70h-281z" />
    <glyph glyph-name="uni00AD" unicode="&#xad;" horiz-adv-x="365" 
d="M56 324h281l-12 -70h-281z" />
    <glyph glyph-name="guillemotleft" unicode="&#xab;" horiz-adv-x="511" 
d="M250 280l168 189h91l-169 -193l101 -185h-86zM56 280l168 189h91l-169 -193l101 -185h-86z" />
    <glyph glyph-name="guillemotright" unicode="&#xbb;" horiz-adv-x="511" 
d="M467 280l-168 -189h-91l169 193l-101 185h86zM273 280l-168 -189h-91l169 193l-101 185h86z" />
    <glyph glyph-name="guilsinglleft" unicode="&#x2039;" horiz-adv-x="317" 
d="M56 280l168 189h91l-169 -193l101 -185h-86z" />
    <glyph glyph-name="guilsinglright" unicode="&#x203a;" horiz-adv-x="317" 
d="M273 280l-168 -189h-91l169 193l-101 185h86z" />
    <glyph glyph-name="quotedblbase" unicode="&#x201e;" horiz-adv-x="346" 
d="M-26 -83q37 9 56.5 29t26.5 55h-62l15 86h110l-15 -86q-11 -59 -41.5 -88.5t-81.5 -42.5zM140 -83q37 9 56.5 29t26.5 55h-62l15 86h110l-15 -86q-11 -59 -41.5 -88.5t-81.5 -42.5z" />
    <glyph glyph-name="quotedblleft" unicode="&#x201c;" horiz-adv-x="346" 
d="M388 667q-37 -9 -56.5 -29t-26.5 -55h62l-15 -86h-110l15 86q11 59 41.5 88.5t81.5 42.5zM223 667q-37 -9 -56.5 -29t-26.5 -55h62l-15 -86h-110l15 86q11 59 41.5 88.5t81.5 42.5z" />
    <glyph glyph-name="quotedblright" unicode="&#x201d;" horiz-adv-x="346" 
d="M248 530q37 9 56.5 29t26.5 55h-62l15 86h110l-15 -86q-11 -59 -41.5 -88.5t-81.5 -42.5zM82 530q37 9 56.5 29t26.5 55h-62l15 86h110l-15 -86q-11 -59 -41.5 -88.5t-81.5 -42.5z" />
    <glyph glyph-name="quoteleft" unicode="&#x2018;" horiz-adv-x="181" 
d="M223 667q-37 -9 -56.5 -29t-26.5 -55h62l-15 -86h-110l15 86q11 59 41.5 88.5t81.5 42.5z" />
    <glyph glyph-name="quoteright" unicode="&#x2019;" horiz-adv-x="180" 
d="M82 530q37 9 56.5 29t26.5 55h-62l15 86h110l-15 -86q-11 -59 -41.5 -88.5t-81.5 -42.5z" />
    <glyph glyph-name="quotesinglbase" unicode="&#x201a;" horiz-adv-x="180" 
d="M-26 -83q37 9 56.5 29t26.5 55h-62l15 86h110l-15 -86q-11 -59 -41.5 -88.5t-81.5 -42.5z" />
    <glyph glyph-name="anoteleia" unicode="&#x387;" horiz-adv-x="234" 
d="M88 393h110l-15 -86h-110z" />
    <glyph glyph-name="uni037E" unicode="&#x37e;" horiz-adv-x="234" 
d="M105 490h110l-15 -86h-110zM5 -96q34 16 51.5 37.5t24.5 58.5h-62l15 86h110l-15 -86q-10 -55 -38.5 -87t-75.5 -51z" />
    <glyph glyph-name="uni00A0" unicode="&#xa0;" horiz-adv-x="278" 
d="M0 0z" />
    <glyph glyph-name="cent" unicode="&#xa2;" horiz-adv-x="539" 
d="M368.5 188.5q28.5 20.5 53.5 59.5l62 -43q-36 -53 -83.5 -81.5t-112.5 -31.5l-16 -92h-64l17 95q-74 14 -118.5 71.5t-44.5 146.5q0 77 30.5 141t88 104.5t135.5 48.5l16 93h64l-16 -93q58 -6 97.5 -38t57.5 -80l-69 -37q-25 69 -99 83l-66 -371q39 4 67.5 24.5z
M170.5 221.5q24.5 -39.5 67.5 -52.5l65 365q-74 -12 -115.5 -71t-41.5 -144q0 -58 24.5 -97.5z" />
    <glyph glyph-name="currency" unicode="&#xa4;" horiz-adv-x="650" 
d="M510 190l69 -81l-64 -54l-69 82q-53 -29 -121 -29q-93 0 -158 54l-106 -90l-52 62l107 92q-29 53 -29 124q0 96 52 159l-68 83l64 54l69 -83q53 29 121 29q95 0 158 -55l108 92l52 -62l-109 -93q29 -53 29 -124q0 -96 -53 -160zM211.5 223.5q44.5 -45.5 113.5 -45.5
t113.5 45.5t44.5 126.5t-44.5 126.5t-113.5 45.5t-113.5 -45.5t-44.5 -126.5t44.5 -126.5z" />
    <glyph glyph-name="dollar" unicode="$" horiz-adv-x="537" 
d="M437 322q44 -50 44 -120q0 -57 -28 -103.5t-80 -76t-119 -35.5l-15 -87h-64l15 88q-63 9 -110.5 48t-64.5 87l69 53q18 -49 46.5 -78t72.5 -36l48 271q-67 23 -108 70.5t-41 112.5q0 82 59 135.5t157 61.5l15 87h64l-15 -88q59 -6 100.5 -35.5t63.5 -80.5l-68 -47
q-34 76 -110 89l-43 -246q68 -20 112 -70zM265 414l40 224q-55 -8 -87 -39t-32 -76q0 -72 79 -109zM359 102.5q32 32.5 32 89.5q0 45 -18 73t-62 47l-44 -250q60 8 92 40.5z" />
    <glyph glyph-name="Euro" unicode="&#x20ac;" horiz-adv-x="708" 
d="M493.5 92q47.5 32 85.5 102l67 -34q-42 -86 -113 -130t-175 -44q-67 0 -121 31t-87.5 86.5t-43.5 127.5h-81l12 68h66q2 55 13 102h-61l12 68h69q43 112 134 178.5t213 66.5q90 0 149.5 -43.5t81.5 -122.5l-74 -33q-19 64 -59.5 94.5t-107.5 30.5q-86 0 -150 -45.5
t-99 -125.5h192l-12 -68h-201q-12 -48 -12 -102h195l-12 -68h-179q13 -81 58 -126t118 -45q75 0 122.5 32z" />
    <glyph glyph-name="florin" unicode="&#x192;" horiz-adv-x="407" 
d="M314 622.5q-20 -18.5 -26 -50.5l-14 -82h119l-12 -66h-119l-91 -517q-22 -131 -149 -131q-42 0 -68 14l14 75q26 -16 57 -16q55 0 66 64l90 511h-69l12 66h69l16 93q11 62 52 96.5t107 34.5q43 0 71 -14l-13 -75q-26 16 -62 16q-30 0 -50 -18.5z" />
    <glyph glyph-name="uni20B4" unicode="&#x20b4;" horiz-adv-x="601" 
d="M332 328l-14 -4h245l-12 -70h-360q-27 -33 -27 -85t28.5 -80.5t77.5 -28.5q63 0 105 25.5t83 91.5l61 -43q-47 -74 -105.5 -111t-154.5 -37q-50 0 -92 22.5t-66.5 64t-24.5 96.5q0 48 21 85h-50l12 70h102q42 30 99 50h-192l13 70h352q20 16 29 38t9 53q0 49 -37.5 77
t-89.5 28q-102 0 -160 -91l-54 50q75 115 223 115q57 0 103 -22t72.5 -61t26.5 -87q0 -57 -29 -100h59l-13 -70h-125q-45 -26 -115 -46z" />
    <glyph glyph-name="uni20BA" unicode="&#x20ba;" horiz-adv-x="595" 
d="M554 311q-27 -156 -105.5 -233.5t-217.5 -77.5h-158l25 139l-55 -29l-30 61l100 53l17 100l-83 -44l-30 61l128 68l52 291h86l-43 -241l108 57l30 -61l-153 -81l-17 -100l136 72l30 -61l-182 -96l-20 -115h73q105 0 158 60t73 177h78z" />
    <glyph glyph-name="uni20BD" unicode="&#x20bd;" horiz-adv-x="606" 
d="M562 651q51 -49 51 -133q0 -68 -31.5 -119t-90.5 -79t-139 -28h-151l-17 -98h143l-12 -72h-144l-22 -122h-86l22 122h-85l12 72h85l18 98h-85l12 72h85l60 336h234q90 0 141 -49zM485 404q44 40 44 112q0 53 -30.5 82.5t-89.5 29.5h-149l-47 -264h152q76 0 120 40z" />
    <glyph glyph-name="sterling" unicode="&#xa3;" horiz-adv-x="505" 
d="M211.5 599q-40.5 -41 -40.5 -113q0 -27 6.5 -51.5t19.5 -57.5l8 -22h184l-12 -68h-157v-13q0 -66 -24.5 -110.5t-76.5 -89.5h305l-13 -74h-398l13 74q58 42 86 83.5t28 100.5q0 9 -2 29h-93l12 68h62q-2 7 -11 35q-10 27 -15 52.5t-5 48.5q0 67 30 117.5t85 78t129 27.5
t122 -36.5t68 -92.5l-68 -45q-38 100 -135 100q-67 0 -107.5 -41z" />
    <glyph glyph-name="yen" unicode="&#xa5;" horiz-adv-x="580" 
d="M399 357h111l-12 -68h-148l-13 -19l-10 -57h158l-12 -68h-158l-26 -145h-86l26 145h-158l12 68h158l10 57l-7 19h-148l12 68h112l-122 343h92l116 -343l236 343h100z" />
    <glyph glyph-name="uni2219" unicode="&#x2219;" horiz-adv-x="324" 
d="M100 380h172l-23 -128h-172z" />
    <glyph glyph-name="uni2215" unicode="&#x2215;" horiz-adv-x="552" 
d="M518 760h94l-541 -820h-94z" />
    <glyph glyph-name="plus" unicode="+" horiz-adv-x="504" 
d="M461 275h-169l-30 -168h-70l30 168h-169l12 70h169l30 168h70l-30 -168h169z" />
    <glyph glyph-name="minus" unicode="&#x2212;" horiz-adv-x="504" 
d="M65 345h408l-12 -70h-408z" />
    <glyph glyph-name="multiply" unicode="&#xd7;" horiz-adv-x="504" 
d="M314 314l95 -118l-55 -48l-96 119l-142 -118l-43 53l142 118l-96 119l56 47l96 -119l142 118l43 -53z" />
    <glyph glyph-name="divide" unicode="&#xf7;" horiz-adv-x="504" 
d="M245 519h110l-15 -86h-110zM65 345h408l-12 -70h-408zM186 187h110l-15 -86h-110z" />
    <glyph glyph-name="equal" unicode="=" horiz-adv-x="504" 
d="M84 454h408l-12 -70h-408zM46 236h408l-12 -70h-408z" />
    <glyph glyph-name="notequal" unicode="&#x2260;" horiz-adv-x="504" 
d="M360 384l-112 -148h206l-12 -70h-247l-104 -136l-53 41l72 95h-76l12 70h117l113 148h-204l12 70h245l103 136l54 -41l-72 -95h78l-12 -70h-120z" />
    <glyph glyph-name="greater" unicode="&#x3e;" horiz-adv-x="504" 
d="M32 155l346 159l-291 159l14 76l371 -210l-10 -58l-445 -210z" />
    <glyph glyph-name="less" unicode="&#x3c;" horiz-adv-x="504" 
d="M495 465l-346 -159l291 -159l-14 -76l-371 210l10 58l445 210z" />
    <glyph glyph-name="greaterequal" unicode="&#x2265;" horiz-adv-x="504" 
d="M40 206l344 118l-301 122l12 70l381 -156l-14 -76l-435 -156zM17 70h408l-12 -70h-408z" />
    <glyph glyph-name="lessequal" unicode="&#x2264;" horiz-adv-x="504" 
d="M54 284l14 76l435 156l-13 -78l-344 -118l301 -122l-12 -70zM17 70h408l-12 -70h-408z" />
    <glyph glyph-name="plusminus" unicode="&#xb1;" horiz-adv-x="504" 
d="M478 370l-12 -70h-169l-26 -146h-70l26 146h-170l12 70h170l26 146h70l-26 -146h169zM16 70h408l-12 -70h-408z" />
    <glyph glyph-name="approxequal" unicode="&#x2248;" horiz-adv-x="504" 
d="M310 361.5q-19 6.5 -46 20.5q-20 11 -34.5 16.5t-29.5 5.5q-40 0 -75 -46l-42 41q47 76 129 76q23 0 42 -6.5t46 -20.5q20 -11 34.5 -16.5t29.5 -5.5q42 0 75 46l42 -41q-46 -76 -129 -76q-23 0 -42 6.5zM274 156.5q-19 6.5 -46 20.5q-20 11 -34.5 16.5t-29.5 5.5
q-40 0 -75 -46l-42 41q47 76 129 76q23 0 42 -6.5t46 -20.5q20 -11 34.5 -16.5t29.5 -5.5q42 0 75 46l42 -41q-46 -76 -129 -76q-23 0 -42 6.5z" />
    <glyph glyph-name="logicalnot" unicode="&#xac;" horiz-adv-x="455" 
d="M346 332h-284l13 72h360l-42 -234h-76z" />
    <glyph glyph-name="asciitilde" unicode="~" horiz-adv-x="504" 
d="M299 297.5q-19 6.5 -46 20.5q-20 11 -34.5 16.5t-29.5 5.5q-40 0 -75 -46l-42 41q47 76 129 76q23 0 42 -6.5t46 -20.5q20 -11 34.5 -16.5t29.5 -5.5q42 0 75 46l42 -41q-46 -76 -129 -76q-23 0 -42 6.5z" />
    <glyph glyph-name="infinity" unicode="&#x221e;" horiz-adv-x="767" 
d="M104.5 196.5q-50.5 47.5 -50.5 140.5t50.5 140.5t124.5 47.5q58 0 104 -31.5t67 -85.5q21 54 67 85.5t104 31.5q74 0 124.5 -47.5t50.5 -140.5t-50.5 -140.5t-124.5 -47.5q-58 0 -104 31.5t-67 85.5q-21 -54 -67 -85.5t-104 -31.5q-74 0 -124.5 47.5zM310 242.5
q33 30.5 57 94.5q-24 64 -57 94.5t-78 30.5t-76 -32.5t-31 -92.5t31 -92.5t76 -32.5t78 30.5zM644 244.5q31 32.5 31 92.5t-31 92.5t-76 32.5t-78 -30.5t-57 -94.5q24 -64 57 -94.5t78 -30.5t76 32.5z" />
    <glyph glyph-name="integral" unicode="&#x222b;" horiz-adv-x="407" 
d="M-46 -210l14 75q26 -16 57 -16q55 0 66 64l118 670q11 62 52 96.5t107 34.5q43 0 71 -14l-13 -75q-26 16 -62 16q-30 0 -50 -18.5t-26 -50.5l-117 -665q-22 -131 -149 -131q-42 0 -68 14z" />
    <glyph glyph-name="uni2126" unicode="&#x2126;" horiz-adv-x="770" 
d="M49 74h147q-47 46 -81.5 122t-34.5 157q0 108 45 189.5t129.5 126.5t200.5 45q86 0 152 -34.5t102 -96.5t36 -142q0 -110 -59.5 -203.5t-157.5 -163.5h135l-13 -74h-228l16 88q96 62 156.5 151.5t60.5 195.5q0 60 -26 106.5t-74.5 72.5t-112.5 26q-89 0 -151.5 -38.5
t-93.5 -105.5t-31 -150q0 -80 32 -147.5t82 -110.5l-16 -88h-228z" />
    <glyph glyph-name="uni2206" unicode="&#x2206;" horiz-adv-x="648" 
d="M582 0h-602l388 700h74zM482 75l-96 498l-272 -498h368z" />
    <glyph glyph-name="product" unicode="&#x220f;" horiz-adv-x="712" 
d="M558 -100h-86l128 726h-353l-129 -726h-86l142 800h525z" />
    <glyph glyph-name="summation" unicode="&#x2211;" horiz-adv-x="569" 
d="M5 64l267 294l-155 278l12 64h469l-13 -74h-367l134 -248l-10 -55l-231 -249h388l-13 -74h-493z" />
    <glyph glyph-name="radical" unicode="&#x221a;" horiz-adv-x="538" 
d="M589 700l-325 -700h-78l-34 286h-106l12 72h162l25 -229l263 571h81z" />
    <glyph glyph-name="uni00B5" unicode="&#xb5;" horiz-adv-x="576" 
d="M128 490h82l-56 -314q-3 -16 -3 -31q0 -42 22.5 -64.5t67.5 -22.5q35 0 70 20t61 59.5t36 95.5l45 257h82l-86 -490h-82l15 87q-27 -48 -72.5 -74.5t-97.5 -26.5q-27 0 -51 9t-34 24l-41 -229h-82z" />
    <glyph glyph-name="partialdiff" unicode="&#x2202;" horiz-adv-x="571" 
d="M481.5 566.5q53.5 -93.5 53.5 -222.5q0 -106 -32 -187t-95.5 -126t-152.5 -45q-61 0 -109 28.5t-75 79.5t-27 117q0 81 31.5 148t89.5 106t136 39q44 0 80.5 -17.5t62.5 -47.5q-30 155 -162 235l66 40q80 -54 133.5 -147.5zM402 128.5q48 70.5 51 191.5q-17 54 -54.5 83
t-91.5 29q-53 0 -94 -29.5t-63 -80.5t-22 -114q0 -67 37.5 -108.5t99.5 -41.5q89 0 137 70.5z" />
    <glyph glyph-name="percent" unicode="%" horiz-adv-x="816" 
d="M118.5 388q-36.5 40 -36.5 107q0 57 25 107.5t70.5 81t104.5 30.5q65 0 101.5 -40t36.5 -107q0 -57 -25 -107.5t-70.5 -81t-104.5 -30.5q-65 0 -101.5 40zM659 700h77l-543 -700h-77zM293.5 430q28.5 22 44.5 58t16 77t-23 65t-59 24q-35 0 -63.5 -22t-44.5 -58t-16 -77
q0 -42 23 -65.5t59 -23.5q35 0 63.5 22zM468.5 26q-36.5 40 -36.5 107q0 57 25 107.5t70.5 81t104.5 30.5q65 0 101.5 -40t36.5 -107q0 -57 -25 -107.5t-70.5 -81t-104.5 -30.5q-65 0 -101.5 40zM643.5 68q28.5 22 44.5 58t16 77t-23 65t-59 24q-35 0 -63.5 -22t-44.5 -58
t-16 -77q0 -42 23 -65.5t59 -23.5q35 0 63.5 22z" />
    <glyph glyph-name="perthousand" unicode="&#x2030;" horiz-adv-x="1202" 
d="M118.5 388q-36.5 40 -36.5 107q0 57 25 107.5t70.5 81t104.5 30.5q65 0 101.5 -40t36.5 -107q0 -57 -25 -107.5t-70.5 -81t-104.5 -30.5q-65 0 -101.5 40zM659 700h77l-543 -700h-77zM293.5 430q28.5 22 44.5 58t16 77t-23 65t-59 24q-35 0 -63.5 -22t-44.5 -58t-16 -77
q0 -42 23 -65.5t59 -23.5q35 0 63.5 22zM468.5 26q-36.5 40 -36.5 107q0 57 25 107.5t70.5 81t104.5 30.5q65 0 101.5 -40t36.5 -107q0 -57 -25 -107.5t-70.5 -81t-104.5 -30.5q-65 0 -101.5 40zM854.5 26q-36.5 40 -36.5 107q0 57 25 107.5t70.5 81t104.5 30.5
q65 0 101.5 -40t36.5 -107q0 -57 -25 -107.5t-70.5 -81t-104.5 -30.5q-65 0 -101.5 40zM643.5 68q28.5 22 44.5 58t16 77t-23 65t-59 24q-35 0 -63.5 -22t-44.5 -58t-16 -77q0 -42 23 -65.5t59 -23.5q35 0 63.5 22zM1029.5 68q28.5 22 44.5 58t16 77t-23 65t-59 24
q-35 0 -63.5 -22t-44.5 -58t-16 -77q0 -42 23 -65.5t59 -23.5q35 0 63.5 22z" />
    <glyph glyph-name="lozenge" unicode="&#x25ca;" horiz-adv-x="526" 
d="M47 350l261 350h72l137 -350l-261 -350h-72zM432 355l-99 265l-200 -273l99 -265z" />
    <glyph glyph-name="at" unicode="@" horiz-adv-x="768" 
d="M193.5 -28.5q-68.5 39.5 -107 111t-38.5 163.5q0 120 51.5 209.5t140.5 137t199 47.5q85 0 153 -36.5t106.5 -104t38.5 -156.5q0 -64 -23 -120t-63 -89.5t-88 -33.5q-34 0 -56.5 21t-24.5 51q-22 -34 -59.5 -53t-80.5 -19q-62 0 -100 42.5t-38 108.5q0 64 24.5 114
t69.5 78.5t103 28.5q39 0 67.5 -16.5t39.5 -42.5l9 49h58l-44 -248q-2 -12 -2 -17q0 -20 10.5 -30.5t29.5 -10.5q24 0 47.5 23t38.5 65.5t15 95.5q0 70 -28.5 124t-82.5 84t-129 30q-92 0 -163 -40.5t-110.5 -115.5t-39.5 -175q0 -72 29.5 -130t84 -90.5t127.5 -32.5
q114 0 180 53l28 -55q-42 -31 -94 -45.5t-125 -14.5q-85 0 -153.5 39.5zM427 177.5q31 21.5 48 56.5t17 74q0 50 -25 79t-65 29q-60 0 -97.5 -44t-37.5 -114q0 -48 24 -75t65 -27q40 0 71 21.5z" />
    <glyph glyph-name="ampersand" unicode="&#x26;" horiz-adv-x="633" 
d="M581 0h-102q-18 11 -38 39l-25 35q-46 -46 -91 -67t-108 -21q-57 0 -100 25t-66.5 68.5t-23.5 96.5q0 77 40 133.5t113 103.5q-27 54 -27 114q0 89 55.5 138t140.5 49q69 0 111 -36.5t55 -94.5l-65 -42q-13 53 -40 78t-68 25q-48 0 -78.5 -30t-30.5 -82q0 -60 40 -118
l154 -223l100 102l42 -60l-99 -103l44 -64q26 -36 67 -66zM300 75.5q31 17.5 72 59.5l-154 216q-56 -38 -81.5 -74t-25.5 -84q0 -62 33.5 -98.5t85.5 -36.5q39 0 70 17.5z" />
    <glyph glyph-name="paragraph" unicode="&#xb6;" horiz-adv-x="574" 
d="M275 374h-35q-66 0 -108 41t-42 108q0 81 52.5 129t155.5 48h117l-142 -800h-82zM479 700h82l-142 -800h-82z" />
    <glyph glyph-name="section" unicode="&#xa7;" horiz-adv-x="508" 
d="M448 691.5q51 -22.5 77 -53.5l-44 -71q-28 33 -67.5 54t-86.5 21q-64 0 -107 -28.5t-43 -81.5q0 -46 28.5 -76t97.5 -50q157 -46 157 -159q0 -43 -20.5 -78.5t-55.5 -60.5q31 -40 31 -100q0 -57 -31 -102t-86.5 -70.5t-124.5 -25.5q-64 0 -111 20t-78 50l49 73
q32 -35 67 -53t81 -18q64 0 107 29t43 84q0 50 -29.5 77t-104.5 48q-71 20 -110 61.5t-39 94.5q0 83 82 141q-37 48 -37 110q0 55 30 97.5t85.5 66t129.5 23.5q59 0 110 -22.5zM346.5 299q-28.5 22 -96.5 43q-40 12 -71 32q-23 -15 -35 -34.5t-12 -46.5q0 -37 30.5 -64.5
t95.5 -46.5q44 -13 73 -30q23 17 33.5 37.5t10.5 48.5q0 39 -28.5 61z" />
    <glyph glyph-name="copyright" unicode="&#xa9;" horiz-adv-x="798" 
d="M238 34q-80 48 -125.5 131.5t-45.5 184.5t45.5 184.5t125.5 131.5t180 48t180 -48t125.5 -131.5t45.5 -184.5t-45.5 -184.5t-125.5 -131.5t-180 -48t-180 48zM565 87.5q65 39.5 101.5 108.5t36.5 154t-36.5 154t-101.5 108.5t-147 39.5t-147 -39.5t-101.5 -108.5
t-36.5 -154t36.5 -154t101.5 -108.5t147 -39.5t147 39.5zM323 172.5q-44 25.5 -69 71.5t-25 105t25 105.5t69 72.5t99 26q60 0 102.5 -24.5t63.5 -68.5l-48 -34q-37 67 -118 67q-57 0 -94 -39t-37 -104t37 -104t94 -39q84 0 118 67l48 -34q-23 -44 -66 -68.5t-100 -24.5
q-55 0 -99 25.5z" />
    <glyph glyph-name="registered" unicode="&#xae;" horiz-adv-x="798" 
d="M238 34q-80 48 -125.5 131.5t-45.5 184.5t45.5 184.5t125.5 131.5t180 48t180 -48t125.5 -131.5t45.5 -184.5t-45.5 -184.5t-125.5 -131.5t-180 -48t-180 48zM565 87.5q65 39.5 101.5 108.5t36.5 154t-36.5 154t-101.5 108.5t-147 39.5t-147 -39.5t-101.5 -108.5
t-36.5 -154t36.5 -154t101.5 -108.5t147 -39.5t147 39.5zM287 549h156q54 0 86 -29.5t32 -79.5q0 -39 -21.5 -64t-53.5 -36q23 -8 33 -37l37 -114q6 -19 20 -38h-62q-9 11 -15 29l-38 112q-7 22 -17 30.5t-32 8.5h-67v-180h-58v398zM444 383q28 0 43.5 15t15.5 42t-15.5 42
t-43.5 15h-99v-114h99z" />
    <glyph glyph-name="trademark" unicode="&#x2122;" horiz-adv-x="689" 
d="M331 646h-98v-310h-62v310h-98v54h258v-54zM717 700v-364h-60v230l-91 -200h-46l-91 200v-230h-60v364h58l116 -263l116 263h58z" />
    <glyph glyph-name="degree" unicode="&#xb0;" horiz-adv-x="378" 
d="M118 431q-39 39 -39 97q0 53 22.5 95.5t64.5 66.5t98 24q65 0 104 -39t39 -97q0 -53 -22.5 -95.5t-64.5 -66.5t-98 -24q-65 0 -104 39zM309.5 487q29.5 35 29.5 88q0 35 -22 57t-58 22q-53 0 -82.5 -35t-29.5 -88q0 -35 22 -57t58 -22q53 0 82.5 35z" />
    <glyph glyph-name="bar" unicode="|" horiz-adv-x="272" 
d="M173 700h86l-160 -910h-86z" />
    <glyph glyph-name="brokenbar" unicode="&#xa6;" horiz-adv-x="272" 
d="M173 700h86l-67 -381h-86zM80 171h86l-67 -381h-86z" />
    <glyph glyph-name="dagger" unicode="&#x2020;" horiz-adv-x="314" 
d="M337 543h-97l-49 -277h-60l49 277h-97l9 56h97l18 101h60l-18 -101h97z" />
    <glyph glyph-name="uni2113" unicode="&#x2113;" horiz-adv-x="500" 
d="M394 232l65 -24q-25 -107 -72 -164.5t-125 -57.5q-76 0 -121.5 57.5t-54.5 152.5q-36 -14 -54 -20v84q32 11 51 19q4 127 34.5 225.5t85 154t127.5 55.5q69 0 104 -38.5t35 -112.5q0 -195 -300 -332q2 -81 24.5 -127t73.5 -46q88 0 127 174zM251 598q-32 -40 -53 -113.5
t-27 -169.5q104 47 159 107t55 144q0 72 -63 72q-39 0 -71 -40z" />
    <glyph glyph-name="daggerdbl" unicode="&#x2021;" horiz-adv-x="314" 
d="M149 367h-97l9 56h97l22 120h-97l9 56h97l18 101h60l-18 -101h97l-9 -56h-97l-22 -120h97l-9 -56h-97l-18 -101h-60z" />
    <glyph glyph-name="estimated" unicode="&#x212e;" horiz-adv-x="816" 
d="M225 336v-233q83 -81 203 -81q95 0 171.5 50t117.5 133h45q-43 -98 -133 -158.5t-201 -60.5q-99 0 -182.5 49t-132.5 132.5t-49 182.5t49 182.5t132.5 132.5t182.5 49q98 0 181.5 -46t133 -126.5t49.5 -178.5v-27h-567zM225 600v-228h406v231q-41 36 -92.5 55.5
t-110.5 19.5q-119 0 -203 -78z" />
    <glyph glyph-name="uni2116" unicode="&#x2116;" horiz-adv-x="1306" 
d="M868 274.5q-55 58.5 -55 154.5q0 83 33.5 148t95.5 101t144 36q103 0 158 -58.5t55 -154.5q0 -83 -33.5 -148t-95.5 -101t-144 -36q-103 0 -158 58.5zM174 700h75l297 -560l99 560h84l-124 -700h-75l-297 560l-99 -560h-84zM1129.5 315q40.5 27 63 74t22.5 105
q0 75 -35.5 111.5t-103.5 36.5q-53 0 -93.5 -27t-63 -74t-22.5 -105q0 -75 35.5 -111.5t103.5 -36.5q53 0 93.5 27zM771 72h430l-12 -72h-430z" />
    <glyph glyph-name="asciicircum" unicode="^" horiz-adv-x="474" 
d="M286 700h64l121 -256h-77l-85 183l-149 -183h-87z" />
    <glyph glyph-name="copyright.ss01" horiz-adv-x="388" 
d="M133 439q-45 45 -45 115t45 115t115 45t115 -45t45 -115t-45 -115t-115 -45t-115 45zM337 462.5q35 35.5 35 91.5t-35 91.5t-89 35.5t-89 -35.5t-35 -91.5t35 -91.5t89 -35.5t89 35.5zM187 489q-24 25 -24 65t24 65t63 25q26 0 44.5 -11t27.5 -30l-24 -17q-19 28 -48 28
q-24 0 -39.5 -16t-15.5 -44t15.5 -44t39.5 -16q30 0 46 28l26 -17q-24 -41 -72 -41q-39 0 -63 25z" />
    <glyph glyph-name="registered.ss01" horiz-adv-x="388" 
d="M133 439q-45 45 -45 115t45 115t115 45t115 -45t45 -115t-45 -115t-115 -45t-115 45zM337 462.5q35 35.5 35 91.5t-35 91.5t-89 35.5t-89 -35.5t-35 -91.5t35 -91.5t89 -35.5t89 35.5zM192 641h71q24 0 37.5 -13t13.5 -34q0 -16 -9.5 -28t-23.5 -14q12 -5 17 -21l19 -64
h-31l-17 58q-3 10 -7.5 14t-13.5 4h-26v-76h-30v174zM257 569q27 0 27 23t-27 23h-35v-46h35z" />
    <glyph glyph-name="uni0308" unicode="&#x308;" 
d="M-213 667h94l-14 -80h-94zM-55 667h94l-14 -80h-94z" />
    <glyph glyph-name="uni0307" unicode="&#x307;" 
d="M-76 657h110l-15 -86h-110z" />
    <glyph glyph-name="gravecomb" unicode="&#x300;" 
d="M-119 700h88l43 -136h-62z" />
    <glyph glyph-name="acutecomb" unicode="&#x301;" 
d="M-58 700h92l-106 -136h-70z" />
    <glyph glyph-name="uni030B" unicode="&#x30b;" 
d="M-212 700h92l-106 -136h-70zM-58 700h92l-106 -136h-70z" />
    <glyph glyph-name="caroncomb.alt" 
d="M-88 546q34 10 51 26.5t23 47.5h-62l14 80h110l-14 -80q-9 -54 -38 -82.5t-76 -39.5z" />
    <glyph glyph-name="uni0302" unicode="&#x302;" 
d="M-140 700h80l80 -136h-64l-64 83l-87 -83h-73z" />
    <glyph glyph-name="uni030C" unicode="&#x30c;" 
d="M-244 700h64l64 -83l87 83h73l-128 -136h-80z" />
    <glyph glyph-name="uni0306" unicode="&#x306;" 
d="M-139 589.5q-26 22.5 -26 58.5q0 11 2 21h58q-1 -5 -1 -16q0 -15 9.5 -24.5t27.5 -9.5q22 0 36 13.5t18 36.5h58q-18 -102 -119 -102q-37 0 -63 22.5z" />
    <glyph glyph-name="uni030A" unicode="&#x30a;" 
d="M-135.5 572.5q-24.5 24.5 -24.5 61.5t24.5 61.5t61.5 24.5t61.5 -24.5t24.5 -61.5t-24.5 -61.5t-61.5 -24.5t-61.5 24.5zM-42.5 602.5q12.5 12.5 12.5 31.5t-12.5 31.5t-31.5 12.5t-31.5 -12.5t-12.5 -31.5t12.5 -31.5t31.5 -12.5t31.5 12.5z" />
    <glyph glyph-name="tildecomb" unicode="&#x303;" 
d="M-299 614q44 62 112 62q17 0 29.5 -4.5t32.5 -14.5q15 -8 27 -12.5t26 -4.5q38 0 71 38l36 -39q-41 -63 -112 -63q-17 0 -29.5 4.5t-32.5 14.5q-15 8 -27 12.5t-26 4.5q-39 0 -71 -37z" />
    <glyph glyph-name="uni0304" unicode="&#x304;" 
d="M-164 652h216l-12 -64h-216z" />
    <glyph glyph-name="uni0312" unicode="&#x312;" 
d="M54 734q-37 -9 -56.5 -29t-26.5 -55h62l-15 -86h-110l15 86q11 59 41.5 88.5t81.5 42.5z" />
    <glyph glyph-name="uni0326" unicode="&#x326;" 
d="M-219 -202q30 7 46 22t22 50h-63l14 82h110l-14 -82q-10 -55 -36.5 -79.5t-72.5 -36.5z" />
    <glyph glyph-name="uni0327" unicode="&#x327;" 
d="M-328 -213q-25 11 -40 29l32 39q13 -13 30.5 -21t35.5 -8q56 0 56 48q0 17 -11.5 26.5t-29.5 9.5q-27 0 -46 -23l-35 17l43 96h52l-47 -70q24 24 61 24q33 0 53.5 -20t20.5 -57q0 -48 -32.5 -74.5t-91.5 -26.5q-26 0 -51 11z" />
    <glyph glyph-name="uni0328" unicode="&#x328;" 
d="M-236.5 -173.5q-20.5 22.5 -20.5 57.5q0 36 20.5 66t54.5 50h68q-37 -26 -58 -50.5t-21 -53.5q0 -16 9 -25t23 -9q12 0 20 2.5t19 9.5l-11 -60q-20 -10 -49 -10q-34 0 -54.5 22.5z" />
    <glyph glyph-name="uni0335" unicode="&#x335;" 
d="M-10 382l-12 -64h-330l12 64h330z" />
    <glyph glyph-name="uni0337" unicode="&#x337;" 
d="M-278 300l253 131l28 -59l-253 -131z" />
    <glyph glyph-name="uni0338" unicode="&#x338;" 
d="M-470 5l465 525l48 -45l-465 -525z" />
    <glyph glyph-name="caroncomb.alt.cap" 
d="M-98 530q37 9 56.5 29t26.5 55h-62l15 86h110l-15 -86q-11 -59 -41.5 -88.5t-81.5 -42.5z" />
    <glyph glyph-name="uni0327.cap" 
d="M-328 -213q-25 11 -40 29l32 39q13 -13 30.5 -21t35.5 -8q56 0 56 48q0 17 -11.5 26.5t-29.5 9.5q-27 0 -46 -23l-35 17l43 96h52l-47 -70q24 24 61 24q33 0 53.5 -20t20.5 -57q0 -48 -32.5 -74.5t-91.5 -26.5q-26 0 -51 11z" />
    <glyph glyph-name="uni0328.cap" 
d="M-237.5 -173.5q-20.5 22.5 -20.5 57.5q0 37 19 67t52 49h72q-37 -26 -58 -50.5t-21 -53.5q0 -16 9 -25t23 -9q12 0 20 2.5t19 9.5l-11 -60q-20 -10 -49 -10q-34 0 -54.5 22.5z" />
    <glyph glyph-name="uni0335.cap" 
d="M-318 385h322l-12 -70h-322z" />
    <glyph glyph-name="uni0336.cap" 
d="M-665 385h666l-12 -70h-666z" />
    <glyph glyph-name="uni0337.cap" 
d="M-382 271l331 175l30 -61l-331 -175z" />
    <glyph glyph-name="uni0338.cap" 
d="M-681 42l689 669l49 -53l-689 -669z" />
    <glyph glyph-name="uni02C9" unicode="&#x2c9;" horiz-adv-x="382" 
d="M155 652h216l-12 -64h-216z" />
    <glyph glyph-name="acute" unicode="&#xb4;" horiz-adv-x="244" 
d="M186 700h92l-106 -136h-70z" />
    <glyph glyph-name="breve" unicode="&#x2d8;" horiz-adv-x="270" 
d="M131 589.5q-26 22.5 -26 58.5q0 11 2 21h58q-1 -5 -1 -16q0 -15 9.5 -24.5t27.5 -9.5q22 0 36 13.5t18 36.5h58q-18 -102 -119 -102q-37 0 -63 22.5z" />
    <glyph glyph-name="caron" unicode="&#x2c7;" horiz-adv-x="360" 
d="M116 700h64l64 -83l87 83h73l-128 -136h-80z" />
    <glyph glyph-name="cedilla" unicode="&#xb8;" horiz-adv-x="380" 
d="M52 -213q-25 11 -40 29l32 39q13 -13 30.5 -21t35.5 -8q56 0 56 48q0 17 -11.5 26.5t-29.5 9.5q-27 0 -46 -23l-35 17l43 96h52l-47 -70q24 24 61 24q33 0 53.5 -20t20.5 -57q0 -48 -32.5 -74.5t-91.5 -26.5q-26 0 -51 11z" />
    <glyph glyph-name="circumflex" unicode="&#x2c6;" horiz-adv-x="360" 
d="M220 700h80l80 -136h-64l-64 83l-87 -83h-73z" />
    <glyph glyph-name="dieresis" unicode="&#xa8;" horiz-adv-x="322" 
d="M109 667h94l-14 -80h-94zM267 667h94l-14 -80h-94z" />
    <glyph glyph-name="dotaccent" unicode="&#x2d9;" horiz-adv-x="186" 
d="M110 657h110l-15 -86h-110z" />
    <glyph glyph-name="grave" unicode="`" horiz-adv-x="243" 
d="M124 700h88l43 -136h-62z" />
    <glyph glyph-name="hungarumlaut" unicode="&#x2dd;" horiz-adv-x="398" 
d="M186 700h92l-106 -136h-70zM340 700h92l-106 -136h-70z" />
    <glyph glyph-name="macron" unicode="&#xaf;" horiz-adv-x="256" 
d="M92 652h216l-12 -64h-216z" />
    <glyph glyph-name="ogonek" unicode="&#x2db;" horiz-adv-x="251" 
d="M13.5 -173.5q-20.5 22.5 -20.5 57.5q0 37 19 67t52 49h72q-37 -26 -58 -50.5t-21 -53.5q0 -16 9 -25t23 -9q12 0 20 2.5t19 9.5l-11 -60q-20 -10 -49 -10q-34 0 -54.5 22.5z" />
    <glyph glyph-name="ring" unicode="&#x2da;" horiz-adv-x="284" 
d="M148.5 572.5q-24.5 24.5 -24.5 61.5t24.5 61.5t61.5 24.5t61.5 -24.5t24.5 -61.5t-24.5 -61.5t-61.5 -24.5t-61.5 24.5zM241.5 602.5q12.5 12.5 12.5 31.5t-12.5 31.5t-31.5 12.5t-31.5 -12.5t-12.5 -31.5t12.5 -31.5t31.5 -12.5t31.5 12.5z" />
    <glyph glyph-name="tilde" unicode="&#x2dc;" horiz-adv-x="398" 
d="M99 614q44 62 112 62q17 0 29.5 -4.5t32.5 -14.5q15 -8 27 -12.5t26 -4.5q38 0 71 38l36 -39q-41 -63 -112 -63q-17 0 -29.5 4.5t-32.5 14.5q-15 8 -27 12.5t-26 4.5q-39 0 -71 -37z" />
    <glyph glyph-name="tonos" unicode="&#x384;" horiz-adv-x="222" 
d="M162 700h94l-82 -136h-72z" />
    <glyph glyph-name="dieresistonos" unicode="&#x385;" horiz-adv-x="422" 
d="M266 695h94l-82 -136h-72zM109 667h94l-14 -80h-94zM367 667h94l-14 -80h-94z" />
    <glyph glyph-name="brevecombcy" 
d="M-139 589.5q-26 22.5 -26 58.5q0 11 2 21h58q-1 -5 -1 -16q0 -15 9.5 -24.5t27.5 -9.5q22 0 36 13.5t18 36.5h58q-18 -102 -119 -102q-37 0 -63 22.5z" />
    </font>
</defs>
</svg>
