<?xml version="1.0" standalone="no"?>
<!DOCTYPE svg PUBLIC "-//W3C//DTD SVG 1.1//EN" "http://www.w3.org/Graphics/SVG/1.1/DTD/svg11.dtd" >
<svg>
<metadata>
Created by FontForge 20090622 at Wed Feb 27 13:33:39 2019
 By deploy user
Copyright (c) 2017 Rolls-Royce PLC. All rights reserved.
</metadata>
<defs>
<font id="RRPioneer-Medium" horiz-adv-x="0" >
  <font-face 
    font-family="RR Pioneer Medium"
    font-weight="500"
    font-stretch="normal"
    units-per-em="1000"
    panose-1="2 11 6 3 5 2 1 4 1 3"
    ascent="790"
    descent="-210"
    x-height="490"
    cap-height="700"
    bbox="-704 -278 1268 937"
    underline-thickness="62"
    underline-position="-98"
    unicode-range="U+0020-U+FB02"
  />
<missing-glyph horiz-adv-x="626" 
d="M80 700h466v-700h-466v700zM470 646h-314l157 -269zM297 350l-161 276v-552zM490 626l-161 -276l161 -276v552zM470 54l-157 269l-157 -269h314z" />
    <glyph glyph-name="fi" unicode="fi" horiz-adv-x="605" 
d="M533 0h-113v405h-213v-405h-113v405h-69v85h69v64q0 78 43 119t119 41q42 0 70 -13v-98q-25 14 -59 14q-28 0 -44 -17.5t-16 -49.5v-60h326v-490zM547 668v-107h-142v107h142z" />
    <glyph glyph-name="fl" unicode="fl" horiz-adv-x="616" 
d="M137 673q43 41 119 41q42 0 70 -13v-98q-25 14 -59 14q-28 0 -44 -17.5t-16 -49.5v-60h112v-85h-112v-405h-113v405h-69v85h69v64q0 78 43 119zM585 99v-91q-23 -15 -62 -15q-56 0 -83 33.5t-27 91.5v582h113v-571q0 -18 8 -27t23 -9q13 0 28 6z" />
    <glyph glyph-name=".notdef" horiz-adv-x="626" 
d="M80 700h466v-700h-466v700zM470 646h-314l157 -269zM297 350l-161 276v-552zM490 626l-161 -276l161 -276v552zM470 54l-157 269l-157 -269h314z" />
    <glyph glyph-name="space" unicode=" " horiz-adv-x="268" 
d="M0 0z" />
    <glyph glyph-name="A" unicode="A" horiz-adv-x="665" 
d="M469 155h-274l-56 -155h-121l262 700h105l262 -700h-122zM433 255l-101 279l-101 -279h202z" />
    <glyph glyph-name="Aacute" unicode="&#xc1;" horiz-adv-x="665" 
d="M469 155h-274l-56 -155h-121l262 700h105l262 -700h-122zM433 255l-101 279l-101 -279h202zM350 910h115l-88 -136h-91z" />
    <glyph glyph-name="Abreve" unicode="&#x102;" horiz-adv-x="665" 
d="M469 155h-274l-56 -155h-121l262 700h105l262 -700h-122zM433 255l-101 279l-101 -279h202zM250.5 804q-30.5 29 -30.5 81h72q0 -21 10.5 -34t29.5 -13q20 0 30.5 13t10.5 34h71q0 -52 -30 -81t-82 -29q-51 0 -81.5 29z" />
    <glyph glyph-name="Acircumflex" unicode="&#xc2;" horiz-adv-x="665" 
d="M469 155h-274l-56 -155h-121l262 700h105l262 -700h-122zM433 255l-101 279l-101 -279h202zM282 910h100l108 -136h-93l-65 71l-65 -71h-93z" />
    <glyph glyph-name="Adieresis" unicode="&#xc4;" horiz-adv-x="665" 
d="M469 155h-274l-56 -155h-121l262 700h105l262 -700h-122zM433 255l-101 279l-101 -279h202zM186 888h119v-102h-119v102zM360 888h119v-102h-119v102z" />
    <glyph glyph-name="Agrave" unicode="&#xc0;" horiz-adv-x="665" 
d="M469 155h-274l-56 -155h-121l262 700h105l262 -700h-122zM433 255l-101 279l-101 -279h202zM198 910h115l64 -136h-91z" />
    <glyph glyph-name="Amacron" unicode="&#x100;" horiz-adv-x="665" 
d="M469 155h-274l-56 -155h-121l262 700h105l262 -700h-122zM433 255l-101 279l-101 -279h202zM218 871h229v-81h-229v81z" />
    <glyph glyph-name="Aogonek" unicode="&#x104;" horiz-adv-x="665" 
d="M469 155h-274l-56 -155h-121l262 700h105l262 -700h-122zM433 255l-101 279l-101 -279h202zM536 -173.5q-25 25.5 -25 70.5q0 32 13.5 58t35.5 45h87q-30 -24 -44.5 -43.5t-14.5 -44.5q0 -17 9.5 -26.5t24.5 -9.5q20 0 35 11v-76q-21 -10 -52 -10q-44 0 -69 25.5z" />
    <glyph glyph-name="Aring" unicode="&#xc5;" horiz-adv-x="665" 
d="M469 155h-274l-56 -155h-121l262 700h105l262 -700h-122zM433 255l-101 279l-101 -279h202zM266 778q-27 27 -27 66q0 40 27 66.5t66 26.5q40 0 66.5 -26.5t26.5 -66.5q0 -39 -26.5 -66t-66.5 -27q-39 0 -66 27zM363.5 813q12.5 12 12.5 31t-12.5 31.5t-31.5 12.5
t-31 -12.5t-12 -31.5t12 -31t31 -12t31.5 12z" />
    <glyph glyph-name="Atilde" unicode="&#xc3;" horiz-adv-x="665" 
d="M469 155h-274l-56 -155h-121l262 700h105l262 -700h-122zM433 255l-101 279l-101 -279h202zM157 830q17 29 47 47t70 18q19 0 33.5 -5t34.5 -14q18 -8 28.5 -12t22.5 -4q40 0 69 36l46 -53q-17 -29 -47 -47t-70 -18q-19 0 -35 5t-34 15q-16 8 -27 11.5t-23 3.5
q-40 0 -69 -36z" />
    <glyph glyph-name="AE" unicode="&#xc6;" horiz-adv-x="954" 
d="M576 600v-188h253v-100h-253v-212h340v-100h-458v155h-246l-70 -155h-124l324 700h574v-100h-340zM458 255v345h-44l-156 -345h200z" />
    <glyph glyph-name="B" unicode="B" horiz-adv-x="637" 
d="M80 700h265q107 0 165 -47t58 -133q0 -50 -24.5 -86.5t-63.5 -56.5q115 -48 115 -178q0 -62 -29 -107t-80.5 -68.5t-116.5 -23.5h-289v700zM344 411q50 0 78 25t28 70t-28 69.5t-78 24.5h-146v-189h146zM364 100q53 0 83 28t30 78q0 51 -29.5 78t-83.5 27h-166v-211h166z
" />
    <glyph glyph-name="C" unicode="C" horiz-adv-x="710" 
d="M206 33.5q-77 47.5 -119 130t-42 186.5t42 186.5t119 130t178 47.5q106 0 182 -47t108 -144l-99 -43q-23 65 -72.5 99.5t-118.5 34.5q-68 0 -117 -34.5t-75 -94.5t-26 -135t26 -135t75 -94.5t117 -34.5q69 0 115.5 32t74.5 94l98 -43q-40 -89 -113 -136t-175 -47
q-101 0 -178 47.5z" />
    <glyph glyph-name="Cacute" unicode="&#x106;" horiz-adv-x="710" 
d="M206 33.5q-77 47.5 -119 130t-42 186.5t42 186.5t119 130t178 47.5q106 0 182 -47t108 -144l-99 -43q-23 65 -72.5 99.5t-118.5 34.5q-68 0 -117 -34.5t-75 -94.5t-26 -135t26 -135t75 -94.5t117 -34.5q69 0 115.5 32t74.5 94l98 -43q-40 -89 -113 -136t-175 -47
q-101 0 -178 47.5zM402 910h115l-88 -136h-91z" />
    <glyph glyph-name="Ccaron" unicode="&#x10c;" horiz-adv-x="710" 
d="M206 33.5q-77 47.5 -119 130t-42 186.5t42 186.5t119 130t178 47.5q106 0 182 -47t108 -144l-99 -43q-23 65 -72.5 99.5t-118.5 34.5q-68 0 -117 -34.5t-75 -94.5t-26 -135t26 -135t75 -94.5t117 -34.5q69 0 115.5 32t74.5 94l98 -43q-40 -89 -113 -136t-175 -47
q-101 0 -178 47.5zM226 910h93l65 -71l65 71h93l-108 -136h-100z" />
    <glyph glyph-name="Ccedilla" unicode="&#xc7;" horiz-adv-x="710" 
d="M206 33.5q-77 47.5 -119 130t-42 186.5t42 186.5t119 130t178 47.5q106 0 182 -47t108 -144l-99 -43q-23 65 -72.5 99.5t-118.5 34.5q-68 0 -117 -34.5t-75 -94.5t-26 -135t26 -135t75 -94.5t117 -34.5q69 0 115.5 32t74.5 94l98 -43q-40 -89 -113 -136t-175 -47
q-101 0 -178 47.5zM322 -213q-24 11 -40 29l35 42q23 -27 57 -27q21 0 33.5 9t12.5 28t-11 28t-29 9q-12 0 -23 -6t-17 -15l-45 21l27 95h57l-32 -67q17 22 53 22q40 0 64 -22.5t24 -65.5q0 -45 -29.5 -68t-82.5 -23q-30 0 -54 11z" />
    <glyph glyph-name="D" unicode="D" horiz-adv-x="688" 
d="M80 700h219q105 0 182.5 -42t119.5 -121t42 -187t-42 -187t-119.5 -121t-182.5 -42h-219v700zM299 100q106 0 164.5 67t58.5 183q0 117 -58.5 183.5t-164.5 66.5h-101v-500h101z" />
    <glyph glyph-name="Eth" unicode="&#xd0;" horiz-adv-x="688" 
d="M80 700h219q105 0 182.5 -42t119.5 -121t42 -187t-42 -187t-119.5 -121t-182.5 -42h-219v700zM299 100q106 0 164.5 67t58.5 183q0 117 -58.5 183.5t-164.5 66.5h-101v-500h101zM8 397h344v-94h-344v94z" />
    <glyph glyph-name="Dcaron" unicode="&#x10e;" horiz-adv-x="688" 
d="M80 700h219q105 0 182.5 -42t119.5 -121t42 -187t-42 -187t-119.5 -121t-182.5 -42h-219v700zM299 100q106 0 164.5 67t58.5 183q0 117 -58.5 183.5t-164.5 66.5h-101v-500h101zM87 910h93l65 -71l65 71h93l-108 -136h-100z" />
    <glyph glyph-name="Dcroat" unicode="&#x110;" horiz-adv-x="688" 
d="M80 700h219q105 0 182.5 -42t119.5 -121t42 -187t-42 -187t-119.5 -121t-182.5 -42h-219v700zM299 100q106 0 164.5 67t58.5 183q0 117 -58.5 183.5t-164.5 66.5h-101v-500h101zM8 397h344v-94h-344v94z" />
    <glyph glyph-name="E" unicode="E" horiz-adv-x="576" 
d="M198 600v-188h252v-100h-252v-212h340v-100h-458v700h458v-100h-340z" />
    <glyph glyph-name="Eacute" unicode="&#xc9;" horiz-adv-x="576" 
d="M198 600v-188h252v-100h-252v-212h340v-100h-458v700h458v-100h-340zM327 910h115l-88 -136h-91z" />
    <glyph glyph-name="Ecaron" unicode="&#x11a;" horiz-adv-x="576" 
d="M198 600v-188h252v-100h-252v-212h340v-100h-458v700h458v-100h-340zM151 910h93l65 -71l65 71h93l-108 -136h-100z" />
    <glyph glyph-name="Ecircumflex" unicode="&#xca;" horiz-adv-x="576" 
d="M198 600v-188h252v-100h-252v-212h340v-100h-458v700h458v-100h-340zM259 910h100l108 -136h-93l-65 71l-65 -71h-93z" />
    <glyph glyph-name="Edieresis" unicode="&#xcb;" horiz-adv-x="576" 
d="M198 600v-188h252v-100h-252v-212h340v-100h-458v700h458v-100h-340zM163 888h119v-102h-119v102zM337 888h119v-102h-119v102z" />
    <glyph glyph-name="Edotaccent" unicode="&#x116;" horiz-adv-x="576" 
d="M198 600v-188h252v-100h-252v-212h340v-100h-458v700h458v-100h-340zM238 878h142v-107h-142v107z" />
    <glyph glyph-name="Egrave" unicode="&#xc8;" horiz-adv-x="576" 
d="M198 600v-188h252v-100h-252v-212h340v-100h-458v700h458v-100h-340zM175 910h115l64 -136h-91z" />
    <glyph glyph-name="Emacron" unicode="&#x112;" horiz-adv-x="576" 
d="M198 600v-188h252v-100h-252v-212h340v-100h-458v700h458v-100h-340zM195 871h229v-81h-229v81z" />
    <glyph glyph-name="Eogonek" unicode="&#x118;" horiz-adv-x="576" 
d="M198 600v-188h252v-100h-252v-212h340v-100h-458v700h458v-100h-340zM427 -173.5q-25 25.5 -25 70.5q0 32 13.5 58t35.5 45h87q-30 -24 -44.5 -43.5t-14.5 -44.5q0 -17 9.5 -26.5t24.5 -9.5q20 0 35 11v-76q-21 -10 -52 -10q-44 0 -69 25.5z" />
    <glyph glyph-name="F" unicode="F" horiz-adv-x="576" 
d="M198 600v-216h277v-100h-277v-284h-118v700h458v-100h-340z" />
    <glyph glyph-name="G" unicode="G" horiz-adv-x="741" 
d="M209 33.5q-78 47.5 -121 130.5t-43 186t43 186t121 130.5t179 47.5q102 0 171 -39.5t106 -128.5l-89 -52q-27 61 -73.5 90.5t-114.5 29.5q-69 0 -119 -34.5t-76.5 -94.5t-26.5 -135t26 -135t76 -94.5t119 -34.5q59 0 102.5 17t80.5 52v124h-205v96h312v-270
q-64 -62 -128.5 -90.5t-161.5 -28.5q-100 0 -178 47.5z" />
    <glyph glyph-name="Gbreve" unicode="&#x11e;" horiz-adv-x="741" 
d="M209 33.5q-78 47.5 -121 130.5t-43 186t43 186t121 130.5t179 47.5q102 0 171 -39.5t106 -128.5l-89 -52q-27 61 -73.5 90.5t-114.5 29.5q-69 0 -119 -34.5t-76.5 -94.5t-26.5 -135t26 -135t76 -94.5t119 -34.5q59 0 102.5 17t80.5 52v124h-205v96h312v-270
q-64 -62 -128.5 -90.5t-161.5 -28.5q-100 0 -178 47.5zM306.5 804q-30.5 29 -30.5 81h72q0 -21 10.5 -34t29.5 -13q20 0 30.5 13t10.5 34h71q0 -52 -30 -81t-82 -29q-51 0 -81.5 29z" />
    <glyph glyph-name="Gcommaaccent" unicode="&#x122;" horiz-adv-x="741" 
d="M209 33.5q-78 47.5 -121 130.5t-43 186t43 186t121 130.5t179 47.5q102 0 171 -39.5t106 -128.5l-89 -52q-27 61 -73.5 90.5t-114.5 29.5q-69 0 -119 -34.5t-76.5 -94.5t-26.5 -135t26 -135t76 -94.5t119 -34.5q59 0 102.5 17t80.5 52v124h-205v96h312v-270
q-64 -62 -128.5 -90.5t-161.5 -28.5q-100 0 -178 47.5zM327 -222q33 9 50.5 26.5t17.5 48.5h-77v99h139v-99q0 -57 -29.5 -86t-80.5 -45z" />
    <glyph glyph-name="H" unicode="H" horiz-adv-x="706" 
d="M626 700v-700h-118v312h-310v-312h-118v700h118v-288h310v288h118z" />
    <glyph glyph-name="Hbar" unicode="&#x126;" horiz-adv-x="706" 
d="M626 700v-700h-118v312h-310v-312h-118v700h118v-288h310v288h118zM12 601h681v-90h-681v90z" />
    <glyph glyph-name="I" unicode="I" horiz-adv-x="278" 
d="M80 700h118v-700h-118v700z" />
    <glyph glyph-name="Iacute" unicode="&#xcd;" horiz-adv-x="278" 
d="M80 700h118v-700h-118v700zM157 910h115l-88 -136h-91z" />
    <glyph glyph-name="Icircumflex" unicode="&#xce;" horiz-adv-x="278" 
d="M80 700h118v-700h-118v700zM89 910h100l108 -136h-93l-65 71l-65 -71h-93z" />
    <glyph glyph-name="Idieresis" unicode="&#xcf;" horiz-adv-x="278" 
d="M80 700h118v-700h-118v700zM-7 888h119v-102h-119v102zM167 888h119v-102h-119v102z" />
    <glyph glyph-name="Idotaccent" unicode="&#x130;" horiz-adv-x="278" 
d="M80 700h118v-700h-118v700zM68 878h142v-107h-142v107z" />
    <glyph glyph-name="Igrave" unicode="&#xcc;" horiz-adv-x="278" 
d="M80 700h118v-700h-118v700zM5 910h115l64 -136h-91z" />
    <glyph glyph-name="Imacron" unicode="&#x12a;" horiz-adv-x="278" 
d="M80 700h118v-700h-118v700zM25 871h229v-81h-229v81z" />
    <glyph glyph-name="Iogonek" unicode="&#x12e;" horiz-adv-x="278" 
d="M80 700h118v-700h-118v700zM87 -173.5q-25 25.5 -25 70.5q0 32 13.5 58t35.5 45h87q-30 -24 -44.5 -43.5t-14.5 -44.5q0 -17 9.5 -26.5t24.5 -9.5q20 0 35 11v-76q-21 -10 -52 -10q-44 0 -69 25.5z" />
    <glyph glyph-name="J" unicode="J" horiz-adv-x="513" 
d="M102.5 10.5q-48.5 24.5 -77.5 67.5l59 89q26 -40 58 -60.5t74 -20.5q51 0 79.5 35.5t28.5 108.5v470h118v-464q0 -125 -58 -187.5t-168 -62.5q-65 0 -113.5 24.5z" />
    <glyph glyph-name="K" unicode="K" horiz-adv-x="627" 
d="M264 338l-66 -73v-265h-118v700h118v-281l248 281h146l-245 -271l274 -429h-137z" />
    <glyph glyph-name="Kcommaaccent" unicode="&#x136;" horiz-adv-x="627" 
d="M264 338l-66 -73v-265h-118v700h118v-281l248 281h146l-245 -271l274 -429h-137zM274 -222q33 9 50.5 26.5t17.5 48.5h-77v99h139v-99q0 -57 -29.5 -86t-80.5 -45z" />
    <glyph glyph-name="L" unicode="L" horiz-adv-x="539" 
d="M508 100v-100h-428v700h118v-600h310z" />
    <glyph glyph-name="Lacute" unicode="&#x139;" horiz-adv-x="539" 
d="M508 100v-100h-428v700h118v-600h310zM157 910h115l-88 -136h-91z" />
    <glyph glyph-name="Lcaron" unicode="&#x13d;" horiz-adv-x="539" 
d="M508 100v-100h-428v700h118v-600h310zM358 513q41 7 63 27t22 53h-77v107h142v-107q0 -63 -35.5 -101t-97.5 -49z" />
    <glyph glyph-name="Lcommaaccent" unicode="&#x13b;" horiz-adv-x="539" 
d="M508 100v-100h-428v700h118v-600h310zM233 -222q33 9 50.5 26.5t17.5 48.5h-77v99h139v-99q0 -57 -29.5 -86t-80.5 -45z" />
    <glyph glyph-name="Lslash" unicode="&#x141;" horiz-adv-x="539" 
d="M508 100v-100h-428v700h118v-600h310zM-18 292l336 193l44 -76l-336 -194z" />
    <glyph glyph-name="M" unicode="M" horiz-adv-x="864" 
d="M80 700h108l244 -507l244 507h108v-700h-114v449l-195 -391h-87l-194 391v-449h-114v700z" />
    <glyph glyph-name="N" unicode="N" horiz-adv-x="737" 
d="M80 700h105l355 -495v495h117v-700h-106l-354 495v-495h-117v700z" />
    <glyph glyph-name="Nacute" unicode="&#x143;" horiz-adv-x="737" 
d="M80 700h105l355 -495v495h117v-700h-106l-354 495v-495h-117v700zM386 910h115l-88 -136h-91z" />
    <glyph glyph-name="Ncaron" unicode="&#x147;" horiz-adv-x="737" 
d="M80 700h105l355 -495v495h117v-700h-106l-354 495v-495h-117v700zM210 910h93l65 -71l65 71h93l-108 -136h-100z" />
    <glyph glyph-name="Ncommaaccent" unicode="&#x145;" horiz-adv-x="737" 
d="M80 700h105l355 -495v495h117v-700h-106l-354 495v-495h-117v700zM307 -222q33 9 50.5 26.5t17.5 48.5h-77v99h139v-99q0 -57 -29.5 -86t-80.5 -45z" />
    <glyph glyph-name="Ntilde" unicode="&#xd1;" horiz-adv-x="737" 
d="M80 700h105l355 -495v495h117v-700h-106l-354 495v-495h-117v700zM193 830q17 29 47 47t70 18q19 0 33.5 -5t34.5 -14q18 -8 28.5 -12t22.5 -4q40 0 69 36l46 -53q-17 -29 -47 -47t-70 -18q-19 0 -35 5t-34 15q-16 8 -27 11.5t-23 3.5q-40 0 -69 -36z" />
    <glyph glyph-name="O" unicode="O" horiz-adv-x="767" 
d="M205 31.5q-77 45.5 -118.5 128t-41.5 190.5t41.5 190.5t118.5 128t179 45.5t178.5 -45.5t118 -128t41.5 -190.5t-41.5 -190.5t-118 -128t-178.5 -45.5t-179 45.5zM499.5 120.5q49.5 34.5 75.5 94.5t26 135q0 76 -26 136t-75.5 94t-115.5 34q-67 0 -116.5 -34t-75.5 -94
t-26 -136q0 -75 26 -135t75.5 -94.5t116.5 -34.5q66 0 115.5 34.5z" />
    <glyph glyph-name="Oacute" unicode="&#xd3;" horiz-adv-x="767" 
d="M205 31.5q-77 45.5 -118.5 128t-41.5 190.5t41.5 190.5t118.5 128t179 45.5t178.5 -45.5t118 -128t41.5 -190.5t-41.5 -190.5t-118 -128t-178.5 -45.5t-179 45.5zM499.5 120.5q49.5 34.5 75.5 94.5t26 135q0 76 -26 136t-75.5 94t-115.5 34q-67 0 -116.5 -34t-75.5 -94
t-26 -136q0 -75 26 -135t75.5 -94.5t116.5 -34.5q66 0 115.5 34.5zM402 910h115l-88 -136h-91z" />
    <glyph glyph-name="Ocircumflex" unicode="&#xd4;" horiz-adv-x="767" 
d="M205 31.5q-77 45.5 -118.5 128t-41.5 190.5t41.5 190.5t118.5 128t179 45.5t178.5 -45.5t118 -128t41.5 -190.5t-41.5 -190.5t-118 -128t-178.5 -45.5t-179 45.5zM499.5 120.5q49.5 34.5 75.5 94.5t26 135q0 76 -26 136t-75.5 94t-115.5 34q-67 0 -116.5 -34t-75.5 -94
t-26 -136q0 -75 26 -135t75.5 -94.5t116.5 -34.5q66 0 115.5 34.5zM334 910h100l108 -136h-93l-65 71l-65 -71h-93z" />
    <glyph glyph-name="Odieresis" unicode="&#xd6;" horiz-adv-x="767" 
d="M205 31.5q-77 45.5 -118.5 128t-41.5 190.5t41.5 190.5t118.5 128t179 45.5t178.5 -45.5t118 -128t41.5 -190.5t-41.5 -190.5t-118 -128t-178.5 -45.5t-179 45.5zM499.5 120.5q49.5 34.5 75.5 94.5t26 135q0 76 -26 136t-75.5 94t-115.5 34q-67 0 -116.5 -34t-75.5 -94
t-26 -136q0 -75 26 -135t75.5 -94.5t116.5 -34.5q66 0 115.5 34.5zM238 888h119v-102h-119v102zM412 888h119v-102h-119v102z" />
    <glyph glyph-name="Ograve" unicode="&#xd2;" horiz-adv-x="767" 
d="M205 31.5q-77 45.5 -118.5 128t-41.5 190.5t41.5 190.5t118.5 128t179 45.5t178.5 -45.5t118 -128t41.5 -190.5t-41.5 -190.5t-118 -128t-178.5 -45.5t-179 45.5zM499.5 120.5q49.5 34.5 75.5 94.5t26 135q0 76 -26 136t-75.5 94t-115.5 34q-67 0 -116.5 -34t-75.5 -94
t-26 -136q0 -75 26 -135t75.5 -94.5t116.5 -34.5q66 0 115.5 34.5zM250 910h115l64 -136h-91z" />
    <glyph glyph-name="Ohungarumlaut" unicode="&#x150;" horiz-adv-x="767" 
d="M205 31.5q-77 45.5 -118.5 128t-41.5 190.5t41.5 190.5t118.5 128t179 45.5t178.5 -45.5t118 -128t41.5 -190.5t-41.5 -190.5t-118 -128t-178.5 -45.5t-179 45.5zM499.5 120.5q49.5 34.5 75.5 94.5t26 135q0 76 -26 136t-75.5 94t-115.5 34q-67 0 -116.5 -34t-75.5 -94
t-26 -136q0 -75 26 -135t75.5 -94.5t116.5 -34.5q66 0 115.5 34.5zM310 910h115l-88 -136h-91zM482 910h115l-88 -136h-91z" />
    <glyph glyph-name="Omacron" unicode="&#x14c;" horiz-adv-x="767" 
d="M205 31.5q-77 45.5 -118.5 128t-41.5 190.5t41.5 190.5t118.5 128t179 45.5t178.5 -45.5t118 -128t41.5 -190.5t-41.5 -190.5t-118 -128t-178.5 -45.5t-179 45.5zM499.5 120.5q49.5 34.5 75.5 94.5t26 135q0 76 -26 136t-75.5 94t-115.5 34q-67 0 -116.5 -34t-75.5 -94
t-26 -136q0 -75 26 -135t75.5 -94.5t116.5 -34.5q66 0 115.5 34.5zM270 871h229v-81h-229v81z" />
    <glyph glyph-name="Oslash" unicode="&#xd8;" horiz-adv-x="767" 
d="M187 44l-52 -62l-70 61l54 65q-36 47 -55 108.5t-19 133.5q0 108 41.5 190.5t118.5 128t179 45.5q116 0 197 -58l52 62l70 -60l-55 -65q74 -96 74 -243q0 -108 -41.5 -190.5t-118 -128t-178.5 -45.5q-114 0 -197 58zM510 572q-53 42 -126 42q-67 0 -116.5 -34t-75.5 -94
t-26 -136q0 -84 33 -148zM499.5 120.5q49.5 34.5 75.5 94.5t26 135q0 86 -32 148l-312 -369q54 -43 127 -43q66 0 115.5 34.5z" />
    <glyph glyph-name="Otilde" unicode="&#xd5;" horiz-adv-x="767" 
d="M205 31.5q-77 45.5 -118.5 128t-41.5 190.5t41.5 190.5t118.5 128t179 45.5t178.5 -45.5t118 -128t41.5 -190.5t-41.5 -190.5t-118 -128t-178.5 -45.5t-179 45.5zM499.5 120.5q49.5 34.5 75.5 94.5t26 135q0 76 -26 136t-75.5 94t-115.5 34q-67 0 -116.5 -34t-75.5 -94
t-26 -136q0 -75 26 -135t75.5 -94.5t116.5 -34.5q66 0 115.5 34.5zM209 830q17 29 47 47t70 18q19 0 33.5 -5t34.5 -14q18 -8 28.5 -12t22.5 -4q40 0 69 36l46 -53q-17 -29 -47 -47t-70 -18q-19 0 -35 5t-34 15q-16 8 -27 11.5t-23 3.5q-40 0 -69 -36z" />
    <glyph glyph-name="OE" unicode="&#x152;" horiz-adv-x="1100" 
d="M202 31.5q-75 45.5 -116 128.5t-41 190q0 108 41 190.5t116 128t173 45.5q75 0 134 -27t95 -80v93h458v-100h-340v-188h253v-100h-253v-212h340v-100h-458v93q-36 -53 -95 -80t-134 -27q-98 0 -173 45.5zM499.5 120.5q49.5 34.5 75.5 94.5t26 135q0 76 -26 136t-75.5 94
t-115.5 34q-67 0 -116.5 -34t-75.5 -94t-26 -136q0 -75 26 -135t75.5 -94.5t116.5 -34.5q66 0 115.5 34.5z" />
    <glyph glyph-name="P" unicode="P" horiz-adv-x="629" 
d="M80 700h282q108 0 169 -55.5t61 -155.5q0 -101 -61 -156.5t-169 -55.5h-164v-277h-118v700zM357 372q61 0 92 30t31 87t-31.5 86.5t-91.5 29.5h-159v-233h159z" />
    <glyph glyph-name="Thorn" unicode="&#xde;" horiz-adv-x="591" 
d="M80 700h118v-138h126q108 0 169 -55.5t61 -156.5q0 -100 -61 -155.5t-169 -55.5h-126v-139h-118v700zM319 234q60 0 91 29.5t31 86.5t-31 87t-91 30h-121v-233h121z" />
    <glyph glyph-name="Q" unicode="Q" horiz-adv-x="767" 
d="M755 7l-21 -91q-22 -13 -48 -13q-68 0 -109 26.5t-68 77.5q-55 -21 -125 -21q-102 0 -179 45.5t-118.5 128t-41.5 190.5t41.5 190.5t118.5 128t179 45.5t178.5 -45.5t118 -128t41.5 -190.5q0 -93 -31 -168t-89 -123q20 -32 46 -48t66 -16q25 0 41 12zM267.5 580
q-49.5 -34 -75.5 -94t-26 -136q0 -59 16.5 -110t47.5 -86q20 51 61 78.5t96 27.5q52 0 90.5 -23.5t68.5 -70.5q55 72 55 184q0 76 -26 136t-75.5 94t-115.5 34q-67 0 -116.5 -34zM384 86q44 0 82 16q-18 37 -37.5 53t-47.5 16q-55 0 -76 -71q37 -14 79 -14z" />
    <glyph glyph-name="R" unicode="R" horiz-adv-x="657" 
d="M80 700h299q96 0 153 -51.5t57 -134.5q0 -66 -38.5 -109t-92.5 -57q46 -15 69 -89l58 -186q12 -43 38 -73h-121q-19 19 -33 62l-57 177q-12 37 -29.5 52.5t-55.5 15.5h-129v-307h-118v700zM367 402q109 0 109 102q0 101 -109 101h-169v-203h169z" />
    <glyph glyph-name="Racute" unicode="&#x154;" horiz-adv-x="657" 
d="M80 700h299q96 0 153 -51.5t57 -134.5q0 -66 -38.5 -109t-92.5 -57q46 -15 69 -89l58 -186q12 -43 38 -73h-121q-19 19 -33 62l-57 177q-12 37 -29.5 52.5t-55.5 15.5h-129v-307h-118v700zM367 402q109 0 109 102q0 101 -109 101h-169v-203h169zM322 910h115l-88 -136
h-91z" />
    <glyph glyph-name="Rcaron" unicode="&#x158;" horiz-adv-x="657" 
d="M80 700h299q96 0 153 -51.5t57 -134.5q0 -66 -38.5 -109t-92.5 -57q46 -15 69 -89l58 -186q12 -43 38 -73h-121q-19 19 -33 62l-57 177q-12 37 -29.5 52.5t-55.5 15.5h-129v-307h-118v700zM367 402q109 0 109 102q0 101 -109 101h-169v-203h169zM146 910h93l65 -71l65 71
h93l-108 -136h-100z" />
    <glyph glyph-name="Rcommaaccent" unicode="&#x156;" horiz-adv-x="657" 
d="M80 700h299q96 0 153 -51.5t57 -134.5q0 -66 -38.5 -109t-92.5 -57q46 -15 69 -89l58 -186q12 -43 38 -73h-121q-19 19 -33 62l-57 177q-12 37 -29.5 52.5t-55.5 15.5h-129v-307h-118v700zM367 402q109 0 109 102q0 101 -109 101h-169v-203h169zM263 -222q33 9 50.5 26.5
t17.5 48.5h-77v99h139v-99q0 -57 -29.5 -86t-80.5 -45z" />
    <glyph glyph-name="S" unicode="S" horiz-adv-x="558" 
d="M135.5 12.5q-64.5 26.5 -97.5 69.5l35 124q43 -61 92 -90.5t108 -29.5q53 0 85.5 28.5t32.5 76.5q0 34 -12 56.5t-42 39.5t-85 32q-199 55 -199 205q0 59 30 102t82 65.5t116 22.5q118 0 200 -63l-33 -105q-80 70 -166 70q-48 0 -81.5 -23.5t-33.5 -63.5q0 -43 34 -71.5
t122 -52.5q95 -26 142 -74t47 -133q0 -63 -31 -111.5t-86 -74.5t-123 -26q-72 0 -136.5 26.5z" />
    <glyph glyph-name="Sacute" unicode="&#x15a;" horiz-adv-x="558" 
d="M135.5 12.5q-64.5 26.5 -97.5 69.5l35 124q43 -61 92 -90.5t108 -29.5q53 0 85.5 28.5t32.5 76.5q0 34 -12 56.5t-42 39.5t-85 32q-199 55 -199 205q0 59 30 102t82 65.5t116 22.5q118 0 200 -63l-33 -105q-80 70 -166 70q-48 0 -81.5 -23.5t-33.5 -63.5q0 -43 34 -71.5
t122 -52.5q95 -26 142 -74t47 -133q0 -63 -31 -111.5t-86 -74.5t-123 -26q-72 0 -136.5 26.5zM298 910h115l-88 -136h-91z" />
    <glyph glyph-name="Scaron" unicode="&#x160;" horiz-adv-x="558" 
d="M135.5 12.5q-64.5 26.5 -97.5 69.5l35 124q43 -61 92 -90.5t108 -29.5q53 0 85.5 28.5t32.5 76.5q0 34 -12 56.5t-42 39.5t-85 32q-199 55 -199 205q0 59 30 102t82 65.5t116 22.5q118 0 200 -63l-33 -105q-80 70 -166 70q-48 0 -81.5 -23.5t-33.5 -63.5q0 -43 34 -71.5
t122 -52.5q95 -26 142 -74t47 -133q0 -63 -31 -111.5t-86 -74.5t-123 -26q-72 0 -136.5 26.5zM122 910h93l65 -71l65 71h93l-108 -136h-100z" />
    <glyph glyph-name="Scedilla" unicode="&#x15e;" horiz-adv-x="558" 
d="M135.5 12.5q-64.5 26.5 -97.5 69.5l35 124q43 -61 92 -90.5t108 -29.5q53 0 85.5 28.5t32.5 76.5q0 34 -12 56.5t-42 39.5t-85 32q-199 55 -199 205q0 59 30 102t82 65.5t116 22.5q118 0 200 -63l-33 -105q-80 70 -166 70q-48 0 -81.5 -23.5t-33.5 -63.5q0 -43 34 -71.5
t122 -52.5q95 -26 142 -74t47 -133q0 -63 -31 -111.5t-86 -74.5t-123 -26q-72 0 -136.5 26.5zM210 -213q-24 11 -40 29l35 42q23 -27 57 -27q21 0 33.5 9t12.5 28t-11 28t-29 9q-12 0 -23 -6t-17 -15l-45 21l27 95h57l-32 -67q17 22 53 22q40 0 64 -22.5t24 -65.5
q0 -45 -29.5 -68t-82.5 -23q-30 0 -54 11z" />
    <glyph glyph-name="Scommaaccent" unicode="&#x218;" horiz-adv-x="558" 
d="M135.5 12.5q-64.5 26.5 -97.5 69.5l35 124q43 -61 92 -90.5t108 -29.5q53 0 85.5 28.5t32.5 76.5q0 34 -12 56.5t-42 39.5t-85 32q-199 55 -199 205q0 59 30 102t82 65.5t116 22.5q118 0 200 -63l-33 -105q-80 70 -166 70q-48 0 -81.5 -23.5t-33.5 -63.5q0 -43 34 -71.5
t122 -52.5q95 -26 142 -74t47 -133q0 -63 -31 -111.5t-86 -74.5t-123 -26q-72 0 -136.5 26.5zM212 -222q33 9 50.5 26.5t17.5 48.5h-77v99h139v-99q0 -57 -29.5 -86t-80.5 -45z" />
    <glyph glyph-name="T" unicode="T" horiz-adv-x="567" 
d="M544 600h-202v-600h-118v600h-201v100h521v-100z" />
    <glyph glyph-name="Tcaron" unicode="&#x164;" horiz-adv-x="567" 
d="M544 600h-202v-600h-118v600h-201v100h521v-100zM126 910h93l65 -71l65 71h93l-108 -136h-100z" />
    <glyph glyph-name="uni0162" unicode="&#x162;" horiz-adv-x="567" 
d="M544 600h-202v-600h-118v600h-201v100h521v-100zM256 -213q-24 11 -40 29l35 42q23 -27 57 -27q21 0 33.5 9t12.5 28t-11 28t-29 9q-12 0 -23 -6t-17 -15l-45 21l27 95h57l-32 -67q17 22 53 22q40 0 64 -22.5t24 -65.5q0 -45 -29.5 -68t-82.5 -23q-30 0 -54 11z" />
    <glyph glyph-name="uni021A" unicode="&#x21a;" horiz-adv-x="567" 
d="M544 600h-202v-600h-118v600h-201v100h521v-100zM223 -222q33 9 50.5 26.5t17.5 48.5h-77v99h139v-99q0 -57 -29.5 -86t-80.5 -45z" />
    <glyph glyph-name="U" unicode="U" horiz-adv-x="686" 
d="M143.5 56q-71.5 70 -71.5 205v439h118v-433q0 -89 40.5 -135t112.5 -46q73 0 113.5 46t40.5 135v433h118v-439q0 -135 -72 -205t-200 -70t-199.5 70z" />
    <glyph glyph-name="Uacute" unicode="&#xda;" horiz-adv-x="686" 
d="M143.5 56q-71.5 70 -71.5 205v439h118v-433q0 -89 40.5 -135t112.5 -46q73 0 113.5 46t40.5 135v433h118v-439q0 -135 -72 -205t-200 -70t-199.5 70zM361 910h115l-88 -136h-91z" />
    <glyph glyph-name="Ucircumflex" unicode="&#xdb;" horiz-adv-x="686" 
d="M143.5 56q-71.5 70 -71.5 205v439h118v-433q0 -89 40.5 -135t112.5 -46q73 0 113.5 46t40.5 135v433h118v-439q0 -135 -72 -205t-200 -70t-199.5 70zM293 910h100l108 -136h-93l-65 71l-65 -71h-93z" />
    <glyph glyph-name="Udieresis" unicode="&#xdc;" horiz-adv-x="686" 
d="M143.5 56q-71.5 70 -71.5 205v439h118v-433q0 -89 40.5 -135t112.5 -46q73 0 113.5 46t40.5 135v433h118v-439q0 -135 -72 -205t-200 -70t-199.5 70zM197 888h119v-102h-119v102zM371 888h119v-102h-119v102z" />
    <glyph glyph-name="Ugrave" unicode="&#xd9;" horiz-adv-x="686" 
d="M143.5 56q-71.5 70 -71.5 205v439h118v-433q0 -89 40.5 -135t112.5 -46q73 0 113.5 46t40.5 135v433h118v-439q0 -135 -72 -205t-200 -70t-199.5 70zM209 910h115l64 -136h-91z" />
    <glyph glyph-name="Uhungarumlaut" unicode="&#x170;" horiz-adv-x="686" 
d="M143.5 56q-71.5 70 -71.5 205v439h118v-433q0 -89 40.5 -135t112.5 -46q73 0 113.5 46t40.5 135v433h118v-439q0 -135 -72 -205t-200 -70t-199.5 70zM269 910h115l-88 -136h-91zM441 910h115l-88 -136h-91z" />
    <glyph glyph-name="Umacron" unicode="&#x16a;" horiz-adv-x="686" 
d="M143.5 56q-71.5 70 -71.5 205v439h118v-433q0 -89 40.5 -135t112.5 -46q73 0 113.5 46t40.5 135v433h118v-439q0 -135 -72 -205t-200 -70t-199.5 70zM229 871h229v-81h-229v81z" />
    <glyph glyph-name="Uogonek" unicode="&#x172;" horiz-adv-x="686" 
d="M143.5 56q-71.5 70 -71.5 205v439h118v-433q0 -89 40.5 -135t112.5 -46q73 0 113.5 46t40.5 135v433h118v-439q0 -135 -72 -205t-200 -70t-199.5 70zM293 -173.5q-25 25.5 -25 70.5q0 32 13.5 58t35.5 45h87q-30 -24 -44.5 -43.5t-14.5 -44.5q0 -17 9.5 -26.5t24.5 -9.5
q20 0 35 11v-76q-21 -10 -52 -10q-44 0 -69 25.5z" />
    <glyph glyph-name="Uring" unicode="&#x16e;" horiz-adv-x="686" 
d="M143.5 56q-71.5 70 -71.5 205v439h118v-433q0 -89 40.5 -135t112.5 -46q73 0 113.5 46t40.5 135v433h118v-439q0 -135 -72 -205t-200 -70t-199.5 70zM277 778q-27 27 -27 66q0 40 27 66.5t66 26.5q40 0 66.5 -26.5t26.5 -66.5q0 -39 -26.5 -66t-66.5 -27q-39 0 -66 27z
M374.5 813q12.5 12 12.5 31t-12.5 31.5t-31.5 12.5t-31 -12.5t-12 -31.5t12 -31t31 -12t31.5 12z" />
    <glyph glyph-name="V" unicode="V" horiz-adv-x="665" 
d="M14 700h125l193 -535l194 535h125l-267 -700h-104z" />
    <glyph glyph-name="W" unicode="W" horiz-adv-x="985" 
d="M18 700h122l139 -510l161 510h105l162 -510l138 510h122l-205 -700h-104l-165 527l-166 -527h-103z" />
    <glyph glyph-name="X" unicode="X" horiz-adv-x="624" 
d="M471 0l-159 264l-159 -264h-130l227 367l-204 333h128l138 -230l138 230h128l-203 -334l226 -366h-130z" />
    <glyph glyph-name="Y" unicode="Y" horiz-adv-x="610" 
d="M246 265l-231 435h133l157 -311l157 311h133l-231 -435v-265h-118v265z" />
    <glyph glyph-name="Yacute" unicode="&#xdd;" horiz-adv-x="610" 
d="M246 265l-231 435h133l157 -311l157 311h133l-231 -435v-265h-118v265zM323 910h115l-88 -136h-91z" />
    <glyph glyph-name="Ydieresis" unicode="&#x178;" horiz-adv-x="610" 
d="M246 265l-231 435h133l157 -311l157 311h133l-231 -435v-265h-118v265zM159 888h119v-102h-119v102zM333 888h119v-102h-119v102z" />
    <glyph glyph-name="Z" unicode="Z" horiz-adv-x="603" 
d="M36 88l385 512h-373v100h511v-88l-384 -512h396v-100h-535v88z" />
    <glyph glyph-name="Zacute" unicode="&#x179;" horiz-adv-x="603" 
d="M36 88l385 512h-373v100h511v-88l-384 -512h396v-100h-535v88zM322 910h115l-88 -136h-91z" />
    <glyph glyph-name="Zcaron" unicode="&#x17d;" horiz-adv-x="603" 
d="M36 88l385 512h-373v100h511v-88l-384 -512h396v-100h-535v88zM146 910h93l65 -71l65 71h93l-108 -136h-100z" />
    <glyph glyph-name="Zdotaccent" unicode="&#x17b;" horiz-adv-x="603" 
d="M36 88l385 512h-373v100h511v-88l-384 -512h396v-100h-535v88zM233 878h142v-107h-142v107z" />
    <glyph glyph-name="a" unicode="a" horiz-adv-x="528" 
d="M87.5 25q-43.5 39 -43.5 107q0 69 44.5 109t118.5 45l142 10v37q0 40 -27 62.5t-71 22.5q-40 0 -69.5 -18.5t-43.5 -55.5l-80 41q21 57 73.5 88t121.5 31q96 0 149.5 -42.5t53.5 -121.5v-247q0 -29 4.5 -51t16.5 -42h-107q-17 26 -21 63q-50 -77 -149 -77
q-69 0 -112.5 39zM317 107.5q32 34.5 32 86.5v25l-107 -6q-84 -6 -84 -74q0 -31 20 -48.5t55 -17.5q52 0 84 34.5z" />
    <glyph glyph-name="aacute" unicode="&#xe1;" horiz-adv-x="528" 
d="M87.5 25q-43.5 39 -43.5 107q0 69 44.5 109t118.5 45l142 10v37q0 40 -27 62.5t-71 22.5q-40 0 -69.5 -18.5t-43.5 -55.5l-80 41q21 57 73.5 88t121.5 31q96 0 149.5 -42.5t53.5 -121.5v-247q0 -29 4.5 -51t16.5 -42h-107q-17 26 -21 63q-50 -77 -149 -77
q-69 0 -112.5 39zM317 107.5q32 34.5 32 86.5v25l-107 -6q-84 -6 -84 -74q0 -31 20 -48.5t55 -17.5q52 0 84 34.5zM274 700h115l-88 -136h-91z" />
    <glyph glyph-name="abreve" unicode="&#x103;" horiz-adv-x="528" 
d="M87.5 25q-43.5 39 -43.5 107q0 69 44.5 109t118.5 45l142 10v37q0 40 -27 62.5t-71 22.5q-40 0 -69.5 -18.5t-43.5 -55.5l-80 41q21 57 73.5 88t121.5 31q96 0 149.5 -42.5t53.5 -121.5v-247q0 -29 4.5 -51t16.5 -42h-107q-17 26 -21 63q-50 -77 -149 -77
q-69 0 -112.5 39zM317 107.5q32 34.5 32 86.5v25l-107 -6q-84 -6 -84 -74q0 -31 20 -48.5t55 -17.5q52 0 84 34.5zM174.5 594q-30.5 29 -30.5 81h72q0 -21 10.5 -34t29.5 -13q20 0 30.5 13t10.5 34h71q0 -52 -30 -81t-82 -29q-51 0 -81.5 29z" />
    <glyph glyph-name="acircumflex" unicode="&#xe2;" horiz-adv-x="528" 
d="M87.5 25q-43.5 39 -43.5 107q0 69 44.5 109t118.5 45l142 10v37q0 40 -27 62.5t-71 22.5q-40 0 -69.5 -18.5t-43.5 -55.5l-80 41q21 57 73.5 88t121.5 31q96 0 149.5 -42.5t53.5 -121.5v-247q0 -29 4.5 -51t16.5 -42h-107q-17 26 -21 63q-50 -77 -149 -77
q-69 0 -112.5 39zM317 107.5q32 34.5 32 86.5v25l-107 -6q-84 -6 -84 -74q0 -31 20 -48.5t55 -17.5q52 0 84 34.5zM206 700h100l108 -136h-93l-65 71l-65 -71h-93z" />
    <glyph glyph-name="adieresis" unicode="&#xe4;" horiz-adv-x="528" 
d="M87.5 25q-43.5 39 -43.5 107q0 69 44.5 109t118.5 45l142 10v37q0 40 -27 62.5t-71 22.5q-40 0 -69.5 -18.5t-43.5 -55.5l-80 41q21 57 73.5 88t121.5 31q96 0 149.5 -42.5t53.5 -121.5v-247q0 -29 4.5 -51t16.5 -42h-107q-17 26 -21 63q-50 -77 -149 -77
q-69 0 -112.5 39zM317 107.5q32 34.5 32 86.5v25l-107 -6q-84 -6 -84 -74q0 -31 20 -48.5t55 -17.5q52 0 84 34.5zM110 678h119v-102h-119v102zM284 678h119v-102h-119v102z" />
    <glyph glyph-name="agrave" unicode="&#xe0;" horiz-adv-x="528" 
d="M87.5 25q-43.5 39 -43.5 107q0 69 44.5 109t118.5 45l142 10v37q0 40 -27 62.5t-71 22.5q-40 0 -69.5 -18.5t-43.5 -55.5l-80 41q21 57 73.5 88t121.5 31q96 0 149.5 -42.5t53.5 -121.5v-247q0 -29 4.5 -51t16.5 -42h-107q-17 26 -21 63q-50 -77 -149 -77
q-69 0 -112.5 39zM317 107.5q32 34.5 32 86.5v25l-107 -6q-84 -6 -84 -74q0 -31 20 -48.5t55 -17.5q52 0 84 34.5zM122 700h115l64 -136h-91z" />
    <glyph glyph-name="amacron" unicode="&#x101;" horiz-adv-x="528" 
d="M87.5 25q-43.5 39 -43.5 107q0 69 44.5 109t118.5 45l142 10v37q0 40 -27 62.5t-71 22.5q-40 0 -69.5 -18.5t-43.5 -55.5l-80 41q21 57 73.5 88t121.5 31q96 0 149.5 -42.5t53.5 -121.5v-247q0 -29 4.5 -51t16.5 -42h-107q-17 26 -21 63q-50 -77 -149 -77
q-69 0 -112.5 39zM317 107.5q32 34.5 32 86.5v25l-107 -6q-84 -6 -84 -74q0 -31 20 -48.5t55 -17.5q52 0 84 34.5zM142 661h229v-81h-229v81z" />
    <glyph glyph-name="aogonek" unicode="&#x105;" horiz-adv-x="528" 
d="M87.5 25q-43.5 39 -43.5 107q0 69 44.5 109t118.5 45l142 10v37q0 40 -27 62.5t-71 22.5q-40 0 -69.5 -18.5t-43.5 -55.5l-80 41q21 57 73.5 88t121.5 31q96 0 149.5 -42.5t53.5 -121.5v-247q0 -29 4.5 -51t16.5 -42h-107q-17 26 -21 63q-50 -77 -149 -77
q-69 0 -112.5 39zM317 107.5q32 34.5 32 86.5v25l-107 -6q-84 -6 -84 -74q0 -31 20 -48.5t55 -17.5q52 0 84 34.5zM366 -173.5q-25 25.5 -25 70.5q0 31 14 57.5t37 45.5h85q-30 -24 -44.5 -43.5t-14.5 -43.5q0 -18 9.5 -27.5t24.5 -9.5q20 0 35 11v-76q-21 -10 -52 -10
q-44 0 -69 25.5z" />
    <glyph glyph-name="aring" unicode="&#xe5;" horiz-adv-x="528" 
d="M87.5 25q-43.5 39 -43.5 107q0 69 44.5 109t118.5 45l142 10v37q0 40 -27 62.5t-71 22.5q-40 0 -69.5 -18.5t-43.5 -55.5l-80 41q21 57 73.5 88t121.5 31q96 0 149.5 -42.5t53.5 -121.5v-247q0 -29 4.5 -51t16.5 -42h-107q-17 26 -21 63q-50 -77 -149 -77
q-69 0 -112.5 39zM317 107.5q32 34.5 32 86.5v25l-107 -6q-84 -6 -84 -74q0 -31 20 -48.5t55 -17.5q52 0 84 34.5zM190 568q-27 27 -27 66q0 40 27 66.5t66 26.5q40 0 66.5 -26.5t26.5 -66.5q0 -39 -26.5 -66t-66.5 -27q-39 0 -66 27zM287.5 603q12.5 12 12.5 31t-12.5 31.5
t-31.5 12.5t-31 -12.5t-12 -31.5t12 -31t31 -12t31.5 12z" />
    <glyph glyph-name="atilde" unicode="&#xe3;" horiz-adv-x="528" 
d="M87.5 25q-43.5 39 -43.5 107q0 69 44.5 109t118.5 45l142 10v37q0 40 -27 62.5t-71 22.5q-40 0 -69.5 -18.5t-43.5 -55.5l-80 41q21 57 73.5 88t121.5 31q96 0 149.5 -42.5t53.5 -121.5v-247q0 -29 4.5 -51t16.5 -42h-107q-17 26 -21 63q-50 -77 -149 -77
q-69 0 -112.5 39zM317 107.5q32 34.5 32 86.5v25l-107 -6q-84 -6 -84 -74q0 -31 20 -48.5t55 -17.5q52 0 84 34.5zM81 620q17 29 47 47t70 18q19 0 33.5 -5t34.5 -14q18 -8 28.5 -12t22.5 -4q40 0 69 36l46 -53q-17 -29 -47 -47t-70 -18q-19 0 -35 5t-34 15q-16 8 -27 11.5
t-23 3.5q-40 0 -69 -36z" />
    <glyph glyph-name="ae" unicode="&#xe6;" horiz-adv-x="858" 
d="M89.5 25q-45.5 39 -45.5 107q0 69 44.5 109t118.5 45l142 10v37q0 40 -27 62.5t-71 22.5q-40 0 -69.5 -18.5t-43.5 -55.5l-80 41q21 57 73.5 88t121.5 31q61 0 104 -19.5t65 -58.5q29 37 75.5 57.5t99.5 20.5q66 0 117 -28.5t79.5 -76.5t28.5 -106q0 -40 -7 -72h-356
q5 -66 42 -105.5t95 -39.5q42 0 73 20t49 54l85 -49q-31 -55 -83 -85t-126 -30q-68 0 -119 28t-78 78q-63 -106 -192 -106q-70 0 -115.5 39zM720 300q-5 52 -38 84t-85 32q-51 0 -86 -31.5t-47 -84.5h256zM317 107.5q32 34.5 32 86.5v25l-107 -6q-84 -6 -84 -74
q0 -31 20 -48.5t55 -17.5q52 0 84 34.5z" />
    <glyph glyph-name="b" unicode="b" horiz-adv-x="594" 
d="M248.5 8.5q-42.5 22.5 -63.5 62.5v-71h-113v700h113v-273q21 34 61.5 55.5t92.5 21.5q65 0 114.5 -32.5t76.5 -91t27 -135.5q0 -76 -27 -135t-75.5 -91.5t-111.5 -32.5q-52 0 -94.5 22.5zM406.5 127.5q35.5 44.5 35.5 117.5t-35 117.5t-95 44.5t-95.5 -44.5t-35.5 -117.5
t35.5 -117.5t95.5 -44.5q59 0 94.5 44.5z" />
    <glyph glyph-name="c" unicode="c" horiz-adv-x="531" 
d="M156.5 19q-57.5 33 -88.5 92t-31 134t31 134t88.5 92t133.5 33q143 0 206 -112l-84 -61q-19 37 -50 56.5t-72 19.5q-61 0 -99.5 -44t-38.5 -118t38.5 -118t99.5 -44q83 0 122 73l84 -56q-67 -114 -206 -114q-76 0 -133.5 33z" />
    <glyph glyph-name="cacute" unicode="&#x107;" horiz-adv-x="531" 
d="M156.5 19q-57.5 33 -88.5 92t-31 134t31 134t88.5 92t133.5 33q143 0 206 -112l-84 -61q-19 37 -50 56.5t-72 19.5q-61 0 -99.5 -44t-38.5 -118t38.5 -118t99.5 -44q83 0 122 73l84 -56q-67 -114 -206 -114q-76 0 -133.5 33zM309 700h115l-88 -136h-91z" />
    <glyph glyph-name="ccaron" unicode="&#x10d;" horiz-adv-x="531" 
d="M156.5 19q-57.5 33 -88.5 92t-31 134t31 134t88.5 92t133.5 33q143 0 206 -112l-84 -61q-19 37 -50 56.5t-72 19.5q-61 0 -99.5 -44t-38.5 -118t38.5 -118t99.5 -44q83 0 122 73l84 -56q-67 -114 -206 -114q-76 0 -133.5 33zM133 700h93l65 -71l65 71h93l-108 -136h-100z
" />
    <glyph glyph-name="ccedilla" unicode="&#xe7;" horiz-adv-x="531" 
d="M156.5 19q-57.5 33 -88.5 92t-31 134t31 134t88.5 92t133.5 33q143 0 206 -112l-84 -61q-19 37 -50 56.5t-72 19.5q-61 0 -99.5 -44t-38.5 -118t38.5 -118t99.5 -44q83 0 122 73l84 -56q-67 -114 -206 -114q-76 0 -133.5 33zM226 -213q-24 11 -40 29l35 42q23 -27 57 -27
q21 0 33.5 9t12.5 28t-11 28t-29 9q-12 0 -23 -6t-17 -15l-45 21l27 95h57l-32 -67q17 22 53 22q40 0 64 -22.5t24 -65.5q0 -45 -29.5 -68t-82.5 -23q-30 0 -54 11z" />
    <glyph glyph-name="d" unicode="d" horiz-adv-x="594" 
d="M140 18.5q-49 32.5 -76 91.5t-27 135q0 77 27 135.5t77 91t115 32.5q51 0 91.5 -21.5t61.5 -55.5v273h113v-700h-113v71q-21 -39 -63.5 -62t-93.5 -23q-63 0 -112 32.5zM377.5 127.5q35.5 44.5 35.5 117.5t-35.5 117.5t-95.5 44.5t-95 -44.5t-35 -117.5t35.5 -117.5
t94.5 -44.5q60 0 95.5 44.5z" />
    <glyph glyph-name="eth" unicode="&#xf0;" horiz-adv-x="579" 
d="M433 592q91 -120 91 -309q0 -95 -32 -162t-89 -101t-130 -34q-71 0 -124.5 31.5t-82.5 89t-29 134.5q0 76 28.5 133.5t79 89t114.5 31.5q50 0 88.5 -23t60.5 -61q-14 85 -80 160l-179 -36l-11 55l141 28q-42 36 -90 62l97 34q60 -32 104 -74l128 25l11 -54zM378 125.5
q35 42.5 35 115.5q0 72 -35.5 115t-95.5 43t-95 -43t-35 -115q0 -73 35 -115.5t95 -42.5q61 0 96 42.5z" />
    <glyph glyph-name="dcaron" unicode="&#x10f;" horiz-adv-x="727" 
d="M140 18.5q-49 32.5 -76 91.5t-27 135q0 77 27 135.5t77 91t115 32.5q51 0 91.5 -21.5t61.5 -55.5v273h113v-700h-113v71q-21 -39 -63.5 -62t-93.5 -23q-63 0 -112 32.5zM377.5 127.5q35.5 44.5 35.5 117.5t-35.5 117.5t-95.5 44.5t-95 -44.5t-35 -117.5t35.5 -117.5
t94.5 -44.5q60 0 95.5 44.5zM588 521q38 7 56 25t18 50h-72v104h137v-104q0 -60 -33.5 -94t-90.5 -45z" />
    <glyph glyph-name="dcroat" unicode="&#x111;" horiz-adv-x="594" 
d="M140 18.5q-49 32.5 -76 91.5t-27 135q0 77 27 135.5t77 91t115 32.5q51 0 91.5 -21.5t61.5 -55.5v273h113v-700h-113v71q-21 -39 -63.5 -62t-93.5 -23q-63 0 -112 32.5zM377.5 127.5q35.5 44.5 35.5 117.5t-35.5 117.5t-95.5 44.5t-95 -44.5t-35 -117.5t35.5 -117.5
t94.5 -44.5q60 0 95.5 44.5zM604 644v-82h-350v82h350z" />
    <glyph glyph-name="e" unicode="e" horiz-adv-x="547" 
d="M502 219h-353q6 -65 41.5 -103t93.5 -38q81 0 119 73l88 -50q-31 -55 -83 -85t-126 -30t-129.5 33.5t-85.5 92t-30 133.5q0 74 31 133t87.5 92.5t129.5 33.5q66 0 117.5 -28t80 -76.5t28.5 -106.5q0 -42 -9 -74zM405 300q-5 51 -36.5 82.5t-83.5 31.5q-50 0 -84.5 -30.5
t-46.5 -83.5h251z" />
    <glyph glyph-name="eacute" unicode="&#xe9;" horiz-adv-x="547" 
d="M502 219h-353q6 -65 41.5 -103t93.5 -38q81 0 119 73l88 -50q-31 -55 -83 -85t-126 -30t-129.5 33.5t-85.5 92t-30 133.5q0 74 31 133t87.5 92.5t129.5 33.5q66 0 117.5 -28t80 -76.5t28.5 -106.5q0 -42 -9 -74zM405 300q-5 51 -36.5 82.5t-83.5 31.5q-50 0 -84.5 -30.5
t-46.5 -83.5h251zM303 700h115l-88 -136h-91z" />
    <glyph glyph-name="ecaron" unicode="&#x11b;" horiz-adv-x="547" 
d="M502 219h-353q6 -65 41.5 -103t93.5 -38q81 0 119 73l88 -50q-31 -55 -83 -85t-126 -30t-129.5 33.5t-85.5 92t-30 133.5q0 74 31 133t87.5 92.5t129.5 33.5q66 0 117.5 -28t80 -76.5t28.5 -106.5q0 -42 -9 -74zM405 300q-5 51 -36.5 82.5t-83.5 31.5q-50 0 -84.5 -30.5
t-46.5 -83.5h251zM127 700h93l65 -71l65 71h93l-108 -136h-100z" />
    <glyph glyph-name="ecircumflex" unicode="&#xea;" horiz-adv-x="547" 
d="M502 219h-353q6 -65 41.5 -103t93.5 -38q81 0 119 73l88 -50q-31 -55 -83 -85t-126 -30t-129.5 33.5t-85.5 92t-30 133.5q0 74 31 133t87.5 92.5t129.5 33.5q66 0 117.5 -28t80 -76.5t28.5 -106.5q0 -42 -9 -74zM405 300q-5 51 -36.5 82.5t-83.5 31.5q-50 0 -84.5 -30.5
t-46.5 -83.5h251zM235 700h100l108 -136h-93l-65 71l-65 -71h-93z" />
    <glyph glyph-name="edieresis" unicode="&#xeb;" horiz-adv-x="547" 
d="M502 219h-353q6 -65 41.5 -103t93.5 -38q81 0 119 73l88 -50q-31 -55 -83 -85t-126 -30t-129.5 33.5t-85.5 92t-30 133.5q0 74 31 133t87.5 92.5t129.5 33.5q66 0 117.5 -28t80 -76.5t28.5 -106.5q0 -42 -9 -74zM405 300q-5 51 -36.5 82.5t-83.5 31.5q-50 0 -84.5 -30.5
t-46.5 -83.5h251zM139 678h119v-102h-119v102zM313 678h119v-102h-119v102z" />
    <glyph glyph-name="edotaccent" unicode="&#x117;" horiz-adv-x="547" 
d="M502 219h-353q6 -65 41.5 -103t93.5 -38q81 0 119 73l88 -50q-31 -55 -83 -85t-126 -30t-129.5 33.5t-85.5 92t-30 133.5q0 74 31 133t87.5 92.5t129.5 33.5q66 0 117.5 -28t80 -76.5t28.5 -106.5q0 -42 -9 -74zM405 300q-5 51 -36.5 82.5t-83.5 31.5q-50 0 -84.5 -30.5
t-46.5 -83.5h251zM214 668h142v-107h-142v107z" />
    <glyph glyph-name="egrave" unicode="&#xe8;" horiz-adv-x="547" 
d="M502 219h-353q6 -65 41.5 -103t93.5 -38q81 0 119 73l88 -50q-31 -55 -83 -85t-126 -30t-129.5 33.5t-85.5 92t-30 133.5q0 74 31 133t87.5 92.5t129.5 33.5q66 0 117.5 -28t80 -76.5t28.5 -106.5q0 -42 -9 -74zM405 300q-5 51 -36.5 82.5t-83.5 31.5q-50 0 -84.5 -30.5
t-46.5 -83.5h251zM151 700h115l64 -136h-91z" />
    <glyph glyph-name="emacron" unicode="&#x113;" horiz-adv-x="547" 
d="M502 219h-353q6 -65 41.5 -103t93.5 -38q81 0 119 73l88 -50q-31 -55 -83 -85t-126 -30t-129.5 33.5t-85.5 92t-30 133.5q0 74 31 133t87.5 92.5t129.5 33.5q66 0 117.5 -28t80 -76.5t28.5 -106.5q0 -42 -9 -74zM405 300q-5 51 -36.5 82.5t-83.5 31.5q-50 0 -84.5 -30.5
t-46.5 -83.5h251zM171 661h229v-81h-229v81z" />
    <glyph glyph-name="eogonek" unicode="&#x119;" horiz-adv-x="547" 
d="M502 219h-353q6 -65 41.5 -103t93.5 -38q81 0 119 73l88 -50q-31 -55 -83 -85t-126 -30t-129.5 33.5t-85.5 92t-30 133.5q0 74 31 133t87.5 92.5t129.5 33.5q66 0 117.5 -28t80 -76.5t28.5 -106.5q0 -42 -9 -74zM405 300q-5 51 -36.5 82.5t-83.5 31.5q-50 0 -84.5 -30.5
t-46.5 -83.5h251zM217 -173.5q-25 25.5 -25 70.5q0 31 14 57.5t37 45.5h85q-30 -24 -44.5 -43.5t-14.5 -43.5q0 -18 9.5 -27.5t24.5 -9.5q20 0 35 11v-76q-21 -10 -52 -10q-44 0 -69 25.5z" />
    <glyph glyph-name="f" unicode="f" horiz-adv-x="340" 
d="M207 490h112v-85h-112v-405h-113v405h-69v85h69v64q0 78 43 119t119 41q50 0 84 -18l-25 -92q-23 13 -49 13q-28 0 -43.5 -17.5t-15.5 -49.5v-60z" />
    <glyph glyph-name="g" unicode="g" horiz-adv-x="599" 
d="M125.5 -188.5q-62.5 35.5 -88.5 99.5l96 50q18 -44 55 -66t89 -22q64 0 100.5 37.5t36.5 116.5v62q-20 -40 -62 -65t-92 -25q-65 0 -115.5 31.5t-79 89t-28.5 132.5q0 74 29 131.5t79 89t111 31.5q50 0 93.5 -23t64.5 -62v71h113v-454q0 -124 -67.5 -192t-181.5 -68
q-90 0 -152.5 35.5zM380 138.5q37 42.5 37 113.5t-37 113t-95 42t-95.5 -42t-37.5 -113t37.5 -113.5t95.5 -42.5t95 42.5z" />
    <glyph glyph-name="gbreve" unicode="&#x11f;" horiz-adv-x="599" 
d="M125.5 -188.5q-62.5 35.5 -88.5 99.5l96 50q18 -44 55 -66t89 -22q64 0 100.5 37.5t36.5 116.5v62q-20 -40 -62 -65t-92 -25q-65 0 -115.5 31.5t-79 89t-28.5 132.5q0 74 29 131.5t79 89t111 31.5q50 0 93.5 -23t64.5 -62v71h113v-454q0 -124 -67.5 -192t-181.5 -68
q-90 0 -152.5 35.5zM380 138.5q37 42.5 37 113.5t-37 113t-95 42t-95.5 -42t-37.5 -113t37.5 -113.5t95.5 -42.5t95 42.5zM219.5 594q-30.5 29 -30.5 81h72q0 -21 10.5 -34t29.5 -13q20 0 30.5 13t10.5 34h71q0 -52 -30 -81t-82 -29q-51 0 -81.5 29z" />
    <glyph glyph-name="gcommaaccent" unicode="&#x123;" horiz-adv-x="599" 
d="M125.5 -188.5q-62.5 35.5 -88.5 99.5l96 50q18 -44 55 -66t89 -22q64 0 100.5 37.5t36.5 116.5v62q-20 -40 -62 -65t-92 -25q-65 0 -115.5 31.5t-79 89t-28.5 132.5q0 74 29 131.5t79 89t111 31.5q50 0 93.5 -23t64.5 -62v71h113v-454q0 -124 -67.5 -192t-181.5 -68
q-90 0 -152.5 35.5zM380 138.5q37 42.5 37 113.5t-37 113t-95 42t-95.5 -42t-37.5 -113t37.5 -113.5t95.5 -42.5t95 42.5zM375 752q-41 -7 -63 -27t-22 -53h77v-107h-142v107q0 63 35.5 101t97.5 49z" />
    <glyph glyph-name="h" unicode="h" horiz-adv-x="595" 
d="M72 700h113v-292q24 48 69 72t98 24q84 0 127.5 -48.5t43.5 -139.5v-316h-113v294q0 56 -27 84.5t-77 28.5q-31 0 -59 -18t-45 -51t-17 -76v-262h-113v700z" />
    <glyph glyph-name="hbar" unicode="&#x127;" horiz-adv-x="595" 
d="M72 700h113v-292q24 48 69 72t98 24q84 0 127.5 -48.5t43.5 -139.5v-316h-113v294q0 56 -27 84.5t-77 28.5q-31 0 -59 -18t-45 -51t-17 -76v-262h-113v700zM340 643v-82h-350v82h350z" />
    <glyph glyph-name="i" unicode="i" horiz-adv-x="258" 
d="M58 668h142v-107h-142v107zM73 490h113v-490h-113v490z" />
    <glyph glyph-name="dotlessi" unicode="&#x131;" horiz-adv-x="258" 
d="M72 490h113v-490h-113v490z" />
    <glyph glyph-name="iacute" unicode="&#xed;" horiz-adv-x="258" 
d="M72 490h113v-490h-113v490zM146 700h115l-88 -136h-91z" />
    <glyph glyph-name="icircumflex" unicode="&#xee;" horiz-adv-x="258" 
d="M72 490h113v-490h-113v490zM78 700h100l108 -136h-93l-65 71l-65 -71h-93z" />
    <glyph glyph-name="idieresis" unicode="&#xef;" horiz-adv-x="258" 
d="M72 490h113v-490h-113v490zM-18 678h119v-102h-119v102zM156 678h119v-102h-119v102z" />
    <glyph glyph-name="i.loclTRK" horiz-adv-x="258" 
d="M72 490h113v-490h-113v490zM57 668h142v-107h-142v107z" />
    <glyph glyph-name="igrave" unicode="&#xec;" horiz-adv-x="258" 
d="M72 490h113v-490h-113v490zM-6 700h115l64 -136h-91z" />
    <glyph glyph-name="imacron" unicode="&#x12b;" horiz-adv-x="258" 
d="M72 490h113v-490h-113v490zM14 661h229v-81h-229v81z" />
    <glyph glyph-name="iogonek" unicode="&#x12f;" horiz-adv-x="258" 
d="M72 490h113v-490h-113v490zM57 668h142v-107h-142v107zM74 -173.5q-25 25.5 -25 70.5q0 31 14 57.5t37 45.5h85q-30 -24 -44.5 -43.5t-14.5 -43.5q0 -18 9.5 -27.5t24.5 -9.5q20 0 35 11v-76q-21 -10 -52 -10q-44 0 -69 25.5z" />
    <glyph glyph-name="j" unicode="j" horiz-adv-x="258" 
d="M58 668h142v-107h-142v107zM-56 -205l29 93q20 -14 48 -14q27 0 39.5 15.5t12.5 51.5v549h113v-548q0 -87 -37 -126.5t-113 -39.5q-55 0 -92 19z" />
    <glyph glyph-name="k" unicode="k" horiz-adv-x="529" 
d="M238 232l-53 -52v-180h-113v700h113v-382l177 172h139l-185 -181l197 -309h-125z" />
    <glyph glyph-name="kcommaaccent" unicode="&#x137;" horiz-adv-x="529" 
d="M238 232l-53 -52v-180h-113v700h113v-382l177 172h139l-185 -181l197 -309h-125zM226 -222q33 9 50.5 26.5t17.5 48.5h-77v99h139v-99q0 -57 -29.5 -86t-80.5 -45z" />
    <glyph glyph-name="l" unicode="l" horiz-adv-x="275" 
d="M99 26.5q-27 33.5 -27 91.5v582h113v-571q0 -18 8 -27t23 -9q13 0 28 6v-91q-23 -15 -62 -15q-56 0 -83 33.5z" />
    <glyph glyph-name="lacute" unicode="&#x13a;" horiz-adv-x="275" 
d="M99 26.5q-27 33.5 -27 91.5v582h113v-571q0 -18 8 -27t23 -9q13 0 28 6v-91q-23 -15 -62 -15q-56 0 -83 33.5zM146 910h115l-88 -136h-91z" />
    <glyph glyph-name="lcaron" unicode="&#x13e;" horiz-adv-x="275" 
d="M99 26.5q-27 33.5 -27 91.5v582h113v-571q0 -18 8 -27t23 -9q13 0 28 6v-91q-23 -15 -62 -15q-56 0 -83 33.5zM251 521q38 7 56 25t18 50h-72v104h137v-104q0 -60 -33.5 -94t-90.5 -45z" />
    <glyph glyph-name="lcommaaccent" unicode="&#x13c;" horiz-adv-x="275" 
d="M99 26.5q-27 33.5 -27 91.5v582h113v-571q0 -18 8 -27t23 -9q13 0 28 6v-91q-23 -15 -62 -15q-56 0 -83 33.5zM98 -222q33 9 50.5 26.5t17.5 48.5h-77v99h139v-99q0 -57 -29.5 -86t-80.5 -45z" />
    <glyph glyph-name="lslash" unicode="&#x142;" horiz-adv-x="275" 
d="M99 26.5q-27 33.5 -27 91.5v582h113v-571q0 -18 8 -27t23 -9q13 0 28 6v-91q-23 -15 -62 -15q-56 0 -83 33.5zM-27 312l266 154l45 -77l-266 -153z" />
    <glyph glyph-name="m" unicode="m" horiz-adv-x="821" 
d="M72 490h113v-76q18 43 56 66.5t88 23.5q46 0 78.5 -23.5t47.5 -65.5q23 44 62.5 66.5t90.5 22.5q68 0 104.5 -40.5t36.5 -115.5v-348h-113v320q0 87 -77 87q-40 0 -66 -31.5t-26 -87.5v-288h-113v320q0 87 -77 87q-40 0 -66 -31.5t-26 -87.5v-288h-113v490z" />
    <glyph glyph-name="n" unicode="n" horiz-adv-x="588" 
d="M72 490h113v-84q24 49 66.5 73.5t96.5 24.5q84 0 126 -47t42 -137v-320h-113v297q0 109 -100 109q-49 0 -83.5 -38.5t-34.5 -103.5v-264h-113v490z" />
    <glyph glyph-name="nacute" unicode="&#x144;" horiz-adv-x="588" 
d="M72 490h113v-84q24 49 66.5 73.5t96.5 24.5q84 0 126 -47t42 -137v-320h-113v297q0 109 -100 109q-49 0 -83.5 -38.5t-34.5 -103.5v-264h-113v490zM329 700h115l-88 -136h-91z" />
    <glyph glyph-name="ncaron" unicode="&#x148;" horiz-adv-x="588" 
d="M72 490h113v-84q24 49 66.5 73.5t96.5 24.5q84 0 126 -47t42 -137v-320h-113v297q0 109 -100 109q-49 0 -83.5 -38.5t-34.5 -103.5v-264h-113v490zM153 700h93l65 -71l65 71h93l-108 -136h-100z" />
    <glyph glyph-name="ncommaaccent" unicode="&#x146;" horiz-adv-x="588" 
d="M72 490h113v-84q24 49 66.5 73.5t96.5 24.5q84 0 126 -47t42 -137v-320h-113v297q0 109 -100 109q-49 0 -83.5 -38.5t-34.5 -103.5v-264h-113v490zM233 -222q33 9 50.5 26.5t17.5 48.5h-77v99h139v-99q0 -57 -29.5 -86t-80.5 -45z" />
    <glyph glyph-name="ntilde" unicode="&#xf1;" horiz-adv-x="588" 
d="M72 490h113v-84q24 49 66.5 73.5t96.5 24.5q84 0 126 -47t42 -137v-320h-113v297q0 109 -100 109q-49 0 -83.5 -38.5t-34.5 -103.5v-264h-113v490zM136 620q17 29 47 47t70 18q19 0 33.5 -5t34.5 -14q18 -8 28.5 -12t22.5 -4q40 0 69 36l46 -53q-17 -29 -47 -47t-70 -18
q-19 0 -35 5t-34 15q-16 8 -27 11.5t-23 3.5q-40 0 -69 -36z" />
    <glyph glyph-name="o" unicode="o" horiz-adv-x="579" 
d="M156.5 18.5q-57.5 32.5 -88.5 91.5t-31 135q0 77 31 135.5t88.5 91t133.5 32.5t133 -32.5t88 -91t31 -135.5q0 -76 -31 -135t-88 -91.5t-133 -32.5t-133.5 32.5zM389 128.5q38 45.5 38 116.5t-38 116.5t-99 45.5q-62 0 -100 -45.5t-38 -116.5t38 -116.5t100 -45.5
q61 0 99 45.5z" />
    <glyph glyph-name="oacute" unicode="&#xf3;" horiz-adv-x="579" 
d="M156.5 18.5q-57.5 32.5 -88.5 91.5t-31 135q0 77 31 135.5t88.5 91t133.5 32.5t133 -32.5t88 -91t31 -135.5q0 -76 -31 -135t-88 -91.5t-133 -32.5t-133.5 32.5zM389 128.5q38 45.5 38 116.5t-38 116.5t-99 45.5q-62 0 -100 -45.5t-38 -116.5t38 -116.5t100 -45.5
q61 0 99 45.5zM308 700h115l-88 -136h-91z" />
    <glyph glyph-name="ocircumflex" unicode="&#xf4;" horiz-adv-x="579" 
d="M156.5 18.5q-57.5 32.5 -88.5 91.5t-31 135q0 77 31 135.5t88.5 91t133.5 32.5t133 -32.5t88 -91t31 -135.5q0 -76 -31 -135t-88 -91.5t-133 -32.5t-133.5 32.5zM389 128.5q38 45.5 38 116.5t-38 116.5t-99 45.5q-62 0 -100 -45.5t-38 -116.5t38 -116.5t100 -45.5
q61 0 99 45.5zM240 700h100l108 -136h-93l-65 71l-65 -71h-93z" />
    <glyph glyph-name="odieresis" unicode="&#xf6;" horiz-adv-x="579" 
d="M156.5 18.5q-57.5 32.5 -88.5 91.5t-31 135q0 77 31 135.5t88.5 91t133.5 32.5t133 -32.5t88 -91t31 -135.5q0 -76 -31 -135t-88 -91.5t-133 -32.5t-133.5 32.5zM389 128.5q38 45.5 38 116.5t-38 116.5t-99 45.5q-62 0 -100 -45.5t-38 -116.5t38 -116.5t100 -45.5
q61 0 99 45.5zM144 678h119v-102h-119v102zM318 678h119v-102h-119v102z" />
    <glyph glyph-name="ograve" unicode="&#xf2;" horiz-adv-x="579" 
d="M156.5 18.5q-57.5 32.5 -88.5 91.5t-31 135q0 77 31 135.5t88.5 91t133.5 32.5t133 -32.5t88 -91t31 -135.5q0 -76 -31 -135t-88 -91.5t-133 -32.5t-133.5 32.5zM389 128.5q38 45.5 38 116.5t-38 116.5t-99 45.5q-62 0 -100 -45.5t-38 -116.5t38 -116.5t100 -45.5
q61 0 99 45.5zM156 700h115l64 -136h-91z" />
    <glyph glyph-name="ohungarumlaut" unicode="&#x151;" horiz-adv-x="579" 
d="M156.5 18.5q-57.5 32.5 -88.5 91.5t-31 135q0 77 31 135.5t88.5 91t133.5 32.5t133 -32.5t88 -91t31 -135.5q0 -76 -31 -135t-88 -91.5t-133 -32.5t-133.5 32.5zM389 128.5q38 45.5 38 116.5t-38 116.5t-99 45.5q-62 0 -100 -45.5t-38 -116.5t38 -116.5t100 -45.5
q61 0 99 45.5zM216 700h115l-88 -136h-91zM388 700h115l-88 -136h-91z" />
    <glyph glyph-name="omacron" unicode="&#x14d;" horiz-adv-x="579" 
d="M156.5 18.5q-57.5 32.5 -88.5 91.5t-31 135q0 77 31 135.5t88.5 91t133.5 32.5t133 -32.5t88 -91t31 -135.5q0 -76 -31 -135t-88 -91.5t-133 -32.5t-133.5 32.5zM389 128.5q38 45.5 38 116.5t-38 116.5t-99 45.5q-62 0 -100 -45.5t-38 -116.5t38 -116.5t100 -45.5
q61 0 99 45.5zM176 661h229v-81h-229v81z" />
    <glyph glyph-name="oslash" unicode="&#xf8;" horiz-adv-x="579" 
d="M70 2l38 54q-34 35 -52.5 83t-18.5 106q0 77 31 135.5t88.5 91t133.5 32.5q64 0 115 -23l37 53l67 -46l-37 -53q34 -35 52 -83.5t18 -106.5q0 -76 -31 -135t-88 -91.5t-133 -32.5q-66 0 -115 24l-38 -55zM345 395q-24 12 -55 12q-62 0 -100 -45.5t-38 -116.5
q0 -53 23 -93zM389 128.5q38 45.5 38 116.5q0 55 -23 93l-170 -242q28 -13 56 -13q61 0 99 45.5z" />
    <glyph glyph-name="otilde" unicode="&#xf5;" horiz-adv-x="579" 
d="M156.5 18.5q-57.5 32.5 -88.5 91.5t-31 135q0 77 31 135.5t88.5 91t133.5 32.5t133 -32.5t88 -91t31 -135.5q0 -76 -31 -135t-88 -91.5t-133 -32.5t-133.5 32.5zM389 128.5q38 45.5 38 116.5t-38 116.5t-99 45.5q-62 0 -100 -45.5t-38 -116.5t38 -116.5t100 -45.5
q61 0 99 45.5zM115 620q17 29 47 47t70 18q19 0 33.5 -5t34.5 -14q18 -8 28.5 -12t22.5 -4q40 0 69 36l46 -53q-17 -29 -47 -47t-70 -18q-19 0 -35 5t-34 15q-16 8 -27 11.5t-23 3.5q-40 0 -69 -36z" />
    <glyph glyph-name="oe" unicode="&#x153;" horiz-adv-x="941" 
d="M156.5 18.5q-57.5 32.5 -88.5 91.5t-31 135q0 77 31 135.5t88.5 91t133.5 32.5q63 0 114.5 -27t83.5 -78q32 50 82 77.5t109 27.5q66 0 117.5 -28.5t80 -76.5t28.5 -106q0 -36 -8 -72h-356q5 -66 42 -105.5t95 -39.5q42 0 73.5 20t48.5 54l85 -49q-31 -55 -83 -85
t-126 -30q-61 0 -110.5 28t-79.5 76q-33 -49 -83.5 -76.5t-112.5 -27.5q-76 0 -133.5 32.5zM802 300q-5 52 -38 84t-85 32q-51 0 -86 -31.5t-47 -84.5h256zM389 128.5q38 45.5 38 116.5t-38 116.5t-99 45.5q-62 0 -100 -45.5t-38 -116.5t38 -116.5t100 -45.5q61 0 99 45.5z
" />
    <glyph glyph-name="p" unicode="p" horiz-adv-x="594" 
d="M72 490h113v-71q22 40 64 62.5t94 22.5q63 0 111.5 -32.5t75.5 -91t27 -135.5q0 -76 -27 -135t-76.5 -91.5t-114.5 -32.5q-53 0 -93.5 21t-60.5 56v-273h-113v700zM406.5 127.5q35.5 44.5 35.5 117.5t-35 117.5t-95 44.5t-95.5 -44.5t-35.5 -117.5t35.5 -117.5
t95.5 -44.5q59 0 94.5 44.5z" />
    <glyph glyph-name="thorn" unicode="&#xfe;" horiz-adv-x="594" 
d="M72 700h112v-281q23 40 64.5 62.5t93.5 22.5q63 0 112 -32.5t76 -91t27 -135.5q0 -76 -27 -135t-77 -91.5t-115 -32.5q-52 0 -92.5 21t-61.5 56v-273h-112v910zM406.5 127.5q35.5 44.5 35.5 117.5t-35 118t-95 45t-95.5 -45t-35.5 -118t35.5 -117.5t95.5 -44.5
q59 0 94.5 44.5z" />
    <glyph glyph-name="q" unicode="q" horiz-adv-x="595" 
d="M410 67q-23 -37 -62.5 -59t-91.5 -22q-65 0 -115 32.5t-77 91.5t-27 135q0 77 27 135.5t76 91t112 32.5q52 0 94 -20.5t64 -59.5v66h113v-700h-113v277zM377.5 127.5q35.5 44.5 35.5 117.5t-35.5 117.5t-95.5 44.5t-95 -44.5t-35 -117.5t35.5 -117.5t94.5 -44.5
q60 0 95.5 44.5z" />
    <glyph glyph-name="r" unicode="r" horiz-adv-x="406" 
d="M72 490h113v-76q17 45 54.5 67.5t85.5 22.5q33 0 66 -16l-37 -96q-18 15 -59 15q-29 0 -54 -16.5t-40.5 -48t-15.5 -72.5v-270h-113v490z" />
    <glyph glyph-name="racute" unicode="&#x155;" horiz-adv-x="406" 
d="M72 490h113v-76q17 45 54.5 67.5t85.5 22.5q33 0 66 -16l-37 -96q-18 15 -59 15q-29 0 -54 -16.5t-40.5 -48t-15.5 -72.5v-270h-113v490zM257 700h115l-88 -136h-91z" />
    <glyph glyph-name="rcaron" unicode="&#x159;" horiz-adv-x="406" 
d="M72 490h113v-76q17 45 54.5 67.5t85.5 22.5q33 0 66 -16l-37 -96q-18 15 -59 15q-29 0 -54 -16.5t-40.5 -48t-15.5 -72.5v-270h-113v490zM81 700h93l65 -71l65 71h93l-108 -136h-100z" />
    <glyph glyph-name="rcommaaccent" unicode="&#x157;" horiz-adv-x="406" 
d="M72 490h113v-76q17 45 54.5 67.5t85.5 22.5q33 0 66 -16l-37 -96q-18 15 -59 15q-29 0 -54 -16.5t-40.5 -48t-15.5 -72.5v-270h-113v490zM67 -222q33 9 50.5 26.5t17.5 48.5h-77v99h139v-99q0 -57 -29.5 -86t-80.5 -45z" />
    <glyph glyph-name="s" unicode="s" horiz-adv-x="438" 
d="M39 51l47 93q25 -31 60 -49t71 -18q72 0 72 59q0 26 -24.5 44t-77.5 33q-64 19 -96.5 57t-32.5 94q0 63 49.5 101.5t123.5 38.5q45 0 82.5 -11t63.5 -29l-33 -89q-29 21 -56 31.5t-57 10.5q-31 0 -50 -14t-19 -38q0 -25 24 -43.5t76 -31.5q68 -18 100 -53.5t32 -100.5
q0 -42 -21.5 -76t-61 -54t-93.5 -20q-114 0 -179 65z" />
    <glyph glyph-name="sacute" unicode="&#x15b;" horiz-adv-x="438" 
d="M39 51l47 93q25 -31 60 -49t71 -18q72 0 72 59q0 26 -24.5 44t-77.5 33q-64 19 -96.5 57t-32.5 94q0 63 49.5 101.5t123.5 38.5q45 0 82.5 -11t63.5 -29l-33 -89q-29 21 -56 31.5t-57 10.5q-31 0 -50 -14t-19 -38q0 -25 24 -43.5t76 -31.5q68 -18 100 -53.5t32 -100.5
q0 -42 -21.5 -76t-61 -54t-93.5 -20q-114 0 -179 65zM250 700h115l-88 -136h-91z" />
    <glyph glyph-name="scaron" unicode="&#x161;" horiz-adv-x="438" 
d="M39 51l47 93q25 -31 60 -49t71 -18q72 0 72 59q0 26 -24.5 44t-77.5 33q-64 19 -96.5 57t-32.5 94q0 63 49.5 101.5t123.5 38.5q45 0 82.5 -11t63.5 -29l-33 -89q-29 21 -56 31.5t-57 10.5q-31 0 -50 -14t-19 -38q0 -25 24 -43.5t76 -31.5q68 -18 100 -53.5t32 -100.5
q0 -42 -21.5 -76t-61 -54t-93.5 -20q-114 0 -179 65zM74 700h93l65 -71l65 71h93l-108 -136h-100z" />
    <glyph glyph-name="scedilla" unicode="&#x15f;" horiz-adv-x="438" 
d="M39 51l47 93q25 -31 60 -49t71 -18q72 0 72 59q0 26 -24.5 44t-77.5 33q-64 19 -96.5 57t-32.5 94q0 63 49.5 101.5t123.5 38.5q45 0 82.5 -11t63.5 -29l-33 -89q-29 21 -56 31.5t-57 10.5q-31 0 -50 -14t-19 -38q0 -25 24 -43.5t76 -31.5q68 -18 100 -53.5t32 -100.5
q0 -42 -21.5 -76t-61 -54t-93.5 -20q-114 0 -179 65zM161 -213q-24 11 -40 29l35 42q23 -27 57 -27q21 0 33.5 9t12.5 28t-11 28t-29 9q-12 0 -23 -6t-17 -15l-45 21l27 95h57l-32 -67q17 22 53 22q40 0 64 -22.5t24 -65.5q0 -45 -29.5 -68t-82.5 -23q-30 0 -54 11z" />
    <glyph glyph-name="scommaaccent" unicode="&#x219;" horiz-adv-x="438" 
d="M39 51l47 93q25 -31 60 -49t71 -18q72 0 72 59q0 26 -24.5 44t-77.5 33q-64 19 -96.5 57t-32.5 94q0 63 49.5 101.5t123.5 38.5q45 0 82.5 -11t63.5 -29l-33 -89q-29 21 -56 31.5t-57 10.5q-31 0 -50 -14t-19 -38q0 -25 24 -43.5t76 -31.5q68 -18 100 -53.5t32 -100.5
q0 -42 -21.5 -76t-61 -54t-93.5 -20q-114 0 -179 65zM163 -222q33 9 50.5 26.5t17.5 48.5h-77v99h139v-99q0 -57 -29.5 -86t-80.5 -45z" />
    <glyph glyph-name="germandbls" unicode="&#xdf;" horiz-adv-x="583" 
d="M249 10v102q44 -28 87 -28q38 0 63 21t25 61q0 32 -17 52.5t-55 47.5q-34 24 -50.5 46.5t-16.5 56.5q0 25 11 45.5t32 43.5q20 21 31 38.5t11 38.5q0 40 -25.5 61t-65.5 21q-39 0 -66.5 -26.5t-27.5 -77.5v-513h-113v512q0 63 27 108.5t74 69.5t107 24q88 0 141.5 -42.5
t53.5 -119.5q0 -65 -46 -111q-4 -5 -16 -17q-12 -13 -17 -22.5t-5 -19.5q0 -18 16.5 -34.5t55.5 -42.5q71 -50 71 -137q0 -84 -50.5 -133t-131.5 -49q-57 0 -103 24z" />
    <glyph glyph-name="t" unicode="t" horiz-adv-x="352" 
d="M328 2q-25 -9 -46 -12.5t-51 -3.5q-66 0 -103 40.5t-37 119.5v259h-69v85h69v131l113 19v-150h119v-85h-119v-259q0 -30 14.5 -46t41.5 -16q16 0 28.5 3.5t28.5 11.5z" />
    <glyph glyph-name="tcaron" unicode="&#x165;" horiz-adv-x="352" 
d="M328 2q-25 -9 -46 -12.5t-51 -3.5q-66 0 -103 40.5t-37 119.5v259h-69v85h69v131l113 19v-150h119v-85h-119v-259q0 -30 14.5 -46t41.5 -16q16 0 28.5 3.5t28.5 11.5zM264 608q38 7 56 25t18 50h-72v104h137v-104q0 -60 -33.5 -94t-90.5 -45z" />
    <glyph glyph-name="uni0163" unicode="&#x163;" horiz-adv-x="352" 
d="M328 2q-25 -9 -46 -12.5t-51 -3.5q-66 0 -103 40.5t-37 119.5v259h-69v85h69v131l113 19v-150h119v-85h-119v-259q0 -30 14.5 -46t41.5 -16q16 0 28.5 3.5t28.5 11.5zM170 -213q-24 11 -40 29l35 42q23 -27 57 -27q21 0 33.5 9t12.5 28t-11 28t-29 9q-12 0 -23 -6
t-17 -15l-45 21l27 95h57l-32 -67q17 22 53 22q40 0 64 -22.5t24 -65.5q0 -45 -29.5 -68t-82.5 -23q-30 0 -54 11z" />
    <glyph glyph-name="uni021B" unicode="&#x21b;" horiz-adv-x="352" 
d="M328 2q-25 -9 -46 -12.5t-51 -3.5q-66 0 -103 40.5t-37 119.5v259h-69v85h69v131l113 19v-150h119v-85h-119v-259q0 -30 14.5 -46t41.5 -16q16 0 28.5 3.5t28.5 11.5zM172 -222q33 9 50.5 26.5t17.5 48.5h-77v99h139v-99q0 -57 -29.5 -86t-80.5 -45z" />
    <glyph glyph-name="u" unicode="u" horiz-adv-x="588" 
d="M72 171v319h113v-296q0 -110 100 -110q49 0 83.5 38.5t34.5 103.5v264h113v-490h-113v84q-24 -48 -67 -73t-96 -25q-168 0 -168 185z" />
    <glyph glyph-name="uacute" unicode="&#xfa;" horiz-adv-x="588" 
d="M72 171v319h113v-296q0 -110 100 -110q49 0 83.5 38.5t34.5 103.5v264h113v-490h-113v84q-24 -48 -67 -73t-96 -25q-168 0 -168 185zM311 700h115l-88 -136h-91z" />
    <glyph glyph-name="ucircumflex" unicode="&#xfb;" horiz-adv-x="588" 
d="M72 171v319h113v-296q0 -110 100 -110q49 0 83.5 38.5t34.5 103.5v264h113v-490h-113v84q-24 -48 -67 -73t-96 -25q-168 0 -168 185zM243 700h100l108 -136h-93l-65 71l-65 -71h-93z" />
    <glyph glyph-name="udieresis" unicode="&#xfc;" horiz-adv-x="588" 
d="M72 171v319h113v-296q0 -110 100 -110q49 0 83.5 38.5t34.5 103.5v264h113v-490h-113v84q-24 -48 -67 -73t-96 -25q-168 0 -168 185zM147 678h119v-102h-119v102zM321 678h119v-102h-119v102z" />
    <glyph glyph-name="ugrave" unicode="&#xf9;" horiz-adv-x="588" 
d="M72 171v319h113v-296q0 -110 100 -110q49 0 83.5 38.5t34.5 103.5v264h113v-490h-113v84q-24 -48 -67 -73t-96 -25q-168 0 -168 185zM159 700h115l64 -136h-91z" />
    <glyph glyph-name="uhungarumlaut" unicode="&#x171;" horiz-adv-x="588" 
d="M72 171v319h113v-296q0 -110 100 -110q49 0 83.5 38.5t34.5 103.5v264h113v-490h-113v84q-24 -48 -67 -73t-96 -25q-168 0 -168 185zM219 700h115l-88 -136h-91zM391 700h115l-88 -136h-91z" />
    <glyph glyph-name="umacron" unicode="&#x16b;" horiz-adv-x="588" 
d="M72 171v319h113v-296q0 -110 100 -110q49 0 83.5 38.5t34.5 103.5v264h113v-490h-113v84q-24 -48 -67 -73t-96 -25q-168 0 -168 185zM179 661h229v-81h-229v81z" />
    <glyph glyph-name="uogonek" unicode="&#x173;" horiz-adv-x="588" 
d="M72 171v319h113v-296q0 -110 100 -110q49 0 83.5 38.5t34.5 103.5v264h113v-490h-113v84q-24 -48 -67 -73t-96 -25q-168 0 -168 185zM405 -173.5q-25 25.5 -25 70.5q0 31 14 57.5t37 45.5h85q-30 -24 -44.5 -43.5t-14.5 -43.5q0 -18 9.5 -27.5t24.5 -9.5q20 0 35 11v-76
q-21 -10 -52 -10q-44 0 -69 25.5z" />
    <glyph glyph-name="uring" unicode="&#x16f;" horiz-adv-x="588" 
d="M72 171v319h113v-296q0 -110 100 -110q49 0 83.5 38.5t34.5 103.5v264h113v-490h-113v84q-24 -48 -67 -73t-96 -25q-168 0 -168 185zM227 568q-27 27 -27 66q0 40 27 66.5t66 26.5q40 0 66.5 -26.5t26.5 -66.5q0 -39 -26.5 -66t-66.5 -27q-39 0 -66 27zM324.5 603
q12.5 12 12.5 31t-12.5 31.5t-31.5 12.5t-31 -12.5t-12 -31.5t12 -31t31 -12t31.5 12z" />
    <glyph glyph-name="v" unicode="v" horiz-adv-x="547" 
d="M18 490h126l130 -348l130 348h125l-202 -490h-106z" />
    <glyph glyph-name="w" unicode="w" horiz-adv-x="745" 
d="M23 490h120l87 -342l95 342h95l95 -342l87 342h120l-148 -490h-110l-91 324l-92 -324h-110z" />
    <glyph glyph-name="x" unicode="x" horiz-adv-x="494" 
d="M347 0l-100 159l-100 -159h-126l165 253l-154 237h121l94 -152l94 152h121l-154 -237l165 -253h-126z" />
    <glyph glyph-name="y" unicode="y" horiz-adv-x="552" 
d="M535 490l-250 -607q-25 -60 -56.5 -83.5t-81.5 -23.5q-18 0 -40.5 4t-35.5 10l18 100q22 -14 47 -14q34 0 52 43l32 80l-203 491h124l136 -347l138 347h120z" />
    <glyph glyph-name="yacute" unicode="&#xfd;" horiz-adv-x="552" 
d="M535 490l-250 -607q-25 -60 -56.5 -83.5t-81.5 -23.5q-18 0 -40.5 4t-35.5 10l18 100q22 -14 47 -14q34 0 52 43l32 80l-203 491h124l136 -347l138 347h120zM294 700h115l-88 -136h-91z" />
    <glyph glyph-name="ydieresis" unicode="&#xff;" horiz-adv-x="552" 
d="M535 490l-250 -607q-25 -60 -56.5 -83.5t-81.5 -23.5q-18 0 -40.5 4t-35.5 10l18 100q22 -14 47 -14q34 0 52 43l32 80l-203 491h124l136 -347l138 347h120zM130 678h119v-102h-119v102zM304 678h119v-102h-119v102z" />
    <glyph glyph-name="z" unicode="z" horiz-adv-x="454" 
d="M31 76l248 329h-238v85h371v-76l-248 -329h255v-85h-388v76z" />
    <glyph glyph-name="zacute" unicode="&#x17a;" horiz-adv-x="454" 
d="M31 76l248 329h-238v85h371v-76l-248 -329h255v-85h-388v76zM244 700h115l-88 -136h-91z" />
    <glyph glyph-name="zcaron" unicode="&#x17e;" horiz-adv-x="454" 
d="M31 76l248 329h-238v85h371v-76l-248 -329h255v-85h-388v76zM68 700h93l65 -71l65 71h93l-108 -136h-100z" />
    <glyph glyph-name="zdotaccent" unicode="&#x17c;" horiz-adv-x="454" 
d="M31 76l248 329h-238v85h371v-76l-248 -329h255v-85h-388v76zM155 668h142v-107h-142v107z" />
    <glyph glyph-name="f.alt" horiz-adv-x="340" 
d="M223 599.5q-16 -17.5 -16 -49.5v-60h112v-85h-112v-405h-113v405h-69v85h69v64q0 78 43 119t119 41q42 0 70 -13v-98q-25 14 -59 14q-28 0 -44 -17.5z" />
    <glyph glyph-name="j.alt" horiz-adv-x="258" 
d="M58 668h142v-107h-142v107zM-36 -213v101q24 -14 57 -14q27 0 39.5 15.5t12.5 51.5v549h113v-548q0 -87 -37 -126.5t-113 -39.5q-46 0 -72 11z" />
    <glyph glyph-name="r.alt" horiz-adv-x="406" 
d="M72 490h113v-76q17 45 54 67.5t84 22.5q30 0 46 -8v-104q-29 15 -69 15q-30 0 -56.5 -16.5t-42.5 -48t-16 -72.5v-270h-113v490z" />
    <glyph glyph-name="racute.alt" horiz-adv-x="406" 
d="M72 490h113v-76q17 45 54 67.5t84 22.5q30 0 46 -8v-104q-29 15 -69 15q-30 0 -56.5 -16.5t-42.5 -48t-16 -72.5v-270h-113v490zM257 700h115l-88 -136h-91z" />
    <glyph glyph-name="rcaron.alt" horiz-adv-x="406" 
d="M72 490h113v-76q17 45 54 67.5t84 22.5q30 0 46 -8v-104q-29 15 -69 15q-30 0 -56.5 -16.5t-42.5 -48t-16 -72.5v-270h-113v490zM81 700h93l65 -71l65 71h93l-108 -136h-100z" />
    <glyph glyph-name="rcommaaccent.alt" horiz-adv-x="406" 
d="M72 490h113v-76q17 45 54 67.5t84 22.5q30 0 46 -8v-104q-29 15 -69 15q-30 0 -56.5 -16.5t-42.5 -48t-16 -72.5v-270h-113v490zM67 -222q33 9 50.5 26.5t17.5 48.5h-77v99h139v-99q0 -57 -29.5 -86t-80.5 -45z" />
    <glyph glyph-name="t.alt" horiz-adv-x="352" 
d="M204 405v-259q0 -30 14.5 -46t41.5 -16q32 0 63 16v-97q-38 -17 -92 -17q-66 0 -103 40.5t-37 119.5v259h-69v85h69v131l113 19v-150h119v-85h-119z" />
    <glyph glyph-name="tcaron.alt" horiz-adv-x="352" 
d="M204 405v-259q0 -30 14.5 -46t41.5 -16q32 0 63 16v-97q-38 -17 -92 -17q-66 0 -103 40.5t-37 119.5v259h-69v85h69v131l113 19v-150h119v-85h-119zM273 627q38 7 56 25t18 50h-72v104h137v-104q0 -60 -33.5 -94t-90.5 -45z" />
    <glyph glyph-name="uni0163.alt" horiz-adv-x="352" 
d="M204 405v-259q0 -30 14.5 -46t41.5 -16q32 0 63 16v-97q-38 -17 -92 -17q-66 0 -103 40.5t-37 119.5v259h-69v85h69v131l113 19v-150h119v-85h-119zM170 -213q-24 11 -40 29l35 42q23 -27 57 -27q21 0 33.5 9t12.5 28t-11 28t-29 9q-12 0 -23 -6t-17 -15l-45 21l27 95h57
l-32 -67q17 22 53 22q40 0 64 -22.5t24 -65.5q0 -45 -29.5 -68t-82.5 -23q-30 0 -54 11z" />
    <glyph glyph-name="uni021B.alt" horiz-adv-x="352" 
d="M204 405v-259q0 -30 14.5 -46t41.5 -16q32 0 63 16v-97q-38 -17 -92 -17q-66 0 -103 40.5t-37 119.5v259h-69v85h69v131l113 19v-150h119v-85h-119zM172 -222q33 9 50.5 26.5t17.5 48.5h-77v99h139v-99q0 -57 -29.5 -86t-80.5 -45z" />
    <glyph glyph-name="f_i" horiz-adv-x="605" 
d="M533 0h-113v405h-213v-405h-113v405h-69v85h69v64q0 78 43 119t119 41q42 0 70 -13v-98q-25 14 -59 14q-28 0 -44 -17.5t-16 -49.5v-60h326v-490zM547 668v-107h-142v107h142z" />
    <glyph glyph-name="f_l" horiz-adv-x="616" 
d="M137 673q43 41 119 41q42 0 70 -13v-98q-25 14 -59 14q-28 0 -44 -17.5t-16 -49.5v-60h112v-85h-112v-405h-113v405h-69v85h69v64q0 78 43 119zM585 99v-91q-23 -15 -62 -15q-56 0 -83 33.5t-27 91.5v582h113v-571q0 -18 8 -27t23 -9q13 0 28 6z" />
    <glyph glyph-name="ordfeminine" unicode="&#xaa;" horiz-adv-x="383" 
d="M62.5 350q-32.5 30 -32.5 82t34 83t88 34l106 6v29q0 30 -19.5 47.5t-52.5 17.5q-30 0 -52 -14.5t-33 -41.5l-60 30q16 43 55.5 67t90.5 24q72 0 112 -32t40 -93v-187q0 -43 16 -71h-80q-13 21 -16 48q-38 -59 -112 -59q-52 0 -84.5 30zM234 412q24 26 24 66v20l-80 -5
q-30 -1 -46 -15.5t-16 -40.5q0 -24 15.5 -37.5t40.5 -13.5q38 0 62 26z" />
    <glyph glyph-name="ordmasculine" unicode="&#xba;" horiz-adv-x="433" 
d="M79.5 374.5q-51.5 54.5 -51.5 142.5t51 142.5t137 54.5t137.5 -54.5t51.5 -142.5t-51.5 -142.5t-137.5 -54.5q-85 0 -136.5 54.5zM289.5 428.5q28.5 34.5 28.5 88.5t-28.5 89t-73.5 35t-73.5 -35t-28.5 -89t28.5 -88.5t73.5 -34.5t73.5 34.5z" />
    <glyph glyph-name="uni0410" unicode="&#x410;" horiz-adv-x="665" 
d="M469 155h-274l-56 -155h-121l262 700h105l262 -700h-122zM433 255l-101 279l-101 -279h202z" />
    <glyph glyph-name="uni0411" unicode="&#x411;" horiz-adv-x="637" 
d="M534.5 358.5q60.5 -52.5 60.5 -152.5q0 -101 -60.5 -153.5t-165.5 -52.5h-289v700h453v-100h-335v-189h171q105 0 165.5 -52.5zM447 128q30 28 30 78t-30 77.5t-83 27.5h-166v-211h166q53 0 83 28z" />
    <glyph glyph-name="uni0412" unicode="&#x412;" horiz-adv-x="637" 
d="M80 700h265q107 0 165 -47t58 -133q0 -50 -24.5 -86.5t-63.5 -56.5q115 -48 115 -178q0 -62 -29 -107t-80.5 -68.5t-116.5 -23.5h-289v700zM344 411q50 0 78 25t28 70t-28 69.5t-78 24.5h-146v-189h146zM364 100q53 0 83 28t30 78q0 51 -29.5 78t-83.5 27h-166v-211h166z
" />
    <glyph glyph-name="uni0413" unicode="&#x413;" horiz-adv-x="576" 
d="M538 600h-340v-600h-118v700h458v-100z" />
    <glyph glyph-name="uni0403" unicode="&#x403;" horiz-adv-x="576" 
d="M538 600h-340v-600h-118v700h458v-100zM327 910h115l-88 -136h-91z" />
    <glyph glyph-name="uni0490" unicode="&#x490;" horiz-adv-x="576" 
d="M538 813v-213h-340v-600h-118v700h345v113h113z" />
    <glyph glyph-name="uni0414" unicode="&#x414;" horiz-adv-x="678" 
d="M660 100v-218h-110v118h-422v-118h-110v218h65q50 194 50 412v188h462v-600h65zM477 600h-226v-100q0 -209 -49 -400h275v500z" />
    <glyph glyph-name="uni0415" unicode="&#x415;" horiz-adv-x="576" 
d="M198 600v-188h252v-100h-252v-212h340v-100h-458v700h458v-100h-340z" />
    <glyph glyph-name="uni0400" unicode="&#x400;" horiz-adv-x="576" 
d="M198 600v-188h252v-100h-252v-212h340v-100h-458v700h458v-100h-340zM175 910h115l64 -136h-91z" />
    <glyph glyph-name="uni0401" unicode="&#x401;" horiz-adv-x="576" 
d="M198 600v-188h252v-100h-252v-212h340v-100h-458v700h458v-100h-340zM163 888h119v-102h-119v102zM337 888h119v-102h-119v102z" />
    <glyph glyph-name="uni0416" unicode="&#x416;" horiz-adv-x="925" 
d="M51 73l91 204q15 33 25.5 51.5t28 32.5t45.5 20q-32 18 -50 48t-32 97q-11 51 -26 70.5t-39 19.5q-21 0 -38 -10l-21 94q28 14 67 14q61 0 98 -31.5t53 -110.5q18 -83 43 -118t71 -35h37v281h118v-281h36q46 0 71.5 35t43.5 118q16 79 53 110.5t98 31.5q37 0 67 -14
l-22 -94q-17 10 -38 10q-24 0 -39 -19.5t-26 -70.5q-14 -67 -31.5 -97t-49.5 -48q27 -6 44.5 -20t28 -32.5t25.5 -51.5l91 -204q21 -48 46 -73h-122q-24 19 -43 62l-86 191q-17 36 -35 51.5t-54 15.5h-58v-320h-118v320h-59q-35 0 -53.5 -16t-34.5 -51l-86 -191
q-18 -41 -43 -62h-123q25 25 46 73z" />
    <glyph glyph-name="uni0417" unicode="&#x417;" horiz-adv-x="599" 
d="M549 206q0 -66 -32.5 -116t-90 -77t-131.5 -27q-101 0 -165.5 49.5t-90.5 130.5l101 55q16 -62 56 -98t100 -36q62 0 98 30t36 89q0 57 -36 86t-97 29h-45v96h41q54 0 84 27t30 75q0 46 -32 71t-85 25q-51 0 -86 -28t-49 -79l-91 45q21 74 80.5 117.5t147.5 43.5
q106 0 168 -48t62 -137q0 -56 -26.5 -93.5t-68.5 -58.5q122 -39 122 -171z" />
    <glyph glyph-name="uni0418" unicode="&#x418;" horiz-adv-x="737" 
d="M80 700h117v-495l354 495h106v-700h-117v495l-355 -495h-105v700z" />
    <glyph glyph-name="uni0419" unicode="&#x419;" horiz-adv-x="737" 
d="M80 700h117v-495l354 495h106v-700h-117v495l-355 -495h-105v700zM286.5 804q-30.5 29 -30.5 81h72q0 -21 10.5 -34t29.5 -13q20 0 30.5 13t10.5 34h71q0 -52 -30 -81t-82 -29q-51 0 -81.5 29z" />
    <glyph glyph-name="uni040D" unicode="&#x40d;" horiz-adv-x="737" 
d="M80 700h117v-495l354 495h106v-700h-117v495l-355 -495h-105v700zM234 910h115l64 -136h-91z" />
    <glyph glyph-name="uni041A" unicode="&#x41a;" horiz-adv-x="601" 
d="M80 700h118v-281h36q46 0 71.5 35t43.5 118q16 78 54 110t97 32q37 0 67 -14l-22 -94q-17 10 -38 10q-24 0 -39 -19.5t-26 -70.5q-13 -66 -31.5 -96t-49.5 -49q27 -6 44.5 -20t28 -32.5t25.5 -51.5l91 -204q21 -48 46 -73h-122q-24 19 -43 62l-86 191q-17 36 -35 51.5
t-54 15.5h-58v-320h-118v700z" />
    <glyph glyph-name="uni040C" unicode="&#x40c;" horiz-adv-x="601" 
d="M80 700h118v-281h36q46 0 71.5 35t43.5 118q16 78 54 110t97 32q37 0 67 -14l-22 -94q-17 10 -38 10q-24 0 -39 -19.5t-26 -70.5q-13 -66 -31.5 -96t-49.5 -49q27 -6 44.5 -20t28 -32.5t25.5 -51.5l91 -204q21 -48 46 -73h-122q-24 19 -43 62l-86 191q-17 36 -35 51.5
t-54 15.5h-58v-320h-118v700zM331 910h115l-88 -136h-91z" />
    <glyph glyph-name="uni041B" unicode="&#x41b;" horiz-adv-x="704" 
d="M22 -7v108q22 -8 42 -8q25 0 40.5 24t18.5 81l30 502h471v-700h-118v600h-243l-24 -416q-11 -198 -154 -198q-38 0 -63 7z" />
    <glyph glyph-name="uni041C" unicode="&#x41c;" horiz-adv-x="864" 
d="M80 700h108l244 -507l244 507h108v-700h-114v449l-195 -391h-87l-194 391v-449h-114v700z" />
    <glyph glyph-name="uni041D" unicode="&#x41d;" horiz-adv-x="706" 
d="M626 700v-700h-118v312h-310v-312h-118v700h118v-288h310v288h118z" />
    <glyph glyph-name="uni041E" unicode="&#x41e;" horiz-adv-x="767" 
d="M205 31.5q-77 45.5 -118.5 128t-41.5 190.5t41.5 190.5t118.5 128t179 45.5t178.5 -45.5t118 -128t41.5 -190.5t-41.5 -190.5t-118 -128t-178.5 -45.5t-179 45.5zM499.5 120.5q49.5 34.5 75.5 94.5t26 135q0 76 -26 136t-75.5 94t-115.5 34q-67 0 -116.5 -34t-75.5 -94
t-26 -136q0 -75 26 -135t75.5 -94.5t116.5 -34.5q66 0 115.5 34.5z" />
    <glyph glyph-name="uni041F" unicode="&#x41f;" horiz-adv-x="706" 
d="M626 0h-118v600h-310v-600h-118v700h546v-700z" />
    <glyph glyph-name="uni0420" unicode="&#x420;" horiz-adv-x="629" 
d="M80 700h282q108 0 169 -55.5t61 -155.5q0 -101 -61 -156.5t-169 -55.5h-164v-277h-118v700zM357 372q61 0 92 30t31 87t-31.5 86.5t-91.5 29.5h-159v-233h159z" />
    <glyph glyph-name="uni0421" unicode="&#x421;" horiz-adv-x="710" 
d="M206 33.5q-77 47.5 -119 130t-42 186.5t42 186.5t119 130t178 47.5q106 0 182 -47t108 -144l-99 -43q-23 65 -72.5 99.5t-118.5 34.5q-68 0 -117 -34.5t-75 -94.5t-26 -135t26 -135t75 -94.5t117 -34.5q69 0 115.5 32t74.5 94l98 -43q-40 -89 -113 -136t-175 -47
q-101 0 -178 47.5z" />
    <glyph glyph-name="uni0422" unicode="&#x422;" horiz-adv-x="567" 
d="M544 600h-202v-600h-118v600h-201v100h521v-100z" />
    <glyph glyph-name="uni0423" unicode="&#x423;" horiz-adv-x="593" 
d="M580 700l-265 -588q-31 -70 -68 -98t-95 -28q-59 0 -99 28l30 98q36 -22 66 -22q25 0 41.5 14.5t31.5 50.5l20 47l-229 498h125l162 -362l155 362h125z" />
    <glyph glyph-name="uni040E" unicode="&#x40e;" horiz-adv-x="593" 
d="M580 700l-265 -588q-31 -70 -68 -98t-95 -28q-59 0 -99 28l30 98q36 -22 66 -22q25 0 41.5 14.5t31.5 50.5l20 47l-229 498h125l162 -362l155 362h125zM219.5 804q-30.5 29 -30.5 81h72q0 -21 10.5 -34t29.5 -13q20 0 30.5 13t10.5 34h71q0 -52 -30 -81t-82 -29
q-51 0 -81.5 29z" />
    <glyph glyph-name="uni0424" unicode="&#x424;" horiz-adv-x="832" 
d="M649.5 594.5q65.5 -33.5 101.5 -96.5t36 -148t-36 -147.5t-101.5 -96t-151.5 -33.5h-23v-73h-118v73h-22q-86 0 -152 33.5t-102 96t-36 147.5t36 148t102 96.5t152 33.5h22v72h118v-72h23q86 0 151.5 -33.5zM357 173v355h-18q-82 0 -129 -45.5t-47 -132.5t47 -132
t129 -45h18zM622.5 218q46.5 45 46.5 132t-46.5 132.5t-128.5 45.5h-19v-355h19q82 0 128.5 45z" />
    <glyph glyph-name="uni0425" unicode="&#x425;" horiz-adv-x="624" 
d="M471 0l-159 264l-159 -264h-130l227 367l-204 333h128l138 -230l138 230h128l-203 -334l226 -366h-130z" />
    <glyph glyph-name="uni0427" unicode="&#x427;" horiz-adv-x="668" 
d="M588 700v-700h-118v299q-68 -53 -163 -53q-113 0 -174 63t-61 190v201h118v-195q0 -159 141 -159q82 0 139 62v292h118z" />
    <glyph glyph-name="uni0426" unicode="&#x426;" horiz-adv-x="709" 
d="M581 0h-501v700h118v-600h310v600h118v-600h65v-218h-110v118z" />
    <glyph glyph-name="uni0428" unicode="&#x428;" horiz-adv-x="968" 
d="M80 700h118v-600h227v600h118v-600h227v600h118v-700h-808v700z" />
    <glyph glyph-name="uni0429" unicode="&#x429;" horiz-adv-x="971" 
d="M953 100v-218h-110v118h-763v700h118v-600h227v600h118v-600h227v600h118v-600h65z" />
    <glyph glyph-name="uni040F" unicode="&#x40f;" horiz-adv-x="706" 
d="M626 700v-700h-218v-118h-110v118h-218v700h118v-600h310v600h118z" />
    <glyph glyph-name="uni042C" unicode="&#x42c;" horiz-adv-x="637" 
d="M80 700h118v-289h171q105 0 165.5 -52.5t60.5 -152.5q0 -101 -60.5 -153.5t-165.5 -52.5h-289v700zM364 100q53 0 83 28t30 78t-30 77.5t-83 27.5h-166v-211h166z" />
    <glyph glyph-name="uni042A" unicode="&#x42a;" horiz-adv-x="710" 
d="M607.5 358.5q60.5 -52.5 60.5 -152.5q0 -101 -60.5 -153.5t-165.5 -52.5h-290v600h-139v100h257v-289h172q105 0 165.5 -52.5zM519.5 128q30.5 28 30.5 78t-30 77.5t-84 27.5h-166v-211h166q53 0 83.5 28z" />
    <glyph glyph-name="uni042B" unicode="&#x42b;" horiz-adv-x="915" 
d="M80 700h118v-289h171q105 0 165.5 -52.5t60.5 -152.5q0 -101 -60.5 -153.5t-165.5 -52.5h-289v700zM364 100q53 0 83 28t30 78t-30 77.5t-83 27.5h-166v-211h166zM717 700h118v-700h-118v700z" />
    <glyph glyph-name="uni0409" unicode="&#x409;" horiz-adv-x="1064" 
d="M961.5 358.5q60.5 -52.5 60.5 -152.5q0 -101 -60.5 -153.5t-165.5 -52.5h-290v600h-243l-24 -416q-11 -198 -154 -198q-38 0 -63 7v108q22 -8 42 -8q25 0 40.5 24t18.5 81l30 502h471v-289h172q105 0 165.5 -52.5zM873.5 128q30.5 28 30.5 78t-30 77.5t-84 27.5h-166
v-211h166q53 0 83.5 28z" />
    <glyph glyph-name="uni040A" unicode="&#x40a;" horiz-adv-x="1056" 
d="M80 700h118v-288h301v288h118v-289h171q105 0 165.5 -52.5t60.5 -152.5q0 -101 -60.5 -153.5t-165.5 -52.5h-289v312h-301v-312h-118v700zM783 100q53 0 83 28t30 78t-30 77.5t-83 27.5h-166v-211h166z" />
    <glyph glyph-name="uni0405" unicode="&#x405;" horiz-adv-x="558" 
d="M135.5 12.5q-64.5 26.5 -97.5 69.5l35 124q43 -61 92 -90.5t108 -29.5q53 0 85.5 28.5t32.5 76.5q0 34 -12 56.5t-42 39.5t-85 32q-199 55 -199 205q0 59 30 102t82 65.5t116 22.5q118 0 200 -63l-33 -105q-80 70 -166 70q-48 0 -81.5 -23.5t-33.5 -63.5q0 -43 34 -71.5
t122 -52.5q95 -26 142 -74t47 -133q0 -63 -31 -111.5t-86 -74.5t-123 -26q-72 0 -136.5 26.5z" />
    <glyph glyph-name="uni0404" unicode="&#x404;" horiz-adv-x="710" 
d="M499.5 118q46.5 32 74.5 94l98 -43q-40 -89 -113 -136t-175 -47q-101 0 -178 47.5t-119 130t-42 186.5t42 186.5t119 130t178 47.5q106 0 182 -47t108 -144l-99 -43q-23 65 -72.5 99.5t-118.5 34.5q-90 0 -146.5 -59.5t-68.5 -155.5h340v-98h-340q12 -96 68.5 -155.5
t146.5 -59.5q69 0 115.5 32z" />
    <glyph glyph-name="uni042D" unicode="&#x42d;" horiz-adv-x="710" 
d="M210.5 582q-46.5 -32 -74.5 -94l-98 43q40 89 113 136t175 47q101 0 178 -47.5t119 -130t42 -186.5t-42 -186.5t-119 -130t-178 -47.5q-106 0 -182 47t-108 144l99 43q23 -65 72.5 -99.5t118.5 -34.5q90 0 146.5 59.5t68.5 155.5h-340v98h340q-12 96 -68.5 155.5
t-146.5 59.5q-69 0 -115.5 -32z" />
    <glyph glyph-name="uni0406" unicode="&#x406;" horiz-adv-x="278" 
d="M80 700h118v-700h-118v700z" />
    <glyph glyph-name="uni0407" unicode="&#x407;" horiz-adv-x="278" 
d="M80 700h118v-700h-118v700zM-7 888h119v-102h-119v102zM167 888h119v-102h-119v102z" />
    <glyph glyph-name="uni0408" unicode="&#x408;" horiz-adv-x="513" 
d="M102.5 10.5q-48.5 24.5 -77.5 67.5l59 89q26 -40 58 -60.5t74 -20.5q51 0 79.5 35.5t28.5 108.5v470h118v-464q0 -125 -58 -187.5t-168 -62.5q-65 0 -113.5 24.5z" />
    <glyph glyph-name="uni040B" unicode="&#x40b;" horiz-adv-x="773" 
d="M648.5 379.5q48.5 -50.5 48.5 -147.5v-232h-118v213q0 117 -108 117q-35 0 -70 -14t-59 -37v-279h-118v600h-201v100h521v-100h-202v-217q30 20 72 33.5t91 13.5q95 0 143.5 -50.5z" />
    <glyph glyph-name="uni042E" unicode="&#x42e;" horiz-adv-x="1053" 
d="M848.5 668.5q76.5 -45.5 118 -128t41.5 -190.5t-41.5 -190.5t-118 -128t-178.5 -45.5q-96 0 -170 40.5t-117.5 114t-50.5 171.5h-134v-312h-118v700h118v-288h137q11 91 55 159.5t116 105.5t164 37q102 0 178.5 -45.5zM785.5 120.5q49.5 34.5 75.5 94.5t26 135
q0 76 -26 136t-75.5 94t-115.5 34q-67 0 -116.5 -34t-75.5 -94t-26 -136q0 -75 26 -135t75.5 -94.5t116.5 -34.5q66 0 115.5 34.5z" />
    <glyph glyph-name="uni042F" unicode="&#x42f;" horiz-adv-x="657" 
d="M577 700h-299q-96 0 -153 -51.5t-57 -134.5q0 -66 38.5 -109t92.5 -57q-46 -15 -69 -89l-58 -186q-12 -43 -38 -73h121q19 19 33 62l57 177q12 37 29.5 52.5t55.5 15.5h129v-307h118v700zM290 402q-109 0 -109 102q0 101 109 101h169v-203h-169z" />
    <glyph glyph-name="uni0402" unicode="&#x402;" horiz-adv-x="754" 
d="M653.5 375q59.5 -55 59.5 -166q0 -74 -30 -124.5t-80 -74.5t-110 -24q-51 0 -97 17v104q21 -13 41 -18.5t46 -5.5q47 0 79.5 31.5t32.5 92.5q0 59 -34.5 91t-88.5 32q-36 0 -72 -14t-58 -37v-279h-118v600h-201v100h521v-100h-202v-217q31 20 71 33.5t86 13.5
q95 0 154.5 -55z" />
    <glyph glyph-name="uni0462" unicode="&#x462;" horiz-adv-x="723" 
d="M620.5 358.5q60.5 -52.5 60.5 -152.5q0 -101 -60.5 -153.5t-165.5 -52.5h-290v528h-155v90h155v82h118v-82h164v-90h-164v-117h172q105 0 165.5 -52.5zM532.5 128q30.5 28 30.5 78t-30 77.5t-84 27.5h-166v-211h166q53 0 83.5 28z" />
    <glyph glyph-name="uni0472" unicode="&#x472;" horiz-adv-x="767" 
d="M562.5 668.5q76.5 -45.5 118 -128t41.5 -190.5t-41.5 -190.5t-118 -128t-178.5 -45.5t-179 45.5t-118.5 128t-41.5 190.5t41.5 190.5t118.5 128t179 45.5t178.5 -45.5zM239.5 557q-56.5 -57 -69.5 -151q47 25 97 25q34 0 62 -9t71 -27q35 -15 57 -22.5t46 -7.5
q55 0 96 27q-11 99 -68 160.5t-147 61.5q-88 0 -144.5 -57zM527 143q56 57 70 151q-47 -25 -96 -25q-34 0 -62 9t-71 27q-35 15 -57 22.5t-46 7.5q-51 0 -97 -27q11 -99 68 -160.5t148 -61.5q87 0 143 57z" />
    <glyph glyph-name="uni0474" unicode="&#x474;" horiz-adv-x="754" 
d="M14 700h125l193 -535l158 436q21 59 56 86t85 27q37 0 64 -10t48 -31l-56 -96q-21 24 -44 24q-16 0 -27 -10.5t-19 -33.5l-213 -557h-104z" />
    <glyph glyph-name="uni0430" unicode="&#x430;" horiz-adv-x="528" 
d="M87.5 25q-43.5 39 -43.5 107q0 69 44.5 109t118.5 45l142 10v37q0 40 -27 62.5t-71 22.5q-40 0 -69.5 -18.5t-43.5 -55.5l-80 41q21 57 73.5 88t121.5 31q96 0 149.5 -42.5t53.5 -121.5v-247q0 -29 4.5 -51t16.5 -42h-107q-17 26 -21 63q-50 -77 -149 -77
q-69 0 -112.5 39zM317 107.5q32 34.5 32 86.5v25l-107 -6q-84 -6 -84 -74q0 -31 20 -48.5t55 -17.5q52 0 84 34.5z" />
    <glyph glyph-name="uni0431" unicode="&#x431;" horiz-adv-x="576" 
d="M107.5 64q-70.5 78 -70.5 246q0 192 70 287t223 95q94 0 138 22v-94q-38 -22 -137 -22q-86 0 -130.5 -44.5t-51.5 -148.5q22 45 66 70t98 25q69 0 120 -31t78.5 -89t27.5 -136t-31.5 -136.5t-88 -90t-128.5 -31.5q-113 0 -183.5 78zM387.5 127q36.5 46 36.5 117
q0 72 -36 117.5t-97 45.5t-97.5 -45.5t-36.5 -117.5q0 -71 36.5 -117t97.5 -46q60 0 96.5 46z" />
    <glyph glyph-name="uni0432" unicode="&#x432;" horiz-adv-x="537" 
d="M72 490h223q86 0 129 -32.5t43 -94.5q0 -34 -18.5 -58.5t-48.5 -38.5q41 -17 64 -46t23 -79q0 -65 -50 -103t-127 -38h-238v490zM301 295q26 0 42 14t16 39t-16 39t-42 14h-120v-106h120zM308 89q33 0 52 16t19 46q0 29 -19 45t-52 16h-127v-123h127z" />
    <glyph glyph-name="uni0433" unicode="&#x433;" horiz-adv-x="472" 
d="M185 394v-394h-113v490h357v-96h-244z" />
    <glyph glyph-name="uni0453" unicode="&#x453;" horiz-adv-x="472" 
d="M185 394v-394h-113v490h357v-96h-244zM263 700h115l-88 -136h-91z" />
    <glyph glyph-name="uni0491" unicode="&#x491;" horiz-adv-x="472" 
d="M72 490h251v95h106v-191h-244v-394h-113v490z" />
    <glyph glyph-name="uni0434" unicode="&#x434;" horiz-adv-x="609" 
d="M29 93h60q17 52 25.5 116t8.5 123v158h393v-397h60v-200h-106v107h-335v-107h-106v200zM405 93v304h-171v-67q0 -58 -8.5 -120t-25.5 -117h205z" />
    <glyph glyph-name="uni0435" unicode="&#x435;" horiz-adv-x="547" 
d="M502 219h-353q6 -65 41.5 -103t93.5 -38q81 0 119 73l88 -50q-31 -55 -83 -85t-126 -30t-129.5 33.5t-85.5 92t-30 133.5q0 74 31 133t87.5 92.5t129.5 33.5q66 0 117.5 -28t80 -76.5t28.5 -106.5q0 -42 -9 -74zM405 300q-5 51 -36.5 82.5t-83.5 31.5q-50 0 -84.5 -30.5
t-46.5 -83.5h251z" />
    <glyph glyph-name="uni0450" unicode="&#x450;" horiz-adv-x="547" 
d="M502 219h-353q6 -65 41.5 -103t93.5 -38q81 0 119 73l88 -50q-31 -55 -83 -85t-126 -30t-129.5 33.5t-85.5 92t-30 133.5q0 74 31 133t87.5 92.5t129.5 33.5q66 0 117.5 -28t80 -76.5t28.5 -106.5q0 -42 -9 -74zM405 300q-5 51 -36.5 82.5t-83.5 31.5q-50 0 -84.5 -30.5
t-46.5 -83.5h251zM151 700h115l64 -136h-91z" />
    <glyph glyph-name="uni0451" unicode="&#x451;" horiz-adv-x="547" 
d="M502 219h-353q6 -65 41.5 -103t93.5 -38q81 0 119 73l88 -50q-31 -55 -83 -85t-126 -30t-129.5 33.5t-85.5 92t-30 133.5q0 74 31 133t87.5 92.5t129.5 33.5q66 0 117.5 -28t80 -76.5t28.5 -106.5q0 -42 -9 -74zM405 300q-5 51 -36.5 82.5t-83.5 31.5q-50 0 -84.5 -30.5
t-46.5 -83.5h251zM139 678h119v-102h-119v102zM313 678h119v-102h-119v102z" />
    <glyph glyph-name="uni0436" unicode="&#x436;" horiz-adv-x="766" 
d="M728 26q8 -11 22 -26h-120q-15 11 -27 37l-62 139q-10 21 -23 29.5t-35 8.5h-43v-214h-113v214h-43q-22 0 -35.5 -8.5t-22.5 -29.5l-63 -139q-12 -26 -27 -37h-120q14 15 22 26t16 28l67 149q16 35 29 50.5t32 22.5q-19 13 -28 28t-15 48t-17.5 47t-28.5 14
q-21 0 -39 -12l-18 90q30 13 69 13q49 0 79 -26t42 -84q9 -48 25.5 -66t47.5 -18h28v180h113v-180h27q31 0 47.5 18t26.5 66q12 58 42 84t79 26q39 0 68 -13l-18 -90q-18 12 -38 12q-17 0 -28.5 -14t-17.5 -47q-6 -34 -15 -48.5t-29 -27.5q19 -7 32 -22.5t29 -50.5l67 -149
q8 -17 16 -28z" />
    <glyph glyph-name="uni0437" unicode="&#x437;" horiz-adv-x="470" 
d="M430 145q0 -73 -54.5 -116t-142.5 -43q-78 0 -128.5 35.5t-72.5 94.5l92 46q12 -38 40.5 -61.5t68.5 -23.5t64.5 18t24.5 51q0 35 -24 52.5t-67 17.5h-35v84h31q39 0 59.5 15.5t20.5 42.5q0 28 -21 43.5t-58 15.5q-35 0 -59 -18t-36 -51l-84 39q17 54 65 85.5t116 31.5
q85 0 133.5 -35t48.5 -98q0 -37 -18.5 -63.5t-47.5 -41.5q84 -30 84 -121z" />
    <glyph glyph-name="uni0438" unicode="&#x438;" horiz-adv-x="599" 
d="M72 490h111v-317l243 317h101v-490h-111v317l-243 -317h-101v490z" />
    <glyph glyph-name="uni0439" unicode="&#x439;" horiz-adv-x="599" 
d="M72 490h111v-317l243 317h101v-490h-111v317l-243 -317h-101v490zM220.5 594q-30.5 29 -30.5 81h72q0 -21 10.5 -34t29.5 -13q20 0 30.5 13t10.5 34h71q0 -52 -30 -81t-82 -29q-51 0 -81.5 29z" />
    <glyph glyph-name="uni045D" unicode="&#x45d;" horiz-adv-x="599" 
d="M72 490h111v-317l243 317h101v-490h-111v317l-243 -317h-101v490zM168 700h115l64 -136h-91z" />
    <glyph glyph-name="uni043A" unicode="&#x43a;" horiz-adv-x="511" 
d="M473 26q8 -11 22 -26h-120q-15 11 -27 37l-62 139q-10 21 -23 29.5t-35 8.5h-43v-214h-113v490h113v-180h27q31 0 47.5 18t26.5 66q12 58 42 84t79 26q39 0 68 -13l-18 -90q-18 12 -38 12q-17 0 -28.5 -14t-17.5 -47q-6 -34 -15 -48.5t-29 -27.5q19 -7 32 -22.5t29 -50.5
l67 -149q8 -17 16 -28z" />
    <glyph glyph-name="uni045C" unicode="&#x45c;" horiz-adv-x="511" 
d="M473 26q8 -11 22 -26h-120q-15 11 -27 37l-62 139q-10 21 -23 29.5t-35 8.5h-43v-214h-113v490h113v-180h27q31 0 47.5 18t26.5 66q12 58 42 84t79 26q39 0 68 -13l-18 -90q-18 12 -38 12q-17 0 -28.5 -14t-17.5 -47q-6 -34 -15 -48.5t-29 -27.5q19 -7 32 -22.5t29 -50.5
l67 -149q8 -17 16 -28zM288 700h115l-88 -136h-91z" />
    <glyph glyph-name="uni043B" unicode="&#x43b;" horiz-adv-x="586" 
d="M26 -3v97q18 -10 31 -10q19 0 32 16.5t15 48.5l25 341h385v-490h-113v392h-170l-20 -261q-5 -75 -37.5 -110t-85.5 -35q-35 0 -62 11z" />
    <glyph glyph-name="uni043C" unicode="&#x43c;" horiz-adv-x="677" 
d="M72 490h112l154 -362l154 362h113v-490h-107v271l-121 -271h-78l-120 271v-271h-107v490z" />
    <glyph glyph-name="uni043D" unicode="&#x43d;" horiz-adv-x="596" 
d="M524 490v-490h-113v205h-226v-205h-113v490h113v-187h226v187h113z" />
    <glyph glyph-name="uni043E" unicode="&#x43e;" horiz-adv-x="579" 
d="M156.5 18.5q-57.5 32.5 -88.5 91.5t-31 135q0 77 31 135.5t88.5 91t133.5 32.5t133 -32.5t88 -91t31 -135.5q0 -76 -31 -135t-88 -91.5t-133 -32.5t-133.5 32.5zM389 128.5q38 45.5 38 116.5t-38 116.5t-99 45.5q-62 0 -100 -45.5t-38 -116.5t38 -116.5t100 -45.5
q61 0 99 45.5z" />
    <glyph glyph-name="uni043F" unicode="&#x43f;" horiz-adv-x="590" 
d="M72 490h446v-490h-113v392h-220v-392h-113v490z" />
    <glyph glyph-name="uni0440" unicode="&#x440;" horiz-adv-x="594" 
d="M72 490h113v-71q22 40 64 62.5t94 22.5q63 0 111.5 -32.5t75.5 -91t27 -135.5q0 -76 -27 -135t-76.5 -91.5t-114.5 -32.5q-53 0 -93.5 21t-60.5 56v-273h-113v700zM406.5 127.5q35.5 44.5 35.5 117.5t-35 117.5t-95 44.5t-95.5 -44.5t-35.5 -117.5t35.5 -117.5
t95.5 -44.5q59 0 94.5 44.5z" />
    <glyph glyph-name="uni0441" unicode="&#x441;" horiz-adv-x="531" 
d="M156.5 19q-57.5 33 -88.5 92t-31 134t31 134t88.5 92t133.5 33q143 0 206 -112l-84 -61q-19 37 -50 56.5t-72 19.5q-61 0 -99.5 -44t-38.5 -118t38.5 -118t99.5 -44q83 0 122 73l84 -56q-67 -114 -206 -114q-76 0 -133.5 33z" />
    <glyph glyph-name="uni0442" unicode="&#x442;" horiz-adv-x="454" 
d="M438 392h-154v-392h-113v392h-155v98h422v-98z" />
    <glyph glyph-name="uni0443" unicode="&#x443;" horiz-adv-x="552" 
d="M535 490l-250 -607q-25 -60 -56.5 -83.5t-81.5 -23.5q-18 0 -40.5 4t-35.5 10l18 100q22 -14 47 -14q34 0 52 43l32 80l-203 491h124l136 -347l138 347h120z" />
    <glyph glyph-name="uni045E" unicode="&#x45e;" horiz-adv-x="552" 
d="M535 490l-250 -607q-25 -60 -56.5 -83.5t-81.5 -23.5q-18 0 -40.5 4t-35.5 10l18 100q22 -14 47 -14q34 0 52 43l32 80l-203 491h124l136 -347l138 347h120zM194.5 594q-30.5 29 -30.5 81h72q0 -21 10.5 -34t29.5 -13q20 0 30.5 13t10.5 34h71q0 -52 -30 -81t-82 -29
q-51 0 -81.5 29z" />
    <glyph glyph-name="uni0444" unicode="&#x444;" horiz-adv-x="675" 
d="M573 72q-65 -69 -179 -83v-199h-113v199q-115 15 -179.5 83.5t-64.5 172.5t64.5 172.5t179.5 83.5v199h113v-199q114 -14 179 -83t65 -173t-65 -173zM490 139q34 40 34 106q0 67 -34 106t-96 51v-314q62 11 96 51zM185 139.5q34 -39.5 96 -51.5v314q-62 -11 -96 -51
t-34 -106t34 -105.5z" />
    <glyph glyph-name="uni0445" unicode="&#x445;" horiz-adv-x="494" 
d="M347 0l-100 159l-100 -159h-126l165 253l-154 237h121l94 -152l94 152h121l-154 -237l165 -253h-126z" />
    <glyph glyph-name="uni0447" unicode="&#x447;" horiz-adv-x="575" 
d="M390 181q-30 -24 -65 -34.5t-82 -10.5q-81 0 -131 50t-50 142v162h113v-146q0 -110 101 -110q32 0 58 12t56 38v206h113v-490h-113v181z" />
    <glyph glyph-name="uni0446" unicode="&#x446;" horiz-adv-x="610" 
d="M477 0h-405v490h113v-392h225v392h113v-397h60v-200h-106v107z" />
    <glyph glyph-name="uni0448" unicode="&#x448;" horiz-adv-x="833" 
d="M72 490h113v-392h175v392h113v-392h175v392h113v-490h-689v490z" />
    <glyph glyph-name="uni0449" unicode="&#x449;" horiz-adv-x="848" 
d="M715 0h-643v490h113v-392h175v392h113v-392h175v392h113v-397h60v-200h-106v107z" />
    <glyph glyph-name="uni045F" unicode="&#x45f;" horiz-adv-x="595" 
d="M523 0h-173v-107h-106v107h-172v490h113v-392h225v392h113v-490z" />
    <glyph glyph-name="uni044C" unicode="&#x44c;" horiz-adv-x="537" 
d="M72 490h109v-189h129q80 0 128.5 -37t48.5 -114t-48 -113.5t-129 -36.5h-238v490zM308 89q33 0 52 16t19 46q0 29 -19 45t-52 16h-127v-123h127z" />
    <glyph glyph-name="uni044A" unicode="&#x44a;" horiz-adv-x="606" 
d="M507.5 264q48.5 -37 48.5 -114t-48 -113.5t-129 -36.5h-239v406h-125v84h234v-189h130q80 0 128.5 -37zM429 105q19 16 19 46t-19 45.5t-53 15.5h-127v-123h127q34 0 53 16z" />
    <glyph glyph-name="uni044B" unicode="&#x44b;" horiz-adv-x="795" 
d="M72 490h109v-189h129q80 0 128.5 -37t48.5 -114t-48 -113.5t-129 -36.5h-238v490zM308 89q33 0 52 16t19 46q0 29 -19 45t-52 16h-127v-123h127zM609 490h113v-490h-113v490z" />
    <glyph glyph-name="uni0459" unicode="&#x459;" horiz-adv-x="871" 
d="M26 -3v97q18 -10 31 -10q19 0 32 16.5t15 48.5l25 341h385v-189h130q80 0 128.5 -37t48.5 -114t-48 -113.5t-129 -36.5h-243v392h-170l-20 -261q-5 -75 -37.5 -110t-85.5 -35q-35 0 -62 11zM641 89q34 0 53 16t19 46t-19 45.5t-53 15.5h-127v-123h127z" />
    <glyph glyph-name="uni045A" unicode="&#x45a;" horiz-adv-x="880" 
d="M781.5 264q48.5 -37 48.5 -114t-48 -113.5t-129 -36.5h-242v205h-226v-205h-113v490h113v-187h226v187h113v-189h129q80 0 128.5 -37zM703 104.5q19 15.5 19 45.5q0 29 -19 44.5t-52 15.5h-127v-121h127q33 0 52 15.5z" />
    <glyph glyph-name="uni0455" unicode="&#x455;" horiz-adv-x="438" 
d="M39 51l47 93q25 -31 60 -49t71 -18q72 0 72 59q0 26 -24.5 44t-77.5 33q-64 19 -96.5 57t-32.5 94q0 63 49.5 101.5t123.5 38.5q45 0 82.5 -11t63.5 -29l-33 -89q-29 21 -56 31.5t-57 10.5q-31 0 -50 -14t-19 -38q0 -25 24 -43.5t76 -31.5q68 -18 100 -53.5t32 -100.5
q0 -42 -21.5 -76t-61 -54t-93.5 -20q-114 0 -179 65z" />
    <glyph glyph-name="uni0454" unicode="&#x454;" horiz-adv-x="531" 
d="M496 89q-37 -53 -86 -78t-120 -25q-76 0 -133.5 33t-88.5 92t-31 134t31.5 134t89 92t133.5 33q73 0 122.5 -24.5t80.5 -74.5l-84 -59q-34 61 -119 61q-52 0 -88.5 -32t-46.5 -87h217v-87h-217q11 -55 47 -86.5t87 -31.5q80 0 122 62z" />
    <glyph glyph-name="uni044D" unicode="&#x44d;" horiz-adv-x="531" 
d="M35 401q37 53 86 78t120 25q76 0 133.5 -33t88.5 -92t31 -134t-31.5 -134t-89 -92t-133.5 -33q-73 0 -122.5 24.5t-80.5 74.5l84 59q34 -61 119 -61q52 0 88.5 32t46.5 87h-217v87h217q-11 55 -47 86.5t-87 31.5q-80 0 -122 -62z" />
    <glyph glyph-name="uni0456" unicode="&#x456;" horiz-adv-x="258" 
d="M58 668h142v-107h-142v107zM73 490h113v-490h-113v490z" />
    <glyph glyph-name="uni0457" unicode="&#x457;" horiz-adv-x="258" 
d="M72 490h113v-490h-113v490zM-18 678h119v-102h-119v102zM156 678h119v-102h-119v102z" />
    <glyph glyph-name="uni0458" unicode="&#x458;" horiz-adv-x="258" 
d="M58 668h142v-107h-142v107zM-56 -205l29 93q20 -14 48 -14q27 0 39.5 15.5t12.5 51.5v549h113v-548q0 -87 -37 -126.5t-113 -39.5q-55 0 -92 19z" />
    <glyph glyph-name="uni045B" unicode="&#x45b;" horiz-adv-x="595" 
d="M72 700h113v-292q24 48 69 72t98 24q84 0 127.5 -48.5t43.5 -139.5v-316h-113v294q0 56 -27 84.5t-77 28.5q-31 0 -59 -18t-45 -51t-17 -76v-262h-113v700zM340 643v-82h-350v82h350z" />
    <glyph glyph-name="uni044E" unicode="&#x44e;" horiz-adv-x="846" 
d="M690 471.5q57 -32.5 88 -91t31 -135.5q0 -76 -31 -135t-88 -91.5t-133 -32.5q-104 0 -171.5 60t-79.5 159h-121v-205h-113v490h113v-187h124q17 92 82.5 146.5t165.5 54.5q76 0 133 -32.5zM656 128.5q38 45.5 38 116.5t-38 116.5t-99 45.5q-62 0 -100 -45.5t-38 -116.5
t38 -116.5t100 -45.5q61 0 99 45.5z" />
    <glyph glyph-name="uni044F" unicode="&#x44f;" horiz-adv-x="532" 
d="M61 53l37 116q16 51 54 61q-38 11 -64.5 44t-26.5 80q0 59 42 97.5t114 38.5h243v-490h-109v200h-87q-28 0 -40.5 -10t-21.5 -35l-35 -108q-10 -31 -26 -47h-108q17 21 28 53zM351 281v129h-112q-34 0 -53 -17t-19 -48t19 -47.5t53 -16.5h112z" />
    <glyph glyph-name="uni0452" unicode="&#x452;" horiz-adv-x="596" 
d="M524 95v-153q0 -87 -36.5 -126.5t-112.5 -39.5q-55 0 -92 19l29 93q20 -14 47 -14t39.5 15.5t12.5 51.5v59h-1v294q0 56 -27 84.5t-77 28.5q-31 0 -59 -18t-45 -51t-17 -76v-262h-113v561h-82v82h82v57h113v-57h155v-82h-155v-153q24 48 69 72t98 24q84 0 127.5 -48.5
t43.5 -139.5v-221h1z" />
    <glyph glyph-name="uni0463" unicode="&#x463;" horiz-adv-x="593" 
d="M494.5 264q48.5 -37 48.5 -114t-48 -113.5t-129 -36.5h-239v400h-105v90h105v210h109v-210h204v-90h-204v-99h130q80 0 128.5 -37zM416 105q19 16 19 46t-19 45.5t-53 15.5h-127v-123h127q34 0 53 16z" />
    <glyph glyph-name="uni0473" unicode="&#x473;" horiz-adv-x="579" 
d="M156.5 18.5q-57.5 32.5 -88.5 91.5t-31 135q0 77 31 135.5t88.5 91t133.5 32.5t133 -32.5t88 -91t31 -135.5q0 -76 -31 -135t-88 -91.5t-133 -32.5t-133.5 32.5zM425 277q-8 58 -45 94t-90 36q-48 0 -81.5 -27.5t-46.5 -75.5q18 9 46 9q25 0 46 -7.5t48 -21.5
q21 -12 37 -18t33 -6q31 0 53 17zM371 111q34 28 47 75q-19 -9 -46 -9q-25 0 -46 7.5t-48 21.5q-21 12 -37 18t-33 6q-30 0 -54 -16q8 -59 45 -95t91 -36q47 0 81 28z" />
    <glyph glyph-name="uni0475" unicode="&#x475;" horiz-adv-x="592" 
d="M18 490h126l130 -348l92 248q22 60 54.5 87t82.5 27q27 0 46 -5.5t35 -17.5l-31 -101q-18 15 -38 15q-14 0 -24 -9.5t-19 -31.5l-145 -354h-106z" />
    <glyph glyph-name="uni0458.alt" horiz-adv-x="258" 
d="M58 668h142v-107h-142v107zM-36 -213v101q24 -14 57 -14q27 0 39.5 15.5t12.5 51.5v549h113v-548q0 -87 -37 -126.5t-113 -39.5q-46 0 -72 11z" />
    <glyph glyph-name="uni0475.alt" horiz-adv-x="592" 
d="M18 490h126l130 -348l92 248q22 60 54.5 87t82.5 27q35 0 62 -12v-112q-11 7 -25 11t-25 4q-14 0 -24 -9.5t-19 -31.5l-145 -354h-106z" />
    <glyph glyph-name="Alpha" unicode="&#x391;" horiz-adv-x="665" 
d="M469 155h-274l-56 -155h-121l262 700h105l262 -700h-122zM433 255l-101 279l-101 -279h202z" />
    <glyph glyph-name="Beta" unicode="&#x392;" horiz-adv-x="637" 
d="M80 700h265q107 0 165 -47t58 -133q0 -50 -24.5 -86.5t-63.5 -56.5q115 -48 115 -178q0 -62 -29 -107t-80.5 -68.5t-116.5 -23.5h-289v700zM344 411q50 0 78 25t28 70t-28 69.5t-78 24.5h-146v-189h146zM364 100q53 0 83 28t30 78q0 51 -29.5 78t-83.5 27h-166v-211h166z
" />
    <glyph glyph-name="Gamma" unicode="&#x393;" horiz-adv-x="576" 
d="M538 600h-340v-600h-118v700h458v-100z" />
    <glyph glyph-name="uni0394" unicode="&#x394;" horiz-adv-x="665" 
d="M647 0h-629l262 700h105zM489 100l-157 434l-157 -434h314z" />
    <glyph glyph-name="Epsilon" unicode="&#x395;" horiz-adv-x="576" 
d="M198 600v-188h252v-100h-252v-212h340v-100h-458v700h458v-100h-340z" />
    <glyph glyph-name="Zeta" unicode="&#x396;" horiz-adv-x="603" 
d="M36 88l385 512h-373v100h511v-88l-384 -512h396v-100h-535v88z" />
    <glyph glyph-name="Eta" unicode="&#x397;" horiz-adv-x="706" 
d="M626 700v-700h-118v312h-310v-312h-118v700h118v-288h310v288h118z" />
    <glyph glyph-name="Theta" unicode="&#x398;" horiz-adv-x="767" 
d="M205 31.5q-77 45.5 -118.5 128t-41.5 190.5t41.5 190.5t118.5 128t179 45.5t178.5 -45.5t118 -128t41.5 -190.5t-41.5 -190.5t-118 -128t-178.5 -45.5t-179 45.5zM499.5 120.5q49.5 34.5 75.5 94.5t26 135q0 76 -26 136t-75.5 94t-115.5 34q-67 0 -116.5 -34t-75.5 -94
t-26 -136q0 -75 26 -135t75.5 -94.5t116.5 -34.5q66 0 115.5 34.5zM254 396h259v-92h-259v92z" />
    <glyph glyph-name="Iota" unicode="&#x399;" horiz-adv-x="278" 
d="M80 700h118v-700h-118v700z" />
    <glyph glyph-name="Kappa" unicode="&#x39a;" horiz-adv-x="627" 
d="M264 338l-66 -73v-265h-118v700h118v-281l248 281h146l-245 -271l274 -429h-137z" />
    <glyph glyph-name="Lambda" unicode="&#x39b;" horiz-adv-x="665" 
d="M280 700h105l262 -700h-122l-193 534l-193 -534h-121z" />
    <glyph glyph-name="Mu" unicode="&#x39c;" horiz-adv-x="864" 
d="M80 700h108l244 -507l244 507h108v-700h-114v449l-195 -391h-87l-194 391v-449h-114v700z" />
    <glyph glyph-name="Nu" unicode="&#x39d;" horiz-adv-x="737" 
d="M80 700h105l355 -495v495h117v-700h-106l-354 495v-495h-117v700z" />
    <glyph glyph-name="Xi" unicode="&#x39e;" horiz-adv-x="583" 
d="M38 700h507v-100h-507v100zM126 412h331v-100h-331v100zM38 100h507v-100h-507v100z" />
    <glyph glyph-name="Omicron" unicode="&#x39f;" horiz-adv-x="767" 
d="M205 31.5q-77 45.5 -118.5 128t-41.5 190.5t41.5 190.5t118.5 128t179 45.5t178.5 -45.5t118 -128t41.5 -190.5t-41.5 -190.5t-118 -128t-178.5 -45.5t-179 45.5zM499.5 120.5q49.5 34.5 75.5 94.5t26 135q0 76 -26 136t-75.5 94t-115.5 34q-67 0 -116.5 -34t-75.5 -94
t-26 -136q0 -75 26 -135t75.5 -94.5t116.5 -34.5q66 0 115.5 34.5z" />
    <glyph glyph-name="Pi" unicode="&#x3a0;" horiz-adv-x="706" 
d="M626 0h-118v600h-310v-600h-118v700h546v-700z" />
    <glyph glyph-name="Rho" unicode="&#x3a1;" horiz-adv-x="629" 
d="M80 700h282q108 0 169 -55.5t61 -155.5q0 -101 -61 -156.5t-169 -55.5h-164v-277h-118v700zM357 372q61 0 92 30t31 87t-31.5 86.5t-91.5 29.5h-159v-233h159z" />
    <glyph glyph-name="Sigma" unicode="&#x3a3;" horiz-adv-x="591" 
d="M42 88l192 262l-192 262v88h511v-100h-370l182 -250l-182 -250h370v-100h-511v88z" />
    <glyph glyph-name="Tau" unicode="&#x3a4;" horiz-adv-x="567" 
d="M544 600h-202v-600h-118v600h-201v100h521v-100z" />
    <glyph glyph-name="Upsilon" unicode="&#x3a5;" horiz-adv-x="610" 
d="M246 265l-231 435h133l157 -311l157 311h133l-231 -435v-265h-118v265z" />
    <glyph glyph-name="Phi" unicode="&#x3a6;" horiz-adv-x="860" 
d="M660 628.5q73 -39.5 114 -111.5t41 -167t-41 -166.5t-114 -111t-167 -39.5h-4v-73h-118v73h-4q-93 0 -166.5 39.5t-114.5 111.5t-41 166q0 95 41 167t114 111.5t167 39.5h4v72h118v-72h4q94 0 167 -39.5zM371 133v435h-7q-57 0 -103 -27t-72 -76.5t-26 -114.5t26 -114.5
t72 -76t103 -26.5h7zM599.5 159.5q45.5 26.5 71.5 76t26 114.5t-26 114.5t-71.5 76.5t-102.5 27h-8v-435h8q57 0 102.5 26.5z" />
    <glyph glyph-name="Chi" unicode="&#x3a7;" horiz-adv-x="624" 
d="M471 0l-159 264l-159 -264h-130l227 367l-204 333h128l138 -230l138 230h128l-203 -334l226 -366h-130z" />
    <glyph glyph-name="Psi" unicode="&#x3a8;" horiz-adv-x="767" 
d="M696 700v-191q0 -134 -65 -212t-189 -93v-204h-118v204q-124 15 -188.5 93t-64.5 212v191h118v-185q0 -178 135 -208v393h118v-393q136 30 136 208v185h118z" />
    <glyph glyph-name="uni03A9" unicode="&#x3a9;" horiz-adv-x="773" 
d="M684 228q-41 -77 -103 -128h121v-100h-251v113q63 40 108 112t45 159q0 70 -27 122t-76.5 80t-113.5 28t-113.5 -28t-77 -80t-27.5 -122q0 -87 45 -159t109 -112v-113h-252v100h122q-62 52 -103.5 128.5t-41.5 166.5q0 96 41.5 168t118.5 111.5t179 39.5t178.5 -39.5
t118 -111.5t41.5 -168q0 -90 -41 -167z" />
    <glyph glyph-name="Alphatonos" unicode="&#x386;" horiz-adv-x="665" 
d="M469 155h-274l-56 -155h-121l262 700h105l262 -700h-122zM433 255l-101 279l-101 -279h202zM69 700h116l-67 -136h-86z" />
    <glyph glyph-name="Epsilontonos" unicode="&#x388;" horiz-adv-x="576" 
d="M198 600v-188h252v-100h-252v-212h340v-100h-458v700h458v-100h-340zM-82 700h116l-67 -136h-86z" />
    <glyph glyph-name="Etatonos" unicode="&#x389;" horiz-adv-x="706" 
d="M626 700v-700h-118v312h-310v-312h-118v700h118v-288h310v288h118zM-82 700h116l-67 -136h-86z" />
    <glyph glyph-name="Iotatonos" unicode="&#x38a;" horiz-adv-x="278" 
d="M80 700h118v-700h-118v700zM-82 700h116l-67 -136h-86z" />
    <glyph glyph-name="Omicrontonos" unicode="&#x38c;" horiz-adv-x="767" 
d="M205 31.5q-77 45.5 -118.5 128t-41.5 190.5t41.5 190.5t118.5 128t179 45.5t178.5 -45.5t118 -128t41.5 -190.5t-41.5 -190.5t-118 -128t-178.5 -45.5t-179 45.5zM499.5 120.5q49.5 34.5 75.5 94.5t26 135q0 76 -26 136t-75.5 94t-115.5 34q-67 0 -116.5 -34t-75.5 -94
t-26 -136q0 -75 26 -135t75.5 -94.5t116.5 -34.5q66 0 115.5 34.5zM-21 700h116l-67 -136h-86z" />
    <glyph glyph-name="Upsilontonos" unicode="&#x38e;" horiz-adv-x="610" 
d="M246 265l-231 435h133l157 -311l157 311h133l-231 -435v-265h-118v265zM-147 700h116l-67 -136h-86z" />
    <glyph glyph-name="Omegatonos" unicode="&#x38f;" horiz-adv-x="773" 
d="M684 228q-41 -77 -103 -128h121v-100h-251v113q63 40 108 112t45 159q0 70 -27 122t-76.5 80t-113.5 28t-113.5 -28t-77 -80t-27.5 -122q0 -87 45 -159t109 -112v-113h-252v100h122q-62 52 -103.5 128.5t-41.5 166.5q0 96 41.5 168t118.5 111.5t179 39.5t178.5 -39.5
t118 -111.5t41.5 -168q0 -90 -41 -167zM-34 700h116l-67 -136h-86z" />
    <glyph glyph-name="Iotadieresis" unicode="&#x3aa;" horiz-adv-x="278" 
d="M80 700h118v-700h-118v700zM-7 888h119v-102h-119v102zM167 888h119v-102h-119v102z" />
    <glyph glyph-name="Upsilondieresis" unicode="&#x3ab;" horiz-adv-x="610" 
d="M246 265l-231 435h133l157 -311l157 311h133l-231 -435v-265h-118v265zM159 888h119v-102h-119v102zM333 888h119v-102h-119v102z" />
    <glyph glyph-name="alpha" unicode="&#x3b1;" horiz-adv-x="604" 
d="M140 18.5q-49 32.5 -76 91.5t-27 135q0 77 27 135.5t77 91t115 32.5q51 0 91.5 -21.5t61.5 -55.5v63h113v-368q0 -39 33 -39q15 0 35 10v-90q-26 -17 -64 -17q-42 0 -70.5 25t-31.5 68q-25 -45 -70 -69t-102 -24q-63 0 -112 32.5zM377.5 127.5q35.5 44.5 35.5 117.5
t-35.5 117.5t-95.5 44.5t-95 -44.5t-35 -117.5t35.5 -117.5t94.5 -44.5q60 0 95.5 44.5z" />
    <glyph glyph-name="beta" unicode="&#x3b2;" horiz-adv-x="575" 
d="M72 503q0 66 27.5 114t75.5 72.5t109 24.5q59 0 103.5 -22t68.5 -61.5t24 -89.5q0 -55 -23 -89t-63 -55q61 -21 96.5 -67t35.5 -121q0 -72 -28 -122.5t-74 -75.5t-100 -25q-46 0 -82 17.5t-57 50.5v-264h-113v713zM382 113.5q32 33.5 32 96.5q0 65 -33.5 100t-96.5 35
h-33v88h33q44 0 68 25.5t24 69.5q0 42 -25.5 65.5t-67.5 23.5q-41 0 -69.5 -27t-28.5 -80v-288q0 -69 31 -105.5t85 -36.5q49 0 81 33.5z" />
    <glyph glyph-name="gamma" unicode="&#x3b3;" horiz-adv-x="547" 
d="M330 7v-217h-113v220l-199 480h126l130 -348l130 348h125z" />
    <glyph glyph-name="delta" unicode="&#x3b4;" horiz-adv-x="547" 
d="M149.5 14.5q-53.5 28.5 -83 82.5t-29.5 127q0 95 49.5 150t115.5 70q-113 45 -113 133q0 63 53 100t138 37q59 0 104.5 -15t81.5 -46l-49 -77q-32 25 -64 37.5t-73 12.5q-38 0 -60.5 -14.5t-22.5 -37.5q0 -21 20 -38.5t48 -31.5t93 -43q152 -69 152 -227
q0 -77 -30.5 -133t-84.5 -85.5t-122 -29.5q-70 0 -123.5 28.5zM364 119q35 38 35 106q0 66 -35 104.5t-91 38.5t-90.5 -37.5t-34.5 -105.5t34.5 -106t90.5 -38t91 38z" />
    <glyph glyph-name="epsilon" unicode="&#x3b5;" horiz-adv-x="470" 
d="M76.5 307.5q-18.5 26.5 -18.5 63.5q0 63 48.5 98t133.5 35q68 0 116 -31.5t65 -85.5l-84 -39q-12 33 -36 51t-59 18q-37 0 -58 -15.5t-21 -43.5q0 -27 20.5 -42.5t59.5 -15.5h31v-84h-35q-43 0 -67 -17.5t-24 -52.5q0 -33 24.5 -51t64.5 -18t68.5 23.5t40.5 61.5l92 -46
q-22 -59 -72.5 -94.5t-128.5 -35.5q-88 0 -142.5 43t-54.5 116q0 91 84 121q-29 15 -47.5 41.5z" />
    <glyph glyph-name="zeta" unicode="&#x3b6;" horiz-adv-x="493" 
d="M407 47.5q36 -22.5 53 -52t17 -73.5q0 -42 -14.5 -77t-39.5 -69l-92 43q36 50 36 90q0 32 -24.5 51t-80.5 34q-101 28 -160.5 94.5t-59.5 181.5q0 106 66.5 192.5t156.5 145.5h-232v92h414v-82q-129 -54 -213 -143.5t-84 -191.5q0 -81 39.5 -122.5t116.5 -67.5
q65 -23 101 -45.5z" />
    <glyph glyph-name="eta" unicode="&#x3b7;" horiz-adv-x="589" 
d="M404 297q0 109 -100 109q-49 0 -83.5 -38.5t-34.5 -103.5v-264h-113v369q0 38 -33 38q-18 0 -35 -10v91q12 7 33 11.5t39 4.5q50 0 79.5 -23t29.5 -70v-4q49 97 163 97q84 0 126 -47t42 -137v-530h-113v507z" />
    <glyph glyph-name="theta" unicode="&#x3b8;" horiz-adv-x="579" 
d="M479 616.5q63 -97.5 63 -266.5t-63 -266.5t-189 -97.5t-189.5 97.5t-63.5 266.5t63.5 266.5t189.5 97.5t189 -97.5zM153 396h273q-6 110 -40.5 165.5t-95.5 55.5q-125 0 -137 -221zM385.5 138.5q34.5 55.5 40.5 165.5h-273q12 -221 137 -221q61 0 95.5 55.5z" />
    <glyph glyph-name="iota" unicode="&#x3b9;" horiz-adv-x="276" 
d="M99 26.5q-27 33.5 -27 91.5v372h113v-361q0 -36 32 -36q12 0 28 6v-91q-23 -15 -63 -15q-56 0 -83 33.5z" />
    <glyph glyph-name="kappa" unicode="&#x3ba;" horiz-adv-x="529" 
d="M238 232l-53 -52v-180h-113v490h113v-172l177 172h139l-185 -181l197 -309h-125z" />
    <glyph glyph-name="lambda" unicode="&#x3bb;" horiz-adv-x="594" 
d="M577 4q-13 -8 -35 -13t-45 -5q-49 0 -82 24.5t-55 84.5l-87 240l-130 -335h-126l201 487l-32 87q-15 40 -52 40q-24 0 -44 -14l-18 98q16 7 36.5 11.5t40.5 4.5q53 0 84.5 -22t53.5 -82l177 -481q8 -21 22 -31.5t32 -10.5q22 0 41 14z" />
    <glyph glyph-name="uni03BC" unicode="&#x3bc;" horiz-adv-x="588" 
d="M72 490h113v-296q0 -110 100 -110q49 0 83.5 38.5t34.5 103.5v264h113v-490h-113v84q-22 -48 -60.5 -73t-84.5 -25q-49 0 -73 24v-220h-113v700z" />
    <glyph glyph-name="nu" unicode="&#x3bd;" horiz-adv-x="542" 
d="M18 490h126l137 -360l70 118q23 39 33.5 75t10.5 74q0 44 -12 93h114q10 -44 10 -87q0 -51 -17 -101t-54 -113l-109 -189h-106z" />
    <glyph glyph-name="xi" unicode="&#x3be;" horiz-adv-x="493" 
d="M321 -181q38 48 38 88q0 30 -25 49t-80 33q-105 26 -160.5 78.5t-55.5 149.5q0 61 31.5 105t84.5 67q-40 23 -62.5 59.5t-22.5 85.5q0 52 25.5 92.5t73.5 64t113 23.5q76 0 126 -28.5t79 -88.5l-83 -58q-20 42 -50.5 61t-71.5 19q-44 0 -73 -25t-29 -68q0 -46 32 -71.5
t82 -25.5h41v-92h-51q-57 0 -93.5 -30t-36.5 -87q0 -53 34.5 -82.5t110.5 -49.5q94 -25 132.5 -62.5t38.5 -103.5q0 -42 -15 -76.5t-41 -69.5z" />
    <glyph glyph-name="omicron" unicode="&#x3bf;" horiz-adv-x="579" 
d="M156.5 18.5q-57.5 32.5 -88.5 91.5t-31 135q0 77 31 135.5t88.5 91t133.5 32.5t133 -32.5t88 -91t31 -135.5q0 -76 -31 -135t-88 -91.5t-133 -32.5t-133.5 32.5zM389 128.5q38 45.5 38 116.5t-38 116.5t-99 45.5q-62 0 -100 -45.5t-38 -116.5t38 -116.5t100 -45.5
q61 0 99 45.5z" />
    <glyph glyph-name="pi" unicode="&#x3c0;" horiz-adv-x="647" 
d="M445 25q-34 39 -34 113v255h-176v-393h-113v393h-100v97h601v-97h-99v-255q0 -54 48 -54q26 0 51 15v-97q-19 -9 -36.5 -12.5t-43.5 -3.5q-64 0 -98 39z" />
    <glyph glyph-name="rho" unicode="&#x3c1;" horiz-adv-x="584" 
d="M62 237q0 79 29.5 139.5t84.5 94t129 33.5q117 0 179.5 -70t62.5 -189q0 -76 -27 -135t-76.5 -91.5t-114.5 -32.5q-53 0 -93.5 21t-60.5 56v-273h-113v447zM396.5 127.5q35.5 44.5 35.5 117.5t-35 117.5t-95 44.5t-95.5 -44.5t-35.5 -117.5t35.5 -117.5t95.5 -44.5
q59 0 94.5 44.5z" />
    <glyph glyph-name="uni03C2" unicode="&#x3c2;" horiz-adv-x="531" 
d="M328 -181q36 47 36 86q0 31 -28 50.5t-98 37.5q-92 23 -146.5 88.5t-54.5 163.5q0 75 31 134t88.5 92t133.5 33q143 0 206 -112l-84 -61q-19 37 -50 56.5t-72 19.5q-60 0 -99 -44t-39 -113q0 -65 34.5 -104.5t108.5 -59.5q65 -18 103.5 -38t57 -51t18.5 -79
q0 -73 -54 -142z" />
    <glyph glyph-name="sigma" unicode="&#x3c3;" horiz-adv-x="583" 
d="M578 393h-102q62 -54 62 -161q0 -72 -31 -128t-88 -87t-131 -31q-75 0 -132 31.5t-88 88.5t-31 132q0 76 31 133t88 88t132 31h290v-97zM385.5 350.5q-37.5 42.5 -97.5 42.5q-61 0 -98.5 -42.5t-37.5 -112.5t37.5 -112.5t98.5 -42.5q60 0 97.5 42.5t37.5 112.5
t-37.5 112.5z" />
    <glyph glyph-name="tau" unicode="&#x3c4;" horiz-adv-x="438" 
d="M197 23.5q-35 37.5 -35 113.5v256h-140v97h392v-97h-139v-252q0 -27 14 -42t39 -15q23 0 52 13l11 -96q-23 -8 -44 -11.5t-49 -3.5q-66 0 -101 37.5z" />
    <glyph glyph-name="upsilon" unicode="&#x3c5;" horiz-adv-x="576" 
d="M130.5 40.5q-58.5 54.5 -58.5 158.5v291h113v-281q0 -62 28.5 -93.5t81.5 -31.5t82.5 39t29.5 115q0 61 -19 120t-56 132h118q34 -61 52 -121t18 -130q0 -82 -29.5 -139t-81.5 -85.5t-117 -28.5q-103 0 -161.5 54.5z" />
    <glyph glyph-name="phi" unicode="&#x3c6;" horiz-adv-x="675" 
d="M573 72q-65 -69 -179 -83v-129h-113v129q-115 15 -179.5 83.5t-64.5 172.5t64.5 172.5t179.5 83.5v129h113v-129q114 -14 179 -83t65 -173t-65 -173zM490 139q34 40 34 106q0 67 -34 106t-96 51v-314q62 11 96 51zM185 139.5q34 -39.5 96 -51.5v314q-62 -11 -96 -51
t-34 -106t34 -105.5z" />
    <glyph glyph-name="chi" unicode="&#x3c7;" horiz-adv-x="544" 
d="M536 -207q-32 -17 -77 -17q-48 0 -80 24.5t-57 84.5l-56 135l-121 -230h-124l191 360l-89 214q-17 40 -51 40q-22 0 -42 -14l-18 98q16 7 36.5 11.5t40.5 4.5q52 0 82 -22t55 -82l52 -125l114 215h120l-181 -345l94 -226q18 -42 54 -42q20 0 39 13z" />
    <glyph glyph-name="psi" unicode="&#x3c8;" horiz-adv-x="741" 
d="M652 115.5q-33 -58.5 -90 -89.5t-127 -33v-204h-113v204q-73 2 -129 31.5t-88.5 88t-32.5 141.5v236h113v-232q0 -77 38.5 -121t98.5 -46v539h113v-539q59 3 98 47t39 120q0 60 -13 115t-41 117h118q23 -54 36 -110.5t13 -125.5q0 -80 -33 -138.5z" />
    <glyph glyph-name="omega" unicode="&#x3c9;" horiz-adv-x="747" 
d="M710 223q0 -115 -49.5 -176t-133.5 -61q-55 0 -94 26t-59 77q-21 -51 -60 -77t-93 -26q-85 0 -134.5 61.5t-49.5 175.5q0 149 70 267h118q-36 -69 -55.5 -131t-19.5 -126q0 -72 21.5 -110.5t65.5 -38.5q38 0 59 31.5t21 85.5v119h113v-119q0 -54 21.5 -85.5t59.5 -31.5
q86 0 86 149q0 65 -19.5 127t-55.5 130h118q70 -118 70 -267z" />
    <glyph glyph-name="iotatonos" unicode="&#x3af;" horiz-adv-x="276" 
d="M99 26.5q-27 33.5 -27 91.5v372h113v-361q0 -36 32 -36q12 0 28 6v-91q-23 -15 -63 -15q-56 0 -83 33.5zM122 700h116l-67 -136h-86z" />
    <glyph glyph-name="iotadieresis" unicode="&#x3ca;" horiz-adv-x="276" 
d="M99 26.5q-27 33.5 -27 91.5v372h113v-361q0 -36 32 -36q12 0 28 6v-91q-23 -15 -63 -15q-56 0 -83 33.5zM-18 678h119v-102h-119v102zM156 678h119v-102h-119v102z" />
    <glyph glyph-name="iotadieresistonos" unicode="&#x390;" horiz-adv-x="276" 
d="M99 26.5q-27 33.5 -27 91.5v372h113v-361q0 -36 32 -36q12 0 28 6v-91q-23 -15 -63 -15q-56 0 -83 33.5zM90 695h113l-57 -136h-88zM-81 678h119v-102h-119v102zM218 678h119v-102h-119v102z" />
    <glyph glyph-name="upsilontonos" unicode="&#x3cd;" horiz-adv-x="576" 
d="M130.5 40.5q-58.5 54.5 -58.5 158.5v291h113v-281q0 -62 28.5 -93.5t81.5 -31.5t82.5 39t29.5 115q0 61 -19 120t-56 132h118q34 -61 52 -121t18 -130q0 -82 -29.5 -139t-81.5 -85.5t-117 -28.5q-103 0 -161.5 54.5zM273 700h116l-67 -136h-86z" />
    <glyph glyph-name="upsilondieresis" unicode="&#x3cb;" horiz-adv-x="576" 
d="M130.5 40.5q-58.5 54.5 -58.5 158.5v291h113v-281q0 -62 28.5 -93.5t81.5 -31.5t82.5 39t29.5 115q0 61 -19 120t-56 132h118q34 -61 52 -121t18 -130q0 -82 -29.5 -139t-81.5 -85.5t-117 -28.5q-103 0 -161.5 54.5zM133 678h119v-102h-119v102zM307 678h119v-102h-119
v102z" />
    <glyph glyph-name="upsilondieresistonos" unicode="&#x3b0;" horiz-adv-x="576" 
d="M130.5 40.5q-58.5 54.5 -58.5 158.5v291h113v-281q0 -62 28.5 -93.5t81.5 -31.5t82.5 39t29.5 115q0 61 -19 120t-56 132h118q34 -61 52 -121t18 -130q0 -82 -29.5 -139t-81.5 -85.5t-117 -28.5q-103 0 -161.5 54.5zM241 695h113l-57 -136h-88zM70 678h119v-102h-119v102
zM369 678h119v-102h-119v102z" />
    <glyph glyph-name="omicrontonos" unicode="&#x3cc;" horiz-adv-x="579" 
d="M156.5 18.5q-57.5 32.5 -88.5 91.5t-31 135q0 77 31 135.5t88.5 91t133.5 32.5t133 -32.5t88 -91t31 -135.5q0 -76 -31 -135t-88 -91.5t-133 -32.5t-133.5 32.5zM389 128.5q38 45.5 38 116.5t-38 116.5t-99 45.5q-62 0 -100 -45.5t-38 -116.5t38 -116.5t100 -45.5
q61 0 99 45.5zM284 700h116l-67 -136h-86z" />
    <glyph glyph-name="omegatonos" unicode="&#x3ce;" horiz-adv-x="747" 
d="M710 223q0 -115 -49.5 -176t-133.5 -61q-55 0 -94 26t-59 77q-21 -51 -60 -77t-93 -26q-85 0 -134.5 61.5t-49.5 175.5q0 149 70 267h118q-36 -69 -55.5 -131t-19.5 -126q0 -72 21.5 -110.5t65.5 -38.5q38 0 59 31.5t21 85.5v119h113v-119q0 -54 21.5 -85.5t59.5 -31.5
q86 0 86 149q0 65 -19.5 127t-55.5 130h118q70 -118 70 -267zM368 700h116l-67 -136h-86z" />
    <glyph glyph-name="alphatonos" unicode="&#x3ac;" horiz-adv-x="604" 
d="M140 18.5q-49 32.5 -76 91.5t-27 135q0 77 27 135.5t77 91t115 32.5q51 0 91.5 -21.5t61.5 -55.5v63h113v-368q0 -39 33 -39q15 0 35 10v-90q-26 -17 -64 -17q-42 0 -70.5 25t-31.5 68q-25 -45 -70 -69t-102 -24q-63 0 -112 32.5zM377.5 127.5q35.5 44.5 35.5 117.5
t-35.5 117.5t-95.5 44.5t-95 -44.5t-35 -117.5t35.5 -117.5t94.5 -44.5q60 0 95.5 44.5zM292 700h116l-67 -136h-86z" />
    <glyph glyph-name="epsilontonos" unicode="&#x3ad;" horiz-adv-x="470" 
d="M76.5 307.5q-18.5 26.5 -18.5 63.5q0 63 48.5 98t133.5 35q68 0 116 -31.5t65 -85.5l-84 -39q-12 33 -36 51t-59 18q-37 0 -58 -15.5t-21 -43.5q0 -27 20.5 -42.5t59.5 -15.5h31v-84h-35q-43 0 -67 -17.5t-24 -52.5q0 -33 24.5 -51t64.5 -18t68.5 23.5t40.5 61.5l92 -46
q-22 -59 -72.5 -94.5t-128.5 -35.5q-88 0 -142.5 43t-54.5 116q0 91 84 121q-29 15 -47.5 41.5zM233 700h116l-67 -136h-86z" />
    <glyph glyph-name="etatonos" unicode="&#x3ae;" horiz-adv-x="589" 
d="M404 297q0 109 -100 109q-49 0 -83.5 -38.5t-34.5 -103.5v-264h-113v369q0 38 -33 38q-18 0 -35 -10v91q12 7 33 11.5t39 4.5q50 0 79.5 -23t29.5 -70v-4q49 97 163 97q84 0 126 -47t42 -137v-530h-113v507zM306 700h116l-67 -136h-86z" />
    <glyph glyph-name="lambda.alt" horiz-adv-x="594" 
d="M567 104v-103q-27 -15 -70 -15q-49 0 -82 24.5t-55 84.5l-87 240l-130 -335h-126l201 487l-32 87q-15 40 -52 40q-24 0 -44 -14l-18 98q16 7 36.5 11.5t40.5 4.5q53 0 84.5 -22t53.5 -82l177 -481q8 -21 22.5 -31.5t32.5 -10.5q22 0 48 17z" />
    <glyph glyph-name="tau.alt" horiz-adv-x="438" 
d="M197 23.5q-35 37.5 -35 113.5v256h-140v97h392v-97h-139v-252q0 -27 14 -42t39 -15q28 0 58 15v-101q-24 -7 -43 -9.5t-45 -2.5q-66 0 -101 37.5z" />
    <glyph glyph-name="zero" unicode="0" horiz-adv-x="645" 
d="M169.5 32q-63.5 46 -96 128.5t-32.5 189.5t32.5 189.5t96 128.5t153.5 46q89 0 152.5 -46t96 -128.5t32.5 -189.5t-32.5 -189.5t-96 -128.5t-152.5 -46q-90 0 -153.5 46zM442 157.5q41 70.5 41 192.5t-41 192.5t-119 70.5t-119.5 -70.5t-41.5 -192.5t41.5 -192.5
t119.5 -70.5t119 70.5z" />
    <glyph glyph-name="one" unicode="1" horiz-adv-x="351" 
d="M154 518h-116v94h47q36 0 52.5 15.5t16.5 52.5v20h117v-700h-117v518z" />
    <glyph glyph-name="two" unicode="2" horiz-adv-x="526" 
d="M51 89l233 266q42 47 59.5 82.5t17.5 74.5q0 48 -30.5 74.5t-81.5 26.5q-48 0 -79.5 -32.5t-39.5 -86.5l-93 49q11 77 68.5 124t146.5 47q105 0 164 -50t59 -143q0 -48 -11 -83.5t-34 -68.5t-66 -82l-164 -186h288v-101h-437v89z" />
    <glyph glyph-name="three" unicode="3" horiz-adv-x="561" 
d="M123 24q-60 38 -91 102l87 72q20 -51 60.5 -81t94.5 -30q55 0 88.5 33t33.5 95t-34.5 95.5t-89.5 33.5q-16 0 -33 -4.5t-28 -12.5l-66 81l175 191h-254v101h405v-82l-173 -176q6 1 14 1q52 0 98.5 -26.5t75.5 -78t29 -123.5q0 -69 -31 -121t-86 -80t-124 -28
q-91 0 -151 38z" />
    <glyph glyph-name="four" unicode="4" horiz-adv-x="571" 
d="M334 136h-305v93l313 471h104v-463h103v-101h-103v-136h-112v136zM334 237v277l-179 -277h179z" />
    <glyph glyph-name="five" unicode="5" horiz-adv-x="566" 
d="M32 103l83 71q27 -41 64 -64t90 -23q55 0 94 35t39 103q0 70 -37 106.5t-91 36.5q-41 0 -74.5 -22.5t-46.5 -56.5l-97 22l40 389h368v-100h-274l-23 -189q20 24 54 38.5t78 14.5q61 0 111 -26t80 -80t30 -133t-34 -132.5t-91 -80t-126 -26.5q-156 0 -237 117z" />
    <glyph glyph-name="six" unicode="6" horiz-adv-x="600" 
d="M114.5 69.5q-73.5 83.5 -73.5 256.5q0 130 39 217.5t103 129t140 41.5q88 0 143.5 -34.5t84.5 -105.5l-94 -46q-34 85 -136 85q-75 0 -119 -61.5t-49 -172.5q22 40 69 65.5t106 25.5q62 0 115 -28t84.5 -83t31.5 -131t-36.5 -131t-94.5 -83t-121 -28q-119 0 -192.5 83.5z
M404.5 125q39.5 38 39.5 103q0 66 -39.5 104t-97.5 38t-97.5 -38t-39.5 -104q0 -65 39.5 -103t97.5 -38t97.5 38z" />
    <glyph glyph-name="seven" unicode="7" horiz-adv-x="514" 
d="M367 599h-348v101h469v-93l-244 -607h-118z" />
    <glyph glyph-name="eight" unicode="8" horiz-adv-x="573" 
d="M109.5 40q-66.5 54 -66.5 153q0 63 33 108t83 66q-43 22 -69.5 63.5t-26.5 98.5q0 84 60 134.5t164 50.5t163.5 -50.5t59.5 -134.5q0 -57 -26.5 -98.5t-68.5 -63.5q50 -21 82.5 -66t32.5 -108q0 -99 -66 -153t-177 -54t-177.5 54zM374.5 438.5q32.5 28.5 32.5 77.5
q0 48 -32.5 76.5t-87.5 28.5q-56 0 -88.5 -28.5t-32.5 -76.5q0 -49 32.5 -77.5t88.5 -28.5q55 0 87.5 28.5zM383 114q37 30 37 86t-37 86t-96 30t-96.5 -30t-37.5 -86t37.5 -86t96.5 -30t96 30z" />
    <glyph glyph-name="nine" unicode="9" horiz-adv-x="600" 
d="M137.5 20.5q-60.5 34.5 -87.5 94.5l85 60q25 -46 59.5 -67t83.5 -21q82 0 123 59.5t46 174.5q-22 -41 -68.5 -66t-105.5 -25q-62 0 -115 28t-85 83t-32 131t36 131t94 83t123 28q121 0 193 -83t72 -257q0 -131 -38 -218t-101.5 -128.5t-140.5 -41.5q-81 0 -141.5 34.5z
M391 369q40 38 40 103q0 66 -39.5 103.5t-97.5 37.5t-98 -37.5t-40 -103.5q0 -65 40 -103t98 -38q57 0 97 38z" />
    <glyph glyph-name="zero.tf" horiz-adv-x="600" 
d="M146.5 32q-63.5 46 -96 128.5t-32.5 189.5t32.5 189.5t96 128.5t153.5 46q89 0 152.5 -46t96 -128.5t32.5 -189.5t-32.5 -189.5t-96 -128.5t-152.5 -46q-90 0 -153.5 46zM419 157.5q41 70.5 41 192.5t-41 192.5t-119 70.5t-119.5 -70.5t-41.5 -192.5t41.5 -192.5
t119.5 -70.5t119 70.5z" />
    <glyph glyph-name="one.tf" horiz-adv-x="600" 
d="M503 101v-101h-405v101h144v417h-119v94h50q36 0 52.5 15.5t16.5 52.5v20h117v-599h144z" />
    <glyph glyph-name="two.tf" horiz-adv-x="600" 
d="M87 89l233 266q42 47 59.5 82.5t17.5 74.5q0 48 -30.5 74.5t-81.5 26.5q-48 0 -79.5 -32.5t-39.5 -86.5l-93 49q11 77 68.5 124t146.5 47q105 0 164 -50t59 -143q0 -48 -11 -83.5t-34 -68.5t-66 -82l-164 -186h288v-101h-437v89z" />
    <glyph glyph-name="three.tf" horiz-adv-x="600" 
d="M150 24q-60 38 -91 102l87 72q20 -51 60.5 -81t94.5 -30q55 0 88.5 33t33.5 95t-34.5 95.5t-89.5 33.5q-16 0 -33 -4.5t-28 -12.5l-66 81l175 191h-254v101h405v-82l-173 -176q6 1 14 1q52 0 98.5 -26.5t75.5 -78t29 -123.5q0 -69 -31 -121t-86 -80t-124 -28
q-91 0 -151 38z" />
    <glyph glyph-name="four.tf" horiz-adv-x="600" 
d="M344 136h-305v93l313 471h104v-463h103v-101h-103v-136h-112v136zM344 237v277l-179 -277h179z" />
    <glyph glyph-name="five.tf" horiz-adv-x="600" 
d="M56 103l83 71q27 -41 64 -64t90 -23q55 0 94 35t39 103q0 70 -37 106.5t-91 36.5q-41 0 -74.5 -22.5t-46.5 -56.5l-97 22l40 389h368v-100h-274l-23 -189q20 24 54 38.5t78 14.5q61 0 111 -26t80 -80t30 -133t-34 -132.5t-91 -80t-126 -26.5q-156 0 -237 117z" />
    <glyph glyph-name="six.tf" horiz-adv-x="600" 
d="M108.5 69.5q-73.5 83.5 -73.5 256.5q0 130 39 217.5t103 129t140 41.5q88 0 143.5 -34.5t84.5 -105.5l-94 -46q-34 85 -136 85q-75 0 -119 -61.5t-49 -172.5q22 40 69 65.5t106 25.5q62 0 115 -28t84.5 -83t31.5 -131t-36.5 -131t-94.5 -83t-121 -28q-119 0 -192.5 83.5z
M398.5 125q39.5 38 39.5 103q0 66 -39.5 104t-97.5 38t-97.5 -38t-39.5 -104q0 -65 39.5 -103t97.5 -38t97.5 38z" />
    <glyph glyph-name="seven.tf" horiz-adv-x="600" 
d="M412 599h-348v101h469v-93l-244 -607h-118z" />
    <glyph glyph-name="eight.tf" horiz-adv-x="600" 
d="M123.5 40q-66.5 54 -66.5 153q0 63 33 108t83 66q-43 22 -69.5 63.5t-26.5 98.5q0 84 60 134.5t164 50.5t163.5 -50.5t59.5 -134.5q0 -57 -26.5 -98.5t-68.5 -63.5q50 -21 82.5 -66t32.5 -108q0 -99 -66 -153t-177 -54t-177.5 54zM388.5 438.5q32.5 28.5 32.5 77.5
q0 48 -32.5 76.5t-87.5 28.5q-56 0 -88.5 -28.5t-32.5 -76.5q0 -49 32.5 -77.5t88.5 -28.5q55 0 87.5 28.5zM397 114q37 30 37 86t-37 86t-96 30t-96.5 -30t-37.5 -86t37.5 -86t96.5 -30t96 30z" />
    <glyph glyph-name="nine.tf" horiz-adv-x="600" 
d="M136.5 20.5q-60.5 34.5 -87.5 94.5l85 60q25 -46 59.5 -67t83.5 -21q82 0 123 59.5t46 174.5q-22 -41 -68.5 -66t-105.5 -25q-62 0 -115 28t-85 83t-32 131t36 131t94 83t123 28q121 0 193 -83t72 -257q0 -131 -38 -218t-101.5 -128.5t-140.5 -41.5q-81 0 -141.5 34.5z
M390 369q40 38 40 103q0 66 -39.5 103.5t-97.5 37.5t-98 -37.5t-40 -103.5q0 -65 40 -103t98 -38q57 0 97 38z" />
    <glyph glyph-name="zero.tf.zero" horiz-adv-x="600" 
d="M452.5 668q63.5 -46 96 -128.5t32.5 -189.5t-32.5 -189.5t-96 -128.5t-152.5 -46q-90 0 -153.5 46t-96 128.5t-32.5 189.5t32.5 189.5t96 128.5t153.5 46q89 0 152.5 -46zM180.5 542.5q-41.5 -70.5 -41.5 -192.5q0 -112 34 -180l183 431q-24 12 -56 12
q-78 0 -119.5 -70.5zM419 157.5q41 70.5 41 192.5q0 111 -33 178l-183 -430q27 -11 56 -11q78 0 119 70.5z" />
    <glyph glyph-name="zero.zero" horiz-adv-x="645" 
d="M475.5 668q63.5 -46 96 -128.5t32.5 -189.5t-32.5 -189.5t-96 -128.5t-152.5 -46q-90 0 -153.5 46t-96 128.5t-32.5 189.5t32.5 189.5t96 128.5t153.5 46q89 0 152.5 -46zM203.5 542.5q-41.5 -70.5 -41.5 -192.5q0 -112 34 -180l183 431q-24 12 -56 12
q-78 0 -119.5 -70.5zM442 157.5q41 70.5 41 192.5q0 111 -33 178l-183 -430q27 -11 56 -11q78 0 119 70.5z" />
    <glyph glyph-name="uni2080" unicode="&#x2080;" horiz-adv-x="372" 
d="M71 -165.5q-41 51.5 -41 137.5t41 137.5t115 51.5t115 -51.5t41 -137.5t-41 -137.5t-115 -51.5t-115 51.5zM243.5 -119.5q19.5 32.5 19.5 91.5t-19.5 92t-57.5 33q-37 0 -56.5 -33t-19.5 -92t19.5 -91.5t56.5 -32.5q38 0 57.5 32.5z" />
    <glyph glyph-name="uni2081" unicode="&#x2081;" horiz-adv-x="206" 
d="M87 52h-65v58h29q19 0 27.5 7.5t8.5 26.5v10h72v-364h-72v262z" />
    <glyph glyph-name="uni2082" unicode="&#x2082;" horiz-adv-x="300" 
d="M35 -154l122 134q22 23 30.5 39.5t8.5 33.5q0 20 -14.5 32t-38.5 12t-38.5 -15.5t-18.5 -40.5l-60 31q7 40 39 64.5t81 24.5q58 0 90.5 -26.5t32.5 -74.5q0 -37 -13 -60.5t-49 -62.5l-76 -82h145v-65h-241v56z" />
    <glyph glyph-name="uni2083" unicode="&#x2083;" horiz-adv-x="326" 
d="M77.5 -197q-33.5 20 -50.5 53l55 44q27 -53 78 -53q26 0 41.5 14.5t15.5 41.5t-16 41.5t-43 14.5q-18 0 -30 -7l-42 51l84 86h-126v65h224v-50l-86 -83q2 1 5 1q42 0 74.5 -32t32.5 -87t-37.5 -87.5t-96.5 -32.5q-49 0 -82.5 20z" />
    <glyph glyph-name="uni2084" unicode="&#x2084;" horiz-adv-x="329" 
d="M184 -146h-163v60l167 240h68v-235h53v-65h-53v-64h-72v64zM184 -81v119l-83 -119h83z" />
    <glyph glyph-name="uni2085" unicode="&#x2085;" horiz-adv-x="333" 
d="M82.5 -201.5q-34.5 15.5 -55.5 42.5l50 48q34 -41 84 -41q26 0 44 15t18 44q0 30 -16.5 46.5t-43.5 16.5q-19 0 -34.5 -9t-22.5 -23l-63 19l20 197h207v-64h-145l-12 -83q22 24 68 24q52 0 86 -31.5t34 -92.5t-39.5 -92.5t-100.5 -31.5q-44 0 -78.5 15.5z" />
    <glyph glyph-name="uni2086" unicode="&#x2086;" horiz-adv-x="347" 
d="M70.5 -173.5q-40.5 43.5 -40.5 133.5q0 67 22.5 112.5t58 67t76.5 21.5q48 0 78.5 -17.5t46.5 -54.5l-58 -32q-12 22 -28 31t-40 9q-37 0 -58.5 -27.5t-24.5 -77.5q12 19 36.5 30.5t52.5 11.5q54 0 89.5 -33t35.5 -92t-41.5 -92.5t-97.5 -33.5q-67 0 -107.5 43.5z
M224 -135.5q19 16.5 19 44.5t-19 44.5t-47 16.5t-47 -16.5t-19 -44.5t19 -44.5t47 -16.5t47 16.5z" />
    <glyph glyph-name="uni2087" unicode="&#x2087;" horiz-adv-x="289" 
d="M194 89h-180v65h260v-61l-131 -303h-78z" />
    <glyph glyph-name="uni2088" unicode="&#x2088;" horiz-adv-x="327" 
d="M65 -189q-37 28 -37 80q0 32 18 55t44 35q-23 11 -37 31.5t-14 50.5q0 43 34 70.5t91 27.5t90.5 -27.5t33.5 -70.5q0 -57 -50 -82q26 -11 43.5 -34.5t17.5 -55.5q0 -52 -37 -80t-98 -28q-62 0 -99 28zM206.5 21q15.5 12 15.5 34t-15.5 34.5t-42.5 12.5t-42.5 -12.5
t-15.5 -34.5t15.5 -34t42.5 -12t42.5 12zM209 -140q18 13 18 37q0 25 -17.5 38t-45.5 13t-46 -13.5t-18 -37.5t18 -37t46 -13q27 0 45 13z" />
    <glyph glyph-name="uni2089" unicode="&#x2089;" horiz-adv-x="347" 
d="M83 -199q-31 18 -48 55l58 31q12 -22 28 -30.5t40 -8.5q37 0 59 27.5t24 77.5q-11 -19 -35.5 -31t-53.5 -12q-54 0 -89.5 33t-35.5 92t42 92.5t98 33.5q66 0 106.5 -43.5t40.5 -133.5q0 -67 -22 -112.5t-57.5 -67t-76.5 -21.5q-47 0 -78 18zM217 -9.5q19 16.5 19 44.5
q0 29 -18.5 45.5t-46.5 16.5t-47 -16.5t-19 -45.5q0 -28 19 -44.5t47 -16.5q27 0 46 16.5z" />
    <glyph glyph-name="uni2070" unicode="&#x2070;" horiz-adv-x="372" 
d="M71 380.5q-41 51.5 -41 137.5t41 137.5t115 51.5t115 -51.5t41 -137.5t-41 -137.5t-115 -51.5t-115 51.5zM243.5 426.5q19.5 32.5 19.5 91.5t-19.5 92t-57.5 33q-37 0 -56.5 -33t-19.5 -92t19.5 -91.5t56.5 -32.5q38 0 57.5 32.5z" />
    <glyph glyph-name="uni00B9" unicode="&#xb9;" horiz-adv-x="206" 
d="M87 598h-65v58h29q19 0 27.5 7.5t8.5 26.5v10h72v-364h-72v262z" />
    <glyph glyph-name="uni00B2" unicode="&#xb2;" horiz-adv-x="300" 
d="M35 392l122 134q22 23 30.5 39.5t8.5 33.5q0 20 -14.5 32t-38.5 12t-38.5 -15.5t-18.5 -40.5l-60 31q7 40 39 64.5t81 24.5q58 0 90.5 -26.5t32.5 -74.5q0 -37 -13 -60.5t-49 -62.5l-76 -82h145v-65h-241v56z" />
    <glyph glyph-name="uni00B3" unicode="&#xb3;" horiz-adv-x="326" 
d="M77.5 349q-33.5 20 -50.5 53l55 44q27 -53 78 -53q26 0 41.5 14.5t15.5 41.5t-16 41.5t-43 14.5q-18 0 -30 -7l-42 51l84 86h-126v65h224v-50l-86 -83q2 1 5 1q42 0 74.5 -32t32.5 -87t-37.5 -87.5t-96.5 -32.5q-49 0 -82.5 20z" />
    <glyph glyph-name="uni2074" unicode="&#x2074;" horiz-adv-x="329" 
d="M184 400h-163v60l167 240h68v-235h53v-65h-53v-64h-72v64zM184 465v119l-83 -119h83z" />
    <glyph glyph-name="uni2075" unicode="&#x2075;" horiz-adv-x="333" 
d="M82.5 344.5q-34.5 15.5 -55.5 42.5l50 48q34 -41 84 -41q26 0 44 15t18 44q0 30 -16.5 46.5t-43.5 16.5q-19 0 -34.5 -9t-22.5 -23l-63 19l20 197h207v-64h-145l-12 -83q22 24 68 24q52 0 86 -31.5t34 -92.5t-39.5 -92.5t-100.5 -31.5q-44 0 -78.5 15.5z" />
    <glyph glyph-name="uni2076" unicode="&#x2076;" horiz-adv-x="347" 
d="M70.5 372.5q-40.5 43.5 -40.5 133.5q0 67 22.5 112.5t58 67t76.5 21.5q48 0 78.5 -17.5t46.5 -54.5l-58 -32q-12 22 -28 31t-40 9q-37 0 -58.5 -27.5t-24.5 -77.5q12 19 36.5 30.5t52.5 11.5q54 0 89.5 -33t35.5 -92t-41.5 -92.5t-97.5 -33.5q-67 0 -107.5 43.5z
M224 410.5q19 16.5 19 44.5t-19 44.5t-47 16.5t-47 -16.5t-19 -44.5t19 -44.5t47 -16.5t47 16.5z" />
    <glyph glyph-name="uni2077" unicode="&#x2077;" horiz-adv-x="289" 
d="M194 635h-180v65h260v-61l-131 -303h-78z" />
    <glyph glyph-name="uni2078" unicode="&#x2078;" horiz-adv-x="327" 
d="M65 357q-37 28 -37 80q0 32 18 55t44 35q-23 11 -37 31.5t-14 50.5q0 43 34 70.5t91 27.5t90.5 -27.5t33.5 -70.5q0 -57 -50 -82q26 -11 43.5 -34.5t17.5 -55.5q0 -52 -37 -80t-98 -28q-62 0 -99 28zM206.5 567q15.5 12 15.5 34t-15.5 34.5t-42.5 12.5t-42.5 -12.5
t-15.5 -34.5t15.5 -34t42.5 -12t42.5 12zM209 406q18 13 18 37q0 25 -17.5 38t-45.5 13t-46 -13.5t-18 -37.5t18 -37t46 -13q27 0 45 13z" />
    <glyph glyph-name="uni2079" unicode="&#x2079;" horiz-adv-x="347" 
d="M83 347q-31 18 -48 55l58 31q12 -22 28 -30.5t40 -8.5q37 0 59 27.5t24 77.5q-11 -19 -35.5 -31t-53.5 -12q-54 0 -89.5 33t-35.5 92t42 92.5t98 33.5q66 0 106.5 -43.5t40.5 -133.5q0 -67 -22 -112.5t-57.5 -67t-76.5 -21.5q-47 0 -78 18zM217 536.5q19 16.5 19 44.5
q0 29 -18.5 45.5t-46.5 16.5t-47 -16.5t-19 -45.5q0 -28 19 -44.5t47 -16.5q27 0 46 16.5z" />
    <glyph glyph-name="fraction" unicode="&#x2044;" horiz-adv-x="544" 
d="M436 700h86l-414 -700h-86z" />
    <glyph glyph-name="onehalf" unicode="&#xbd;" horiz-adv-x="729" 
d="M87 598h-65v58h29q19 0 27.5 7.5t8.5 26.5v10h72v-364h-72v262zM504 700h86l-414 -700h-86zM464 56l122 134q22 23 30.5 39.5t8.5 33.5q0 20 -14.5 32t-38.5 12t-38.5 -15.5t-18.5 -40.5l-60 31q7 40 39 64.5t81 24.5q58 0 90.5 -26.5t32.5 -74.5q0 -37 -13 -60.5
t-49 -62.5l-76 -82h145v-65h-241v56z" />
    <glyph glyph-name="uni2153" unicode="&#x2153;" horiz-adv-x="768" 
d="M87 598h-65v58h29q19 0 27.5 7.5t8.5 26.5v10h72v-364h-72v262zM504 700h86l-414 -700h-86zM519.5 13q-33.5 20 -50.5 53l55 44q27 -53 78 -53q26 0 41.5 14.5t15.5 41.5t-16 41.5t-43 14.5q-18 0 -30 -7l-42 51l84 86h-126v65h224v-50l-86 -83q2 1 5 1q42 0 74.5 -32
t32.5 -87t-37.5 -87.5t-96.5 -32.5q-49 0 -82.5 20z" />
    <glyph glyph-name="uni2154" unicode="&#x2154;" horiz-adv-x="848" 
d="M35 392l122 134q22 23 30.5 39.5t8.5 33.5q0 20 -14.5 32t-38.5 12t-38.5 -15.5t-18.5 -40.5l-60 31q7 40 39 64.5t81 24.5q58 0 90.5 -26.5t32.5 -74.5q0 -37 -13 -60.5t-49 -62.5l-76 -82h145v-65h-241v56zM584 700h86l-414 -700h-86zM599.5 13q-33.5 20 -50.5 53
l55 44q27 -53 78 -53q26 0 41.5 14.5t15.5 41.5t-16 41.5t-43 14.5q-18 0 -30 -7l-42 51l84 86h-126v65h224v-50l-86 -83q2 1 5 1q42 0 74.5 -32t32.5 -87t-37.5 -87.5t-96.5 -32.5q-49 0 -82.5 20z" />
    <glyph glyph-name="onequarter" unicode="&#xbc;" horiz-adv-x="720" 
d="M87 598h-65v58h29q19 0 27.5 7.5t8.5 26.5v10h72v-364h-72v262zM504 700h86l-414 -700h-86zM575 64h-163v60l167 240h68v-235h53v-65h-53v-64h-72v64zM575 129v119l-83 -119h83z" />
    <glyph glyph-name="threequarters" unicode="&#xbe;" horiz-adv-x="800" 
d="M77.5 349q-33.5 20 -50.5 53l55 44q27 -53 78 -53q26 0 41.5 14.5t15.5 41.5t-16 41.5t-43 14.5q-18 0 -30 -7l-42 51l84 86h-126v65h224v-50l-86 -83q2 1 5 1q42 0 74.5 -32t32.5 -87t-37.5 -87.5t-96.5 -32.5q-49 0 -82.5 20zM584 700h86l-414 -700h-86zM655 64h-163
v60l167 240h68v-235h53v-65h-53v-64h-72v64zM655 129v119l-83 -119h83z" />
    <glyph glyph-name="oneeighth" unicode="&#x215b;" horiz-adv-x="759" 
d="M87 598h-65v58h29q19 0 27.5 7.5t8.5 26.5v10h72v-364h-72v262zM504 700h86l-414 -700h-86zM497 21q-37 28 -37 80q0 32 18 55t44 35q-23 11 -37 31.5t-14 50.5q0 43 34 70.5t91 27.5t90.5 -27.5t33.5 -70.5q0 -57 -50 -82q26 -11 43.5 -34.5t17.5 -55.5q0 -52 -37 -80
t-98 -28q-62 0 -99 28zM638.5 231q15.5 12 15.5 34t-15.5 34.5t-42.5 12.5t-42.5 -12.5t-15.5 -34.5t15.5 -34t42.5 -12t42.5 12zM641 70q18 13 18 37q0 25 -17.5 38t-45.5 13t-46 -13.5t-18 -37.5t18 -37t46 -13q27 0 45 13z" />
    <glyph glyph-name="threeeighths" unicode="&#x215c;" horiz-adv-x="839" 
d="M77.5 349q-33.5 20 -50.5 53l55 44q27 -53 78 -53q26 0 41.5 14.5t15.5 41.5t-16 41.5t-43 14.5q-18 0 -30 -7l-42 51l84 86h-126v65h224v-50l-86 -83q2 1 5 1q42 0 74.5 -32t32.5 -87t-37.5 -87.5t-96.5 -32.5q-49 0 -82.5 20zM584 700h86l-414 -700h-86zM577 21
q-37 28 -37 80q0 32 18 55t44 35q-23 11 -37 31.5t-14 50.5q0 43 34 70.5t91 27.5t90.5 -27.5t33.5 -70.5q0 -57 -50 -82q26 -11 43.5 -34.5t17.5 -55.5q0 -52 -37 -80t-98 -28q-62 0 -99 28zM718.5 231q15.5 12 15.5 34t-15.5 34.5t-42.5 12.5t-42.5 -12.5t-15.5 -34.5
t15.5 -34t42.5 -12t42.5 12zM721 70q18 13 18 37q0 25 -17.5 38t-45.5 13t-46 -13.5t-18 -37.5t18 -37t46 -13q27 0 45 13z" />
    <glyph glyph-name="fiveeighths" unicode="&#x215d;" horiz-adv-x="839" 
d="M82.5 344.5q-34.5 15.5 -55.5 42.5l50 48q34 -41 84 -41q26 0 44 15t18 44q0 30 -16.5 46.5t-43.5 16.5q-19 0 -34.5 -9t-22.5 -23l-63 19l20 197h207v-64h-145l-12 -83q22 24 68 24q52 0 86 -31.5t34 -92.5t-39.5 -92.5t-100.5 -31.5q-44 0 -78.5 15.5zM584 700h86
l-414 -700h-86zM577 21q-37 28 -37 80q0 32 18 55t44 35q-23 11 -37 31.5t-14 50.5q0 43 34 70.5t91 27.5t90.5 -27.5t33.5 -70.5q0 -57 -50 -82q26 -11 43.5 -34.5t17.5 -55.5q0 -52 -37 -80t-98 -28q-62 0 -99 28zM718.5 231q15.5 12 15.5 34t-15.5 34.5t-42.5 12.5
t-42.5 -12.5t-15.5 -34.5t15.5 -34t42.5 -12t42.5 12zM721 70q18 13 18 37q0 25 -17.5 38t-45.5 13t-46 -13.5t-18 -37.5t18 -37t46 -13q27 0 45 13z" />
    <glyph glyph-name="seveneighths" unicode="&#x215e;" horiz-adv-x="786" 
d="M194 635h-180v65h260v-61l-131 -303h-78zM534 700h86l-414 -700h-86zM524 21q-37 28 -37 80q0 32 18 55t44 35q-23 11 -37 31.5t-14 50.5q0 43 34 70.5t91 27.5t90.5 -27.5t33.5 -70.5q0 -57 -50 -82q26 -11 43.5 -34.5t17.5 -55.5q0 -52 -37 -80t-98 -28q-62 0 -99 28z
M665.5 231q15.5 12 15.5 34t-15.5 34.5t-42.5 12.5t-42.5 -12.5t-15.5 -34.5t15.5 -34t42.5 -12t42.5 12zM668 70q18 13 18 37q0 25 -17.5 38t-45.5 13t-46 -13.5t-18 -37.5t18 -37t46 -13q27 0 45 13z" />
    <glyph glyph-name="uni2080.zero" horiz-adv-x="372" 
d="M301 109.5q41 -51.5 41 -137.5t-41 -137.5t-115 -51.5t-115 51.5t-41 137.5t41 137.5t115 51.5t115 -51.5zM127 64q-20 -33 -20 -92q0 -51 15 -83l82 206q-12 2 -18 2q-39 0 -59 -33zM245.5 -119.5q20.5 32.5 20.5 91.5q0 53 -16 84l-82 -206q12 -2 18 -2q39 0 59.5 32.5
z" />
    <glyph glyph-name="uni2070.zero" horiz-adv-x="372" 
d="M301 655.5q41 -51.5 41 -137.5t-41 -137.5t-115 -51.5t-115 51.5t-41 137.5t41 137.5t115 51.5t115 -51.5zM127 610q-20 -33 -20 -92q0 -51 15 -83l82 206q-12 2 -18 2q-39 0 -59 -33zM245.5 426.5q20.5 32.5 20.5 91.5q0 53 -16 84l-82 -206q12 -2 18 -2q39 0 59.5 32.5
z" />
    <glyph glyph-name="asterisk" unicode="*" horiz-adv-x="413" 
d="M182 477l-111 -83l-41 71l128 55l-128 54l41 72l111 -83l-16 137h82l-17 -137l111 83l41 -72l-127 -54l127 -55l-41 -71l-111 83l17 -138h-82z" />
    <glyph glyph-name="backslash" unicode="\" horiz-adv-x="455" 
d="M145 760h-115l280 -820h115z" />
    <glyph glyph-name="periodcentered" unicode="&#xb7;" horiz-adv-x="252" 
d="M55 404h142v-107h-142v107z" />
    <glyph glyph-name="bullet" unicode="&#x2022;" horiz-adv-x="337" 
d="M72 391h193v-149h-193v149z" />
    <glyph glyph-name="colon" unicode=":" horiz-adv-x="252" 
d="M55 107h142v-107h-142v107zM55 490h142v-107h-142v107z" />
    <glyph glyph-name="comma" unicode="," horiz-adv-x="252" 
d="M61 -94q31 13 51 37t20 57h-77v107h142v-107q0 -61 -29 -100t-80 -56z" />
    <glyph glyph-name="ellipsis" unicode="&#x2026;" horiz-adv-x="681" 
d="M55 107h142v-107h-142v107zM270 107h142v-107h-142v107zM484 107h142v-107h-142v107z" />
    <glyph glyph-name="exclam" unicode="!" horiz-adv-x="252" 
d="M71 700h111v-507h-111v507zM55 107h142v-107h-142v107z" />
    <glyph glyph-name="exclamdown" unicode="&#xa1;" horiz-adv-x="252" 
d="M181 -210h-111v507h111v-507zM197 383h-142v107h142v-107z" />
    <glyph glyph-name="numbersign" unicode="#" horiz-adv-x="680" 
d="M518 423l-26 -146h124l-16 -90h-124l-33 -187h-92l33 187h-146l-33 -187h-92l33 187h-125l18 90h123l26 146h-124l16 91h124l33 186h92l-33 -186h146l33 186h92l-33 -186h125l-18 -91h-123zM426 423h-146l-26 -146h146z" />
    <glyph glyph-name="period" unicode="." horiz-adv-x="252" 
d="M55 107h142v-107h-142v107z" />
    <glyph glyph-name="question" unicode="?" horiz-adv-x="491" 
d="M189 232q0 43 8 70.5t25.5 50t52.5 52.5q33 29 49 54.5t16 61.5q0 44 -29 69.5t-76 25.5q-48 0 -79 -27.5t-45 -72.5l-87 51q16 62 70.5 104.5t141.5 42.5q101 0 160 -47.5t59 -133.5q0 -40 -11 -69.5t-27.5 -50t-44.5 -48.5l-15 -15q-33 -34 -45 -57t-12 -63v-37h-111
v39zM174 107h142v-107h-142v107z" />
    <glyph glyph-name="questiondown" unicode="&#xbf;" horiz-adv-x="491" 
d="M302 258q0 -43 -8 -70.5t-25.5 -50t-52.5 -52.5q-33 -29 -49 -54.5t-16 -61.5q0 -44 29 -69.5t76 -25.5q48 0 79 27.5t45 72.5l87 -51q-16 -62 -70.5 -104.5t-141.5 -42.5q-101 0 -160 47.5t-59 133.5q0 40 11 69.5t27.5 50t44.5 48.5l15 15q33 34 45 57t12 63v37h111
v-39zM317 383h-142v107h142v-107z" />
    <glyph glyph-name="quotedbl" unicode="&#x22;" horiz-adv-x="373" 
d="M47 714h111l-12 -197h-86zM215 714h111l-12 -197h-86z" />
    <glyph glyph-name="quotesingle" unicode="'" horiz-adv-x="205" 
d="M47 714h111l-12 -197h-86z" />
    <glyph glyph-name="semicolon" unicode=";" horiz-adv-x="252" 
d="M55 490h142v-107h-142v107zM61 -94q31 13 51 37t20 57h-77v107h142v-107q0 -61 -29 -100t-80 -56z" />
    <glyph glyph-name="slash" unicode="/" horiz-adv-x="455" 
d="M310 760h115l-280 -820h-115z" />
    <glyph glyph-name="underscore" unicode="_" horiz-adv-x="514" 
d="M40 -14h434v-94h-434v94z" />
    <glyph glyph-name="braceleft" unicode="{" horiz-adv-x="318" 
d="M136.5 -99q-30.5 31 -30.5 90v235q0 53 -45 53h-21v93h21q45 0 45 52v235q0 59 30.5 90t89.5 31h60v-93h-28q-21 0 -32 -11.5t-11 -32.5v-235q0 -32 -13.5 -52t-42.5 -31q56 -19 56 -82v-236q0 -21 11 -32.5t32 -11.5h28v-93h-60q-59 0 -89.5 31z" />
    <glyph glyph-name="braceright" unicode="}" horiz-adv-x="318" 
d="M181.5 749q30.5 -31 30.5 -90v-235q0 -53 45 -53h21v-93h-21q-45 0 -45 -52v-235q0 -59 -30.5 -90t-89.5 -31h-60v93h28q21 0 32 11.5t11 32.5v235q0 32 13.5 52t42.5 31q-56 19 -56 82v236q0 21 -11 32.5t-32 11.5h-28v93h60q59 0 89.5 -31z" />
    <glyph glyph-name="bracketleft" unicode="[" horiz-adv-x="296" 
d="M80 780h184v-93h-75v-724h75v-93h-184v910z" />
    <glyph glyph-name="bracketright" unicode="]" horiz-adv-x="296" 
d="M216 -130h-184v93h75v724h-75v93h184v-910z" />
    <glyph glyph-name="parenleft" unicode="(" horiz-adv-x="304" 
d="M193 562q-33 -108 -33 -242q0 -135 33 -243t97 -197h-113q-57 70 -93.5 181.5t-36.5 258.5q0 148 36.5 259t93.5 181h113q-64 -90 -97 -198z" />
    <glyph glyph-name="parenright" unicode=")" horiz-adv-x="304" 
d="M111 78q33 108 33 242q0 135 -33 243t-97 197h113q57 -70 93.5 -181.5t36.5 -258.5q0 -148 -36.5 -259t-93.5 -181h-113q64 90 97 198z" />
    <glyph glyph-name="emdash" unicode="&#x2014;" horiz-adv-x="761" 
d="M40 336h681v-94h-681v94z" />
    <glyph glyph-name="endash" unicode="&#x2013;" horiz-adv-x="514" 
d="M40 336h434v-94h-434v94z" />
    <glyph glyph-name="hyphen" unicode="-" horiz-adv-x="379" 
d="M40 336h299v-94h-299v94z" />
    <glyph glyph-name="uni00AD" unicode="&#xad;" horiz-adv-x="379" 
d="M40 336h299v-94h-299v94z" />
    <glyph glyph-name="guillemotleft" unicode="&#xab;" horiz-adv-x="544" 
d="M255 280l136 200h117l-136 -200l136 -199h-117zM43 280l136 200h117l-136 -200l136 -199h-117z" />
    <glyph glyph-name="guillemotright" unicode="&#xbb;" horiz-adv-x="544" 
d="M501 280l-136 -200h-117l136 200l-136 199h117zM289 280l-136 -200h-117l136 200l-136 199h117z" />
    <glyph glyph-name="guilsinglleft" unicode="&#x2039;" horiz-adv-x="332" 
d="M43 280l136 200h117l-136 -200l136 -199h-117z" />
    <glyph glyph-name="guilsinglright" unicode="&#x203a;" horiz-adv-x="332" 
d="M289 280l-136 -200h-117l136 200l-136 199h117z" />
    <glyph glyph-name="quotedblbase" unicode="&#x201e;" horiz-adv-x="410" 
d="M31 -80q41 7 63 27t22 53h-77v107h142v-107q0 -63 -35.5 -101t-97.5 -49zM229 -80q41 7 63 27t22 53h-77v107h142v-107q0 -63 -35.5 -101t-97.5 -49z" />
    <glyph glyph-name="quotedblleft" unicode="&#x201c;" horiz-adv-x="410" 
d="M379 644q-41 -7 -63 -27t-22 -53h77v-107h-142v107q0 63 35.5 101t97.5 49zM181 644q-41 -7 -63 -27t-22 -53h77v-107h-142v107q0 63 35.5 101t97.5 49z" />
    <glyph glyph-name="quotedblright" unicode="&#x201d;" horiz-adv-x="410" 
d="M229 513q41 7 63 27t22 53h-77v107h142v-107q0 -63 -35.5 -101t-97.5 -49zM31 513q41 7 63 27t22 53h-77v107h142v-107q0 -63 -35.5 -101t-97.5 -49z" />
    <glyph glyph-name="quoteleft" unicode="&#x2018;" horiz-adv-x="212" 
d="M181 644q-41 -7 -63 -27t-22 -53h77v-107h-142v107q0 63 35.5 101t97.5 49z" />
    <glyph glyph-name="quoteright" unicode="&#x2019;" horiz-adv-x="212" 
d="M31 513q41 7 63 27t22 53h-77v107h142v-107q0 -63 -35.5 -101t-97.5 -49z" />
    <glyph glyph-name="quotesinglbase" unicode="&#x201a;" horiz-adv-x="212" 
d="M31 -80q41 7 63 27t22 53h-77v107h142v-107q0 -63 -35.5 -101t-97.5 -49z" />
    <glyph glyph-name="anoteleia" unicode="&#x387;" horiz-adv-x="252" 
d="M55 404h142v-107h-142v107z" />
    <glyph glyph-name="uni037E" unicode="&#x37e;" horiz-adv-x="252" 
d="M55 490h142v-107h-142v107zM61 -94q31 13 51 37t20 57h-77v107h142v-107q0 -61 -29 -100t-80 -56z" />
    <glyph glyph-name="uni00A0" unicode="&#xa0;" horiz-adv-x="268" 
d="M0 0z" />
    <glyph glyph-name="cent" unicode="&#xa2;" horiz-adv-x="531" 
d="M415 260l81 -55q-59 -100 -174 -112v-93h-74v94q-97 13 -154 83t-57 173t57 173t154 83v94h74v-92q119 -12 174 -111l-81 -60q-32 62 -93 75v-324q61 12 93 72zM175 246.5q27 -41.5 73 -55.5v318q-46 -14 -73 -55.5t-27 -103.5t27 -103.5z" />
    <glyph glyph-name="currency" unicode="&#xa4;" horiz-adv-x="665" 
d="M546 217l74 -74l-80 -80l-74 74q-60 -33 -133 -33t-133 33l-75 -74l-80 80l74 74q-33 58 -33 133t33 133l-74 75l80 80l76 -75q58 33 132 33t132 -33l75 75l80 -80l-74 -74q34 -59 34 -134q0 -76 -34 -133zM434 239.5q39 40.5 39 110.5q0 71 -39 111t-101 40t-101 -40
t-39 -111q0 -70 39 -110.5t101 -40.5t101 40.5z" />
    <glyph glyph-name="dollar" unicode="$" horiz-adv-x="582" 
d="M478 58.5q-58 -56.5 -146 -69.5v-89h-74v87q-75 7 -132.5 45t-87.5 94l82 73q23 -44 59 -72.5t79 -37.5v229q-93 22 -146.5 74.5t-53.5 130.5q0 80 56 130t144 59v88h74v-88q128 -12 196 -119l-80 -63q-41 69 -116 83v-208l7 -2q94 -23 145.5 -71.5t51.5 -133.5
q0 -83 -58 -139.5zM192.5 470q20.5 -24 65.5 -42v184q-38 -8 -62 -30.5t-24 -56.5q0 -31 20.5 -55zM392 126.5q23 26.5 23 64.5q0 39 -19.5 64.5t-63.5 42.5v-207q37 9 60 35.5z" />
    <glyph glyph-name="Euro" unicode="&#x20ac;" horiz-adv-x="715" 
d="M516 114q40 30 68 92l95 -42q-79 -178 -268 -178q-114 0 -193.5 64.5t-109.5 172.5h-84v86h69q-2 26 -2 41q0 14 2 42h-69v86h84q31 108 110 172t193 64q101 0 170 -43.5t98 -130.5l-96 -43q-23 61 -65.5 90t-106.5 29q-66 0 -112.5 -36t-69.5 -102h180v-86h-197
q-2 -28 -2 -42q0 -15 2 -41h197v-86h-180q22 -66 69 -102.5t113 -36.5q65 0 105 30z" />
    <glyph glyph-name="florin" unicode="&#x192;" horiz-adv-x="407" 
d="M284.5 600q-17.5 -16 -22.5 -47l-11 -63h111l-15 -85h-111l-85 -483q-25 -146 -172 -146q-40 0 -68 13l18 99q25 -14 52 -14q49 0 58 53l84 478h-69l15 85h69l14 78q12 70 57 108t122 38q43 0 72 -13l-18 -99q-23 14 -56 14q-27 0 -44.5 -16z" />
    <glyph glyph-name="uni20B4" unicode="&#x20b4;" horiz-adv-x="599" 
d="M429 372q-32 -25 -80 -46h205v-74h-342q-21 -27 -21 -65q0 -47 29.5 -74t76.5 -27q54 0 92 24.5t73 81.5l86 -63q-43 -68 -104 -105.5t-147 -37.5q-104 0 -165.5 51t-61.5 146q0 35 13 69h-45v74h99q28 25 68 46h-167v74h324q19 16 26.5 35.5t7.5 46.5q0 41 -31.5 64.5
t-79.5 23.5q-47 0 -83.5 -22.5t-66.5 -67.5l-68 80q33 49 88.5 78.5t130.5 29.5q98 0 161 -47.5t63 -132.5q0 -48 -20 -88h64v-74h-125z" />
    <glyph glyph-name="uni20BA" unicode="&#x20ba;" horiz-adv-x="629" 
d="M600 317q0 -158 -73 -237.5t-203 -79.5h-193v151l-67 -39l-44 77l111 64v74l-67 -39l-44 77l111 64v271h118v-203l107 61l44 -76l-151 -87v-74l107 61l44 -76l-151 -87v-119h72q173 0 173 217h106z" />
    <glyph glyph-name="uni20BD" unicode="&#x20bd;" horiz-adv-x="611" 
d="M220 277v-80h133v-90h-133v-107h-118v107h-81v90h81v80h-81v95h81v328h242q108 0 169 -55.5t61 -155.5q0 -101 -61 -156.5t-169 -55.5h-124zM220 372h119q61 0 92 30t31 87t-31.5 86.5t-91.5 29.5h-119v-233z" />
    <glyph glyph-name="sterling" unicode="&#xa3;" horiz-adv-x="524" 
d="M172 100h300v-100h-419v100q42 26 62 58t20 87q0 14 -3 26h-92v86h50q-23 40 -35.5 76t-12.5 81q0 59 28 104.5t78 70.5t116 25q88 0 141.5 -34.5t76.5 -94.5l-88 -60q-16 45 -50 68.5t-81 23.5t-78.5 -29.5t-31.5 -77.5q0 -37 9.5 -64.5t29.5 -62.5q8 -14 14 -26h192
v-86h-167q1 -5 1 -16q0 -88 -60 -155z" />
    <glyph glyph-name="yen" unicode="&#xa5;" horiz-adv-x="610" 
d="M430 389h85v-93h-135l-16 -31v-41h151v-93h-151v-131h-118v131h-150v93h150v41l-16 31h-134v93h84l-165 311h133l157 -311l157 311h133z" />
    <glyph glyph-name="uni2219" unicode="&#x2219;" horiz-adv-x="337" 
d="M72 391h193v-149h-193v149z" />
    <glyph glyph-name="uni2215" unicode="&#x2215;" horiz-adv-x="579" 
d="M430 760h119l-400 -820h-119z" />
    <glyph glyph-name="plus" unicode="+" horiz-adv-x="525" 
d="M216 263h-170v94h170v169h94v-169h169v-94h-169v-169h-94v169z" />
    <glyph glyph-name="minus" unicode="&#x2212;" horiz-adv-x="525" 
d="M46 357h433v-94h-433v94z" />
    <glyph glyph-name="multiply" unicode="&#xd7;" horiz-adv-x="525" 
d="M77 194l120 120l-120 120l66 66l120 -119l119 119l67 -67l-119 -119l119 -120l-66 -66l-120 120l-119 -120z" />
    <glyph glyph-name="divide" unicode="&#xf7;" horiz-adv-x="525" 
d="M197 538h142v-107h-142v107zM46 357h433v-94h-433v94zM197 189h142v-107h-142v107z" />
    <glyph glyph-name="equal" unicode="=" horiz-adv-x="525" 
d="M46 470h433v-94h-433v94zM46 244h433v-94h-433v94z" />
    <glyph glyph-name="notequal" unicode="&#x2260;" horiz-adv-x="525" 
d="M355 376l-76 -132h200v-94h-255l-79 -137l-81 47l52 90h-70v94h124l77 132h-201v94h255l79 137l82 -47l-52 -90h69v-94h-124z" />
    <glyph glyph-name="greater" unicode="&#x3e;" horiz-adv-x="525" 
d="M46 160l309 150l-309 150v107l433 -219v-76l-433 -219v107z" />
    <glyph glyph-name="less" unicode="&#x3c;" horiz-adv-x="525" 
d="M479 460l-309 -150l309 -150v-107l-433 219v76l433 219v-107z" />
    <glyph glyph-name="greaterequal" unicode="&#x2265;" horiz-adv-x="525" 
d="M47 236l320 108l-320 107v97l432 -152v-105l-432 -152v97zM46 94h433v-94h-433v94z" />
    <glyph glyph-name="lessequal" unicode="&#x2264;" horiz-adv-x="525" 
d="M47 291v105l432 152v-97l-321 -107l321 -108v-97zM46 94h433v-94h-433v94z" />
    <glyph glyph-name="plusminus" unicode="&#xb1;" horiz-adv-x="525" 
d="M479 405v-94h-169v-143h-94v143h-170v94h170v143h94v-143h169zM46 94h433v-94h-433v94z" />
    <glyph glyph-name="approxequal" unicode="&#x2248;" horiz-adv-x="525" 
d="M301 358q-22 7 -50 20q-23 11 -39 16.5t-32 5.5q-40 0 -65 -47l-64 54q19 40 51.5 63.5t74.5 23.5q26 0 48 -7t50 -21q25 -11 40 -16t30 -5q42 0 65 47l64 -54q-18 -40 -51 -63.5t-75 -23.5q-25 0 -47 7zM301 145q-22 7 -50 20q-23 11 -39 16.5t-32 5.5q-40 0 -65 -47
l-64 54q19 40 51.5 63.5t74.5 23.5q26 0 48 -7t50 -21q25 -11 40 -16t30 -5q42 0 65 47l64 -54q-18 -40 -51 -63.5t-75 -23.5q-25 0 -47 7z" />
    <glyph glyph-name="logicalnot" unicode="&#xac;" horiz-adv-x="470" 
d="M424 162h-101v156h-277v97h378v-253z" />
    <glyph glyph-name="asciitilde" unicode="~" horiz-adv-x="525" 
d="M301 288q-22 7 -50 20q-23 11 -39 16.5t-32 5.5q-40 0 -65 -47l-64 54q19 40 51.5 63.5t74.5 23.5q26 0 48 -7t50 -21q25 -11 40 -16t30 -5q42 0 65 47l64 -54q-18 -40 -51 -63.5t-75 -23.5q-25 0 -47 7z" />
    <glyph glyph-name="infinity" unicode="&#x221e;" horiz-adv-x="764" 
d="M85.5 196.5q-51.5 47.5 -51.5 140.5t51.5 140.5t126.5 47.5q57 0 102.5 -30.5t67.5 -79.5q21 49 67.5 79.5t103.5 30.5q75 0 126 -47.5t51 -140.5t-51 -140.5t-126 -47.5q-57 0 -103.5 30.5t-67.5 79.5q-22 -49 -67.5 -79.5t-102.5 -30.5q-75 0 -126.5 47.5zM342 337
q-46 110 -126 110q-39 0 -66.5 -28t-27.5 -82q0 -53 27.5 -81t66.5 -28q79 0 126 109zM615.5 256q27.5 28 27.5 81q0 54 -28 82t-67 28q-80 0 -126 -110q47 -109 126 -109q40 0 67.5 28z" />
    <glyph glyph-name="integral" unicode="&#x222b;" horiz-adv-x="407" 
d="M-89 -211l18 99q25 -14 52 -14q49 0 58 53l113 641q12 70 57 108t122 38q43 0 72 -13l-18 -99q-23 14 -56 14q-27 0 -44.5 -16t-22.5 -47l-111 -631q-25 -146 -172 -146q-40 0 -68 13z" />
    <glyph glyph-name="uni2126" unicode="&#x2126;" horiz-adv-x="773" 
d="M684 228q-41 -77 -103 -128h121v-100h-251v113q63 40 108 112t45 159q0 70 -27 122t-76.5 80t-113.5 28t-113.5 -28t-77 -80t-27.5 -122q0 -87 45 -159t109 -112v-113h-252v100h122q-62 52 -103.5 128.5t-41.5 166.5q0 96 41.5 168t118.5 111.5t179 39.5t178.5 -39.5
t118 -111.5t41.5 -168q0 -90 -41 -167z" />
    <glyph glyph-name="uni2206" unicode="&#x2206;" horiz-adv-x="665" 
d="M647 0h-629l262 700h105zM488 101l-156 433l-156 -433h312z" />
    <glyph glyph-name="product" unicode="&#x220f;" horiz-adv-x="706" 
d="M626 -100h-118v700h-310v-700h-118v800h546v-800z" />
    <glyph glyph-name="summation" unicode="&#x2211;" horiz-adv-x="580" 
d="M32 88l203 262l-191 262v88h488v-100h-349l160 -221v-56l-172 -223h373v-100h-512v88z" />
    <glyph glyph-name="radical" unicode="&#x221a;" horiz-adv-x="575" 
d="M547 700l-215 -700h-102l-83 265h-113v97h185l62 -197l164 535h102z" />
    <glyph glyph-name="uni00B5" unicode="&#xb5;" horiz-adv-x="588" 
d="M72 490h113v-296q0 -110 100 -110q49 0 83.5 38.5t34.5 103.5v264h113v-490h-113v84q-22 -48 -60.5 -73t-84.5 -25q-49 0 -73 24v-220h-113v700z" />
    <glyph glyph-name="partialdiff" unicode="&#x2202;" horiz-adv-x="583" 
d="M490.5 569.5q55.5 -93.5 55.5 -223.5q0 -103 -32.5 -184.5t-97.5 -128.5t-159 -47q-63 0 -113 28t-78.5 80t-28.5 121q0 83 30.5 148.5t88 103t136.5 37.5t130 -56q-16 76 -55 127.5t-100 89.5l88 49q80 -51 135.5 -144.5zM390 145q41 62 43 179q-18 40 -49.5 61.5
t-75.5 21.5t-79.5 -24t-55.5 -68t-20 -100q0 -59 32.5 -95.5t86.5 -36.5q77 0 118 62z" />
    <glyph glyph-name="percent" unicode="%" horiz-adv-x="831" 
d="M79.5 398.5q-46.5 50.5 -46.5 132.5q0 83 46.5 133t121.5 50t121 -50t46 -133q0 -82 -46.5 -132.5t-120.5 -50.5q-75 0 -121.5 50.5zM576 700h94l-414 -700h-94zM262 449q23 28 23 82t-23 82t-61 28t-61.5 -28t-23.5 -82t23.5 -82t61.5 -28t61 28zM509.5 36.5
q-46.5 50.5 -46.5 132.5q0 83 46.5 133t121.5 50t121 -50t46 -133q0 -82 -46.5 -132.5t-120.5 -50.5q-75 0 -121.5 50.5zM692 87q23 28 23 82t-23 82t-61 28t-61.5 -28t-23.5 -82t23.5 -82t61.5 -28t61 28z" />
    <glyph glyph-name="perthousand" unicode="&#x2030;" horiz-adv-x="1220" 
d="M79.5 398.5q-46.5 50.5 -46.5 132.5q0 83 46.5 133t121.5 50t121 -50t46 -133q0 -82 -46.5 -132.5t-120.5 -50.5q-75 0 -121.5 50.5zM575 700h95l-414 -700h-95zM262 449q23 28 23 82t-23 82t-61 28t-61.5 -28t-23.5 -82t23.5 -82t61.5 -28t61 28zM509.5 36.5
q-46.5 50.5 -46.5 132.5q0 83 46.5 133t121.5 50t121 -50t46 -133q0 -82 -46.5 -132.5t-120.5 -50.5q-75 0 -121.5 50.5zM898.5 36.5q-46.5 50.5 -46.5 132.5q0 83 46.5 133t121.5 50t121 -50t46 -133q0 -82 -46.5 -132.5t-120.5 -50.5q-75 0 -121.5 50.5zM692 87
q23 28 23 82t-23 82t-61 28t-61.5 -28t-23.5 -82t23.5 -82t61.5 -28t61 28zM1081 87q23 28 23 82t-23 82t-61 28t-61.5 -28t-23.5 -82t23.5 -82t61.5 -28t61 28z" />
    <glyph glyph-name="lozenge" unicode="&#x25ca;" horiz-adv-x="553" 
d="M21 350l203 350h106l202 -350l-202 -350h-106zM419 350l-142 250l-142 -250l142 -250z" />
    <glyph glyph-name="at" unicode="@" horiz-adv-x="766" 
d="M215 -24q-79 44 -125.5 125t-46.5 187q0 107 46 187t124 122.5t173 42.5q94 0 171 -41.5t121.5 -119.5t44.5 -183q0 -62 -19.5 -106.5t-52 -67t-70.5 -22.5q-34 0 -61 20.5t-32 48.5q-18 -31 -50.5 -50t-71.5 -19q-48 0 -86 22.5t-60 64.5t-22 99q0 85 47.5 135.5
t121.5 50.5q33 0 59.5 -14t41.5 -37v41h70v-243q0 -24 11.5 -37t31.5 -13q29 0 46 31.5t17 89.5q0 83 -31.5 145.5t-89.5 96.5t-137 34t-138.5 -34.5t-91.5 -97.5t-32 -146t33 -147t93 -99.5t138 -35.5q48 0 85.5 13t71.5 39l40 -66q-40 -29 -87 -44.5t-110 -15.5
q-94 0 -173 44zM442.5 200q27.5 31 27.5 86q0 53 -28 85t-70 32t-70 -32t-28 -85t28 -85t70 -32q43 0 70.5 31z" />
    <glyph glyph-name="ampersand" unicode="&#x26;" horiz-adv-x="643" 
d="M633 0h-123q-21 12 -45 39l-20 23q-39 -37 -85 -56.5t-105 -19.5q-58 0 -107.5 24.5t-78.5 71.5t-29 110q0 130 113 213q-23 32 -35 65.5t-12 74.5q0 48 22.5 86.5t63.5 60.5t95 22q139 0 181 -128l-82 -53q-28 91 -101 91q-37 0 -59 -22.5t-22 -57.5q0 -29 11.5 -53.5
t36.5 -54.5l190 -227l78 97l66 -75l-80 -98l53 -64q37 -44 74 -69zM329 94q26 13 53 42l-167 194q-33 -27 -48 -57t-15 -70q0 -54 33.5 -88t84.5 -34q33 0 59 13z" />
    <glyph glyph-name="paragraph" unicode="&#xb6;" horiz-adv-x="620" 
d="M251 359h-28q-83 0 -134.5 45.5t-51.5 124.5q0 80 51 125.5t135 45.5h139v-800h-111v459zM429 700h111v-800h-111v800z" />
    <glyph glyph-name="section" unicode="&#xa7;" horiz-adv-x="530" 
d="M431 116q47 -50 47 -122q0 -57 -30 -98.5t-80.5 -63.5t-111.5 -22q-115 0 -200 63l33 105q39 -35 79 -54t87 -19t79.5 22.5t32.5 62.5q0 42 -33 69t-118 51q-90 26 -134 71t-44 115q0 62 53 113q-47 49 -47 121q0 57 30 98.5t81 63.5t112 22q114 0 199 -63l-33 -105
q-39 35 -79 54t-87 19t-79.5 -22.5t-32.5 -62.5q0 -42 32.5 -68.5t118.5 -50.5q90 -26 134 -71t44 -115q0 -64 -53 -113zM179 238q32 -24 113 -47q30 -8 61 -22q22 25 22 52q0 42 -32 65.5t-113 46.5q-30 8 -61 22q-22 -25 -22 -52q0 -41 32 -65z" />
    <glyph glyph-name="copyright" unicode="&#xa9;" horiz-adv-x="801" 
d="M219.5 34q-80.5 48 -126 131t-45.5 185t45.5 185t126 131t181.5 48t181 -48t125.5 -131t45.5 -185t-45.5 -185t-125.5 -131t-181 -48t-181.5 48zM543.5 94.5q63.5 38.5 99.5 106t36 149.5t-35.5 149.5t-99 106t-143.5 38.5t-143.5 -38.5t-99.5 -106t-36 -149.5t36 -149.5
t99.5 -106t143.5 -38.5q79 0 142.5 38.5zM305 172.5q-44 25.5 -69 71.5t-25 105t25 105.5t69 72.5t99 26q60 0 102.5 -24.5t63.5 -68.5l-56 -38q-17 31 -45.5 47t-64.5 16q-53 0 -87.5 -36.5t-34.5 -98.5q0 -61 34.5 -98t87.5 -37q37 0 65.5 16t44.5 48l56 -39
q-23 -44 -66 -68.5t-100 -24.5q-55 0 -99 25.5z" />
    <glyph glyph-name="registered" unicode="&#xae;" horiz-adv-x="801" 
d="M219.5 34q-80.5 48 -126 131t-45.5 185t45.5 185t126 131t181.5 48t181 -48t125.5 -131t45.5 -185t-45.5 -185t-125.5 -131t-181 -48t-181.5 48zM543.5 94.5q63.5 38.5 99.5 106t36 149.5t-35.5 149.5t-99 106t-143.5 38.5t-143.5 -38.5t-99.5 -106t-36 -149.5t36 -149.5
t99.5 -106t143.5 -38.5q79 0 142.5 38.5zM265 549h159q56 0 88 -29t32 -81q0 -41 -21.5 -65.5t-53.5 -35.5q11 -4 20.5 -14t13.5 -23l36 -112q6 -19 20 -38h-69q-9 11 -15 29l-37 110q-7 22 -16.5 30.5t-31.5 8.5h-58v-178h-67v398zM421 386q28 0 43.5 13.5t15.5 39.5
t-15.5 39.5t-43.5 13.5h-89v-106h89z" />
    <glyph glyph-name="trademark" unicode="&#x2122;" horiz-adv-x="704" 
d="M278 632h-92v-296h-81v296h-92v68h265v-68zM669 700v-364h-77v194l-71 -164h-59l-71 164v-194h-77v364h75l102 -245l103 245h75z" />
    <glyph glyph-name="degree" unicode="&#xb0;" horiz-adv-x="388" 
d="M74 437q-45 45 -45 116t45 116t120 45q76 0 120.5 -45t44.5 -116t-44.5 -116t-120.5 -45q-75 0 -120 45zM254 490q23 24 23 63t-23 63t-60 24t-59.5 -24t-22.5 -63t22.5 -63t59.5 -24t60 24z" />
    <glyph glyph-name="bar" unicode="|" horiz-adv-x="278" 
d="M80 700h118v-910h-118v910z" />
    <glyph glyph-name="brokenbar" unicode="&#xa6;" horiz-adv-x="278" 
d="M80 700h118v-387h-118v387zM80 178h118v-388h-118v388z" />
    <glyph glyph-name="dagger" unicode="&#x2020;" horiz-adv-x="327" 
d="M297 533h-95v-267h-77v267h-95v71h95v96h77v-96h95v-71z" />
    <glyph glyph-name="uni2113" unicode="&#x2113;" horiz-adv-x="497" 
d="M327 105q30 39 53 131l73 -25q-27 -113 -73 -169t-129 -56q-76 0 -122 56t-57 149l-51 -18v87l48 18q4 127 35.5 225.5t86.5 154.5t128 56q71 0 106.5 -38.5t35.5 -112.5q0 -198 -300 -335q2 -73 25.5 -117.5t69.5 -44.5q41 0 71 39zM242.5 593q-31.5 -39 -52 -110.5
t-26.5 -164.5q99 48 152.5 106.5t53.5 138.5q0 34 -15.5 51.5t-44.5 17.5q-36 0 -67.5 -39z" />
    <glyph glyph-name="daggerdbl" unicode="&#x2021;" horiz-adv-x="327" 
d="M125 363h-95v71h95v99h-95v71h95v96h77v-96h95v-71h-95v-99h95v-71h-95v-97h-77v97z" />
    <glyph glyph-name="estimated" unicode="&#x212e;" horiz-adv-x="824" 
d="M209 336v-233q83 -81 203 -81q95 0 171.5 50t117.5 133h45q-43 -98 -133 -158.5t-201 -60.5q-99 0 -182.5 49t-132.5 132.5t-49 182.5t49 182.5t132.5 132.5t182.5 49q98 0 181.5 -46t133 -126.5t49.5 -178.5v-27h-567zM209 600v-228h406v231q-41 36 -92.5 55.5
t-110.5 19.5q-119 0 -203 -78z" />
    <glyph glyph-name="uni2116" unicode="&#x2116;" horiz-adv-x="1305" 
d="M882.5 247.5q-57.5 31.5 -88.5 88t-31 129.5q0 74 31 130t88.5 87.5t133.5 31.5t133 -31.5t88 -87.5t31 -130q0 -73 -31 -129.5t-88 -88t-133 -31.5t-133.5 31.5zM80 700h105l355 -495v495h117v-700h-106l-354 495v-495h-117v700zM1115 355.5q38 42.5 38 109.5t-38 109.5
t-99 42.5q-62 0 -100 -42.5t-38 -109.5t38 -109.5t100 -42.5q61 0 99 42.5zM1243 97v-97h-455v97h455z" />
    <glyph glyph-name="asciicircum" unicode="^" horiz-adv-x="518" 
d="M211 700h97l175 -266h-117l-107 173l-107 -173h-117z" />
    <glyph glyph-name="copyright.ss01" horiz-adv-x="388" 
d="M79 439q-45 45 -45 115t45 115t115 45t115 -45t45 -115t-45 -115t-115 -45t-115 45zM283 462.5q35 35.5 35 91.5t-35 91.5t-89 35.5t-89 -35.5t-35 -91.5t35 -91.5t89 -35.5t89 35.5zM133 489q-24 25 -24 65t24 65t63 25q26 0 44.5 -11t27.5 -30l-24 -17q-19 28 -48 28
q-24 0 -39.5 -16t-15.5 -44t15.5 -44t39.5 -16q30 0 46 28l26 -17q-24 -41 -72 -41q-39 0 -63 25z" />
    <glyph glyph-name="registered.ss01" horiz-adv-x="388" 
d="M79 439q-45 45 -45 115t45 115t115 45t115 -45t45 -115t-45 -115t-115 -45t-115 45zM283 462.5q35 35.5 35 91.5t-35 91.5t-89 35.5t-89 -35.5t-35 -91.5t35 -91.5t89 -35.5t89 35.5zM138 641h71q24 0 37.5 -13t13.5 -34q0 -16 -9.5 -28t-23.5 -14q12 -5 17 -21l19 -64
h-31l-17 58q-3 10 -7.5 14t-13.5 4h-26v-76h-30v174zM203 569q27 0 27 23t-27 23h-35v-46h35z" />
    <glyph glyph-name="uni0308" unicode="&#x308;" 
d="M-318 678h119v-102h-119v102zM-144 678h119v-102h-119v102z" />
    <glyph glyph-name="uni0307" unicode="&#x307;" 
d="M-179 668h142v-107h-142v107z" />
    <glyph glyph-name="gravecomb" unicode="&#x300;" 
d="M-225 700h115l64 -136h-91z" />
    <glyph glyph-name="acutecomb" unicode="&#x301;" 
d="M-161 700h115l-88 -136h-91z" />
    <glyph glyph-name="uni030B" unicode="&#x30b;" 
d="M-333 700h115l-88 -136h-91zM-161 700h115l-88 -136h-91z" />
    <glyph glyph-name="caroncomb.alt" 
d="M-170 521q38 7 56 25t18 50h-72v104h137v-104q0 -60 -33.5 -94t-90.5 -45z" />
    <glyph glyph-name="uni0302" unicode="&#x302;" 
d="M-230 700h100l108 -136h-93l-65 71l-65 -71h-93z" />
    <glyph glyph-name="uni030C" unicode="&#x30c;" 
d="M-338 700h93l65 -71l65 71h93l-108 -136h-100z" />
    <glyph glyph-name="uni0306" unicode="&#x306;" 
d="M-216.5 594q-30.5 29 -30.5 81h72q0 -21 10.5 -34t29.5 -13q20 0 30.5 13t10.5 34h71q0 -52 -30 -81t-82 -29q-51 0 -81.5 29z" />
    <glyph glyph-name="uni030A" unicode="&#x30a;" 
d="M-227 568q-27 27 -27 66q0 40 27 66.5t66 26.5q40 0 66.5 -26.5t26.5 -66.5q0 -39 -26.5 -66t-66.5 -27q-39 0 -66 27zM-129.5 603q12.5 12 12.5 31t-12.5 31.5t-31.5 12.5t-31 -12.5t-12 -31.5t12 -31t31 -12t31.5 12z" />
    <glyph glyph-name="tildecomb" unicode="&#x303;" 
d="M-375 620q17 29 47 47t70 18q19 0 33.5 -5t34.5 -14q18 -8 28.5 -12t22.5 -4q40 0 69 36l46 -53q-17 -29 -47 -47t-70 -18q-19 0 -35 5t-34 15q-16 8 -27 11.5t-23 3.5q-40 0 -69 -36z" />
    <glyph glyph-name="uni0304" unicode="&#x304;" 
d="M-305 661h229v-81h-229v81z" />
    <glyph glyph-name="uni0312" unicode="&#x312;" 
d="M-31 752q-41 -7 -63 -27t-22 -53h77v-107h-142v107q0 63 35.5 101t97.5 49z" />
    <glyph glyph-name="uni0326" unicode="&#x326;" 
d="M-168 -222q33 9 50.5 26.5t17.5 48.5h-77v99h139v-99q0 -57 -29.5 -86t-80.5 -45z" />
    <glyph glyph-name="uni0327" unicode="&#x327;" 
d="M-279 -213q-24 11 -40 29l35 42q23 -27 57 -27q21 0 33.5 9t12.5 28t-11 28t-29 9q-12 0 -23 -6t-17 -15l-45 21l27 95h57l-32 -67q17 22 53 22q40 0 64 -22.5t24 -65.5q0 -45 -29.5 -68t-82.5 -23q-30 0 -54 11z" />
    <glyph glyph-name="uni0328" unicode="&#x328;" 
d="M-169 -173.5q-25 25.5 -25 70.5q0 31 14 57.5t37 45.5h85q-30 -24 -44.5 -43.5t-14.5 -43.5q0 -18 9.5 -27.5t24.5 -9.5q20 0 35 11v-76q-21 -10 -52 -10q-44 0 -69 25.5z" />
    <glyph glyph-name="uni0335" unicode="&#x335;" 
d="M-24 391v-82h-350v82h350z" />
    <glyph glyph-name="uni0337" unicode="&#x337;" 
d="M-333 307l266 154l45 -77l-266 -153z" />
    <glyph glyph-name="uni0338" unicode="&#x338;" 
d="M-439 2l372 532l67 -46l-372 -533z" />
    <glyph glyph-name="caroncomb.alt.cap" 
d="M-181 513q41 7 63 27t22 53h-77v107h142v-107q0 -63 -35.5 -101t-97.5 -49z" />
    <glyph glyph-name="uni0327.cap" 
d="M-279 -213q-24 11 -40 29l35 42q23 -27 57 -27q21 0 33.5 9t12.5 28t-11 28t-29 9q-12 0 -23 -6t-17 -15l-45 21l27 95h57l-32 -67q17 22 53 22q40 0 64 -22.5t24 -65.5q0 -45 -29.5 -68t-82.5 -23q-30 0 -54 11z" />
    <glyph glyph-name="uni0328.cap" 
d="M-169 -173.5q-25 25.5 -25 70.5q0 32 13.5 58t35.5 45h87q-30 -24 -44.5 -43.5t-14.5 -44.5q0 -17 9.5 -26.5t24.5 -9.5q20 0 35 11v-76q-21 -10 -52 -10q-44 0 -69 25.5z" />
    <glyph glyph-name="uni0335.cap" 
d="M-372 397h344v-94h-344v94z" />
    <glyph glyph-name="uni0336.cap" 
d="M-704 395h681v-90h-681v90z" />
    <glyph glyph-name="uni0337.cap" 
d="M-398 270l336 193l44 -76l-336 -194z" />
    <glyph glyph-name="uni0338.cap" 
d="M-638 43l568 675l70 -60l-568 -676z" />
    <glyph glyph-name="uni02C9" unicode="&#x2c9;" horiz-adv-x="382" 
d="M77 661h229v-81h-229v81z" />
    <glyph glyph-name="acute" unicode="&#xb4;" horiz-adv-x="271" 
d="M110 700h115l-88 -136h-91z" />
    <glyph glyph-name="breve" unicode="&#x2d8;" horiz-adv-x="270" 
d="M53.5 594q-30.5 29 -30.5 81h72q0 -21 10.5 -34t29.5 -13q20 0 30.5 13t10.5 34h71q0 -52 -30 -81t-82 -29q-51 0 -81.5 29z" />
    <glyph glyph-name="caron" unicode="&#x2c7;" horiz-adv-x="360" 
d="M22 700h93l65 -71l65 71h93l-108 -136h-100z" />
    <glyph glyph-name="cedilla" unicode="&#xb8;" horiz-adv-x="455" 
d="M176 -213q-24 11 -40 29l35 42q23 -27 57 -27q21 0 33.5 9t12.5 28t-11 28t-29 9q-12 0 -23 -6t-17 -15l-45 21l27 95h57l-32 -67q17 22 53 22q40 0 64 -22.5t24 -65.5q0 -45 -29.5 -68t-82.5 -23q-30 0 -54 11z" />
    <glyph glyph-name="circumflex" unicode="&#x2c6;" horiz-adv-x="360" 
d="M130 700h100l108 -136h-93l-65 71l-65 -71h-93z" />
    <glyph glyph-name="dieresis" unicode="&#xa8;" horiz-adv-x="344" 
d="M26 678h119v-102h-119v102zM200 678h119v-102h-119v102z" />
    <glyph glyph-name="dotaccent" unicode="&#x2d9;" horiz-adv-x="217" 
d="M38 668h142v-107h-142v107z" />
    <glyph glyph-name="grave" unicode="`" horiz-adv-x="271" 
d="M46 700h115l64 -136h-91z" />
    <glyph glyph-name="hungarumlaut" unicode="&#x2dd;" horiz-adv-x="443" 
d="M110 700h115l-88 -136h-91zM282 700h115l-88 -136h-91z" />
    <glyph glyph-name="macron" unicode="&#xaf;" horiz-adv-x="382" 
d="M77 661h229v-81h-229v81z" />
    <glyph glyph-name="ogonek" unicode="&#x2db;" horiz-adv-x="257" 
d="M88 -173.5q-25 25.5 -25 70.5q0 32 13.5 58t35.5 45h87q-30 -24 -44.5 -43.5t-14.5 -44.5q0 -17 9.5 -26.5t24.5 -9.5q20 0 35 11v-76q-21 -10 -52 -10q-44 0 -69 25.5z" />
    <glyph glyph-name="ring" unicode="&#x2da;" horiz-adv-x="322" 
d="M95 568q-27 27 -27 66q0 40 27 66.5t66 26.5q40 0 66.5 -26.5t26.5 -66.5q0 -39 -26.5 -66t-66.5 -27q-39 0 -66 27zM192.5 603q12.5 12 12.5 31t-12.5 31.5t-31.5 12.5t-31 -12.5t-12 -31.5t12 -31t31 -12t31.5 12z" />
    <glyph glyph-name="tilde" unicode="&#x2dc;" horiz-adv-x="400" 
d="M25 620q17 29 47 47t70 18q19 0 33.5 -5t34.5 -14q18 -8 28.5 -12t22.5 -4q40 0 69 36l46 -53q-17 -29 -47 -47t-70 -18q-19 0 -35 5t-34 15q-16 8 -27 11.5t-23 3.5q-40 0 -69 -36z" />
    <glyph glyph-name="tonos" unicode="&#x384;" horiz-adv-x="245" 
d="M83 700h116l-67 -136h-86z" />
    <glyph glyph-name="dieresistonos" unicode="&#x385;" horiz-adv-x="469" 
d="M197 695h113l-57 -136h-88zM26 678h119v-102h-119v102zM325 678h119v-102h-119v102z" />
    <glyph glyph-name="brevecombcy" 
d="M-216.5 594q-30.5 29 -30.5 81h72q0 -21 10.5 -34t29.5 -13q20 0 30.5 13t10.5 34h71q0 -52 -30 -81t-82 -29q-51 0 -81.5 29z" />
    </font>
</defs>
</svg>
